<?xml version="1.0" encoding="UTF-8" standalone="no"?>
<!-- Created with Inkscape (http://www.inkscape.org/) -->

<svg
   xmlns:ns0="http://www.iki.fi/pav/software/textext/"
   xmlns:dc="http://purl.org/dc/elements/1.1/"
   xmlns:cc="http://creativecommons.org/ns#"
   xmlns:rdf="http://www.w3.org/1999/02/22-rdf-syntax-ns#"
   xmlns:svg="http://www.w3.org/2000/svg"
   xmlns="http://www.w3.org/2000/svg"
   xmlns:sodipodi="http://sodipodi.sourceforge.net/DTD/sodipodi-0.dtd"
   xmlns:inkscape="http://www.inkscape.org/namespaces/inkscape"
   width="626.80109"
   height="160.28807"
   id="svg2"
   version="1.1"
   inkscape:version="0.48.4 r9939"
   sodipodi:docname="traceroute.svg"
   inkscape:export-filename="G:\misc\my-thesis\traceroute.png"
   inkscape:export-xdpi="120.08141"
   inkscape:export-ydpi="120.08141">
  <sodipodi:namedview
     id="base"
     pagecolor="#ffffff"
     bordercolor="#666666"
     borderopacity="1.0"
     inkscape:pageopacity="0.0"
     inkscape:pageshadow="2"
     inkscape:zoom="1.979899"
     inkscape:cx="312.74983"
     inkscape:cy="88.673077"
     inkscape:document-units="px"
     inkscape:current-layer="layer1"
     showgrid="false"
     inkscape:window-width="1920"
     inkscape:window-height="1061"
     inkscape:window-x="-4"
     inkscape:window-y="-4"
     inkscape:window-maximized="1"
     fit-margin-top="0"
     fit-margin-left="0"
     fit-margin-right="0"
     fit-margin-bottom="0" />
  <defs
     id="defs4">
    <marker
       style="overflow:visible"
       id="Arrow1Mend"
       refX="0"
       refY="0"
       orient="auto"
       inkscape:stockid="Arrow1Mend">
      <path
         inkscape:connector-curvature="0"
         transform="matrix(-0.4,0,0,-0.4,-4,0)"
         style="fill-rule:evenodd;stroke:#000000;stroke-width:1pt"
         d="M 0,0 5,-5 -12.5,0 5,5 0,0 z"
         id="path3977" />
    </marker>
  </defs>
  <metadata
     id="metadata7">
    <rdf:RDF>
      <cc:Work
         rdf:about="">
        <dc:format>image/svg+xml</dc:format>
        <dc:type
           rdf:resource="http://purl.org/dc/dcmitype/StillImage" />
        <dc:title></dc:title>
      </cc:Work>
    </rdf:RDF>
  </metadata>
  <g
     transform="translate(-67.357147,-207.57593)"
     inkscape:label="Layer 1"
     inkscape:groupmode="layer"
     id="layer1">
    <g
       transform="translate(3.8146973e-6,-38.170248)"
       id="g3177">
      <path
         sodipodi:type="arc"
         style="fill:none;stroke:#000000;stroke-width:1;stroke-miterlimit:4;stroke-dasharray:none;stroke-dashoffset:0"
         id="path3001"
         sodipodi:cx="95"
         sodipodi:cy="327.36218"
         sodipodi:rx="27.142857"
         sodipodi:ry="27.142857"
         d="m 122.14286,327.36218 c 0,14.99059 -12.15227,27.14286 -27.14286,27.14286 -14.990586,0 -27.142857,-12.15227 -27.142857,-27.14286 0,-14.99058 12.152271,-27.14285 27.142857,-27.14285 14.99059,0 27.14286,12.15227 27.14286,27.14285 z" />
      <g
         style="font-style:normal;font-variant:normal;font-weight:normal;font-stretch:normal;letter-spacing:normal;word-spacing:normal;text-anchor:start;fill:none;stroke:#000000;stroke-linecap:butt;stroke-linejoin:miter;stroke-miterlimit:10.43299961;stroke-opacity:1;stroke-dasharray:none;stroke-dashoffset:0"
         id="content"
         transform="matrix(2.2698682,0,0,-2.2698682,-422.08731,1938.9902)"
         xml:space="preserve"
         stroke-miterlimit="10.433"
         font-style="normal"
         font-variant="normal"
         font-weight="normal"
         font-stretch="normal"
         font-size-adjust="none"
         letter-spacing="normal"
         word-spacing="normal"
         ns0:text="$\\overline{m}$"
         ns0:preamble="">
<line
   style="stroke-width:0.398"
   x1="223.42999"
   y1="712.81"
   x2="232.17999"
   y2="712.81"
   id="line3010" />
<path
   style="fill:#000000;stroke-width:0"
   inkscape:connector-curvature="0"
   d="m 224.31,707.71 0,-0.01 -0.01,-0.02 0,-0.01 0,-0.02 -0.01,-0.03 -0.01,-0.03 0,-0.04 -0.01,-0.03 -0.01,-0.03 -0.01,-0.03 0,-0.02 0,-0.01 -0.01,-0.02 0,-0.01 0,-0.01 -0.01,-0.02 0,-0.01 0,-0.01 0,-0.01 0,-0.01 -0.01,-0.01 0,-0.01 0,-0.01 0,-0.01 0,0 0,-0.01 c 0,-0.18 0.14,-0.27 0.29,-0.27 0.12,0 0.3,0.08 0.37,0.28 0.01,0.02 0.13,0.49 0.19,0.74 l 0.22,0.9 c 0.06,0.22 0.11,0.43 0.17,0.66 0.03,0.17 0.11,0.46 0.12,0.5 0.15,0.31 0.68,1.22 1.63,1.22 0.45,0 0.54,-0.37 0.54,-0.7 0,-0.25 -0.07,-0.53 -0.15,-0.83 l -0.28,-1.15 -0.2,-0.76 c -0.04,-0.2 -0.13,-0.54 -0.13,-0.59 0,-0.18 0.14,-0.27 0.29,-0.27 0.31,0 0.37,0.25 0.45,0.57 0.14,0.56 0.5,2.01 0.59,2.4 0.03,0.13 0.56,1.33 1.65,1.33 0.43,0 0.54,-0.34 0.54,-0.7 0,-0.57 -0.42,-1.7 -0.62,-2.23 -0.09,-0.24 -0.13,-0.35 -0.13,-0.55 0,-0.47 0.35,-0.82 0.82,-0.82 0.93,0 1.3,1.46 1.3,1.54 0,0.1 -0.09,0.1 -0.12,0.1 -0.1,0 -0.1,-0.03 -0.15,-0.18 -0.15,-0.53 -0.47,-1.24 -1.01,-1.24 -0.17,0 -0.24,0.1 -0.24,0.33 0,0.25 0.09,0.49 0.18,0.71 0.19,0.52 0.6,1.62 0.6,2.19 0,0.65 -0.4,1.07 -1.14,1.07 -0.75,0 -1.26,-0.44 -1.63,-0.97 -0.01,0.13 -0.04,0.47 -0.32,0.71 -0.24,0.21 -0.56,0.26 -0.81,0.26 -0.9,0 -1.39,-0.64 -1.56,-0.87 -0.05,0.57 -0.46,0.87 -0.91,0.87 -0.46,0 -0.65,-0.39 -0.74,-0.57 -0.18,-0.35 -0.31,-0.94 -0.31,-0.97 0,-0.1 0.1,-0.1 0.12,-0.1 0.1,0 0.11,0.01 0.17,0.23 0.17,0.71 0.37,1.19 0.73,1.19 0.16,0 0.31,-0.08 0.31,-0.46 0,-0.21 -0.03,-0.32 -0.16,-0.84 z"
   id="path3012" />
</g>    </g>
    <g
       transform="translate(199.31983,115.15739)"
       id="g3099">
      <path
         sodipodi:type="arc"
         style="fill:none;stroke:#000000;stroke-width:1;stroke-miterlimit:4;stroke-dasharray:none;stroke-dashoffset:0"
         id="path3001-1"
         sodipodi:cx="95"
         sodipodi:cy="327.36218"
         sodipodi:rx="27.142857"
         sodipodi:ry="27.142857"
         d="m 122.14286,327.36218 c 0,14.99059 -12.15227,27.14286 -27.14286,27.14286 -14.990586,0 -27.142857,-12.15227 -27.142857,-27.14286 0,-14.99058 12.152271,-27.14285 27.142857,-27.14285 14.99059,0 27.14286,12.15227 27.14286,27.14285 z"
         transform="translate(372.19555,-153.32764)" />
      <line
         style="font-style:normal;font-variant:normal;font-weight:normal;font-stretch:normal;letter-spacing:normal;word-spacing:normal;text-anchor:start;fill:none;stroke:#000000;stroke-width:1.03908861;stroke-linecap:butt;stroke-linejoin:miter;stroke-miterlimit:10.43299961;stroke-opacity:1;stroke-dasharray:none;stroke-dashoffset:0"
         x1="462.49615"
         y1="164.32117"
         x2="471.89496"
         y2="164.32117"
         id="line3051" />
      <path
         style="font-style:normal;font-variant:normal;font-weight:normal;font-stretch:normal;letter-spacing:normal;word-spacing:normal;text-anchor:start;fill:#000000;stroke:#000000;stroke-width:0;stroke-linecap:butt;stroke-linejoin:miter;stroke-miterlimit:10.43299961;stroke-opacity:1;stroke-dasharray:none;stroke-dashoffset:0"
         inkscape:connector-curvature="0"
         d="m 467.87436,173.56338 h 2.42802 c 0.52216,0 0.78324,0 0.78324,-0.52216 0,-0.28718 -0.26108,-0.28718 -0.73102,-0.28718 h -2.29748 c 0.93988,-3.6812 1.07041,-4.20335 1.07041,-4.36 0,-0.44383 -0.31329,-0.70491 -0.75712,-0.70491 -0.0783,0 -0.78323,0.0261 -1.0182,0.93988 l -1.01821,4.12503 h -2.45412 c -0.52216,0 -0.78324,0 -0.78324,0.49604 0,0.3133 0.20887,0.3133 0.73102,0.3133 h 2.29748 c -1.87976,7.38849 -1.98419,7.83232 -1.98419,8.30226 0,1.40982 0.9921,2.40192 2.40192,2.40192 2.63688,0 4.12502,-3.81174 4.12502,-4.0206 0,-0.26108 -0.20886,-0.26108 -0.31329,-0.26108 -0.23497,0 -0.26108,0.0783 -0.39162,0.36551 -1.12263,2.71521 -2.48023,3.34179 -3.3679,3.34179 -0.54826,0 -0.80934,-0.3394 -0.80934,-1.20095 0,-0.62659 0.0522,-0.80934 0.15665,-1.25317 z"
         id="path3053" />
    </g>
    <path
       d="m 122.14286,327.36218 c 0,14.99059 -12.15227,27.14286 -27.14286,27.14286 -14.990586,0 -27.142857,-12.15227 -27.142857,-27.14286 0,-14.99058 12.152271,-27.14285 27.142857,-27.14285 14.99059,0 27.14286,12.15227 27.14286,27.14285 z"
       sodipodi:ry="27.142857"
       sodipodi:rx="27.142857"
       sodipodi:cy="327.36218"
       sodipodi:cx="95"
       id="path3001-2"
       style="fill:none;stroke:#000000;stroke-width:1;stroke-miterlimit:4;stroke-dasharray:none;stroke-dashoffset:0"
       sodipodi:type="arc"
       transform="translate(114.30308,-38.170248)" />
    <path
       d="m 122.14286,327.36218 c 0,14.99059 -12.15227,27.14286 -27.14286,27.14286 -14.990586,0 -27.142857,-12.15227 -27.142857,-27.14286 0,-14.99058 12.152271,-27.14285 27.142857,-27.14285 14.99059,0 27.14286,12.15227 27.14286,27.14285 z"
       sodipodi:ry="27.142857"
       sodipodi:rx="27.142857"
       sodipodi:cy="327.36218"
       sodipodi:cx="95"
       id="path3001-4"
       style="fill:none;stroke:#000000;stroke-width:1;stroke-miterlimit:4;stroke-dasharray:none;stroke-dashoffset:0"
       sodipodi:type="arc"
       transform="translate(228.60617,-38.170248)" />
    <path
       d="m 122.14286,327.36218 c 0,14.99059 -12.15227,27.14286 -27.14286,27.14286 -14.990586,0 -27.142857,-12.15227 -27.142857,-27.14286 0,-14.99058 12.152271,-27.14285 27.142857,-27.14285 14.99059,0 27.14286,12.15227 27.14286,27.14285 z"
       sodipodi:ry="27.142857"
       sodipodi:rx="27.142857"
       sodipodi:cy="327.36218"
       sodipodi:cx="95"
       id="path3001-5"
       style="fill:none;stroke:#000000;stroke-width:1;stroke-miterlimit:4;stroke-dasharray:none;stroke-dashoffset:0"
       sodipodi:type="arc"
       transform="translate(457.21231,-38.170248)" />
    <path
       style="font-size:medium;font-style:normal;font-variant:normal;font-weight:normal;font-stretch:normal;text-indent:0;text-align:start;text-decoration:none;line-height:normal;letter-spacing:normal;word-spacing:normal;text-transform:none;direction:ltr;block-progression:tb;writing-mode:lr-tb;text-anchor:start;baseline-shift:baseline;color:#000000;fill:#000000;fill-opacity:1;stroke:none;stroke-width:1px;marker:none;visibility:visible;display:inline;overflow:visible;enable-background:accumulate;font-family:Sans;-inkscape-font-specification:Sans"
       d="m 156.28125,261.00446 c -12.15613,-0.65857 -27.17095,0.7279 -44.09375,6.8125 l 0.34375,0.9375 c 44.7761,-16.09927 75.875,0.96875 75.875,0.96875 l 0.46875,-0.875 c 0,0 -12.33354,-6.74613 -32.59375,-7.84375 z"
       id="path5092"
       inkscape:connector-curvature="0" />
    <path
       style="fill-rule:evenodd;stroke:#000000;stroke-width:0.4pt"
       d="m 184.96737,267.60659 -2.64831,0.9933 7.20026,1.0754 -5.54533,-4.71695 0.99338,2.64829 z"
       id="path5284"
       inkscape:connector-curvature="0" />
    <path
       style="fill-rule:evenodd;stroke:#000000;stroke-width:0.4pt"
       d="m 305.67523,262.24127 -2.64831,0.9933 7.20026,1.0754 -5.54533,-4.71695 0.99338,2.64829 z"
       id="path5284-6"
       inkscape:connector-curvature="0" />
    <path
       inkscape:connector-curvature="0"
       id="path5309"
       d="m 108.08632,265.32708 c 105.56094,-50.00255 197.48483,-3.03046 197.48483,-3.03046"
       style="fill:none;stroke:#000000;stroke-width:1px;stroke-linecap:butt;stroke-linejoin:miter;stroke-opacity:1" />
    <path
       style="fill-rule:evenodd;stroke:#000000;stroke-width:0.4pt"
       d="m 526.23477,268.51789 -2.57872,1.16213 7.25469,0.60849 -5.83817,-4.34926 1.1622,2.57868 z"
       id="path5284-6-8"
       inkscape:connector-curvature="0" />
    <path
       inkscape:connector-curvature="0"
       id="path5333"
       d="m 100.62501,262.69701 c 197.14285,-78.57143 429.28571,7.14285 429.28571,7.14285"
       style="fill:none;stroke:#000000;stroke-width:1px;stroke-linecap:butt;stroke-linejoin:miter;stroke-opacity:1" />
    <path
       style="font-size:medium;font-style:normal;font-variant:normal;font-weight:normal;font-stretch:normal;text-indent:0;text-align:start;text-decoration:none;line-height:normal;letter-spacing:normal;word-spacing:normal;text-transform:none;direction:ltr;block-progression:tb;writing-mode:lr-tb;text-anchor:start;baseline-shift:baseline;color:#000000;fill:#000000;fill-opacity:1;stroke:none;stroke-width:1px;marker:none;visibility:visible;display:inline;overflow:visible;enable-background:accumulate;font-family:Sans;-inkscape-font-specification:Sans"
       d="m 147.6504,317.39903 c 12.15613,0.65857 27.17095,-0.7279 44.09375,-6.8125 l -0.34375,-0.9375 c -44.7761,16.09927 -75.875,-0.96875 -75.875,-0.96875 l -0.46875,0.875 c 0,0 12.33354,6.74613 32.59375,7.84375 z"
       id="path5092-5"
       inkscape:connector-curvature="0" />
    <path
       style="fill-rule:evenodd;stroke:#000000;stroke-width:0.4pt"
       d="m 118.96428,310.7969 2.64831,-0.9933 -7.20026,-1.0754 5.54533,4.71695 -0.99338,-2.64829 z"
       id="path5284-7"
       inkscape:connector-curvature="0" />
    <path
       style="fill-rule:evenodd;stroke:#000000;stroke-width:0.4pt"
       d="m 112.39881,316.16222 2.64831,-0.9933 -7.20026,-1.0754 5.54533,4.71695 -0.99338,-2.64829 z"
       id="path5284-6-6"
       inkscape:connector-curvature="0" />
    <path
       inkscape:connector-curvature="0"
       id="path5309-1"
       d="m 309.98772,313.07641 c -105.56094,50.00255 -197.48483,3.03046 -197.48483,3.03046"
       style="fill:none;stroke:#000000;stroke-width:1px;stroke-linecap:butt;stroke-linejoin:miter;stroke-opacity:1" />
    <path
       inkscape:connector-curvature="0"
       id="path5396"
       d="M 534.48799,309.98935 C 231.44223,423.63151 99.617323,317.06042 99.617323,317.06042"
       style="fill:none;stroke:#000000;stroke-width:1px;stroke-linecap:butt;stroke-linejoin:miter;stroke-opacity:1" />
    <path
       style="fill-rule:evenodd;stroke:#000000;stroke-width:0.4pt"
       d="m 102.40537,318.8902 2.76075,-0.61505 -6.980509,-2.06701 4.834899,5.44279 -0.61515,-2.76077 z"
       id="path5284-6-6-2"
       inkscape:connector-curvature="0" />
    <g
       ns0:preamble=""
       ns0:text="$\\ldots$"
       word-spacing="normal"
       letter-spacing="normal"
       font-size-adjust="none"
       font-stretch="normal"
       font-weight="normal"
       font-variant="normal"
       font-style="normal"
       stroke-miterlimit="10.433"
       xml:space="preserve"
       transform="matrix(3.2884532,0,0,-3.2884532,-315.95221,2616.2658)"
       id="g5450"
       style="font-style:normal;font-variant:normal;font-weight:normal;font-stretch:normal;letter-spacing:normal;word-spacing:normal;text-anchor:start;fill:none;stroke:#000000;stroke-linecap:butt;stroke-linejoin:miter;stroke-miterlimit:10.43299961;stroke-opacity:1;stroke-dasharray:none;stroke-dashoffset:0">
<path
   id="path5452"
   d="m 225.35,707.65 -0.01,0.03 0,0.02 0,0.03 -0.01,0.03 0,0.02 -0.01,0.03 -0.01,0.02 -0.01,0.03 -0.01,0.02 -0.01,0.02 -0.01,0.02 -0.02,0.02 -0.01,0.03 -0.02,0.02 -0.01,0.01 -0.02,0.02 -0.02,0.02 -0.02,0.02 -0.02,0.01 -0.02,0.02 -0.02,0.01 -0.02,0.01 -0.03,0.02 -0.02,0.01 -0.02,0.01 -0.03,0 -0.02,0.01 -0.03,0.01 -0.02,0 -0.03,0.01 -0.03,0 -0.02,0 c -0.29,0 -0.53,-0.24 -0.53,-0.53 0,-0.29 0.24,-0.53 0.53,-0.53 0.29,0 0.53,0.24 0.53,0.53 z"
   inkscape:connector-curvature="0"
   style="fill:#000000;stroke-width:0" />
<path
   id="path5454"
   d="m 229.78,707.65 0,0.03 0,0.02 -0.01,0.03 0,0.03 -0.01,0.02 -0.01,0.03 0,0.02 -0.01,0.03 -0.01,0.02 -0.02,0.02 -0.01,0.02 -0.01,0.02 -0.02,0.03 -0.01,0.02 -0.02,0.01 -0.02,0.02 -0.02,0.02 -0.02,0.02 -0.02,0.01 -0.02,0.02 -0.02,0.01 -0.02,0.01 -0.02,0.02 -0.03,0.01 -0.02,0.01 -0.02,0 -0.03,0.01 -0.02,0.01 -0.03,0 -0.03,0.01 -0.02,0 -0.03,0 c -0.29,0 -0.53,-0.24 -0.53,-0.53 0,-0.29 0.24,-0.53 0.53,-0.53 0.29,0 0.53,0.24 0.53,0.53 z"
   inkscape:connector-curvature="0"
   style="fill:#000000;stroke-width:0" />
<path
   id="path5456"
   d="m 234.2,707.65 -0.01,0.03 0,0.02 0,0.03 -0.01,0.03 0,0.02 -0.01,0.03 -0.01,0.02 -0.01,0.03 -0.01,0.02 -0.01,0.02 -0.01,0.02 -0.02,0.02 -0.01,0.03 -0.02,0.02 -0.01,0.01 -0.02,0.02 -0.02,0.02 -0.02,0.02 -0.02,0.01 -0.02,0.02 -0.02,0.01 -0.02,0.01 -0.03,0.02 -0.02,0.01 -0.02,0.01 -0.03,0 -0.02,0.01 -0.03,0.01 -0.02,0 -0.03,0.01 -0.03,0 -0.02,0 c -0.29,0 -0.53,-0.24 -0.53,-0.53 0,-0.29 0.24,-0.53 0.53,-0.53 0.29,0 0.53,0.24 0.53,0.53 z"
   inkscape:connector-curvature="0"
   style="fill:#000000;stroke-width:0" />
</g>    <g
       ns0:preamble=""
       ns0:text="$\\overline{r_1}$"
       word-spacing="normal"
       letter-spacing="normal"
       font-size-adjust="none"
       font-stretch="normal"
       font-weight="normal"
       font-variant="normal"
       font-style="normal"
       stroke-miterlimit="10.433"
       xml:space="preserve"
       transform="matrix(2,0,0,-2,-246.52691,1707.8309)"
       id="g3103"
       style="font-style:normal;font-variant:normal;font-weight:normal;font-stretch:normal;letter-spacing:normal;word-spacing:normal;text-anchor:start;fill:none;stroke:#000000;stroke-linecap:butt;stroke-linejoin:miter;stroke-miterlimit:10.43299961;stroke-opacity:1;stroke-dasharray:none;stroke-dashoffset:0">
<line
   id="line3105"
   y2="712.81"
   x2="232.39999"
   y1="712.81"
   x1="223.42999"
   style="stroke-width:0.398" />
<path
   id="path3107"
   d="m 224.31,707.71 0,-0.01 -0.01,-0.02 0,-0.01 0,-0.02 -0.01,-0.03 -0.01,-0.03 0,-0.04 -0.01,-0.03 -0.01,-0.03 -0.01,-0.03 0,-0.02 0,-0.01 -0.01,-0.02 0,-0.01 0,-0.01 -0.01,-0.02 0,-0.01 0,-0.01 0,-0.01 0,-0.01 -0.01,-0.01 0,-0.01 0,-0.01 0,-0.01 0,0 0,-0.01 c 0,-0.18 0.14,-0.27 0.29,-0.27 0.12,0 0.3,0.08 0.37,0.28 0.02,0.04 0.36,1.4 0.4,1.58 0.07,0.33 0.26,1.02 0.31,1.29 0.04,0.13 0.32,0.6 0.56,0.82 0.08,0.07 0.37,0.33 0.8,0.33 0.26,0 0.41,-0.12 0.42,-0.12 -0.3,-0.05 -0.52,-0.29 -0.52,-0.55 0,-0.16 0.11,-0.35 0.38,-0.35 0.27,0 0.55,0.23 0.55,0.59 0,0.35 -0.32,0.65 -0.83,0.65 -0.65,0 -1.09,-0.49 -1.28,-0.77 -0.08,0.45 -0.43,0.77 -0.9,0.77 -0.46,0 -0.65,-0.39 -0.74,-0.57 -0.18,-0.34 -0.31,-0.94 -0.31,-0.97 0,-0.1 0.1,-0.1 0.12,-0.1 0.1,0 0.11,0.01 0.17,0.23 0.17,0.71 0.37,1.19 0.73,1.19 0.17,0 0.31,-0.08 0.31,-0.46 0,-0.21 -0.03,-0.32 -0.16,-0.84 z"
   inkscape:connector-curvature="0"
   style="fill:#000000;stroke-width:0" />
<path
   id="path3109"
   d="m 230.26,710.07 0,0 0,0.01 0,0.01 0,0.01 0,0.01 0,0 0,0.01 0,0.01 0,0 0,0.01 0,0.01 0,0 0,0.01 0,0 0,0.01 0,0.01 -0.01,0 0,0.01 0,0 0,0.01 0,0.01 -0.01,0.01 0,0 -0.01,0.01 0,0 -0.01,0.01 0,0 -0.01,0.01 -0.01,0 0,0 -0.01,0 -0.01,0.01 -0.01,0 0,0 -0.01,0 0,0 -0.01,0 -0.01,0 0,0 -0.01,0 -0.01,0 0,0 -0.01,0 -0.01,0 -0.01,0 0,0 -0.01,0 -0.01,0 -0.01,0 -0.01,0 c -0.44,-0.44 -1.08,-0.45 -1.37,-0.45 v -0.25 c 0.17,0 0.63,0 1.02,0.2 v -3.56 c 0,-0.23 0,-0.32 -0.7,-0.32 h -0.27 v -0.25 c 1.25,0 0.13,0.01 0.99,0.03 0.26,0 0.47,0 1.35,-0.02 l 0.15,0.24 h -0.26 c -0.7,0 -0.7,0.09 -0.7,0.32 z"
   inkscape:connector-curvature="0"
   style="fill:#000000;stroke-width:0" />
</g>    <g
       style="font-style:normal;font-variant:normal;font-weight:normal;font-stretch:normal;letter-spacing:normal;word-spacing:normal;text-anchor:start;fill:none;stroke:#000000;stroke-linecap:butt;stroke-linejoin:miter;stroke-miterlimit:10.43299961;stroke-opacity:1;stroke-dasharray:none;stroke-dashoffset:0"
       id="g3299"
       transform="matrix(2,0,0,-2,-132.22382,1707.8309)"
       xml:space="preserve"
       stroke-miterlimit="10.433"
       font-style="normal"
       font-variant="normal"
       font-weight="normal"
       font-stretch="normal"
       font-size-adjust="none"
       letter-spacing="normal"
       word-spacing="normal"
       ns0:text="$\\overline{r_2}$"
       ns0:preamble="">
<line
   style="stroke-width:0.398"
   x1="223.42999"
   y1="712.81"
   x2="232.39999"
   y2="712.81"
   id="line3301" />
<path
   style="fill:#000000;stroke-width:0"
   inkscape:connector-curvature="0"
   d="m 224.31,707.71 0,-0.01 -0.01,-0.02 0,-0.01 0,-0.02 -0.01,-0.03 -0.01,-0.03 0,-0.04 -0.01,-0.03 -0.01,-0.03 -0.01,-0.03 0,-0.02 0,-0.01 -0.01,-0.02 0,-0.01 0,-0.01 -0.01,-0.02 0,-0.01 0,-0.01 0,-0.01 0,-0.01 -0.01,-0.01 0,-0.01 0,-0.01 0,-0.01 0,0 0,-0.01 c 0,-0.18 0.14,-0.27 0.29,-0.27 0.12,0 0.3,0.08 0.37,0.28 0.02,0.04 0.36,1.4 0.4,1.58 0.07,0.33 0.26,1.02 0.31,1.29 0.04,0.13 0.32,0.6 0.56,0.82 0.08,0.07 0.37,0.33 0.8,0.33 0.26,0 0.41,-0.12 0.42,-0.12 -0.3,-0.05 -0.52,-0.29 -0.52,-0.55 0,-0.16 0.11,-0.35 0.38,-0.35 0.27,0 0.55,0.23 0.55,0.59 0,0.35 -0.32,0.65 -0.83,0.65 -0.65,0 -1.09,-0.49 -1.28,-0.77 -0.08,0.45 -0.43,0.77 -0.9,0.77 -0.46,0 -0.65,-0.39 -0.74,-0.57 -0.18,-0.34 -0.31,-0.94 -0.31,-0.97 0,-0.1 0.1,-0.1 0.12,-0.1 0.1,0 0.11,0.01 0.17,0.23 0.17,0.71 0.37,1.19 0.73,1.19 0.17,0 0.31,-0.08 0.31,-0.46 0,-0.21 -0.03,-0.32 -0.16,-0.84 z"
   id="path3303" />
<path
   style="fill:#000000;stroke-width:0"
   inkscape:connector-curvature="0"
   d="m 231.45,706.9 h -0.24 c -0.02,-0.15 -0.09,-0.57 -0.18,-0.63 -0.06,-0.05 -0.59,-0.05 -0.69,-0.05 h -1.29 c 0.74,0.65 0.98,0.85 1.4,1.17 0.52,0.42 1,0.85 1,1.51 0,0.84 -0.74,1.36 -1.63,1.36 -0.87,0 -1.46,-0.61 -1.46,-1.25 0,-0.35 0.3,-0.39 0.37,-0.39 0.17,0 0.37,0.12 0.37,0.37 0,0.13 -0.05,0.37 -0.41,0.37 0.22,0.5 0.69,0.65 1.02,0.65 0.7,0 1.06,-0.54 1.06,-1.11 0,-0.61 -0.43,-1.09 -0.65,-1.34 l -1.69,-1.66 c -0.07,-0.06 -0.07,-0.07 -0.07,-0.27 h 2.88 z"
   id="path3305" />
</g>    <g
       ns0:preamble=""
       ns0:text="$\\overline{r_{d-1}}$"
       word-spacing="normal"
       letter-spacing="normal"
       font-size-adjust="none"
       font-stretch="normal"
       font-weight="normal"
       font-variant="normal"
       font-style="normal"
       stroke-miterlimit="10.433"
       xml:space="preserve"
       transform="matrix(2,0,0,-2,86.012313,1707.7609)"
       id="g3503"
       style="font-style:normal;font-variant:normal;font-weight:normal;font-stretch:normal;letter-spacing:normal;word-spacing:normal;text-anchor:start;fill:none;stroke:#000000;stroke-linecap:butt;stroke-linejoin:miter;stroke-miterlimit:10.43299961;stroke-opacity:1;stroke-dasharray:none;stroke-dashoffset:0">
<line
   id="line3505"
   y2="712.81"
   x2="242.77"
   y1="712.81"
   x1="223.42999"
   style="stroke-width:0.398" />
<path
   id="path3507"
   d="m 224.31,707.71 0,-0.01 -0.01,-0.02 0,-0.01 0,-0.02 -0.01,-0.03 -0.01,-0.03 0,-0.04 -0.01,-0.03 -0.01,-0.03 -0.01,-0.03 0,-0.02 0,-0.01 -0.01,-0.02 0,-0.01 0,-0.01 -0.01,-0.02 0,-0.01 0,-0.01 0,-0.01 0,-0.01 -0.01,-0.01 0,-0.01 0,-0.01 0,-0.01 0,0 0,-0.01 c 0,-0.18 0.14,-0.27 0.29,-0.27 0.12,0 0.3,0.08 0.37,0.28 0.02,0.04 0.36,1.4 0.4,1.58 0.07,0.33 0.26,1.02 0.31,1.29 0.04,0.13 0.32,0.6 0.56,0.82 0.08,0.07 0.37,0.33 0.8,0.33 0.26,0 0.41,-0.12 0.42,-0.12 -0.3,-0.05 -0.52,-0.29 -0.52,-0.55 0,-0.16 0.11,-0.35 0.38,-0.35 0.27,0 0.55,0.23 0.55,0.59 0,0.35 -0.32,0.65 -0.83,0.65 -0.65,0 -1.09,-0.49 -1.28,-0.77 -0.08,0.45 -0.43,0.77 -0.9,0.77 -0.46,0 -0.65,-0.39 -0.74,-0.57 -0.18,-0.34 -0.31,-0.94 -0.31,-0.97 0,-0.1 0.1,-0.1 0.12,-0.1 0.1,0 0.11,0.01 0.17,0.23 0.17,0.71 0.37,1.19 0.73,1.19 0.17,0 0.31,-0.08 0.31,-0.46 0,-0.21 -0.03,-0.32 -0.16,-0.84 z"
   inkscape:connector-curvature="0"
   style="fill:#000000;stroke-width:0" />
<path
   id="path3509"
   d="m 231.91,710.26 0,0 0,0 0,0 0,0 0,0.01 0,0 0,0 0,0 0,0 0,0.01 0,0 0,0 0.01,0.01 0,0 0,0.01 0,0 0,0.01 0,0 0,0.01 0.01,0.01 0,0 0,0.01 0,0 0,0.01 0,0 0,0 0,0.01 0,0 0,0 0,0 0,0 0,0.01 0,0 0,0 0,0 0,0 0,0 0,0 0,0 0,0 c 0,0.04 -0.02,0.1 -0.11,0.1 -0.14,0 -0.72,-0.06 -0.89,-0.07 -0.05,-0.01 -0.15,-0.01 -0.15,-0.16 0,-0.1 0.1,-0.1 0.18,-0.1 0.33,0 0.33,-0.05 0.33,-0.1 0,-0.05 -0.01,-0.09 -0.03,-0.16 l -0.39,-1.59 c -0.15,0.23 -0.39,0.42 -0.72,0.42 v -0.2 c 0.49,0 0.62,-0.53 0.62,-0.61 0,-0.02 -0.01,-0.07 -0.02,-0.09 l -0.33,-1.31 c -0.05,-0.19 -0.2,-0.33 -0.35,-0.47 -0.07,-0.05 -0.35,-0.27 -0.65,-0.27 -0.25,0 -0.51,0.18 -0.51,0.67 0,0.37 0.21,1.14 0.37,1.42 0.32,0.56 0.67,0.66 0.87,0.66 v 0.2 c -0.89,0 -1.8,-0.99 -1.8,-1.99 0,-0.68 0.45,-1.16 1.05,-1.16 0.38,0 0.72,0.22 0.99,0.49 0.14,-0.42 0.54,-0.49 0.72,-0.49 0.25,0 0.43,0.15 0.55,0.37 0.16,0.27 0.25,0.67 0.25,0.7 0,0.09 -0.09,0.09 -0.12,0.09 -0.09,0 -0.1,-0.03 -0.15,-0.22 -0.08,-0.33 -0.21,-0.74 -0.51,-0.74 -0.18,0 -0.23,0.15 -0.23,0.34 0,0.13 0.02,0.19 0.04,0.28 z"
   inkscape:connector-curvature="0"
   style="fill:#000000;stroke-width:0" />
<path
   id="path3511"
   d="m 237.26,707.21 0.01,0 0.01,0 0.01,0 0.02,0 0.02,0 0.01,0 0.01,0 0.01,0 0.02,0 0.01,0 0.01,0 0.01,0.01 0.01,0 0.01,0 0.01,0.01 0.01,0 0.01,0.01 0.01,0 0.01,0.01 0.01,0 0.01,0.01 0.01,0.01 0,0 0,0.01 0.01,0 0,0.01 0,0 0,0.01 0.01,0 0,0.01 0,0 0,0.01 0,0 0.01,0.01 0,0.01 0,0 0,0.01 0,0.01 0,0.01 0,0 c 0,0.18 -0.16,0.18 -0.28,0.18 h -4.16 c -0.11,0 -0.27,0 -0.27,-0.17 0,-0.17 0.16,-0.17 0.27,-0.17 z"
   inkscape:connector-curvature="0"
   style="fill:#000000;stroke-width:0" />
<path
   id="path3513"
   d="m 240.63,710.07 0,0 0,0.01 0,0.01 0,0.01 0,0.01 0,0 0,0.01 0,0.01 0,0 0,0.01 0,0.01 0,0 0,0.01 0,0 0,0.01 0,0.01 0,0 0,0.01 -0.01,0 0,0.01 0,0.01 0,0.01 -0.01,0 0,0.01 -0.01,0 0,0.01 -0.01,0 -0.01,0.01 0,0 -0.01,0 -0.01,0 -0.01,0.01 0,0 -0.01,0 -0.01,0 0,0 -0.01,0 0,0 -0.01,0 -0.01,0 0,0 -0.01,0 -0.01,0 0,0 -0.01,0 -0.01,0 -0.01,0 -0.01,0 -0.01,0 0,0 c -0.45,-0.44 -1.09,-0.45 -1.37,-0.45 v -0.25 c 0.17,0 0.62,0 1.01,0.2 v -3.56 c 0,-0.23 0,-0.32 -0.7,-0.32 h -0.26 v -0.25 c 1.24,0 0.12,0.01 0.98,0.03 0.26,0 0.47,0 1.35,-0.02 l 0.16,0.24 h -0.27 c -0.7,0 -0.7,0.09 -0.7,0.32 z"
   inkscape:connector-curvature="0"
   style="fill:#000000;stroke-width:0" />
</g>  </g>
  <g
     style="font-style:normal;font-variant:normal;font-weight:normal;font-stretch:normal;letter-spacing:normal;word-spacing:normal;text-anchor:start;fill:none;stroke:#000000;stroke-linecap:butt;stroke-linejoin:miter;stroke-miterlimit:10.43299961;stroke-opacity:1;stroke-dasharray:none;stroke-dashoffset:0"
     id="g5834"
     transform="matrix(1,0,0,-1,-162.30128,773.24393)"
     xml:space="preserve"
     stroke-miterlimit="10.433"
     font-style="normal"
     font-variant="normal"
     font-weight="normal"
     font-stretch="normal"
     font-size-adjust="none"
     letter-spacing="normal"
     word-spacing="normal"
     ns0:text="TTL = 1"
     ns0:preamble="">
<path
   style="fill:#000000;stroke-width:0"
   inkscape:connector-curvature="0"
   d="m 230.07,713.87 h -6.09 l -0.19,-2.24 h 0.25 c 0.14,1.6 0.29,1.93 1.79,1.93 0.18,0 0.44,0 0.54,-0.02 0.21,-0.04 0.21,-0.15 0.21,-0.38 v -5.25 c 0,-0.34 0,-0.48 -1.04,-0.48 h -0.4 v -0.31 c 1.88,0 0.4,0.03 1.42,0.03 0.46,0 0.92,0 1.94,0 l 0.41,0.28 h -0.4 c -1.04,0 -1.04,0.14 -1.04,0.48 v 5.25 c 0,0.2 0,0.34 0.18,0.38 0.11,0.02 0.37,0.02 0.56,0.02 1.51,0 1.66,-0.33 1.8,-1.93 h 0.25 z"
   id="path5836" />
<path
   style="fill:#000000;stroke-width:0"
   inkscape:connector-curvature="0"
   d="m 237.26,713.87 h -6.09 l -0.19,-2.24 h 0.25 c 0.14,1.6 0.29,1.93 1.8,1.93 0.18,0 0.43,0 0.53,-0.02 0.21,-0.04 0.21,-0.15 0.21,-0.38 v -5.25 c 0,-0.34 0,-0.48 -1.04,-0.48 h -0.4 v -0.31 c 1.88,0 0.41,0.03 1.42,0.03 0.46,0 0.92,0 1.95,0 l 0.4,0.28 h -0.39 c -1.05,0 -1.05,0.14 -1.05,0.48 v 5.25 c 0,0.2 0,0.34 0.18,0.38 0.11,0.02 0.38,0.02 0.57,0.02 1.5,0 1.65,-0.33 1.79,-1.93 h 0.25 z"
   id="path5838" />
<path
   style="fill:#000000;stroke-width:0"
   inkscape:connector-curvature="0"
   d="m 243.62,709.69 h -0.25 c -0.11,-1.01 -0.24,-2.26 -2,-2.26 h -0.82 c -0.46,0 -0.48,0.07 -0.48,0.4 v 5.31 c 0,0.34 0,0.48 0.94,0.48 h 0.33 v 0.31 c -1.67,0 -0.36,-0.03 -1.26,-0.03 -0.41,0 -0.8,0 -1.58,0 l -0.35,-0.28 h 0.24 c 0.77,0 0.79,-0.11 0.79,-0.47 v -5.25 c 0,-0.36 -0.02,-0.47 -0.79,-0.47 h -0.24 v -0.31 h 5.19 z"
   id="path5840" />
<path
   style="fill:#000000;stroke-width:0"
   inkscape:connector-curvature="0"
   d="m 254.21,710.38 0.03,0 0.03,0 0.03,0 0.01,0 0.02,0 0.01,0 0.01,0.01 0.02,0 0.01,0 0.02,0 0.01,0.01 0.01,0 0.01,0.01 0.02,0 0.01,0.01 0.01,0 0.01,0.01 0.01,0.01 0.01,0 0.01,0.01 0.01,0.01 0,0.01 0,0.01 0.01,0 0,0.01 0,0 0.01,0.01 0,0.01 0,0 0,0.01 0,0.01 0,0.01 0.01,0 0,0.01 0,0.01 0,0.01 0,0.01 c 0,0.2 -0.19,0.2 -0.33,0.2 h -5.97 c -0.14,0 -0.33,0 -0.33,-0.2 0,-0.2 0.19,-0.2 0.34,-0.2 z"
   id="path5842" />
<path
   style="fill:#000000;stroke-width:0"
   inkscape:connector-curvature="0"
   d="m 254.22,708.45 0.03,0 0.02,0 0.03,0 0.02,0 0.01,0 0.01,0 0.02,0 0.01,0.01 0.01,0 0.02,0 0.01,0 0.01,0.01 0.02,0 0.01,0.01 0.01,0 0.01,0.01 0.01,0.01 0.01,0 0.01,0.01 0.01,0.01 0,0.01 0.01,0 0,0.01 0,0 0.01,0.01 0,0 0,0.01 0.01,0.01 0,0 0,0.01 0,0.01 0,0.01 0,0 0.01,0.01 0,0.01 0,0.01 0,0.01 0,0.01 c 0,0.2 -0.19,0.2 -0.34,0.2 h -5.95 c -0.15,0 -0.34,0 -0.34,-0.2 0,-0.2 0.19,-0.2 0.33,-0.2 z"
   id="path5844" />
<path
   style="fill:#000000;stroke-width:0"
   inkscape:connector-curvature="0"
   d="m 261.37,713.5 0,0.01 0,0.01 0,0.01 0,0.01 0,0.01 0,0.01 0,0.01 0,0.01 0,0.01 0,0.01 0,0 0,0.01 0,0.01 0,0.01 0,0 0,0.01 0,0.01 0,0 -0.01,0.01 0,0.02 0,0.01 0,0.01 -0.01,0 0,0.01 -0.01,0.01 0,0 -0.01,0.01 -0.01,0 0,0.01 -0.01,0 -0.01,0 0,0.01 -0.01,0 0,0 -0.01,0 -0.01,0 0,0 -0.01,0 0,0 -0.01,0 -0.01,0.01 -0.01,0 0,0 -0.01,0 -0.01,0 -0.01,0 -0.01,0 -0.01,0 -0.01,0 -0.01,0 -0.01,0 -0.01,0 c -0.62,-0.64 -1.49,-0.64 -1.81,-0.64 v -0.31 c 0.2,0 0.79,0 1.3,0.26 v -5.16 c 0,-0.36 -0.03,-0.48 -0.92,-0.48 h -0.32 v -0.31 c 1.61,0 0.35,0.03 1.21,0.03 0.4,0 0.8,0 1.67,0 l 0.35,0.28 h -0.32 c -0.9,0 -0.93,0.11 -0.93,0.48 z"
   id="path5846" />
</g>  <g
     ns0:preamble=""
     ns0:text="TTL = 2"
     word-spacing="normal"
     letter-spacing="normal"
     font-size-adjust="none"
     font-stretch="normal"
     font-weight="normal"
     font-variant="normal"
     font-style="normal"
     stroke-miterlimit="10.433"
     xml:space="preserve"
     transform="matrix(1,0,0,-1,-89.065227,754.5561)"
     id="g5946"
     style="font-style:normal;font-variant:normal;font-weight:normal;font-stretch:normal;letter-spacing:normal;word-spacing:normal;text-anchor:start;fill:none;stroke:#000000;stroke-linecap:butt;stroke-linejoin:miter;stroke-miterlimit:10.43299961;stroke-opacity:1;stroke-dasharray:none;stroke-dashoffset:0">
<path
   id="path5948"
   d="m 230.07,713.87 h -6.09 l -0.19,-2.24 h 0.25 c 0.14,1.6 0.29,1.93 1.79,1.93 0.18,0 0.44,0 0.54,-0.02 0.21,-0.04 0.21,-0.15 0.21,-0.38 v -5.25 c 0,-0.34 0,-0.48 -1.04,-0.48 h -0.4 v -0.31 c 1.88,0 0.4,0.03 1.42,0.03 0.46,0 0.92,0 1.94,0 l 0.41,0.28 h -0.4 c -1.04,0 -1.04,0.14 -1.04,0.48 v 5.25 c 0,0.2 0,0.34 0.18,0.38 0.11,0.02 0.37,0.02 0.56,0.02 1.51,0 1.66,-0.33 1.8,-1.93 h 0.25 z"
   inkscape:connector-curvature="0"
   style="fill:#000000;stroke-width:0" />
<path
   id="path5950"
   d="m 237.26,713.87 h -6.09 l -0.19,-2.24 h 0.25 c 0.14,1.6 0.29,1.93 1.8,1.93 0.18,0 0.43,0 0.53,-0.02 0.21,-0.04 0.21,-0.15 0.21,-0.38 v -5.25 c 0,-0.34 0,-0.48 -1.04,-0.48 h -0.4 v -0.31 c 1.88,0 0.41,0.03 1.42,0.03 0.46,0 0.92,0 1.95,0 l 0.4,0.28 h -0.39 c -1.05,0 -1.05,0.14 -1.05,0.48 v 5.25 c 0,0.2 0,0.34 0.18,0.38 0.11,0.02 0.38,0.02 0.57,0.02 1.5,0 1.65,-0.33 1.79,-1.93 h 0.25 z"
   inkscape:connector-curvature="0"
   style="fill:#000000;stroke-width:0" />
<path
   id="path5952"
   d="m 243.62,709.69 h -0.25 c -0.11,-1.01 -0.24,-2.26 -2,-2.26 h -0.82 c -0.46,0 -0.48,0.07 -0.48,0.4 v 5.31 c 0,0.34 0,0.48 0.94,0.48 h 0.33 v 0.31 c -1.67,0 -0.36,-0.03 -1.26,-0.03 -0.41,0 -0.8,0 -1.58,0 l -0.35,-0.28 h 0.24 c 0.77,0 0.79,-0.11 0.79,-0.47 v -5.25 c 0,-0.36 -0.02,-0.47 -0.79,-0.47 h -0.24 v -0.31 h 5.19 z"
   inkscape:connector-curvature="0"
   style="fill:#000000;stroke-width:0" />
<path
   id="path5954"
   d="m 254.21,710.38 0.03,0 0.03,0 0.03,0 0.01,0 0.02,0 0.01,0 0.01,0.01 0.02,0 0.01,0 0.02,0 0.01,0.01 0.01,0 0.01,0.01 0.02,0 0.01,0.01 0.01,0 0.01,0.01 0.01,0.01 0.01,0 0.01,0.01 0.01,0.01 0,0.01 0,0.01 0.01,0 0,0.01 0,0 0.01,0.01 0,0.01 0,0 0,0.01 0,0.01 0,0.01 0.01,0 0,0.01 0,0.01 0,0.01 0,0.01 c 0,0.2 -0.19,0.2 -0.33,0.2 h -5.97 c -0.14,0 -0.33,0 -0.33,-0.2 0,-0.2 0.19,-0.2 0.34,-0.2 z"
   inkscape:connector-curvature="0"
   style="fill:#000000;stroke-width:0" />
<path
   id="path5956"
   d="m 254.22,708.45 0.03,0 0.02,0 0.03,0 0.02,0 0.01,0 0.01,0 0.02,0 0.01,0.01 0.01,0 0.02,0 0.01,0 0.01,0.01 0.02,0 0.01,0.01 0.01,0 0.01,0.01 0.01,0.01 0.01,0 0.01,0.01 0.01,0.01 0,0.01 0.01,0 0,0.01 0,0 0.01,0.01 0,0 0,0.01 0.01,0.01 0,0 0,0.01 0,0.01 0,0.01 0,0 0.01,0.01 0,0.01 0,0.01 0,0.01 0,0.01 c 0,0.2 -0.19,0.2 -0.34,0.2 h -5.95 c -0.15,0 -0.34,0 -0.34,-0.2 0,-0.2 0.19,-0.2 0.33,-0.2 z"
   inkscape:connector-curvature="0"
   style="fill:#000000;stroke-width:0" />
<path
   id="path5958"
   d="m 259.71,707.89 1.05,1.03 c 1.56,1.37 2.16,1.91 2.16,2.91 0,1.13 -0.9,1.93 -2.12,1.93 -1.12,0 -1.86,-0.92 -1.86,-1.81 0,-0.55 0.5,-0.55 0.53,-0.55 0.17,0 0.52,0.12 0.52,0.52 0,0.26 -0.18,0.52 -0.53,0.52 -0.08,0 -0.1,0 -0.13,-0.01 0.23,0.65 0.77,1.02 1.34,1.02 0.91,0 1.34,-0.81 1.34,-1.62 0,-0.8 -0.5,-1.59 -1.05,-2.21 l -1.91,-2.13 c -0.11,-0.11 -0.11,-0.13 -0.11,-0.37 h 3.7 l 0.28,1.74 h -0.25 c -0.05,-0.3 -0.12,-0.74 -0.22,-0.89 -0.07,-0.08 -0.73,-0.08 -0.95,-0.08 z"
   inkscape:connector-curvature="0"
   style="fill:#000000;stroke-width:0" />
</g>  <g
     style="font-style:normal;font-variant:normal;font-weight:normal;font-stretch:normal;letter-spacing:normal;word-spacing:normal;text-anchor:start;fill:none;stroke:#000000;stroke-linecap:butt;stroke-linejoin:miter;stroke-miterlimit:10.43299961;stroke-opacity:1;stroke-dasharray:none;stroke-dashoffset:0"
     id="g6072"
     transform="matrix(1,0,0,-1,20.536333,742.43427)"
     xml:space="preserve"
     stroke-miterlimit="10.433"
     font-style="normal"
     font-variant="normal"
     font-weight="normal"
     font-stretch="normal"
     font-size-adjust="none"
     letter-spacing="normal"
     word-spacing="normal"
     ns0:text="TTL = d - 1"
     ns0:preamble="">
<path
   style="fill:#000000;stroke-width:0"
   inkscape:connector-curvature="0"
   d="m 230.07,713.87 h -6.09 l -0.19,-2.24 h 0.25 c 0.14,1.6 0.29,1.93 1.79,1.93 0.18,0 0.44,0 0.54,-0.02 0.21,-0.04 0.21,-0.15 0.21,-0.38 v -5.25 c 0,-0.34 0,-0.48 -1.04,-0.48 h -0.4 v -0.31 c 1.88,0 0.4,0.03 1.42,0.03 0.46,0 0.92,0 1.94,0 l 0.41,0.28 h -0.4 c -1.04,0 -1.04,0.14 -1.04,0.48 v 5.25 c 0,0.2 0,0.34 0.18,0.38 0.11,0.02 0.37,0.02 0.56,0.02 1.51,0 1.66,-0.33 1.8,-1.93 h 0.25 z"
   id="path6074" />
<path
   style="fill:#000000;stroke-width:0"
   inkscape:connector-curvature="0"
   d="m 237.26,713.87 h -6.09 l -0.19,-2.24 h 0.25 c 0.14,1.6 0.29,1.93 1.8,1.93 0.18,0 0.43,0 0.53,-0.02 0.21,-0.04 0.21,-0.15 0.21,-0.38 v -5.25 c 0,-0.34 0,-0.48 -1.04,-0.48 h -0.4 v -0.31 c 1.88,0 0.41,0.03 1.42,0.03 0.46,0 0.92,0 1.95,0 l 0.4,0.28 h -0.39 c -1.05,0 -1.05,0.14 -1.05,0.48 v 5.25 c 0,0.2 0,0.34 0.18,0.38 0.11,0.02 0.38,0.02 0.57,0.02 1.5,0 1.65,-0.33 1.79,-1.93 h 0.25 z"
   id="path6076" />
<path
   style="fill:#000000;stroke-width:0"
   inkscape:connector-curvature="0"
   d="m 243.62,709.69 h -0.25 c -0.11,-1.01 -0.24,-2.26 -2,-2.26 h -0.82 c -0.46,0 -0.48,0.07 -0.48,0.4 v 5.31 c 0,0.34 0,0.48 0.94,0.48 h 0.33 v 0.31 c -1.67,0 -0.36,-0.03 -1.26,-0.03 -0.41,0 -0.8,0 -1.58,0 l -0.35,-0.28 h 0.24 c 0.77,0 0.79,-0.11 0.79,-0.47 v -5.25 c 0,-0.36 -0.02,-0.47 -0.79,-0.47 h -0.24 v -0.31 h 5.19 z"
   id="path6078" />
<path
   style="fill:#000000;stroke-width:0"
   inkscape:connector-curvature="0"
   d="m 254.21,710.38 0.03,0 0.03,0 0.03,0 0.01,0 0.02,0 0.01,0 0.01,0.01 0.02,0 0.01,0 0.02,0 0.01,0.01 0.01,0 0.01,0.01 0.02,0 0.01,0.01 0.01,0 0.01,0.01 0.01,0.01 0.01,0 0.01,0.01 0.01,0.01 0,0.01 0,0.01 0.01,0 0,0.01 0,0 0.01,0.01 0,0.01 0,0 0,0.01 0,0.01 0,0.01 0.01,0 0,0.01 0,0.01 0,0.01 0,0.01 c 0,0.2 -0.19,0.2 -0.33,0.2 h -5.97 c -0.14,0 -0.33,0 -0.33,-0.2 0,-0.2 0.19,-0.2 0.34,-0.2 z"
   id="path6080" />
<path
   style="fill:#000000;stroke-width:0"
   inkscape:connector-curvature="0"
   d="m 254.22,708.45 0.03,0 0.02,0 0.03,0 0.02,0 0.01,0 0.01,0 0.02,0 0.01,0.01 0.01,0 0.02,0 0.01,0 0.01,0.01 0.02,0 0.01,0.01 0.01,0 0.01,0.01 0.01,0.01 0.01,0 0.01,0.01 0.01,0.01 0,0.01 0.01,0 0,0.01 0,0 0.01,0.01 0,0 0,0.01 0.01,0.01 0,0 0,0.01 0,0.01 0,0.01 0,0 0.01,0.01 0,0.01 0,0.01 0,0.01 0,0.01 c 0,0.2 -0.19,0.2 -0.34,0.2 h -5.95 c -0.15,0 -0.34,0 -0.34,-0.2 0,-0.2 0.19,-0.2 0.33,-0.2 z"
   id="path6082" />
<path
   style="fill:#000000;stroke-width:0"
   inkscape:connector-curvature="0"
   d="m 262.23,707.67 v -0.66 l 1.46,0.11 v 0.31 c -0.7,0 -0.77,0.07 -0.77,0.56 v 6.05 l -1.44,-0.11 v -0.31 c 0.7,0 0.78,-0.07 0.78,-0.56 v -2.15 c -0.29,0.36 -0.72,0.62 -1.26,0.62 l 0.04,-0.22 c 0.35,0 0.77,-0.15 1.08,-0.6 0.11,-0.17 0.11,-0.19 0.11,-0.37 h 0 v -2.04 c 0,-0.18 0,-0.2 -0.11,-0.37 -0.3,-0.48 -0.75,-0.7 -1.18,-0.7 -0.45,0 -0.8,0.26 -1.04,0.64 -0.26,0.41 -0.29,0.98 -0.29,1.39 0,0.36 0.02,0.96 0.31,1.41 0.21,0.31 0.59,0.64 1.12,0.64 l -0.04,0.22 c -1.17,0 -2.22,-0.98 -2.22,-2.27 0,-1.26 0.98,-2.25 2.11,-2.25 0.64,0 1.09,0.34 1.34,0.66 z"
   id="path6084" />
<polygon
   style="fill:#000000;stroke-width:0"
   points="267.4,708.99 270.04,708.99 270.04,709.56 267.4,709.56 "
   id="polygon6086" />
<path
   style="fill:#000000;stroke-width:0"
   inkscape:connector-curvature="0"
   d="m 276.86,713.5 0,0.01 0,0.01 0,0.01 0,0.01 0,0.01 0,0.01 0,0.01 0,0.01 0,0.01 0,0.01 0,0 0,0.01 0,0.01 0,0.01 0,0 0,0.01 -0.01,0.01 0,0 0,0.01 0,0.02 0,0.01 -0.01,0.01 0,0 0,0.01 -0.01,0.01 -0.01,0 0,0.01 -0.01,0 -0.01,0.01 -0.01,0 0,0 -0.01,0.01 0,0 -0.01,0 0,0 -0.01,0 0,0 -0.01,0 -0.01,0 0,0 -0.01,0.01 -0.01,0 -0.01,0 0,0 -0.01,0 -0.01,0 -0.01,0 -0.01,0 -0.01,0 -0.01,0 -0.01,0 -0.01,0 c -0.62,-0.64 -1.49,-0.64 -1.81,-0.64 v -0.31 c 0.2,0 0.78,0 1.3,0.26 v -5.16 c 0,-0.36 -0.03,-0.48 -0.92,-0.48 h -0.32 v -0.31 c 1.61,0 0.35,0.03 1.21,0.03 0.4,0 0.8,0 1.67,0 l 0.34,0.28 h -0.31 c -0.9,0 -0.93,0.11 -0.93,0.48 z"
   id="path6088" />
</g>  <g
     ns0:preamble=""
     ns0:text="{\\sc ICMP Echo Request}"
     word-spacing="normal"
     letter-spacing="normal"
     font-size-adjust="none"
     font-stretch="normal"
     font-weight="normal"
     font-variant="normal"
     font-style="normal"
     stroke-miterlimit="10.433"
     xml:space="preserve"
     transform="matrix(1,0,0,-1,-133.00686,714.15)"
     id="g6224"
     style="font-style:normal;font-variant:normal;font-weight:normal;font-stretch:normal;letter-spacing:normal;word-spacing:normal;text-anchor:start;fill:none;stroke:#000000;stroke-linecap:butt;stroke-linejoin:miter;stroke-miterlimit:10.43299961;stroke-opacity:1;stroke-dasharray:none;stroke-dashoffset:0">
<path
   id="path6226"
   d="m 225.89,713.15 0,0.03 0,0.03 0,0.03 0.01,0.03 0,0.03 0,0.03 0,0.02 0.01,0.02 0.01,0.03 0,0.02 0.01,0.02 0.01,0.02 0.02,0.01 0.01,0.02 0.02,0.01 0.02,0.02 0.02,0.01 0.02,0.01 0.01,0.01 0.02,0 0.01,0.01 0.02,0 0.01,0.01 0.02,0 0.01,0.01 0.02,0 0.02,0.01 0.02,0 0.02,0 0.02,0.01 0.02,0 0.02,0 0.03,0 0.02,0.01 0.03,0 0.02,0 0.03,0 0.03,0 0.03,0 0.03,0 0.03,0.01 0.03,0 0.03,0 0.04,0 0.03,0 0.04,0 h 0.26 v 0.31 c -1.51,0 -0.35,-0.03 -1.14,-0.03 -0.37,0 -0.76,0 -1.55,0 l -0.35,-0.28 h 0.26 c 0.79,0 0.82,-0.11 0.82,-0.47 v -5.25 c 0,-0.36 -0.03,-0.47 -0.82,-0.47 h -0.26 v -0.31 c 1.52,0 0.35,0.03 1.14,0.03 0.38,0 0.76,0 1.55,0 l 0.35,0.28 h -0.26 c -0.79,0 -0.82,0.11 -0.82,0.47 z"
   inkscape:connector-curvature="0"
   style="fill:#000000;stroke-width:0" />
<path
   id="path6228"
   d="m 233.79,713.26 -0.03,0.03 -0.03,0.03 -0.04,0.04 -0.04,0.03 -0.03,0.04 -0.04,0.04 -0.05,0.03 -0.04,0.04 -0.05,0.04 -0.04,0.03 -0.05,0.04 -0.05,0.04 -0.06,0.03 -0.05,0.04 -0.06,0.04 -0.06,0.03 -0.06,0.03 -0.06,0.03 -0.07,0.04 -0.07,0.02 -0.07,0.03 -0.07,0.03 -0.07,0.02 -0.08,0.03 -0.08,0.02 -0.08,0.01 -0.08,0.02 -0.09,0.01 -0.08,0.01 -0.09,0.01 -0.1,0 -0.09,0.01 c -1.96,0 -3.64,-1.6 -3.64,-3.62 0,-2.03 1.68,-3.63 3.65,-3.63 1.68,0 2.74,1.36 2.74,2.54 0,0.1 0,0.17 -0.13,0.17 -0.11,0 -0.11,-0.06 -0.12,-0.16 -0.08,-1.44 -1.25,-2.24 -2.36,-2.24 -0.88,0 -2.75,0.52 -2.75,3.31 0,2.94 2.04,3.32 2.73,3.32 1.06,0 2.08,-0.83 2.31,-2.36 0.02,-0.14 0.03,-0.17 0.16,-0.17 0.16,0 0.16,0.03 0.16,0.24 v 2.36 c 0,0.17 0,0.24 -0.11,0.24 -0.04,0 -0.08,0 -0.16,-0.12 z"
   inkscape:connector-curvature="0"
   style="fill:#000000;stroke-width:0" />
<path
   id="path6230"
   d="m 242.72,713.64 0.01,-0.01 v -5.73 c 0,-0.36 -0.02,-0.47 -0.79,-0.47 h -0.24 v -0.31 c 1.44,0 0.37,0.03 1.05,0.03 0.39,0 0.77,0 1.44,0 l 0.37,0.28 h -0.24 c -0.77,0 -0.79,0.11 -0.79,0.47 v 5.25 c 0,0.36 0.02,0.47 0.79,0.47 h 0.24 v 0.31 h -1.68 c -0.23,0 -0.26,0 -0.34,-0.19 l -2.31,-5.67 -2.32,5.68 c -0.06,0.18 -0.12,0.18 -0.33,0.18 h -1.69 v -0.31 h 0.24 c 0.77,0 0.79,-0.11 0.79,-0.47 v -4.98 c 0,-0.27 0,-0.74 -1.03,-0.74 v -0.31 c 1.17,0 0.35,0.01 0.84,0.03 0.33,0 0.66,0 1.15,-0.02 l 0.34,0.3 c -1.02,0 -1.02,0.47 -1.02,0.74 v 5.39 l 0.01,0.01 2.55,-6.27 c 0.04,-0.09 0.09,-0.18 0.19,-0.18 0.1,0 0.15,0.09 0.19,0.18 z"
   inkscape:connector-curvature="0"
   style="fill:#000000;stroke-width:0" />
<path
   id="path6232"
   d="m 249.44,710.27 0.12,0 0.11,0.01 0.11,0.01 0.12,0.02 0.11,0.02 0.1,0.02 0.11,0.03 0.11,0.03 0.1,0.03 0.1,0.04 0.1,0.04 0.1,0.05 0.1,0.05 0.09,0.05 0.09,0.06 0.08,0.06 0.08,0.06 0.08,0.06 0.07,0.07 0.07,0.07 0.07,0.08 0.06,0.07 0.05,0.08 0.05,0.08 0.05,0.08 0.04,0.09 0.03,0.08 0.03,0.09 0.03,0.09 0.01,0.09 0.01,0.1 0,0.09 c 0,0.99 -1.05,1.86 -2.46,1.86 h -3.63 v -0.31 h 0.24 c 0.76,0 0.78,-0.11 0.78,-0.47 v -5.25 c 0,-0.36 -0.02,-0.47 -0.78,-0.47 h -0.24 v -0.31 c 1.46,0 0.35,0.03 1.08,0.03 0.38,0 0.76,0 1.51,0 l 0.35,0.28 h -0.24 c -0.77,0 -0.79,0.11 -0.79,0.47 v 2.37 l -0.03,0.26 v 2.69 c 0,0.33 0.02,0.4 0.49,0.4 h 1 c 1.7,0 1.7,-1.1 1.7,-1.55 0,-0.42 0,-1.54 -1.7,-1.54 h -1.49 l 0.03,-0.26 z"
   inkscape:connector-curvature="0"
   style="fill:#000000;stroke-width:0" />
<path
   id="path6234"
   d="m 262.7,713.9 h -5.84 v -0.31 h 0.24 c 0.77,0 0.79,-0.11 0.79,-0.47 v -5.22 c 0,-0.36 -0.02,-0.47 -0.79,-0.47 h -0.24 v -0.31 h 5.99 l 0.42,2.57 h -0.25 c -0.25,-1.52 -0.49,-2.26 -2.25,-2.26 h -1.51 c -0.47,0 -0.49,0.07 -0.49,0.4 v 2.66 h 0.98 c 0.99,0 1.13,-0.3 1.13,-1.17 h 0.24 v 2.64 h -0.24 c 0,-0.86 -0.14,-1.16 -1.13,-1.16 h -0.98 v 2.39 c 0,0.33 0.02,0.4 0.49,0.4 h 1.43 c 1.56,0 1.88,-0.51 2.04,-1.93 h 0.25 z"
   inkscape:connector-curvature="0"
   style="fill:#000000;stroke-width:0" />
<path
   id="path6236"
   d="m 268.44,711.76 -0.02,0.02 -0.02,0.02 -0.02,0.02 -0.03,0.02 -0.03,0.03 -0.02,0.02 -0.04,0.03 -0.03,0.03 -0.03,0.02 -0.04,0.03 -0.03,0.02 -0.04,0.03 -0.04,0.03 -0.04,0.02 -0.04,0.03 -0.05,0.02 -0.04,0.03 -0.05,0.02 -0.05,0.02 -0.05,0.02 -0.05,0.02 -0.06,0.02 -0.05,0.02 -0.06,0.02 -0.06,0.01 -0.06,0.01 -0.06,0.02 -0.06,0 -0.07,0.01 -0.06,0.01 -0.07,0 -0.07,0 c -1.51,0 -2.79,-1.18 -2.79,-2.7 0,-1.51 1.28,-2.7 2.79,-2.7 1.29,0 2.08,1.04 2.08,1.91 0,0.09 0,0.15 -0.13,0.15 -0.11,0 -0.11,-0.05 -0.12,-0.15 -0.07,-1.06 -0.93,-1.66 -1.76,-1.66 -0.5,0 -2,0.27 -2,2.45 0,2.22 1.54,2.45 1.99,2.45 0.73,0 1.57,-0.51 1.76,-1.78 0.02,-0.07 0.03,-0.13 0.13,-0.13 0.13,0 0.13,0.05 0.13,0.24 v 1.68 c 0,0.16 0,0.24 -0.1,0.24 -0.06,0 -0.07,-0.02 -0.15,-0.12 z"
   inkscape:connector-curvature="0"
   style="fill:#000000;stroke-width:0" />
<path
   id="path6238"
   d="m 273.83,709.91 h -2.38 v 1.62 c 0,0.4 0.05,0.46 0.72,0.46 v 0.25 c -1.08,0 -0.29,-0.01 -0.86,-0.03 -0.22,0 -0.44,0 -0.99,0.02 l -0.3,-0.24 c 0.66,0 0.71,-0.06 0.71,-0.46 v -3.69 c 0,-0.41 -0.05,-0.47 -0.71,-0.47 v -0.25 c 1.07,0 0.28,0.01 0.85,0.03 0.22,0 0.44,0 1,-0.02 l 0.3,0.24 c -0.67,0 -0.72,0.06 -0.72,0.47 v 1.82 h 2.38 v -1.82 c 0,-0.41 -0.05,-0.47 -0.72,-0.47 v -0.25 c 1.08,0 0.29,0.01 0.86,0.03 0.22,0 0.44,0 1,-0.02 l 0.3,0.24 c -0.67,0 -0.72,0.06 -0.72,0.47 v 3.69 c 0,0.4 0.05,0.46 0.72,0.46 v 0.25 c -1.08,0 -0.29,-0.01 -0.86,-0.03 -0.22,0 -0.44,0 -1,0.02 l -0.3,-0.24 c 0.67,0 0.72,-0.06 0.72,-0.46 z"
   inkscape:connector-curvature="0"
   style="fill:#000000;stroke-width:0" />
<path
   id="path6240"
   d="m 281.53,709.66 -0.01,0.14 -0.01,0.14 -0.01,0.13 -0.03,0.14 -0.03,0.13 -0.03,0.13 -0.04,0.12 -0.05,0.12 -0.05,0.12 -0.06,0.12 -0.07,0.12 -0.06,0.11 -0.08,0.1 -0.08,0.11 -0.08,0.09 -0.09,0.1 -0.09,0.09 -0.1,0.09 -0.1,0.08 -0.1,0.07 -0.11,0.07 -0.11,0.07 -0.12,0.06 -0.11,0.06 -0.13,0.05 -0.12,0.04 -0.13,0.04 -0.12,0.03 -0.14,0.02 -0.13,0.02 -0.13,0.01 -0.14,0 v -0.25 c 0.68,0 1.8,-0.49 1.8,-2.36 0,-1.96 -1.09,-2.53 -1.8,-2.53 h 0 c -0.71,0 -1.8,0.57 -1.8,2.53 0,1.88 1.13,2.36 1.8,2.36 v 0.25 c -1.49,0 -2.66,-1.23 -2.66,-2.72 0,-1.5 1.2,-2.68 2.66,-2.68 1.45,0 2.66,1.18 2.66,2.68 z"
   inkscape:connector-curvature="0"
   style="fill:#000000;stroke-width:0" />
<path
   id="path6242"
   d="m 290.47,710.51 0.11,0.03 0.11,0.03 0.1,0.03 0.1,0.03 0.1,0.04 0.09,0.04 0.09,0.04 0.09,0.04 0.08,0.04 0.08,0.05 0.08,0.04 0.08,0.05 0.07,0.05 0.06,0.05 0.06,0.05 0.06,0.06 0.06,0.05 0.05,0.06 0.05,0.05 0.05,0.06 0.04,0.06 0.04,0.06 0.03,0.05 0.03,0.06 0.03,0.07 0.03,0.06 0.02,0.06 0.01,0.06 0.02,0.06 0.01,0.07 0,0.06 0,0.06 c 0,0.97 -1.21,1.8 -2.72,1.8 h -3.22 v -0.31 h 0.23 c 0.77,0 0.79,-0.11 0.79,-0.47 v -5.25 c 0,-0.36 -0.02,-0.47 -0.79,-0.47 h -0.23 v -0.31 c 1.45,0 0.35,0.03 1.06,0.03 0.39,0 0.78,0 1.49,0 l 0.35,0.28 h -0.24 c -0.76,0 -0.78,0.11 -0.78,0.47 v 2.52 0.22 2.58 c 0,0.27 0.02,0.36 0.26,0.39 0.09,0.01 0.4,0.01 0.6,0.01 0.86,0 2.18,0 2.18,-1.49 0,-1.06 -0.71,-1.49 -1.84,-1.49 h -1.2 v -0.22 h 1.24 c 0.54,0 0.86,-0.2 1.03,-0.36 0.38,-0.37 0.38,-0.62 0.38,-1.31 0,-0.69 0,-1.05 0.43,-1.44 0.36,-0.32 0.92,-0.41 1.27,-0.41 0.8,0 0.99,0.82 0.99,1.1 0,0.06 0,0.17 -0.13,0.17 -0.11,0 -0.11,-0.09 -0.12,-0.16 -0.08,-0.78 -0.49,-0.89 -0.7,-0.89 -0.53,0 -0.6,0.45 -0.77,1.61 -0.12,0.69 -0.16,0.94 -0.47,1.26 -0.21,0.22 -0.53,0.41 -0.92,0.52 z"
   inkscape:connector-curvature="0"
   style="fill:#000000;stroke-width:0" />
<path
   id="path6244"
   d="m 298.62,712.21 h -4.43 v -0.25 c 0.67,0 0.72,-0.05 0.72,-0.46 v -3.66 c 0,-0.41 -0.05,-0.47 -0.72,-0.47 v -0.25 h 4.55 l 0.29,1.93 h -0.25 c -0.17,-1.2 -0.41,-1.68 -1.68,-1.68 h -1.08 c -0.35,0 -0.4,0.03 -0.4,0.43 v 1.84 h 0.7 c 0.74,0 0.86,-0.2 0.86,-0.86 h 0.25 v 1.98 h -0.25 c 0,-0.67 -0.12,-0.87 -0.86,-0.87 h -0.7 v 1.65 c 0,0.39 0.05,0.42 0.4,0.42 h 1.02 c 1.15,0 1.41,-0.34 1.52,-1.43 h 0.25 z"
   inkscape:connector-curvature="0"
   style="fill:#000000;stroke-width:0" />
<path
   id="path6246"
   d="m 303.54,707.2 0.07,0.03 0.07,0.04 0.07,0.03 0.08,0.04 0.07,0.05 0.07,0.04 0.07,0.05 0.07,0.06 0.07,0.05 0.07,0.06 0.06,0.07 0.07,0.06 0.06,0.07 0.06,0.07 0.07,0.07 0.05,0.08 0.06,0.08 0.05,0.08 0.06,0.09 0.05,0.09 0.04,0.09 0.04,0.09 0.04,0.1 0.04,0.09 0.03,0.11 0.03,0.1 0.03,0.11 0.02,0.1 0.01,0.12 0.02,0.11 0,0.11 0.01,0.12 c 0,1.49 -1.19,2.72 -2.66,2.72 v -0.25 c 0.76,0 1.83,-0.61 1.83,-2.47 0,-0.83 -0.24,-1.69 -0.93,-2.15 -0.15,0.28 -0.39,0.75 -0.89,0.75 v -0.22 c 0.31,0 0.53,-0.22 0.64,-0.67 h 0 c -0.02,-0.01 -0.31,-0.14 -0.65,-0.14 -0.43,0 -0.45,0.35 -0.45,0.4 0,0.22 0.19,0.41 0.46,0.41 v 0.22 c -0.4,0 -0.68,-0.3 -0.68,-0.63 0,-0.17 0.06,-0.27 0.07,-0.28 h 0 c -0.5,0.19 -1.24,0.78 -1.24,2.31 0,1.86 1.07,2.47 1.84,2.47 v 0.25 c -1.49,0 -2.66,-1.23 -2.66,-2.72 0,-1.5 1.2,-2.68 2.66,-2.68 0.35,0 0.66,0.08 0.72,0.1 0.16,-0.75 0.3,-1.39 1,-1.39 0.74,0 0.97,0.89 0.97,1.35 0,0.08 0,0.19 -0.1,0.19 -0.09,0 -0.1,-0.07 -0.11,-0.17 -0.06,-0.39 -0.44,-0.52 -0.69,-0.52 -0.15,0 -0.44,0 -0.74,0.66 z"
   inkscape:connector-curvature="0"
   style="fill:#000000;stroke-width:0" />
<path
   id="path6248"
   d="m 307.51,711.53 0,0.03 0,0.04 0,0.03 0,0.03 0.01,0.03 0,0.03 0,0.03 0.01,0.02 0.01,0.02 0,0.03 0.01,0.02 0.01,0.01 0.01,0.02 0.02,0.02 0.01,0.01 0.02,0.01 0.02,0.01 0.02,0.02 0.02,0.01 0.01,0 0.02,0 0.01,0.01 0.02,0 0.01,0 0.02,0.01 0.01,0 0.02,0 0.02,0.01 0.01,0 0.02,0 0.02,0 0.02,0 0.02,0.01 0.03,0 0.02,0 0.02,0 0.03,0 0.02,0 0.03,0 0.02,0 0.03,0 0.03,0 0.03,0 0.03,0 0.03,0 v 0.25 c -1.08,0 -0.29,-0.01 -0.86,-0.03 -0.22,0 -0.44,0 -0.99,0.02 l -0.3,-0.24 c 0.67,0 0.71,-0.06 0.71,-0.48 v -2.17 c 0,-0.25 0,-0.61 0.02,-0.74 0.09,-0.81 0.89,-1.62 2,-1.62 1.15,0 1.79,1.02 1.8,1.75 v 2.65 c 0.01,0.4 0.27,0.61 0.72,0.61 v 0.25 c -0.84,0 -0.25,-0.02 -0.78,-0.03 -0.06,0 -0.34,0 -0.63,0.01 l -0.28,-0.23 c 0.72,0 0.72,-0.52 0.72,-0.75 v -2.34 c 0,-1.16 -0.86,-1.67 -1.53,-1.67 -0.3,0 -1.32,0.12 -1.32,1.62 z"
   inkscape:connector-curvature="0"
   style="fill:#000000;stroke-width:0" />
<path
   id="path6250"
   d="m 316.62,712.21 h -4.43 v -0.25 c 0.67,0 0.72,-0.05 0.72,-0.46 v -3.66 c 0,-0.41 -0.05,-0.47 -0.72,-0.47 v -0.25 h 4.55 l 0.29,1.93 h -0.25 c -0.17,-1.2 -0.41,-1.68 -1.68,-1.68 h -1.08 c -0.35,0 -0.4,0.03 -0.4,0.43 v 1.84 h 0.7 c 0.74,0 0.86,-0.2 0.86,-0.86 h 0.25 v 1.98 h -0.25 c 0,-0.67 -0.12,-0.87 -0.86,-0.87 h -0.7 v 1.65 c 0,0.39 0.05,0.42 0.4,0.42 h 1.02 c 1.15,0 1.41,-0.34 1.52,-1.43 h 0.25 z"
   inkscape:connector-curvature="0"
   style="fill:#000000;stroke-width:0" />
<path
   id="path6252"
   d="m 321.14,712.14 0,0.02 0,0.01 0,0.02 0,0.01 0,0.01 0,0.02 0,0.01 0,0.01 0,0.01 0,0.01 0,0.01 0,0.01 0,0.01 -0.01,0.01 0,0.01 0,0 0,0.01 0,0.01 -0.01,0 0,0.01 0,0 -0.01,0.01 0,0 -0.01,0.01 0,0 -0.01,0 -0.01,0.01 0,0 -0.01,0 -0.01,0 -0.01,0 -0.01,0 c -0.06,0 -0.07,-0.01 -0.22,-0.23 -0.05,-0.05 -0.15,-0.2 -0.18,-0.25 -0.38,0.36 -0.84,0.48 -1.25,0.48 -0.91,0 -1.56,-0.67 -1.56,-1.45 0,-0.56 0.31,-0.89 0.43,-1.01 0.3,-0.3 0.5,-0.34 1.42,-0.55 0.54,-0.13 0.64,-0.15 0.87,-0.35 0.05,-0.04 0.31,-0.31 0.31,-0.75 0,-0.5 -0.38,-1.04 -1.07,-1.04 -0.26,0 -0.8,0.04 -1.23,0.39 -0.45,0.35 -0.48,0.84 -0.48,1.11 -0.01,0.08 -0.1,0.09 -0.13,0.09 -0.12,0 -0.12,-0.07 -0.12,-0.25 v -1.35 c 0,-0.16 0,-0.24 0.09,-0.24 0.06,0 0.07,0.01 0.22,0.23 0.05,0.05 0.15,0.2 0.19,0.26 0.29,-0.26 0.81,-0.49 1.46,-0.49 0.97,0 1.58,0.77 1.58,1.56 0,0.62 -0.39,1.02 -0.39,1.03 -0.37,0.38 -0.52,0.41 -1.37,0.61 -0.21,0.05 -0.56,0.13 -0.62,0.15 -0.5,0.2 -0.66,0.59 -0.66,0.89 0,0.45 0.4,0.94 1.07,0.94 1.27,0 1.44,-1.16 1.48,-1.48 0.02,-0.07 0.02,-0.13 0.13,-0.13 0.13,0 0.13,0.05 0.13,0.24 z"
   inkscape:connector-curvature="0"
   style="fill:#000000;stroke-width:0" />
<path
   id="path6254"
   d="m 327.27,712.18 h -4.89 l -0.14,-1.68 h 0.24 c 0.1,1.26 0.29,1.43 1.4,1.43 0.56,0 0.59,0 0.59,-0.42 v -3.63 c 0,-0.4 -0.04,-0.51 -0.81,-0.51 h -0.21 v -0.25 c 1.38,0 0.39,0.03 0.98,0.03 0.4,0 0.8,0 1.38,0 l 0.39,0.22 h -0.21 c -0.76,0 -0.81,0.11 -0.81,0.51 v 3.63 c 0,0.42 0.03,0.42 0.59,0.42 1.08,0 1.3,-0.16 1.39,-1.43 h 0.25 z"
   inkscape:connector-curvature="0"
   style="fill:#000000;stroke-width:0" />
</g>  <g
     style="font-style:normal;font-variant:normal;font-weight:normal;font-stretch:normal;letter-spacing:normal;word-spacing:normal;text-anchor:start;fill:none;stroke:#000000;stroke-linecap:butt;stroke-linejoin:miter;stroke-miterlimit:10.43299961;stroke-opacity:1;stroke-dasharray:none;stroke-dashoffset:0"
     id="g6418"
     transform="matrix(1,0,0,-1,103.36883,867.18807)"
     xml:space="preserve"
     stroke-miterlimit="10.433"
     font-style="normal"
     font-variant="normal"
     font-weight="normal"
     font-stretch="normal"
     font-size-adjust="none"
     letter-spacing="normal"
     word-spacing="normal"
     ns0:text="{\\sc ICMP Time Exceeded}"
     ns0:preamble="">
<path
   style="fill:#000000;stroke-width:0"
   inkscape:connector-curvature="0"
   d="m 225.89,713.15 0,0.03 0,0.03 0,0.03 0.01,0.03 0,0.03 0,0.03 0,0.02 0.01,0.02 0.01,0.03 0,0.02 0.01,0.02 0.01,0.02 0.02,0.01 0.01,0.02 0.02,0.01 0.02,0.02 0.02,0.01 0.02,0.01 0.01,0.01 0.02,0 0.01,0.01 0.02,0 0.01,0.01 0.02,0 0.01,0.01 0.02,0 0.02,0.01 0.02,0 0.02,0 0.02,0.01 0.02,0 0.02,0 0.03,0 0.02,0.01 0.03,0 0.02,0 0.03,0 0.03,0 0.03,0 0.03,0 0.03,0.01 0.03,0 0.03,0 0.04,0 0.03,0 0.04,0 h 0.26 v 0.31 c -1.51,0 -0.35,-0.03 -1.14,-0.03 -0.37,0 -0.76,0 -1.55,0 l -0.35,-0.28 h 0.26 c 0.79,0 0.82,-0.11 0.82,-0.47 v -5.25 c 0,-0.36 -0.03,-0.47 -0.82,-0.47 h -0.26 v -0.31 c 1.52,0 0.35,0.03 1.14,0.03 0.38,0 0.76,0 1.55,0 l 0.35,0.28 h -0.26 c -0.79,0 -0.82,0.11 -0.82,0.47 z"
   id="path6420" />
<path
   style="fill:#000000;stroke-width:0"
   inkscape:connector-curvature="0"
   d="m 233.79,713.26 -0.03,0.03 -0.03,0.03 -0.04,0.04 -0.04,0.03 -0.03,0.04 -0.04,0.04 -0.05,0.03 -0.04,0.04 -0.05,0.04 -0.04,0.03 -0.05,0.04 -0.05,0.04 -0.06,0.03 -0.05,0.04 -0.06,0.04 -0.06,0.03 -0.06,0.03 -0.06,0.03 -0.07,0.04 -0.07,0.02 -0.07,0.03 -0.07,0.03 -0.07,0.02 -0.08,0.03 -0.08,0.02 -0.08,0.01 -0.08,0.02 -0.09,0.01 -0.08,0.01 -0.09,0.01 -0.1,0 -0.09,0.01 c -1.96,0 -3.64,-1.6 -3.64,-3.62 0,-2.03 1.68,-3.63 3.65,-3.63 1.68,0 2.74,1.36 2.74,2.54 0,0.1 0,0.17 -0.13,0.17 -0.11,0 -0.11,-0.06 -0.12,-0.16 -0.08,-1.44 -1.25,-2.24 -2.36,-2.24 -0.88,0 -2.75,0.52 -2.75,3.31 0,2.94 2.04,3.32 2.73,3.32 1.06,0 2.08,-0.83 2.31,-2.36 0.02,-0.14 0.03,-0.17 0.16,-0.17 0.16,0 0.16,0.03 0.16,0.24 v 2.36 c 0,0.17 0,0.24 -0.11,0.24 -0.04,0 -0.08,0 -0.16,-0.12 z"
   id="path6422" />
<path
   style="fill:#000000;stroke-width:0"
   inkscape:connector-curvature="0"
   d="m 242.72,713.64 0.01,-0.01 v -5.73 c 0,-0.36 -0.02,-0.47 -0.79,-0.47 h -0.24 v -0.31 c 1.44,0 0.37,0.03 1.05,0.03 0.39,0 0.77,0 1.44,0 l 0.37,0.28 h -0.24 c -0.77,0 -0.79,0.11 -0.79,0.47 v 5.25 c 0,0.36 0.02,0.47 0.79,0.47 h 0.24 v 0.31 h -1.68 c -0.23,0 -0.26,0 -0.34,-0.19 l -2.31,-5.67 -2.32,5.68 c -0.06,0.18 -0.12,0.18 -0.33,0.18 h -1.69 v -0.31 h 0.24 c 0.77,0 0.79,-0.11 0.79,-0.47 v -4.98 c 0,-0.27 0,-0.74 -1.03,-0.74 v -0.31 c 1.17,0 0.35,0.01 0.84,0.03 0.33,0 0.66,0 1.15,-0.02 l 0.34,0.3 c -1.02,0 -1.02,0.47 -1.02,0.74 v 5.39 l 0.01,0.01 2.55,-6.27 c 0.04,-0.09 0.09,-0.18 0.19,-0.18 0.1,0 0.15,0.09 0.19,0.18 z"
   id="path6424" />
<path
   style="fill:#000000;stroke-width:0"
   inkscape:connector-curvature="0"
   d="m 249.44,710.27 0.12,0 0.11,0.01 0.11,0.01 0.12,0.02 0.11,0.02 0.1,0.02 0.11,0.03 0.11,0.03 0.1,0.03 0.1,0.04 0.1,0.04 0.1,0.05 0.1,0.05 0.09,0.05 0.09,0.06 0.08,0.06 0.08,0.06 0.08,0.06 0.07,0.07 0.07,0.07 0.07,0.08 0.06,0.07 0.05,0.08 0.05,0.08 0.05,0.08 0.04,0.09 0.03,0.08 0.03,0.09 0.03,0.09 0.01,0.09 0.01,0.1 0,0.09 c 0,0.99 -1.05,1.86 -2.46,1.86 h -3.63 v -0.31 h 0.24 c 0.76,0 0.78,-0.11 0.78,-0.47 v -5.25 c 0,-0.36 -0.02,-0.47 -0.78,-0.47 h -0.24 v -0.31 c 1.46,0 0.35,0.03 1.08,0.03 0.38,0 0.76,0 1.51,0 l 0.35,0.28 h -0.24 c -0.77,0 -0.79,0.11 -0.79,0.47 v 2.37 l -0.03,0.26 v 2.69 c 0,0.33 0.02,0.4 0.49,0.4 h 1 c 1.7,0 1.7,-1.1 1.7,-1.55 0,-0.42 0,-1.54 -1.7,-1.54 h -1.49 l 0.03,-0.26 z"
   id="path6426" />
<path
   style="fill:#000000;stroke-width:0"
   inkscape:connector-curvature="0"
   d="m 263.43,713.87 h -6.41 l -0.19,-2.24 h 0.25 c 0.14,1.67 0.34,1.93 1.9,1.93 0.19,0 0.48,0 0.58,-0.02 0.22,-0.03 0.22,-0.15 0.22,-0.38 v -5.25 c 0,-0.34 0,-0.48 -1.05,-0.48 h -0.4 v -0.31 c 1.89,0 0.41,0.03 1.43,0.03 0.46,0 0.92,0 1.94,0 l 0.41,0.28 h -0.4 c -1.04,0 -1.04,0.14 -1.04,0.48 v 5.25 c 0,0.23 0,0.35 0.22,0.38 0.09,0.02 0.38,0.02 0.57,0.02 1.56,0 1.77,-0.26 1.91,-1.93 h 0.24 z"
   id="path6428" />
<path
   style="fill:#000000;stroke-width:0"
   inkscape:connector-curvature="0"
   d="m 266.01,711.52 0,0.04 0,0.03 0,0.04 0,0.03 0,0.03 0.01,0.03 0,0.03 0,0.02 0.01,0.02 0.01,0.03 0.01,0.02 0.01,0.02 0.01,0.01 0.02,0.02 0.01,0.01 0.02,0.02 0.02,0.01 0.02,0.01 0.03,0.01 0.01,0 0.01,0.01 0.02,0 0.01,0 0.02,0.01 0.01,0 0.02,0 0.02,0 0.02,0.01 0.02,0 0.02,0 0.02,0 0.02,0.01 0.02,0 0.02,0 0.03,0 0.02,0 0.03,0 0.02,0 0.03,0 0.03,0 0.03,0 0.03,0 0.03,0 0.03,0 0.03,0 v 0.25 c -1.11,0 -0.34,-0.01 -0.85,-0.03 -0.26,0 -0.52,0 -1.04,0.02 l -0.34,-0.24 c 0.71,0 0.76,-0.05 0.76,-0.47 v -3.67 c 0,-0.43 -0.05,-0.48 -0.76,-0.48 v -0.25 c 1.12,0 0.34,0.01 0.86,0.03 0.26,0 0.52,0 1.03,-0.02 l 0.34,0.24 c -0.71,0 -0.75,0.05 -0.75,0.48 z"
   id="path6430" />
<path
   style="fill:#000000;stroke-width:0"
   inkscape:connector-curvature="0"
   d="m 272.77,711.95 0.01,-0.01 v -4.1 c 0,-0.41 -0.05,-0.47 -0.72,-0.47 v -0.25 c 1.04,0 0.2,0.01 0.69,0.03 0.35,0 0.69,0 1.05,-0.02 l 0.33,0.24 c -0.67,0 -0.72,0.06 -0.72,0.47 v 3.69 c 0,0.4 0.05,0.46 0.72,0.46 v 0.25 h -1.2 c -0.23,0 -0.26,0 -0.34,-0.19 l -1.71,-4.18 -1.71,4.19 c -0.07,0.18 -0.13,0.18 -0.34,0.18 h -1.2 v -0.25 c 0.66,0 0.71,-0.06 0.71,-0.46 v -3.4 c 0,-0.23 0,-0.76 -0.71,-0.76 v -0.25 c 0.85,0 0.2,0.01 0.65,0.03 0.2,0 0.35,0 0.81,-0.01 l 0.25,0.23 c -0.72,0 -0.72,0.53 -0.72,0.76 v 3.75 l 0.01,0.01 1.86,-4.59 c 0.05,-0.09 0.09,-0.18 0.19,-0.18 0.1,0 0.15,0.09 0.19,0.18 z"
   id="path6432" />
<path
   style="fill:#000000;stroke-width:0"
   inkscape:connector-curvature="0"
   d="m 279.45,712.21 h -4.43 v -0.25 c 0.67,0 0.72,-0.05 0.72,-0.46 v -3.66 c 0,-0.41 -0.05,-0.47 -0.72,-0.47 v -0.25 h 4.55 l 0.29,1.93 h -0.25 c -0.17,-1.2 -0.41,-1.68 -1.68,-1.68 h -1.08 c -0.35,0 -0.4,0.03 -0.4,0.43 v 1.84 h 0.7 c 0.74,0 0.86,-0.2 0.86,-0.86 h 0.25 v 1.98 h -0.25 c 0,-0.67 -0.12,-0.87 -0.86,-0.87 h -0.7 v 1.65 c 0,0.39 0.05,0.42 0.4,0.42 h 1.02 c 1.15,0 1.41,-0.34 1.52,-1.43 h 0.25 z"
   id="path6434" />
<path
   style="fill:#000000;stroke-width:0"
   inkscape:connector-curvature="0"
   d="m 290.29,713.9 h -5.84 v -0.31 h 0.24 c 0.77,0 0.79,-0.11 0.79,-0.47 v -5.22 c 0,-0.36 -0.02,-0.47 -0.79,-0.47 h -0.24 v -0.31 h 5.99 l 0.42,2.57 h -0.25 c -0.25,-1.52 -0.49,-2.26 -2.25,-2.26 h -1.51 c -0.46,0 -0.48,0.07 -0.48,0.4 v 2.66 h 0.97 c 0.99,0 1.13,-0.3 1.13,-1.17 h 0.25 v 2.64 h -0.25 c 0,-0.86 -0.14,-1.16 -1.13,-1.16 h -0.97 v 2.39 c 0,0.33 0.02,0.4 0.48,0.4 h 1.43 c 1.56,0 1.88,-0.51 2.04,-1.93 h 0.25 z"
   id="path6436" />
<path
   style="fill:#000000;stroke-width:0"
   inkscape:connector-curvature="0"
   d="m 295.35,707.82 0,-0.01 0.01,-0.01 0.01,-0.01 0,-0.01 0.01,-0.01 0.01,-0.01 0,-0.01 0,0 0.01,-0.01 0,0 0,-0.01 0,-0.01 0.01,0 0,-0.01 0,0 0,-0.01 0,0 0,-0.01 0,-0.01 0,0 0.01,-0.01 0,-0.01 0,0 0,-0.01 0,-0.01 c 0,-0.07 -0.05,-0.25 -0.33,-0.27 v -0.25 c 1.07,0 0.28,0.01 0.86,0.03 0.21,0 0.45,0 0.85,-0.01 l 0.31,0.23 c -0.29,0 -0.52,0 -0.71,0.16 -0.14,0.13 -1.71,2.32 -1.82,2.48 l 1.02,1.37 c 0.35,0.44 0.73,0.6 1.18,0.61 v 0.25 c -0.8,0 -0.25,-0.02 -0.56,-0.03 -0.24,0 -0.51,0 -0.96,0.02 l -0.2,-0.24 c 0.16,-0.02 0.3,-0.09 0.3,-0.34 0,-0.17 -0.08,-0.29 -0.15,-0.37 l -0.79,-1.06 -0.95,1.29 c -0.08,0.12 -0.08,0.16 -0.08,0.21 0,0.17 0.13,0.26 0.32,0.27 v 0.25 c -1.06,0 -0.25,-0.01 -0.85,-0.03 -0.21,0 -0.48,0 -0.87,0.01 l -0.3,-0.23 c 0.58,0 0.66,-0.06 0.94,-0.44 l 1.37,-1.9 -1.14,-1.54 c -0.29,-0.38 -0.62,-0.72 -1.28,-0.74 v -0.25 c 0.81,0 0.25,0.02 0.55,0.03 0.26,0 0.58,0 1.04,-0.02 l 0.13,0.24 c -0.19,0.02 -0.3,0.15 -0.3,0.35 0,0.17 0.08,0.28 0.23,0.5 0.31,0.41 0.61,0.82 0.93,1.22 z"
   id="path6438" />
<path
   style="fill:#000000;stroke-width:0"
   inkscape:connector-curvature="0"
   d="m 301.93,711.76 -0.02,0.02 -0.02,0.02 -0.03,0.02 -0.02,0.02 -0.03,0.03 -0.03,0.02 -0.03,0.03 -0.03,0.03 -0.03,0.02 -0.04,0.03 -0.03,0.02 -0.04,0.03 -0.04,0.03 -0.04,0.02 -0.05,0.03 -0.04,0.02 -0.05,0.03 -0.04,0.02 -0.05,0.02 -0.05,0.02 -0.06,0.02 -0.05,0.02 -0.06,0.02 -0.05,0.02 -0.06,0.01 -0.06,0.01 -0.06,0.02 -0.07,0 -0.06,0.01 -0.07,0.01 -0.07,0 -0.07,0 c -1.5,0 -2.78,-1.18 -2.78,-2.7 0,-1.51 1.28,-2.7 2.78,-2.7 1.3,0 2.09,1.04 2.09,1.91 0,0.09 0,0.15 -0.13,0.15 -0.11,0 -0.11,-0.05 -0.12,-0.15 -0.07,-1.06 -0.93,-1.66 -1.77,-1.66 -0.49,0 -2,0.27 -2,2.45 0,2.22 1.55,2.45 2,2.45 0.72,0 1.57,-0.51 1.76,-1.78 0.02,-0.07 0.03,-0.13 0.13,-0.13 0.13,0 0.13,0.05 0.13,0.24 v 1.68 c 0,0.16 0,0.24 -0.1,0.24 -0.06,0 -0.07,-0.02 -0.15,-0.12 z"
   id="path6440" />
<path
   style="fill:#000000;stroke-width:0"
   inkscape:connector-curvature="0"
   d="m 307.94,712.21 h -4.44 v -0.25 c 0.67,0 0.72,-0.05 0.72,-0.46 v -3.66 c 0,-0.41 -0.05,-0.47 -0.72,-0.47 v -0.25 h 4.56 l 0.29,1.93 h -0.25 c -0.17,-1.2 -0.41,-1.68 -1.69,-1.68 h -1.07 c -0.35,0 -0.4,0.03 -0.4,0.43 v 1.84 h 0.7 c 0.73,0 0.85,-0.2 0.85,-0.86 h 0.25 v 1.98 h -0.25 c 0,-0.67 -0.12,-0.87 -0.85,-0.87 h -0.7 v 1.65 c 0,0.39 0.05,0.42 0.4,0.42 h 1.01 c 1.16,0 1.42,-0.34 1.53,-1.43 h 0.25 z"
   id="path6442" />
<path
   style="fill:#000000;stroke-width:0"
   inkscape:connector-curvature="0"
   d="m 313.49,712.21 h -4.43 v -0.25 c 0.67,0 0.72,-0.05 0.72,-0.46 v -3.66 c 0,-0.41 -0.05,-0.47 -0.72,-0.47 v -0.25 h 4.55 l 0.29,1.93 h -0.25 c -0.17,-1.2 -0.41,-1.68 -1.68,-1.68 h -1.08 c -0.34,0 -0.39,0.03 -0.39,0.43 v 1.84 h 0.69 c 0.74,0 0.86,-0.2 0.86,-0.86 h 0.25 v 1.98 h -0.25 c 0,-0.67 -0.12,-0.87 -0.86,-0.87 h -0.69 v 1.65 c 0,0.39 0.05,0.42 0.39,0.42 h 1.02 c 1.16,0 1.42,-0.34 1.52,-1.43 h 0.25 z"
   id="path6444" />
<path
   style="fill:#000000;stroke-width:0"
   inkscape:connector-curvature="0"
   d="m 315.36,707.84 0,-0.04 0,-0.03 -0.01,-0.04 0,-0.03 0,-0.03 0,-0.03 -0.01,-0.02 0,-0.03 -0.01,-0.02 -0.01,-0.02 0,-0.02 -0.02,-0.02 -0.01,-0.01 -0.01,-0.02 -0.02,-0.01 -0.01,-0.02 -0.02,-0.01 -0.02,-0.01 -0.03,-0.01 -0.02,-0.01 -0.01,0 -0.02,-0.01 -0.01,0 -0.02,0 -0.02,0 -0.01,-0.01 -0.02,0 -0.02,0 -0.02,0 -0.02,-0.01 -0.02,0 -0.02,0 -0.02,0 -0.02,0 -0.03,0 -0.02,0 -0.02,-0.01 -0.03,0 -0.03,0 -0.02,0 -0.03,0 -0.03,0 -0.03,0 -0.03,0 v -0.25 h 2.8 c 1.4,0 2.46,1.16 2.46,2.52 0,1.38 -1.03,2.6 -2.46,2.6 l -0.23,-0.25 c 0.86,0 1.28,-0.46 1.42,-0.64 0.22,-0.28 0.44,-0.7 0.44,-1.71 0,-0.81 -0.15,-1.23 -0.36,-1.55 -0.16,-0.22 -0.58,-0.72 -1.5,-0.72 h -0.77 c -0.35,0 -0.4,0.03 -0.4,0.43 v 3.77 c 0,0.39 0.05,0.42 0.4,0.42 h 0.77 l 0.23,0.25 h -2.8 v -0.25 c 0.67,0 0.72,-0.06 0.72,-0.46 z"
   id="path6446" />
<path
   style="fill:#000000;stroke-width:0"
   inkscape:connector-curvature="0"
   d="m 325.27,712.21 h -4.43 v -0.25 c 0.66,0 0.71,-0.05 0.71,-0.46 v -3.66 c 0,-0.41 -0.05,-0.47 -0.71,-0.47 v -0.25 h 4.55 l 0.29,1.93 h -0.25 c -0.17,-1.2 -0.41,-1.68 -1.69,-1.68 h -1.07 c -0.35,0 -0.4,0.03 -0.4,0.43 v 1.84 h 0.7 c 0.73,0 0.86,-0.2 0.86,-0.86 h 0.24 v 1.98 h -0.24 c 0,-0.67 -0.13,-0.87 -0.86,-0.87 h -0.7 v 1.65 c 0,0.39 0.05,0.42 0.4,0.42 h 1.01 c 1.16,0 1.42,-0.34 1.53,-1.43 h 0.25 z"
   id="path6448" />
<path
   style="fill:#000000;stroke-width:0"
   inkscape:connector-curvature="0"
   d="m 327.13,707.84 0,-0.04 0,-0.03 0,-0.04 0,-0.03 0,-0.03 -0.01,-0.03 0,-0.02 -0.01,-0.03 0,-0.02 -0.01,-0.02 -0.01,-0.02 -0.01,-0.02 -0.01,-0.01 -0.02,-0.02 -0.01,-0.01 -0.02,-0.02 -0.02,-0.01 -0.02,-0.01 -0.02,-0.01 -0.03,-0.01 -0.01,0 -0.01,-0.01 -0.02,0 -0.01,0 -0.02,0 -0.02,-0.01 -0.01,0 -0.02,0 -0.02,0 -0.02,-0.01 -0.02,0 -0.02,0 -0.02,0 -0.03,0 -0.02,0 -0.02,0 -0.03,-0.01 -0.02,0 -0.03,0 -0.03,0 -0.03,0 -0.03,0 -0.03,0 -0.03,0 v -0.25 h 2.8 c 1.41,0 2.46,1.16 2.46,2.52 0,1.38 -1.02,2.6 -2.46,2.6 l -0.23,-0.25 c 0.86,0 1.29,-0.46 1.43,-0.64 0.22,-0.28 0.44,-0.7 0.44,-1.71 0,-0.81 -0.15,-1.23 -0.36,-1.55 -0.16,-0.22 -0.59,-0.72 -1.51,-0.72 h -0.76 c -0.35,0 -0.4,0.03 -0.4,0.43 v 3.77 c 0,0.39 0.05,0.42 0.4,0.42 h 0.76 l 0.23,0.25 h -2.8 v -0.25 c 0.67,0 0.72,-0.06 0.72,-0.46 z"
   id="path6450" />
</g></svg>
