<?xml version="1.0" encoding="UTF-8" standalone="no"?>
<!-- Created with Inkscape (http://www.inkscape.org/) -->

<svg
   xmlns:dc="http://purl.org/dc/elements/1.1/"
   xmlns:cc="http://creativecommons.org/ns#"
   xmlns:rdf="http://www.w3.org/1999/02/22-rdf-syntax-ns#"
   xmlns:svg="http://www.w3.org/2000/svg"
   xmlns="http://www.w3.org/2000/svg"
   xmlns:sodipodi="http://sodipodi.sourceforge.net/DTD/sodipodi-0.dtd"
   xmlns:inkscape="http://www.inkscape.org/namespaces/inkscape"
   id="svg5508"
   version="1.1"
   inkscape:version="0.48.4 r9939"
   width="860.37085"
   height="600.63684"
   xml:space="preserve"
   sodipodi:docname="inference-refinement.ps"><metadata
     id="metadata5514"><rdf:RDF><cc:Work
         rdf:about=""><dc:format>image/svg+xml</dc:format><dc:type
           rdf:resource="http://purl.org/dc/dcmitype/StillImage" /><dc:title></dc:title></cc:Work></rdf:RDF></metadata><defs
     id="defs5512" /><sodipodi:namedview
     pagecolor="#ffffff"
     bordercolor="#666666"
     borderopacity="1"
     objecttolerance="10"
     gridtolerance="10"
     guidetolerance="10"
     inkscape:pageopacity="0"
     inkscape:pageshadow="2"
     inkscape:window-width="1920"
     inkscape:window-height="1058"
     id="namedview5510"
     showgrid="false"
     fit-margin-top="0"
     fit-margin-left="0"
     fit-margin-right="0"
     fit-margin-bottom="0"
     inkscape:zoom="1.2692437"
     inkscape:cx="433.91018"
     inkscape:cy="301.20232"
     inkscape:window-x="-8"
     inkscape:window-y="6"
     inkscape:window-maximized="1"
     inkscape:current-layer="g5516" /><g
     id="g5516"
     inkscape:groupmode="layer"
     inkscape:label="ink_ext_XXXXXX"
     transform="matrix(0,1.25,1.25,0,-87.636691,-82.993625)"><g
       id="g5518"
       transform="scale(0.1,0.1)"><path
         d="m 4900,1600 0,63 m 0,5736 0,-63"
         style="fill:none;stroke:#000000;stroke-width:10;stroke-linecap:butt;stroke-linejoin:miter;stroke-miterlimit:10;stroke-opacity:1;stroke-dasharray:none"
         id="path5520"
         inkscape:connector-curvature="0" /><g
         id="g5522"
         transform="scale(10,10)"><text
           transform="matrix(0,1,1,0,496.67,136.88)"
           id="text5524"><tspan
             style="font-size:20px;font-variant:normal;font-weight:normal;writing-mode:lr-tb;fill:#000000;fill-opacity:1;fill-rule:nonzero;stroke:none;font-family:Helvetica;-inkscape-font-specification:Helvetica"
             x="0"
             y="0"
             id="tspan5526">0</tspan></text>
</g><path
         d="m 4068,1600 0,63 m 0,5736 0,-63"
         style="fill:none;stroke:#000000;stroke-width:10;stroke-linecap:butt;stroke-linejoin:miter;stroke-miterlimit:10;stroke-opacity:1;stroke-dasharray:none"
         id="path5528"
         inkscape:connector-curvature="0" /><g
         id="g5530"
         transform="scale(10,10)"><text
           transform="matrix(0,1,1,0,413.47,120.201)"
           id="text5532"><tspan
             style="font-size:20px;font-variant:normal;font-weight:normal;writing-mode:lr-tb;fill:#000000;fill-opacity:1;fill-rule:nonzero;stroke:none;font-family:Helvetica;-inkscape-font-specification:Helvetica"
             x="0 11.12 16.68"
             y="0"
             sodipodi:role="line"
             id="tspan5534">0.2</tspan></text>
</g><path
         d="m 3236,1600 0,63 m 0,5736 0,-63"
         style="fill:none;stroke:#000000;stroke-width:10;stroke-linecap:butt;stroke-linejoin:miter;stroke-miterlimit:10;stroke-opacity:1;stroke-dasharray:none"
         id="path5536"
         inkscape:connector-curvature="0" /><g
         id="g5538"
         transform="scale(10,10)"><text
           transform="matrix(0,1,1,0,330.27,120.201)"
           id="text5540"><tspan
             style="font-size:20px;font-variant:normal;font-weight:normal;writing-mode:lr-tb;fill:#000000;fill-opacity:1;fill-rule:nonzero;stroke:none;font-family:Helvetica;-inkscape-font-specification:Helvetica"
             x="0 11.12 16.68"
             y="0"
             sodipodi:role="line"
             id="tspan5542">0.4</tspan></text>
</g><path
         d="m 2405,1600 0,63 m 0,5736 0,-63"
         style="fill:none;stroke:#000000;stroke-width:10;stroke-linecap:butt;stroke-linejoin:miter;stroke-miterlimit:10;stroke-opacity:1;stroke-dasharray:none"
         id="path5544"
         inkscape:connector-curvature="0" /><g
         id="g5546"
         transform="scale(10,10)"><text
           transform="matrix(0,1,1,0,247.17,120.201)"
           id="text5548"><tspan
             style="font-size:20px;font-variant:normal;font-weight:normal;writing-mode:lr-tb;fill:#000000;fill-opacity:1;fill-rule:nonzero;stroke:none;font-family:Helvetica;-inkscape-font-specification:Helvetica"
             x="0 11.12 16.68"
             y="0"
             sodipodi:role="line"
             id="tspan5550">0.6</tspan></text>
</g><path
         d="m 1573,1600 0,63 m 0,5736 0,-63"
         style="fill:none;stroke:#000000;stroke-width:10;stroke-linecap:butt;stroke-linejoin:miter;stroke-miterlimit:10;stroke-opacity:1;stroke-dasharray:none"
         id="path5552"
         inkscape:connector-curvature="0" /><g
         id="g5554"
         transform="scale(10,10)"><text
           transform="matrix(0,1,1,0,163.97,120.201)"
           id="text5556"><tspan
             style="font-size:20px;font-variant:normal;font-weight:normal;writing-mode:lr-tb;fill:#000000;fill-opacity:1;fill-rule:nonzero;stroke:none;font-family:Helvetica;-inkscape-font-specification:Helvetica"
             x="0 11.12 16.68"
             y="0"
             sodipodi:role="line"
             id="tspan5558">0.8</tspan></text>
</g><path
         d="m 741,1600 0,63 m 0,5736 0,-63"
         style="fill:none;stroke:#000000;stroke-width:10;stroke-linecap:butt;stroke-linejoin:miter;stroke-miterlimit:10;stroke-opacity:1;stroke-dasharray:none"
         id="path5560"
         inkscape:connector-curvature="0" /><g
         id="g5562"
         transform="scale(10,10)"><text
           transform="matrix(0,1,1,0,80.7699,136.88)"
           id="text5564"><tspan
             style="font-size:20px;font-variant:normal;font-weight:normal;writing-mode:lr-tb;fill:#000000;fill-opacity:1;fill-rule:nonzero;stroke:none;font-family:Helvetica;-inkscape-font-specification:Helvetica"
             x="0"
             y="0"
             id="tspan5566">1</tspan></text>
</g><path
         d="m 4900,1600 -63,0 m -4096,0 63,0"
         style="fill:none;stroke:#000000;stroke-width:10;stroke-linecap:butt;stroke-linejoin:miter;stroke-miterlimit:10;stroke-opacity:1;stroke-dasharray:none"
         id="path5568"
         inkscape:connector-curvature="0" /><g
         id="g5570"
         transform="scale(10,10)"><text
           transform="matrix(0,1,1,0,516.67,157.22)"
           id="text5572"><tspan
             style="font-size:20px;font-variant:normal;font-weight:normal;writing-mode:lr-tb;fill:#000000;fill-opacity:1;fill-rule:nonzero;stroke:none;font-family:Helvetica;-inkscape-font-specification:Helvetica"
             x="0"
             y="0"
             id="tspan5574">0</tspan></text>
</g><path
         d="m 4900,2567 -63,0 m -4096,0 63,0"
         style="fill:none;stroke:#000000;stroke-width:10;stroke-linecap:butt;stroke-linejoin:miter;stroke-miterlimit:10;stroke-opacity:1;stroke-dasharray:none"
         id="path5576"
         inkscape:connector-curvature="0" /><g
         id="g5578"
         transform="scale(10,10)"><text
           transform="matrix(0,1,1,0,516.67,242.8)"
           id="text5580"><tspan
             style="font-size:20px;font-variant:normal;font-weight:normal;writing-mode:lr-tb;fill:#000000;fill-opacity:1;fill-rule:nonzero;stroke:none;font-family:Helvetica;-inkscape-font-specification:Helvetica"
             x="0 11.12 22.24"
             y="0"
             sodipodi:role="line"
             id="tspan5582">100</tspan></text>
</g><path
         d="m 4900,3533 -63,0 m -4096,0 63,0"
         style="fill:none;stroke:#000000;stroke-width:10;stroke-linecap:butt;stroke-linejoin:miter;stroke-miterlimit:10;stroke-opacity:1;stroke-dasharray:none"
         id="path5584"
         inkscape:connector-curvature="0" /><g
         id="g5586"
         transform="scale(10,10)"><text
           transform="matrix(0,1,1,0,516.67,339.4)"
           id="text5588"><tspan
             style="font-size:20px;font-variant:normal;font-weight:normal;writing-mode:lr-tb;fill:#000000;fill-opacity:1;fill-rule:nonzero;stroke:none;font-family:Helvetica;-inkscape-font-specification:Helvetica"
             x="0 11.12 22.24"
             y="0"
             sodipodi:role="line"
             id="tspan5590">200</tspan></text>
</g><path
         d="m 4900,4499 -63,0 m -4096,0 63,0"
         style="fill:none;stroke:#000000;stroke-width:10;stroke-linecap:butt;stroke-linejoin:miter;stroke-miterlimit:10;stroke-opacity:1;stroke-dasharray:none"
         id="path5592"
         inkscape:connector-curvature="0" /><g
         id="g5594"
         transform="scale(10,10)"><text
           transform="matrix(0,1,1,0,516.67,436)"
           id="text5596"><tspan
             style="font-size:20px;font-variant:normal;font-weight:normal;writing-mode:lr-tb;fill:#000000;fill-opacity:1;fill-rule:nonzero;stroke:none;font-family:Helvetica;-inkscape-font-specification:Helvetica"
             x="0 11.12 22.24"
             y="0"
             sodipodi:role="line"
             id="tspan5598">300</tspan></text>
</g><path
         d="m 4900,5466 -63,0 m -4096,0 63,0"
         style="fill:none;stroke:#000000;stroke-width:10;stroke-linecap:butt;stroke-linejoin:miter;stroke-miterlimit:10;stroke-opacity:1;stroke-dasharray:none"
         id="path5600"
         inkscape:connector-curvature="0" /><g
         id="g5602"
         transform="scale(10,10)"><text
           transform="matrix(0,1,1,0,516.67,532.7)"
           id="text5604"><tspan
             style="font-size:20px;font-variant:normal;font-weight:normal;writing-mode:lr-tb;fill:#000000;fill-opacity:1;fill-rule:nonzero;stroke:none;font-family:Helvetica;-inkscape-font-specification:Helvetica"
             x="0 11.12 22.24"
             y="0"
             sodipodi:role="line"
             id="tspan5606">400</tspan></text>
</g><path
         d="m 4900,6433 -63,0 m -4096,0 63,0"
         style="fill:none;stroke:#000000;stroke-width:10;stroke-linecap:butt;stroke-linejoin:miter;stroke-miterlimit:10;stroke-opacity:1;stroke-dasharray:none"
         id="path5608"
         inkscape:connector-curvature="0" /><g
         id="g5610"
         transform="scale(10,10)"><text
           transform="matrix(0,1,1,0,516.67,629.4)"
           id="text5612"><tspan
             style="font-size:20px;font-variant:normal;font-weight:normal;writing-mode:lr-tb;fill:#000000;fill-opacity:1;fill-rule:nonzero;stroke:none;font-family:Helvetica;-inkscape-font-specification:Helvetica"
             x="0 11.12 22.24"
             y="0"
             sodipodi:role="line"
             id="tspan5614">500</tspan></text>
</g><path
         d="m 4900,7399 -63,0 m -4096,0 63,0"
         style="fill:none;stroke:#000000;stroke-width:10;stroke-linecap:butt;stroke-linejoin:miter;stroke-miterlimit:10;stroke-opacity:1;stroke-dasharray:none"
         id="path5616"
         inkscape:connector-curvature="0" /><g
         id="g5618"
         transform="scale(10,10)"><text
           transform="matrix(0,1,1,0,516.67,726)"
           id="text5620"><tspan
             style="font-size:20px;font-variant:normal;font-weight:normal;writing-mode:lr-tb;fill:#000000;fill-opacity:1;fill-rule:nonzero;stroke:none;font-family:Helvetica;-inkscape-font-specification:Helvetica"
             x="0 11.12 22.24"
             y="0"
             sodipodi:role="line"
             id="tspan5622">600</tspan></text>
</g><path
         d="m 741,1600 4159,0 0,5799 -4159,0 0,-5799 z"
         style="fill:none;stroke:#000000;stroke-width:10;stroke-linecap:butt;stroke-linejoin:miter;stroke-miterlimit:10;stroke-opacity:1;stroke-dasharray:none"
         id="path5624"
         inkscape:connector-curvature="0" /><g
         id="g5626"
         transform="scale(10,10)"><text
           transform="matrix(-1,0,0,1,387.138,84.6699)"
           id="text5628"><tspan
             style="font-size:20px;font-variant:normal;font-weight:normal;writing-mode:lr-tb;fill:#000000;fill-opacity:1;fill-rule:nonzero;stroke:none;font-family:Helvetica;-inkscape-font-specification:Helvetica"
             x="0 12.22 18.879999 30 40 45.560001 50 61.119999 72.239998 77.800003 88.919998 94.480003 100.04 105.6 116.72 127.84 133.39999 150.06 161.17999 172.3 176.74001 182.3 193.42 200.08"
             y="0"
             sodipodi:role="line"
             id="tspan5630">Fraction of the monitors</tspan></text>
<text
           transform="matrix(0,1,1,0,546.67,370.431)"
           id="text5632"><tspan
             style="font-size:20px;font-variant:normal;font-weight:normal;writing-mode:lr-tb;fill:#000000;fill-opacity:1;fill-rule:nonzero;stroke:none;font-family:Helvetica;-inkscape-font-specification:Helvetica"
             x="0 14.44 25.559999 42.220001 53.34 64.459999 71.120003 76.68 87.800003 93.360001 98.919998 110.04 121.16 126.72 133.38 137.82001 148.94"
             y="0"
             sodipodi:role="line"
             id="tspan5634">Number of entries</tspan><tspan
             style="font-size:20px;font-variant:normal;font-weight:normal;writing-mode:lr-tb;fill:#000000;fill-opacity:1;fill-rule:nonzero;stroke:none;font-family:Helvetica;-inkscape-font-specification:Helvetica"
             x="163.59 180.25 191.37 201.37 206.92999 212.49001 222.49001 233.61 244.73 254.73 259.17001 264.73001 269.17001"
             y="-449.60001"
             sodipodi:role="line"
             id="tspan5636">Most specific</tspan></text>
</g><path
         d="m 904,6616 0,543 m -163,-5540 9,10 7,10 8,9 11,10 5,10 15,9 11,10 15,10 19,9 8,10 23,10 26,9 23,10 17,10 16,9 26,10 254,10 582,29 4,9 3,10 1,10 1,9 2,10 2,10 6,9 1,29 1,10 3,19 6,10 4,10 1,19 7,10 1,19 1,19 2,20 1,9 1,29 3,10 4,10 2,9 2,10 3,10 3,9 2,10 3,10 7,19 4,10 1,9 2,10 1,10 4,9 4,10 1,19 3,10 3,10 4,29 1,9 2,10 1,10 1,9 4,10 2,10 1,9 5,10 3,10 3,9 4,10 1,19 2,10 5,10 1,9 2,10 4,10 5,9 3,10 2,10 5,9 16,10 5,10 8,9 3,10 3,10 1,9 4,10 5,9 7,10 8,10 7,9 7,10 9,10 8,9 7,10 4,10 4,9 4,10 3,10 5,9 6,10 2,10 9,9 8,10 2,10"
         style="fill:none;stroke:#ff0000;stroke-width:5;stroke-linecap:butt;stroke-linejoin:miter;stroke-miterlimit:10;stroke-opacity:1;stroke-dasharray:none"
         id="path5638"
         inkscape:connector-curvature="0" /><path
         d="m 2122,2760 4,9 7,10 10,10 4,9 8,10 16,10 19,9 21,10 32,10 32,9 34,10 42,10 25,9 35,10 37,10 27,9 40,10 39,10 48,9 28,10 26,10 25,9 13,10 17,10 12,9 10,10 11,10 12,9 4,10 5,10 8,9 3,10 7,10 15,9 9,10 16,10 4,9 4,10 12,10 19,9 4,10 2,10 6,9 11,10 12,10 13,9 4,10 10,10 15,9 14,10 3,10 12,9 10,10 11,10 10,9 2,10 11,10 14,9 16,10 7,10 15,9 17,10 16,10 19,9 15,10 20,10 15,9 15,10 23,10 26,9 28,10 36,10 37,9 44,10 52,10 43,9 43,10 81,10 41,9 43,10 39,10 50,9 42,10 49,10 37,9 31,10 29,10 19,9 16,10 12,10 7,9 8,10 3,10 6,9 3,10 7,10 6,19 5,10 5,9 4,10 5,10 6,9 4,10 4,10"
         style="fill:none;stroke:#ff0000;stroke-width:5;stroke-linecap:butt;stroke-linejoin:miter;stroke-miterlimit:10;stroke-opacity:1;stroke-dasharray:none"
         id="path5640"
         inkscape:connector-curvature="0" /><path
         d="m 4075,3775 7,9 15,10 6,10 7,9 11,10 8,10 9,9 8,10 7,10 7,9 12,10 7,10 5,9 6,10 2,10 8,9 6,10 5,10 6,9 6,10 4,10 6,9 4,10 4,10 7,9 1,10 5,19 3,49 6,9 1,10 4,10 1,19 4,19 2,10 2,10 2,9 1,10 3,19 1,10 3,10 3,9 2,20 3,9 1,29 3,20 3,29 4,9 4,10 1,10 2,9 1,10 1,19 3,20 1,9 2,48 1,10 1,10 3,9 3,10 2,39 2,9 1,58 2,10 1,29 1,19 3,29 1,20 3,29 1,19 2,10 1,9 3,20 1,38 1,10 2,29 1,29 1,29 2,77 1,10 2,58 1,68 1,48 2,10 1,9 1,107 2,58 1,154 1,20 2,77 1,155 1,9 3,39 1,29 2,116 1,10 2,87 4,9 1,29 1,10 2,10 1,9 1,29 2,20 1,9"
         style="fill:none;stroke:#ff0000;stroke-width:5;stroke-linecap:butt;stroke-linejoin:miter;stroke-miterlimit:10;stroke-opacity:1;stroke-dasharray:none"
         id="path5642"
         inkscape:connector-curvature="0" /><path
         d="m 4399,6239 1,10 2,10 1,9 3,20 2,9 2,29 1,10 2,10 1,19 1,10 3,9 3,10 2,10 3,9 1,10 4,10 7,9 6,10 4,9 2,10 4,10 8,9 9,10 4,10 12,9 8,10 16,10 18,9 17,10 16,10 9,9 12,10 19,10 21,9 26,10 20,10 27,9 24,10 31,10 18,9 30,10 21,10 23,9 27,10 6,10 6,9 6,10 1,10 4,9 3,10 1,19 2,29"
         style="fill:none;stroke:#ff0000;stroke-width:5;stroke-linecap:butt;stroke-linejoin:miter;stroke-miterlimit:10;stroke-opacity:1;stroke-dasharray:none"
         id="path5644"
         inkscape:connector-curvature="0" /><g
         id="g5646"
         transform="scale(10,10)"><text
           transform="matrix(0,1,1,0,117.07,600.721)"
           id="text5648"><tspan
             style="font-size:20px;font-variant:normal;font-weight:normal;writing-mode:lr-tb;fill:#000000;fill-opacity:1;fill-rule:nonzero;stroke:none;font-family:Helvetica;-inkscape-font-specification:Helvetica"
             x="0 14.44 20 34.439999"
             y="0"
             sodipodi:role="line"
             id="tspan5650">CIDR</tspan></text>
</g><path
         d="m 1104,6616 0,543 m -363,-5540 2,10 22,10 42,9 37,10 27,10 55,9 81,10 44,10 83,9 91,10 123,10 96,9 143,10 143,10 105,9 100,10 76,10 33,9 7,10 6,10 7,9 5,10 8,10 2,9 11,10 11,10 3,9 9,10 4,10 6,9 12,10 2,10 11,9 2,10 6,10 9,9 11,10 9,10 11,9 13,10 9,10 9,9 6,10 9,10 9,19 9,10 4,9 9,10 4,10 5,9 8,10 3,10 8,9 1,10 11,10 6,9 5,10 8,10 2,9 11,10 11,10 11,9 7,10 7,10 6,9 5,10 6,10 9,9 13,10 9,10 9,9 7,10 10,10 11,9 5,10 8,10 1,9 13,10 11,10 22,9 8,10 12,10 13,9 11,10 11,10 13,9 13,10 24,10 16,9 13,10 11,10 26,9 20,10 9,10 15,9 15,10 27,10 17,9 23,10 15,9 9,10 13,10"
         style="fill:none;stroke:#00ff00;stroke-width:5;stroke-linecap:butt;stroke-linejoin:miter;stroke-miterlimit:10;stroke-opacity:1;stroke-dasharray:none"
         id="path5652"
         inkscape:connector-curvature="0" /><path
         d="m 2860,2615 22,9 22,10 6,10 9,19 11,10 13,9 18,10 6,10 12,9 6,10 5,10 10,9 7,10 9,10 20,9 4,10 5,10 11,9 6,10 13,10 5,9 4,10 18,10 8,9 16,10 24,10 18,9 8,10 14,10 17,9 26,10 22,10 18,9 24,10 20,10 15,9 42,10 22,10 16,9 24,10 37,10 31,9 22,10 37,10 29,9 33,10 44,10 48,9 55,10 55,10 51,9 37,10 42,10 39,9 35,10 36,10 24,9 18,10 24,10 39,9 22,10 7,10 7,9 8,10 9,10 15,9 14,10 10,10 5,9 7,10 2,10 6,9 2,10 3,10 9,9 4,10 2,10 11,9 7,10 6,10 5,9 8,10 3,10 6,9 9,10 7,10 9,9 6,10 5,10 8,9 5,10 6,10 11,9 2,10 3,10 6,9 13,10 5,10 13,19 4,10 3,9 4,10 5,10 6,9"
         style="fill:none;stroke:#00ff00;stroke-width:5;stroke-linecap:butt;stroke-linejoin:miter;stroke-miterlimit:10;stroke-opacity:1;stroke-dasharray:none"
         id="path5654"
         inkscape:connector-curvature="0" /><path
         d="m 4480,3639 5,10 6,10 2,9 5,20 4,9 4,10 3,10 4,9 2,39 2,19 5,10 2,10 2,9 2,10 3,39 2,9 4,10 2,39 2,9 1,10 4,10 4,19 2,10 5,19 4,29 2,10 1,9 2,78 2,29 2,19 2,19 2,10 1,19 4,20 6,9 3,10 4,19 4,20 1,9 2,20 2,9 2,39 2,39 2,48 1,10 2,19 4,9 2,29 2,10 3,19 2,20 2,29 5,9 6,20 2,9 2,10 1,19 2,29 2,49 6,29 1,19 2,10 2,19 4,10 2,19 1,29 4,10 2,9 2,10 2,19 3,20 2,29 2,9 2,58 2,20 5,9 2,39 2,10 3,9 2,10 2,10 2,19 2,48 5,10 4,10 2,9 3,20 2,9 2,10 4,10 2,9 3,20 2,19 4,10 2,9 3,10 4,10 2,9 5,10 6,29 2,19 1,29 4,10 2,29"
         style="fill:none;stroke:#00ff00;stroke-width:5;stroke-linecap:butt;stroke-linejoin:miter;stroke-miterlimit:10;stroke-opacity:1;stroke-dasharray:none"
         id="path5656"
         inkscape:connector-curvature="0" /><path
         d="m 4768,5524 2,10 3,9 4,39 2,29 5,10 4,9 2,10 2,29 2,19 1,20 2,29 2,9 2,49 5,9 2,20 2,19 7,19 4,10 2,10 2,9 5,10 2,10 2,9 4,10 5,10 2,9 4,10 1,19 2,10 6,10 3,9 2,10 2,29 2,10 2,9 2,10 1,10 2,9 2,39 2,39 4,19 1,19 2,49 2,38 4,10 2,58 3,39 2,9"
         style="fill:none;stroke:#00ff00;stroke-width:5;stroke-linecap:butt;stroke-linejoin:miter;stroke-miterlimit:10;stroke-opacity:1;stroke-dasharray:none"
         id="path5658"
         inkscape:connector-curvature="0" /><g
         id="g5660"
         transform="scale(10,10)"><text
           transform="matrix(0,1,1,0,137.07,551.242)"
           id="text5662"><tspan
             style="font-size:20px;font-variant:normal;font-weight:normal;writing-mode:lr-tb;fill:#000000;fill-opacity:1;fill-rule:nonzero;stroke:none;font-family:Helvetica;-inkscape-font-specification:Helvetica"
             x="0 14.44 20 34.439999 48.880001 54.439999 66.120003 71.68 85.019997"
             y="0"
             sodipodi:role="line"
             id="tspan5664">CIDR + AS</tspan></text>
</g><path
         d="m 1304,6616 0,543 m -563,-5530 19,10 15,9 19,10 8,10 11,9 11,10 12,10 22,9 46,10 41,10 87,9 136,10 291,10 375,9 4,49 7,38 4,29 4,20 3,19 4,10 8,29 4,9 3,58 4,20 4,9 11,10 4,10 4,9 4,10 15,29 3,19 4,10 4,39 4,38 7,10 8,19 7,10 8,10 4,9 7,58 8,10 8,10 3,9 8,10 4,10 22,9 12,10 3,10 23,9 11,20 4,19 8,10 4,9 19,10 11,10 11,9 8,10 11,10 11,19 8,19 23,19 19,10 15,10 38,9 30,10 15,10 41,9 42,10 49,10 64,9 42,10 38,10 76,9 83,10 45,10 38,9 38,10 64,10 42,9 26,10 53,10 38,9 56,10 34,10 65,9 60,10 42,10 41,9 50,10 49,10 41,9 61,10 30,10 64,9 76,10 34,10 49,9 46,10 64,10 38,9 34,10 37,10"
         style="fill:none;stroke:#0000ff;stroke-width:5;stroke-linecap:butt;stroke-linejoin:miter;stroke-miterlimit:10;stroke-opacity:1;stroke-dasharray:none"
         id="path5666"
         inkscape:connector-curvature="0" /><path
         d="m 4064,2992 12,9 38,10 45,10 23,9 19,10 22,10 19,9 15,10 12,10 22,9 19,10 34,10 15,9 19,10 15,10 19,9 4,10 15,19 4,10 11,10 4,9 8,10 11,10 4,9 11,20 4,9 11,10 4,10 4,9 4,10 3,19 4,10 4,10 4,29 3,19 12,10 4,9 7,29 4,29 4,20 7,19 4,48 4,10 4,10 7,96 4,58 4,49 4,9 3,10 4,19 4,58 4,20 3,29 4,48 4,10 4,125 7,39 4,10 4,9 11,10 30,10 42,9 23,10 49,10 23,9 30,10 11,10 15,9 15,10"
         style="fill:none;stroke:#0000ff;stroke-width:5;stroke-linecap:butt;stroke-linejoin:miter;stroke-miterlimit:10;stroke-opacity:1;stroke-dasharray:none"
         id="path5668"
         inkscape:connector-curvature="0" /><path
         d="m 741,1600 4159,0 0,5799 -4159,0 0,-5799 z"
         style="fill:none;stroke:#000000;stroke-width:10;stroke-linecap:butt;stroke-linejoin:miter;stroke-miterlimit:10;stroke-opacity:1;stroke-dasharray:none"
         id="path5670"
         inkscape:connector-curvature="0" /></g></g></svg>