<?xml version="1.0" encoding="UTF-8" standalone="no"?>
<!-- Created with Inkscape (http://www.inkscape.org/) -->

<svg
   xmlns:ns0="http://www.iki.fi/pav/software/textext/"
   xmlns:dc="http://purl.org/dc/elements/1.1/"
   xmlns:cc="http://creativecommons.org/ns#"
   xmlns:rdf="http://www.w3.org/1999/02/22-rdf-syntax-ns#"
   xmlns:svg="http://www.w3.org/2000/svg"
   xmlns="http://www.w3.org/2000/svg"
   xmlns:sodipodi="http://sodipodi.sourceforge.net/DTD/sodipodi-0.dtd"
   xmlns:inkscape="http://www.inkscape.org/namespaces/inkscape"
   width="550.28571"
   height="149.98383"
   id="svg2"
   version="1.1"
   inkscape:version="0.48.4 r9939"
   sodipodi:docname="intro-l2-l3.svg">
  <sodipodi:namedview
     id="base"
     pagecolor="#ffffff"
     bordercolor="#666666"
     borderopacity="1.0"
     inkscape:pageopacity="0.0"
     inkscape:pageshadow="2"
     inkscape:zoom="1.4"
     inkscape:cx="357.32978"
     inkscape:cy="-21.846066"
     inkscape:document-units="px"
     inkscape:current-layer="layer1"
     showgrid="false"
     inkscape:window-width="1920"
     inkscape:window-height="1061"
     inkscape:window-x="-4"
     inkscape:window-y="10"
     inkscape:window-maximized="1"
     fit-margin-top="0"
     fit-margin-left="0"
     fit-margin-right="0"
     fit-margin-bottom="0" />
  <defs
     id="defs4" />
  <metadata
     id="metadata7">
    <rdf:RDF>
      <cc:Work
         rdf:about="">
        <dc:format>image/svg+xml</dc:format>
        <dc:type
           rdf:resource="http://purl.org/dc/dcmitype/StillImage" />
        <dc:title />
      </cc:Work>
    </rdf:RDF>
  </metadata>
  <g
     inkscape:label="Layer 1"
     inkscape:groupmode="layer"
     id="layer1"
     transform="translate(-59.642855,-113.29075)">
    <path
       transform="translate(-26.071401,31.349052)"
       d="m 404.2857,160.93361 c 0,26.43077 -21.42637,47.85714 -47.85714,47.85714 -26.43077,0 -47.85715,-21.42637 -47.85715,-47.85714 0,-26.43077 21.42638,-47.85714 47.85715,-47.85714 26.43077,0 47.85714,21.42637 47.85714,47.85714 z"
       sodipodi:ry="47.857143"
       sodipodi:rx="47.857143"
       sodipodi:cy="160.93361"
       sodipodi:cx="356.42856"
       id="path4363"
       style="fill:#ffffff;fill-opacity:1;stroke:#000000;stroke-width:1;stroke-miterlimit:4;stroke-dasharray:none;stroke-dashoffset:0"
       sodipodi:type="arc" />
    <path
       transform="translate(205.14287,14.231814)"
       d="m 404.2857,160.93361 c 0,26.43077 -21.42637,47.85714 -47.85714,47.85714 -26.43077,0 -47.85715,-21.42637 -47.85715,-47.85714 0,-26.43077 21.42638,-47.85714 47.85715,-47.85714 26.43077,0 47.85714,21.42637 47.85714,47.85714 z"
       sodipodi:ry="47.857143"
       sodipodi:rx="47.857143"
       sodipodi:cy="160.93361"
       sodipodi:cx="356.42856"
       id="path4363-4"
       style="fill:#ffffff;fill-opacity:1;stroke:#000000;stroke-width:1;stroke-miterlimit:4;stroke-dasharray:none;stroke-dashoffset:0"
       sodipodi:type="arc" />
    <path
       transform="translate(-248.42856,14.231807)"
       d="m 404.2857,160.93361 c 0,26.43077 -21.42637,47.85714 -47.85714,47.85714 -26.43077,0 -47.85715,-21.42637 -47.85715,-47.85714 0,-26.43077 21.42638,-47.85714 47.85715,-47.85714 26.43077,0 47.85714,21.42637 47.85714,47.85714 z"
       sodipodi:ry="47.857143"
       sodipodi:rx="47.857143"
       sodipodi:cy="160.93361"
       sodipodi:cx="356.42856"
       id="path4363-2"
       style="fill:#ffffff;fill-opacity:1;stroke:#000000;stroke-width:1;stroke-miterlimit:4;stroke-dasharray:none;stroke-dashoffset:0"
       sodipodi:type="arc" />
    <g
       ns0:preamble=""
       ns0:text="$\\overline{u}$"
       word-spacing="normal"
       letter-spacing="normal"
       font-size-adjust="none"
       font-stretch="normal"
       font-weight="normal"
       font-variant="normal"
       font-style="normal"
       stroke-miterlimit="10.433"
       xml:space="preserve"
       transform="matrix(2,0,0,-2,-122.20284,1612.3017)"
       id="content"
       style="font-style:normal;font-variant:normal;font-weight:normal;font-stretch:normal;letter-spacing:normal;word-spacing:normal;text-anchor:start;fill:none;stroke:#000000;stroke-linecap:butt;stroke-linejoin:miter;stroke-miterlimit:10.43299961;stroke-opacity:1;stroke-dasharray:none;stroke-dashoffset:0">
<line
   id="line4454"
   y2="712.81"
   x2="229.13"
   y1="712.81"
   x1="223.42999"
   style="stroke-width:0.398" />
<path
   id="path4456"
   d="m 226.92,707.68 0.01,-0.04 0.01,-0.03 0.02,-0.04 0.01,-0.04 0.02,-0.03 0.02,-0.03 0.01,-0.04 0.02,-0.03 0.02,-0.03 0.03,-0.03 0.02,-0.02 0.03,-0.03 0.02,-0.03 0.03,-0.02 0.02,-0.02 0.03,-0.03 0.03,-0.02 0.03,-0.02 0.03,-0.02 0.04,-0.01 0.03,-0.02 0.03,-0.01 0.04,-0.02 0.03,-0.01 0.04,-0.01 0.03,-0.01 0.04,-0.01 0.04,-0.01 0.04,0 0.04,0 0.04,-0.01 0.04,0 c 0.34,0 0.57,0.23 0.73,0.55 0.17,0.36 0.3,0.97 0.3,0.99 0,0.1 -0.09,0.1 -0.12,0.1 -0.1,0 -0.11,-0.04 -0.14,-0.18 -0.14,-0.56 -0.33,-1.24 -0.74,-1.24 -0.21,0 -0.31,0.13 -0.31,0.46 0,0.22 0.12,0.69 0.2,1.04 l 0.28,1.07 c 0.03,0.15 0.12,0.53 0.17,0.68 0.05,0.23 0.14,0.61 0.14,0.67 0,0.18 -0.14,0.27 -0.28,0.27 -0.05,0 -0.31,-0.01 -0.39,-0.35 -0.19,-0.73 -0.63,-2.47 -0.75,-3 -0.01,-0.04 -0.41,-0.84 -1.14,-0.84 -0.51,0 -0.61,0.45 -0.61,0.82 0,0.56 0.28,1.34 0.53,2.03 0.12,0.3 0.17,0.44 0.17,0.63 0,0.45 -0.31,0.82 -0.81,0.82 -0.95,0 -1.32,-1.45 -1.32,-1.54 0,-0.1 0.1,-0.1 0.12,-0.1 0.1,0 0.11,0.02 0.16,0.18 0.25,0.87 0.63,1.24 1.01,1.24 0.09,0 0.25,-0.01 0.25,-0.33 0,-0.24 -0.11,-0.53 -0.17,-0.68 -0.37,-0.99 -0.58,-1.6 -0.58,-2.09 0,-0.95 0.69,-1.2 1.22,-1.2 0.66,0 1.02,0.45 1.19,0.67 z"
   inkscape:connector-curvature="0"
   style="fill:#000000;stroke-width:0" />
</g>    <g
       id="g5439">
      <path
         inkscape:transform-center-x="-58.422053"
         transform="matrix(0.309017,0.95105651,-0.95105651,0.309017,404.85468,-10.684012)"
         inkscape:transform-center-y="-18.982471"
         d="m 190.71429,72.719322 c 0,10.453962 -8.47461,18.928572 -18.92857,18.928572 -10.45396,0 -18.92857,-8.47461 -18.92857,-18.928572 0,-10.453961 8.47461,-18.928571 18.92857,-18.928571 10.45396,0 18.92857,8.47461 18.92857,18.928571 z"
         sodipodi:ry="18.928572"
         sodipodi:rx="18.928572"
         sodipodi:cy="72.719322"
         sodipodi:cx="171.78572"
         id="path4350"
         style="fill:#ffffff;fill-opacity:1;stroke:#000000;stroke-width:1;stroke-miterlimit:4;stroke-dasharray:none;stroke-dashoffset:0"
         sodipodi:type="arc" />
      <g
         ns0:preamble=""
         ns0:text="$u_1$"
         word-spacing="normal"
         letter-spacing="normal"
         font-size-adjust="none"
         font-stretch="normal"
         font-weight="normal"
         font-variant="normal"
         font-style="normal"
         stroke-miterlimit="10.433"
         xml:space="preserve"
         transform="matrix(2,0,0,-2,-67.370797,1592.3254)"
         id="g4730"
         style="font-style:normal;font-variant:normal;font-weight:normal;font-stretch:normal;letter-spacing:normal;word-spacing:normal;text-anchor:start;fill:none;stroke:#000000;stroke-linecap:butt;stroke-linejoin:miter;stroke-miterlimit:10.43299961;stroke-opacity:1;stroke-dasharray:none;stroke-dashoffset:0">
<path
   id="path4732"
   d="m 226.92,707.68 0.01,-0.04 0.01,-0.03 0.02,-0.04 0.01,-0.04 0.02,-0.03 0.02,-0.03 0.01,-0.04 0.02,-0.03 0.02,-0.03 0.03,-0.03 0.02,-0.02 0.03,-0.03 0.02,-0.03 0.03,-0.02 0.02,-0.02 0.03,-0.03 0.03,-0.02 0.03,-0.02 0.03,-0.02 0.04,-0.01 0.03,-0.02 0.03,-0.01 0.04,-0.02 0.03,-0.01 0.04,-0.01 0.03,-0.01 0.04,-0.01 0.04,-0.01 0.04,0 0.04,0 0.04,-0.01 0.04,0 c 0.34,0 0.57,0.23 0.73,0.55 0.17,0.36 0.3,0.97 0.3,0.99 0,0.1 -0.09,0.1 -0.12,0.1 -0.1,0 -0.11,-0.04 -0.14,-0.18 -0.14,-0.56 -0.33,-1.24 -0.74,-1.24 -0.21,0 -0.31,0.13 -0.31,0.46 0,0.22 0.12,0.69 0.2,1.04 l 0.28,1.07 c 0.03,0.15 0.12,0.53 0.17,0.68 0.05,0.23 0.14,0.61 0.14,0.67 0,0.18 -0.14,0.27 -0.28,0.27 -0.05,0 -0.31,-0.01 -0.39,-0.35 -0.19,-0.73 -0.63,-2.47 -0.75,-3 -0.01,-0.04 -0.41,-0.84 -1.14,-0.84 -0.51,0 -0.61,0.45 -0.61,0.82 0,0.56 0.28,1.34 0.53,2.03 0.12,0.3 0.17,0.44 0.17,0.63 0,0.45 -0.31,0.82 -0.81,0.82 -0.95,0 -1.32,-1.45 -1.32,-1.54 0,-0.1 0.1,-0.1 0.12,-0.1 0.1,0 0.11,0.02 0.16,0.18 0.25,0.87 0.63,1.24 1.01,1.24 0.09,0 0.25,-0.01 0.25,-0.33 0,-0.24 -0.11,-0.53 -0.17,-0.68 -0.37,-0.99 -0.58,-1.6 -0.58,-2.09 0,-0.95 0.69,-1.2 1.22,-1.2 0.66,0 1.02,0.45 1.19,0.67 z"
   inkscape:connector-curvature="0"
   style="fill:#000000;stroke-width:0" />
<path
   id="path4734"
   d="m 231.47,710.07 0,0 0,0.01 0,0.01 0,0.01 0,0.01 0,0 0,0.01 0,0.01 0,0 0,0.01 0,0.01 0,0 0,0.01 0,0 -0.01,0.01 0,0.01 0,0 0,0.01 0,0 0,0.01 -0.01,0.01 0,0.01 0,0 -0.01,0.01 0,0 -0.01,0.01 0,0 -0.01,0.01 -0.01,0 -0.01,0 -0.01,0 0,0.01 -0.01,0 -0.01,0 0,0 -0.01,0 0,0 -0.01,0 0,0 -0.01,0 -0.01,0 -0.01,0 0,0 -0.01,0 -0.01,0 -0.01,0 0,0 -0.01,0 -0.01,0 -0.01,0 c -0.45,-0.44 -1.08,-0.45 -1.37,-0.45 v -0.25 c 0.17,0 0.63,0 1.01,0.2 v -3.56 c 0,-0.23 0,-0.32 -0.69,-0.32 h -0.27 v -0.25 c 1.24,0 0.13,0.01 0.99,0.03 0.25,0 0.47,0 1.35,-0.02 l 0.15,0.24 h -0.26 c -0.7,0 -0.7,0.09 -0.7,0.32 z"
   inkscape:connector-curvature="0"
   style="fill:#000000;stroke-width:0" />
</g>    </g>
    <g
       id="g5445">
      <path
         inkscape:transform-center-y="-61.428571"
         d="m 190.71429,72.719322 c 0,10.453962 -8.47461,18.928572 -18.92857,18.928572 -10.45396,0 -18.92857,-8.47461 -18.92857,-18.928572 0,-10.453961 8.47461,-18.928571 18.92857,-18.928571 10.45396,0 18.92857,8.47461 18.92857,18.928571 z"
         sodipodi:ry="18.928572"
         sodipodi:rx="18.928572"
         sodipodi:cy="72.719322"
         sodipodi:cx="171.78572"
         id="path4321"
         style="fill:#ffffff;fill-opacity:1;stroke:#000000;stroke-width:1;stroke-miterlimit:4;stroke-dasharray:none;stroke-dashoffset:0"
         sodipodi:type="arc"
         transform="translate(158.57143,60)" />
      <g
         style="font-style:normal;font-variant:normal;font-weight:normal;font-stretch:normal;letter-spacing:normal;word-spacing:normal;text-anchor:start;fill:none;stroke:#000000;stroke-linecap:butt;stroke-linejoin:miter;stroke-miterlimit:10.43299961;stroke-opacity:1;stroke-dasharray:none;stroke-dashoffset:0"
         id="g4804"
         transform="matrix(2,0,0,-2,-126.09285,1549.7393)"
         xml:space="preserve"
         stroke-miterlimit="10.433"
         font-style="normal"
         font-variant="normal"
         font-weight="normal"
         font-stretch="normal"
         font-size-adjust="none"
         letter-spacing="normal"
         word-spacing="normal"
         ns0:text="$u_0$"
         ns0:preamble="">
<path
   style="fill:#000000;stroke-width:0"
   inkscape:connector-curvature="0"
   d="m 226.92,707.68 0.01,-0.04 0.01,-0.03 0.02,-0.04 0.01,-0.04 0.02,-0.03 0.02,-0.03 0.01,-0.04 0.02,-0.03 0.02,-0.03 0.03,-0.03 0.02,-0.02 0.03,-0.03 0.02,-0.03 0.03,-0.02 0.02,-0.02 0.03,-0.03 0.03,-0.02 0.03,-0.02 0.03,-0.02 0.04,-0.01 0.03,-0.02 0.03,-0.01 0.04,-0.02 0.03,-0.01 0.04,-0.01 0.03,-0.01 0.04,-0.01 0.04,-0.01 0.04,0 0.04,0 0.04,-0.01 0.04,0 c 0.34,0 0.57,0.23 0.73,0.55 0.17,0.36 0.3,0.97 0.3,0.99 0,0.1 -0.09,0.1 -0.12,0.1 -0.1,0 -0.11,-0.04 -0.14,-0.18 -0.14,-0.56 -0.33,-1.24 -0.74,-1.24 -0.21,0 -0.31,0.13 -0.31,0.46 0,0.22 0.12,0.69 0.2,1.04 l 0.28,1.07 c 0.03,0.15 0.12,0.53 0.17,0.68 0.05,0.23 0.14,0.61 0.14,0.67 0,0.18 -0.14,0.27 -0.28,0.27 -0.05,0 -0.31,-0.01 -0.39,-0.35 -0.19,-0.73 -0.63,-2.47 -0.75,-3 -0.01,-0.04 -0.41,-0.84 -1.14,-0.84 -0.51,0 -0.61,0.45 -0.61,0.82 0,0.56 0.28,1.34 0.53,2.03 0.12,0.3 0.17,0.44 0.17,0.63 0,0.45 -0.31,0.82 -0.81,0.82 -0.95,0 -1.32,-1.45 -1.32,-1.54 0,-0.1 0.1,-0.1 0.12,-0.1 0.1,0 0.11,0.02 0.16,0.18 0.25,0.87 0.63,1.24 1.01,1.24 0.09,0 0.25,-0.01 0.25,-0.33 0,-0.24 -0.11,-0.53 -0.17,-0.68 -0.37,-0.99 -0.58,-1.6 -0.58,-2.09 0,-0.95 0.69,-1.2 1.22,-1.2 0.66,0 1.02,0.45 1.19,0.67 z"
   id="path4806" />
<path
   style="fill:#000000;stroke-width:0"
   inkscape:connector-curvature="0"
   d="m 232.73,707.85 0,0.15 0,0.13 -0.01,0.13 -0.01,0.13 -0.01,0.13 -0.01,0.11 -0.02,0.12 -0.02,0.11 -0.03,0.11 -0.03,0.11 -0.03,0.1 -0.04,0.1 -0.04,0.1 -0.05,0.09 -0.05,0.1 -0.03,0.05 -0.03,0.04 c -0.22,0.32 -0.65,0.6 -1.21,0.6 -1.62,0 -1.62,-1.9 -1.62,-2.41 0,-0.5 0,-2.36 1.62,-2.36 v 0.2 c -0.32,0 -0.74,0.18 -0.88,0.76 -0.1,0.41 -0.1,0.98 -0.1,1.5 0,0.5 0,1.03 0.1,1.42 0.15,0.55 0.6,0.7 0.88,0.7 0.38,0 0.74,-0.23 0.87,-0.64 0.11,-0.38 0.12,-0.88 0.12,-1.48 0,-0.52 0,-1.04 -0.09,-1.48 -0.14,-0.63 -0.62,-0.78 -0.9,-0.78 h 0 v -0.2 c 1.62,0 1.62,1.86 1.62,2.36 z"
   id="path4808" />
</g>    </g>
    <g
       style="font-style:normal;font-variant:normal;font-weight:normal;font-stretch:normal;letter-spacing:normal;word-spacing:normal;text-anchor:start;fill:none;stroke:#000000;stroke-linecap:butt;stroke-linejoin:miter;stroke-miterlimit:10.43299961;stroke-opacity:1;stroke-dasharray:none;stroke-dashoffset:0"
       id="g4870"
       transform="matrix(2,0,0,-2,-344.04999,1595.1844)"
       xml:space="preserve"
       stroke-miterlimit="10.433"
       font-style="normal"
       font-variant="normal"
       font-weight="normal"
       font-stretch="normal"
       font-size-adjust="none"
       letter-spacing="normal"
       word-spacing="normal"
       ns0:text="$\\overline{v}$"
       ns0:preamble="">
<line
   style="stroke-width:0.398"
   x1="223.42999"
   y1="712.81"
   x2="228.62"
   y2="712.81"
   id="line4872" />
<path
   style="fill:#000000;stroke-width:0"
   inkscape:connector-curvature="0"
   d="m 228.1,710.83 -0.01,0.02 0,0.03 0,0.02 0,0.03 0,0.02 0,0.02 0,0.02 -0.01,0.02 0,0.04 -0.01,0.04 -0.01,0.04 -0.01,0.03 -0.01,0.04 -0.01,0.03 -0.01,0.03 -0.02,0.03 -0.01,0.02 -0.02,0.03 -0.01,0.02 -0.02,0.02 -0.01,0.02 -0.02,0.02 -0.02,0.01 -0.02,0.02 -0.01,0.01 -0.02,0.01 -0.02,0.01 -0.02,0.01 -0.02,0.01 -0.02,0.01 -0.01,0 -0.02,0.01 -0.02,0 -0.02,0 -0.02,0.01 -0.01,0 c -0.25,0 -0.49,-0.26 -0.49,-0.48 0,-0.13 0.05,-0.19 0.16,-0.3 0.21,-0.2 0.34,-0.46 0.34,-0.82 0,-0.42 -0.61,-2.7 -1.78,-2.7 -0.51,0 -0.73,0.35 -0.73,0.87 0,0.56 0.27,1.28 0.57,2.11 0.07,0.17 0.12,0.31 0.12,0.5 0,0.45 -0.31,0.82 -0.81,0.82 -0.94,0 -1.32,-1.45 -1.32,-1.54 0,-0.1 0.1,-0.1 0.12,-0.1 0.1,0 0.11,0.02 0.16,0.18 0.29,1.01 0.72,1.24 1.01,1.24 0.08,0 0.25,0 0.25,-0.32 0,-0.25 -0.1,-0.52 -0.17,-0.7 -0.44,-1.15 -0.57,-1.61 -0.57,-2.04 0,-1.08 0.88,-1.24 1.33,-1.24 1.68,0 2.25,3.3 2.25,3.82 z"
   id="path4874" />
</g>    <g
       style="font-style:normal;font-variant:normal;font-weight:normal;font-stretch:normal;letter-spacing:normal;word-spacing:normal;text-anchor:start;fill:none;stroke:#000000;stroke-linecap:butt;stroke-linejoin:miter;stroke-miterlimit:10.43299961;stroke-opacity:1;stroke-dasharray:none;stroke-dashoffset:0"
       id="g4988"
       transform="matrix(2,0,0,-2,107.31143,1595.1844)"
       xml:space="preserve"
       stroke-miterlimit="10.433"
       font-style="normal"
       font-variant="normal"
       font-weight="normal"
       font-stretch="normal"
       font-size-adjust="none"
       letter-spacing="normal"
       word-spacing="normal"
       ns0:text="$\\overline{w}$"
       ns0:preamble="">
<line
   style="stroke-width:0.398"
   x1="223.42999"
   y1="712.81"
   x2="230.83"
   y2="712.81"
   id="line4990" />
<path
   style="fill:#000000;stroke-width:0"
   inkscape:connector-curvature="0"
   d="m 228.04,710.5 0,0.02 0,0.02 0.01,0.03 0.01,0.02 0,0.02 0.01,0.03 0.01,0.05 0.01,0.05 0.01,0.05 0.02,0.05 0.01,0.04 0,0.03 0.01,0.02 0.01,0.02 0,0.02 0.01,0.02 0,0.02 0,0.02 0.01,0.02 0,0.02 0.01,0.01 0,0.02 0,0.01 0,0.01 0,0.01 0,0.01 0,0.01 c 0,0.18 -0.14,0.27 -0.28,0.27 -0.12,0 -0.3,-0.08 -0.37,-0.28 -0.03,-0.07 -0.5,-1.98 -0.57,-2.23 -0.07,-0.3 -0.09,-0.48 -0.09,-0.66 0,-0.11 0,-0.13 0.01,-0.18 -0.23,-0.53 -0.53,-0.84 -0.92,-0.84 -0.79,0 -0.79,0.74 -0.79,0.91 0,0.32 0.05,0.71 0.51,1.93 0.11,0.3 0.17,0.44 0.17,0.64 0,0.45 -0.33,0.82 -0.81,0.82 -0.95,0 -1.32,-1.45 -1.32,-1.54 0,-0.1 0.1,-0.1 0.12,-0.1 0.1,0 0.11,0.02 0.16,0.18 0.27,0.93 0.66,1.24 1.01,1.24 0.09,0 0.25,-0.01 0.25,-0.33 0,-0.25 -0.11,-0.53 -0.18,-0.7 -0.44,-1.18 -0.56,-1.63 -0.56,-2.01 0,-0.91 0.67,-1.26 1.41,-1.26 0.17,0 0.64,0 1.04,0.7 0.26,-0.64 0.95,-0.7 1.24,-0.7 0.75,0 1.19,0.63 1.45,1.23 0.34,0.78 0.66,2.11 0.66,2.59 0,0.55 -0.27,0.7 -0.44,0.7 -0.25,0 -0.5,-0.26 -0.5,-0.48 0,-0.13 0.06,-0.19 0.15,-0.27 0.11,-0.11 0.36,-0.37 0.36,-0.85 0,-0.34 -0.29,-1.31 -0.55,-1.82 -0.26,-0.53 -0.61,-0.88 -1.1,-0.88 -0.46,0 -0.73,0.3 -0.73,0.87 0,0.28 0.07,0.59 0.11,0.73 z"
   id="path4992" />
</g>    <g
       id="g5451">
      <path
         inkscape:transform-center-x="-58.422053"
         transform="matrix(0.309017,0.95105651,-0.95105651,0.309017,517.64691,-10.684012)"
         inkscape:transform-center-y="-18.982471"
         d="m 190.71429,72.719322 c 0,10.453962 -8.47461,18.928572 -18.92857,18.928572 -10.45396,0 -18.92857,-8.47461 -18.92857,-18.928572 0,-10.453961 8.47461,-18.928571 18.92857,-18.928571 10.45396,0 18.92857,8.47461 18.92857,18.928571 z"
         sodipodi:ry="18.928572"
         sodipodi:rx="18.928572"
         sodipodi:cy="72.719322"
         sodipodi:cx="171.78572"
         id="path4350-5"
         style="fill:#ffffff;fill-opacity:1;stroke:#000000;stroke-width:1;stroke-miterlimit:4;stroke-dasharray:none;stroke-dashoffset:0"
         sodipodi:type="arc" />
      <g
         style="font-style:normal;font-variant:normal;font-weight:normal;font-stretch:normal;letter-spacing:normal;word-spacing:normal;text-anchor:start;fill:none;stroke:#000000;stroke-linecap:butt;stroke-linejoin:miter;stroke-miterlimit:10.43299961;stroke-opacity:1;stroke-dasharray:none;stroke-dashoffset:0"
         id="g5056"
         transform="matrix(2,0,0,-2,47.531433,1593.7054)"
         xml:space="preserve"
         stroke-miterlimit="10.433"
         font-style="normal"
         font-variant="normal"
         font-weight="normal"
         font-stretch="normal"
         font-size-adjust="none"
         letter-spacing="normal"
         word-spacing="normal"
         ns0:text="$w$"
         ns0:preamble="">
<path
   style="fill:#000000;stroke-width:0"
   inkscape:connector-curvature="0"
   d="m 228.04,710.5 0,0.02 0,0.02 0.01,0.03 0.01,0.02 0,0.02 0.01,0.03 0.01,0.05 0.01,0.05 0.01,0.05 0.02,0.05 0.01,0.04 0,0.03 0.01,0.02 0.01,0.02 0,0.02 0.01,0.02 0,0.02 0,0.02 0.01,0.02 0,0.02 0.01,0.01 0,0.02 0,0.01 0,0.01 0,0.01 0,0.01 0,0.01 c 0,0.18 -0.14,0.27 -0.28,0.27 -0.12,0 -0.3,-0.08 -0.37,-0.28 -0.03,-0.07 -0.5,-1.98 -0.57,-2.23 -0.07,-0.3 -0.09,-0.48 -0.09,-0.66 0,-0.11 0,-0.13 0.01,-0.18 -0.23,-0.53 -0.53,-0.84 -0.92,-0.84 -0.79,0 -0.79,0.74 -0.79,0.91 0,0.32 0.05,0.71 0.51,1.93 0.11,0.3 0.17,0.44 0.17,0.64 0,0.45 -0.33,0.82 -0.81,0.82 -0.95,0 -1.32,-1.45 -1.32,-1.54 0,-0.1 0.1,-0.1 0.12,-0.1 0.1,0 0.11,0.02 0.16,0.18 0.27,0.93 0.66,1.24 1.01,1.24 0.09,0 0.25,-0.01 0.25,-0.33 0,-0.25 -0.11,-0.53 -0.18,-0.7 -0.44,-1.18 -0.56,-1.63 -0.56,-2.01 0,-0.91 0.67,-1.26 1.41,-1.26 0.17,0 0.64,0 1.04,0.7 0.26,-0.64 0.95,-0.7 1.24,-0.7 0.75,0 1.19,0.63 1.45,1.23 0.34,0.78 0.66,2.11 0.66,2.59 0,0.55 -0.27,0.7 -0.44,0.7 -0.25,0 -0.5,-0.26 -0.5,-0.48 0,-0.13 0.06,-0.19 0.15,-0.27 0.11,-0.11 0.36,-0.37 0.36,-0.85 0,-0.34 -0.29,-1.31 -0.55,-1.82 -0.26,-0.53 -0.61,-0.88 -1.1,-0.88 -0.46,0 -0.73,0.3 -0.73,0.87 0,0.28 0.07,0.59 0.11,0.73 z"
   id="path5058" />
</g>    </g>
    <g
       id="g5433">
      <path
         sodipodi:type="arc"
         style="fill:#ffffff;fill-opacity:1;stroke:#000000;stroke-width:1;stroke-miterlimit:4;stroke-dasharray:none;stroke-dashoffset:0"
         id="path4348"
         sodipodi:cx="171.78572"
         sodipodi:cy="72.719322"
         sodipodi:rx="18.928572"
         sodipodi:ry="18.928572"
         d="m 190.71429,72.719322 c 0,10.453962 -8.47461,18.928572 -18.92857,18.928572 -10.45396,0 -18.92857,-8.47461 -18.92857,-18.928572 0,-10.453961 8.47461,-18.928571 18.92857,-18.928571 10.45396,0 18.92857,8.47461 18.92857,18.928571 z"
         inkscape:transform-center-y="49.696764"
         transform="matrix(-0.80901699,0.58778526,-0.58778526,-0.80901699,548.18487,201.70271)"
         inkscape:transform-center-x="-36.106807" />
      <g
         style="font-style:normal;font-variant:normal;font-weight:normal;font-stretch:normal;letter-spacing:normal;word-spacing:normal;text-anchor:start;fill:none;stroke:#000000;stroke-linecap:butt;stroke-linejoin:miter;stroke-miterlimit:10.43299961;stroke-opacity:1;stroke-dasharray:none;stroke-dashoffset:0"
         id="g5201"
         transform="matrix(2,0,0,-2,-89.906042,1661.0047)"
         xml:space="preserve"
         stroke-miterlimit="10.433"
         font-style="normal"
         font-variant="normal"
         font-weight="normal"
         font-stretch="normal"
         font-size-adjust="none"
         letter-spacing="normal"
         word-spacing="normal"
         ns0:text="$u_2$"
         ns0:preamble="">
<path
   style="fill:#000000;stroke-width:0"
   inkscape:connector-curvature="0"
   d="m 226.92,707.68 0.01,-0.04 0.01,-0.03 0.02,-0.04 0.01,-0.04 0.02,-0.03 0.02,-0.03 0.01,-0.04 0.02,-0.03 0.02,-0.03 0.03,-0.03 0.02,-0.02 0.03,-0.03 0.02,-0.03 0.03,-0.02 0.02,-0.02 0.03,-0.03 0.03,-0.02 0.03,-0.02 0.03,-0.02 0.04,-0.01 0.03,-0.02 0.03,-0.01 0.04,-0.02 0.03,-0.01 0.04,-0.01 0.03,-0.01 0.04,-0.01 0.04,-0.01 0.04,0 0.04,0 0.04,-0.01 0.04,0 c 0.34,0 0.57,0.23 0.73,0.55 0.17,0.36 0.3,0.97 0.3,0.99 0,0.1 -0.09,0.1 -0.12,0.1 -0.1,0 -0.11,-0.04 -0.14,-0.18 -0.14,-0.56 -0.33,-1.24 -0.74,-1.24 -0.21,0 -0.31,0.13 -0.31,0.46 0,0.22 0.12,0.69 0.2,1.04 l 0.28,1.07 c 0.03,0.15 0.12,0.53 0.17,0.68 0.05,0.23 0.14,0.61 0.14,0.67 0,0.18 -0.14,0.27 -0.28,0.27 -0.05,0 -0.31,-0.01 -0.39,-0.35 -0.19,-0.73 -0.63,-2.47 -0.75,-3 -0.01,-0.04 -0.41,-0.84 -1.14,-0.84 -0.51,0 -0.61,0.45 -0.61,0.82 0,0.56 0.28,1.34 0.53,2.03 0.12,0.3 0.17,0.44 0.17,0.63 0,0.45 -0.31,0.82 -0.81,0.82 -0.95,0 -1.32,-1.45 -1.32,-1.54 0,-0.1 0.1,-0.1 0.12,-0.1 0.1,0 0.11,0.02 0.16,0.18 0.25,0.87 0.63,1.24 1.01,1.24 0.09,0 0.25,-0.01 0.25,-0.33 0,-0.24 -0.11,-0.53 -0.17,-0.68 -0.37,-0.99 -0.58,-1.6 -0.58,-2.09 0,-0.95 0.69,-1.2 1.22,-1.2 0.66,0 1.02,0.45 1.19,0.67 z"
   id="path5203" />
<path
   style="fill:#000000;stroke-width:0"
   inkscape:connector-curvature="0"
   d="m 232.65,706.9 h -0.23 c -0.02,-0.15 -0.09,-0.57 -0.18,-0.63 -0.06,-0.05 -0.6,-0.05 -0.7,-0.05 h -1.28 c 0.73,0.65 0.98,0.85 1.4,1.17 0.51,0.42 0.99,0.85 0.99,1.51 0,0.84 -0.74,1.36 -1.63,1.36 -0.86,0 -1.45,-0.61 -1.45,-1.25 0,-0.35 0.3,-0.39 0.37,-0.39 0.17,0 0.37,0.12 0.37,0.37 0,0.13 -0.05,0.37 -0.41,0.37 0.22,0.5 0.69,0.65 1.02,0.65 0.7,0 1.06,-0.54 1.06,-1.11 0,-0.61 -0.44,-1.09 -0.66,-1.34 l -1.68,-1.66 c -0.07,-0.06 -0.07,-0.07 -0.07,-0.27 h 2.88 z"
   id="path5205" />
</g>    </g>
    <g
       id="g5426">
      <g
         id="g5423">
        <path
           sodipodi:type="arc"
           style="fill:#ffffff;fill-opacity:1;stroke:#000000;stroke-width:1;stroke-miterlimit:4;stroke-dasharray:none;stroke-dashoffset:0"
           id="path4346"
           sodipodi:cx="171.78572"
           sodipodi:cy="72.719322"
           sodipodi:rx="18.928572"
           sodipodi:ry="18.928572"
           d="m 190.71429,72.719322 c 0,10.453962 -8.47461,18.928572 -18.92857,18.928572 -10.45396,0 -18.92857,-8.47461 -18.92857,-18.928572 0,-10.453961 8.47461,-18.928571 18.92857,-18.928571 10.45396,0 18.92857,8.47461 18.92857,18.928571 z"
           inkscape:transform-center-y="49.696756"
           transform="matrix(-0.809017,-0.58778525,0.58778525,-0.809017,390.48456,403.64893)"
           inkscape:transform-center-x="36.106814" />
      </g>
      <g
         ns0:preamble=""
         ns0:text="$u_3$"
         word-spacing="normal"
         letter-spacing="normal"
         font-size-adjust="none"
         font-stretch="normal"
         font-weight="normal"
         font-variant="normal"
         font-style="normal"
         stroke-miterlimit="10.433"
         xml:space="preserve"
         transform="matrix(2,0,0,-2,-162.18966,1660.8646)"
         id="g5279"
         style="font-style:normal;font-variant:normal;font-weight:normal;font-stretch:normal;letter-spacing:normal;word-spacing:normal;text-anchor:start;fill:none;stroke:#000000;stroke-linecap:butt;stroke-linejoin:miter;stroke-miterlimit:10.43299961;stroke-opacity:1;stroke-dasharray:none;stroke-dashoffset:0">
<path
   id="path5281"
   d="m 226.92,707.68 0.01,-0.04 0.01,-0.03 0.02,-0.04 0.01,-0.04 0.02,-0.03 0.02,-0.03 0.01,-0.04 0.02,-0.03 0.02,-0.03 0.03,-0.03 0.02,-0.02 0.03,-0.03 0.02,-0.03 0.03,-0.02 0.02,-0.02 0.03,-0.03 0.03,-0.02 0.03,-0.02 0.03,-0.02 0.04,-0.01 0.03,-0.02 0.03,-0.01 0.04,-0.02 0.03,-0.01 0.04,-0.01 0.03,-0.01 0.04,-0.01 0.04,-0.01 0.04,0 0.04,0 0.04,-0.01 0.04,0 c 0.34,0 0.57,0.23 0.73,0.55 0.17,0.36 0.3,0.97 0.3,0.99 0,0.1 -0.09,0.1 -0.12,0.1 -0.1,0 -0.11,-0.04 -0.14,-0.18 -0.14,-0.56 -0.33,-1.24 -0.74,-1.24 -0.21,0 -0.31,0.13 -0.31,0.46 0,0.22 0.12,0.69 0.2,1.04 l 0.28,1.07 c 0.03,0.15 0.12,0.53 0.17,0.68 0.05,0.23 0.14,0.61 0.14,0.67 0,0.18 -0.14,0.27 -0.28,0.27 -0.05,0 -0.31,-0.01 -0.39,-0.35 -0.19,-0.73 -0.63,-2.47 -0.75,-3 -0.01,-0.04 -0.41,-0.84 -1.14,-0.84 -0.51,0 -0.61,0.45 -0.61,0.82 0,0.56 0.28,1.34 0.53,2.03 0.12,0.3 0.17,0.44 0.17,0.63 0,0.45 -0.31,0.82 -0.81,0.82 -0.95,0 -1.32,-1.45 -1.32,-1.54 0,-0.1 0.1,-0.1 0.12,-0.1 0.1,0 0.11,0.02 0.16,0.18 0.25,0.87 0.63,1.24 1.01,1.24 0.09,0 0.25,-0.01 0.25,-0.33 0,-0.24 -0.11,-0.53 -0.17,-0.68 -0.37,-0.99 -0.58,-1.6 -0.58,-2.09 0,-0.95 0.69,-1.2 1.22,-1.2 0.66,0 1.02,0.45 1.19,0.67 z"
   inkscape:connector-curvature="0"
   style="fill:#000000;stroke-width:0" />
<path
   id="path5283"
   d="m 231.04,707.96 0.05,0 0.05,-0.01 0.04,0 0.05,-0.01 0.05,-0.01 0.04,-0.01 0.05,-0.01 0.04,-0.02 0.04,-0.02 0.04,-0.02 0.04,-0.02 0.04,-0.03 0.04,-0.03 0.03,-0.03 0.04,-0.03 0.03,-0.03 0.03,-0.04 0.03,-0.04 0.02,-0.04 0.03,-0.04 0.02,-0.05 0.02,-0.04 0.02,-0.05 0.02,-0.05 0.02,-0.06 0.01,-0.05 0.01,-0.06 0.01,-0.06 0.01,-0.06 0.01,-0.07 0,-0.07 0,-0.06 c 0,-0.87 -0.5,-1.13 -0.91,-1.13 -0.27,0 -0.89,0.08 -1.18,0.49 0.33,0.02 0.4,0.25 0.4,0.39 0,0.23 -0.16,0.39 -0.38,0.39 -0.2,0 -0.39,-0.12 -0.39,-0.41 0,-0.65 0.72,-1.08 1.57,-1.08 0.97,0 1.64,0.65 1.64,1.35 0,0.54 -0.45,1.08 -1.22,1.25 0.74,0.26 1,0.78 1,1.21 0,0.55 -0.63,0.96 -1.41,0.96 -0.77,0 -1.36,-0.38 -1.36,-0.93 0,-0.24 0.15,-0.37 0.36,-0.37 0.21,0 0.35,0.16 0.35,0.35 0,0.2 -0.14,0.35 -0.35,0.36 0.24,0.31 0.72,0.39 0.98,0.39 0.31,0 0.75,-0.15 0.75,-0.76 0,-0.29 -0.09,-0.62 -0.28,-0.83 -0.22,-0.27 -0.42,-0.28 -0.77,-0.3 -0.17,-0.01 -0.19,-0.01 -0.22,-0.02 -0.02,0 -0.07,-0.02 -0.07,-0.09 0,-0.1 0.06,-0.1 0.18,-0.1 z"
   inkscape:connector-curvature="0"
   style="fill:#000000;stroke-width:0" />
</g>    </g>
    <g
       id="g5417">
      <path
         sodipodi:type="arc"
         style="fill:#ffffff;fill-opacity:1;stroke:#000000;stroke-width:1;stroke-miterlimit:4;stroke-dasharray:none;stroke-dashoffset:0"
         id="path4319"
         sodipodi:cx="171.78572"
         sodipodi:cy="72.719322"
         sodipodi:rx="18.928572"
         sodipodi:ry="18.928572"
         d="m 190.71429,72.719322 c 0,10.453962 -8.47461,18.928572 -18.92857,18.928572 -10.45396,0 -18.92857,-8.47461 -18.92857,-18.928572 0,-10.453961 8.47461,-18.928571 18.92857,-18.928571 10.45396,0 18.92857,8.47461 18.92857,18.928571 z"
         inkscape:transform-center-y="-18.982477"
         transform="matrix(0.30901699,-0.95105652,0.95105652,0.30901699,149.69021,316.07184)"
         inkscape:transform-center-x="58.422043" />
      <g
         style="font-style:normal;font-variant:normal;font-weight:normal;font-stretch:normal;letter-spacing:normal;word-spacing:normal;text-anchor:start;fill:none;stroke:#000000;stroke-linecap:butt;stroke-linejoin:miter;stroke-miterlimit:10.43299961;stroke-opacity:1;stroke-dasharray:none;stroke-dashoffset:0"
         id="g5363"
         transform="matrix(2,0,0,-2,-184.6049,1592.3254)"
         xml:space="preserve"
         stroke-miterlimit="10.433"
         font-style="normal"
         font-variant="normal"
         font-weight="normal"
         font-stretch="normal"
         font-size-adjust="none"
         letter-spacing="normal"
         word-spacing="normal"
         ns0:text="$u_4$"
         ns0:preamble="">
<path
   style="fill:#000000;stroke-width:0"
   inkscape:connector-curvature="0"
   d="m 226.92,707.68 0.01,-0.04 0.01,-0.03 0.02,-0.04 0.01,-0.04 0.02,-0.03 0.02,-0.03 0.01,-0.04 0.02,-0.03 0.02,-0.03 0.03,-0.03 0.02,-0.02 0.03,-0.03 0.02,-0.03 0.03,-0.02 0.02,-0.02 0.03,-0.03 0.03,-0.02 0.03,-0.02 0.03,-0.02 0.04,-0.01 0.03,-0.02 0.03,-0.01 0.04,-0.02 0.03,-0.01 0.04,-0.01 0.03,-0.01 0.04,-0.01 0.04,-0.01 0.04,0 0.04,0 0.04,-0.01 0.04,0 c 0.34,0 0.57,0.23 0.73,0.55 0.17,0.36 0.3,0.97 0.3,0.99 0,0.1 -0.09,0.1 -0.12,0.1 -0.1,0 -0.11,-0.04 -0.14,-0.18 -0.14,-0.56 -0.33,-1.24 -0.74,-1.24 -0.21,0 -0.31,0.13 -0.31,0.46 0,0.22 0.12,0.69 0.2,1.04 l 0.28,1.07 c 0.03,0.15 0.12,0.53 0.17,0.68 0.05,0.23 0.14,0.61 0.14,0.67 0,0.18 -0.14,0.27 -0.28,0.27 -0.05,0 -0.31,-0.01 -0.39,-0.35 -0.19,-0.73 -0.63,-2.47 -0.75,-3 -0.01,-0.04 -0.41,-0.84 -1.14,-0.84 -0.51,0 -0.61,0.45 -0.61,0.82 0,0.56 0.28,1.34 0.53,2.03 0.12,0.3 0.17,0.44 0.17,0.63 0,0.45 -0.31,0.82 -0.81,0.82 -0.95,0 -1.32,-1.45 -1.32,-1.54 0,-0.1 0.1,-0.1 0.12,-0.1 0.1,0 0.11,0.02 0.16,0.18 0.25,0.87 0.63,1.24 1.01,1.24 0.09,0 0.25,-0.01 0.25,-0.33 0,-0.24 -0.11,-0.53 -0.17,-0.68 -0.37,-0.99 -0.58,-1.6 -0.58,-2.09 0,-0.95 0.69,-1.2 1.22,-1.2 0.66,0 1.02,0.45 1.19,0.67 z"
   id="path5365" />
<path
   style="fill:#000000;stroke-width:0"
   inkscape:connector-curvature="0"
   d="m 232.82,706.77 v 0.26 h -0.77 v 3.11 c 0,0.14 0,0.19 -0.16,0.19 -0.08,0 -0.11,0 -0.18,-0.1 l -2.31,-3.2 v -0.26 h 2.06 l 0.04,0.26 h -1.84 l 1.84,2.55 v -2.55 l -0.04,-0.26 v -0.57 c 0,-0.23 0,-0.32 -0.57,-0.32 h -0.19 v -0.25 c 1.05,0 0.35,0.01 0.8,0.03 0.25,0 0.51,0 0.95,-0.02 l 0.35,0.24 h -0.19 c -0.56,0 -0.56,0.09 -0.56,0.32 v 0.57 z"
   id="path5367" />
</g>    </g>
    <path
       style="fill:none;stroke:#000000;stroke-width:1px;stroke-linecap:butt;stroke-linejoin:miter;stroke-opacity:1"
       d="m 407.71289,175.16542 74.92486,0"
       id="path5462"
       inkscape:connector-type="polyline"
       inkscape:connector-curvature="0"
       inkscape:connection-start="#g5439"
       inkscape:connection-start-point="d4"
       inkscape:connection-end="#g5451"
       inkscape:connection-end-point="d4" />
    <path
       style="fill:none;stroke:#000000;stroke-width:1px;stroke-linecap:butt;stroke-linejoin:miter;stroke-opacity:1"
       d="M 383.34006,235.26602 484.69537,183.74404"
       id="path5464"
       inkscape:connector-type="polyline"
       inkscape:connector-curvature="0"
       inkscape:connection-start="#g5433"
       inkscape:connection-start-point="d4"
       inkscape:connection-end="#g5451"
       inkscape:connection-end-point="d4" />
    <g
       id="g5723">
      <path
         inkscape:transform-center-x="-58.422053"
         transform="matrix(0.309017,0.95105651,-0.95105651,0.309017,167.93262,-38.201539)"
         inkscape:transform-center-y="-18.982471"
         d="m 190.71429,72.719322 c 0,10.453962 -8.47461,18.928572 -18.92857,18.928572 -10.45396,0 -18.92857,-8.47461 -18.92857,-18.928572 0,-10.453961 8.47461,-18.928571 18.92857,-18.928571 10.45396,0 18.92857,8.47461 18.92857,18.928571 z"
         sodipodi:ry="18.928572"
         sodipodi:rx="18.928572"
         sodipodi:cy="72.719322"
         sodipodi:cx="171.78572"
         id="path4350-5-5-1"
         style="fill:#ffffff;fill-opacity:1;stroke:#000000;stroke-width:1;stroke-miterlimit:4;stroke-dasharray:none;stroke-dashoffset:0"
         sodipodi:type="arc" />
      <g
         style="font-style:normal;font-variant:normal;font-weight:normal;font-stretch:normal;letter-spacing:normal;word-spacing:normal;text-anchor:start;fill:none;stroke:#000000;stroke-linecap:butt;stroke-linejoin:miter;stroke-miterlimit:10.43299961;stroke-opacity:1;stroke-dasharray:none;stroke-dashoffset:0"
         ns0:preamble=""
         ns0:text="$v_0$"
         word-spacing="normal"
         letter-spacing="normal"
         font-size-adjust="none"
         font-stretch="normal"
         font-weight="normal"
         font-variant="normal"
         font-style="normal"
         stroke-miterlimit="10.433"
         xml:space="preserve"
         transform="matrix(2,0,0,-2,-303.72286,1564.6679)"
         id="g5519">
<path
   style="fill:#000000;stroke-width:0"
   inkscape:connector-curvature="0"
   id="path5521"
   d="m 228.1,710.83 -0.01,0.02 0,0.03 0,0.02 0,0.03 0,0.02 0,0.02 0,0.02 -0.01,0.02 0,0.04 -0.01,0.04 -0.01,0.04 -0.01,0.03 -0.01,0.04 -0.01,0.03 -0.01,0.03 -0.02,0.03 -0.01,0.02 -0.02,0.03 -0.01,0.02 -0.02,0.02 -0.01,0.02 -0.02,0.02 -0.02,0.01 -0.02,0.02 -0.01,0.01 -0.02,0.01 -0.02,0.01 -0.02,0.01 -0.02,0.01 -0.02,0.01 -0.01,0 -0.02,0.01 -0.02,0 -0.02,0 -0.02,0.01 -0.01,0 c -0.25,0 -0.49,-0.26 -0.49,-0.48 0,-0.13 0.05,-0.19 0.16,-0.3 0.21,-0.2 0.34,-0.46 0.34,-0.82 0,-0.42 -0.61,-2.7 -1.78,-2.7 -0.51,0 -0.73,0.35 -0.73,0.87 0,0.56 0.27,1.28 0.57,2.11 0.07,0.17 0.12,0.31 0.12,0.5 0,0.45 -0.31,0.82 -0.81,0.82 -0.94,0 -1.32,-1.45 -1.32,-1.54 0,-0.1 0.1,-0.1 0.12,-0.1 0.1,0 0.11,0.02 0.16,0.18 0.29,1.01 0.72,1.24 1.01,1.24 0.08,0 0.25,0 0.25,-0.32 0,-0.25 -0.1,-0.52 -0.17,-0.7 -0.44,-1.15 -0.57,-1.61 -0.57,-2.04 0,-1.08 0.88,-1.24 1.33,-1.24 1.68,0 2.25,3.3 2.25,3.82 z" />
<path
   style="fill:#000000;stroke-width:0"
   inkscape:connector-curvature="0"
   id="path5523"
   d="m 231.86,707.85 0,0.15 0,0.13 -0.01,0.13 -0.01,0.13 -0.01,0.13 -0.01,0.11 -0.02,0.12 -0.02,0.11 -0.03,0.11 -0.03,0.11 -0.03,0.1 -0.04,0.1 -0.04,0.1 -0.05,0.09 -0.05,0.1 -0.03,0.05 -0.03,0.04 c -0.22,0.32 -0.65,0.6 -1.21,0.6 -1.61,0 -1.61,-1.9 -1.61,-2.41 0,-0.5 0,-2.36 1.61,-2.36 v 0.2 c -0.32,0 -0.74,0.18 -0.88,0.76 -0.1,0.41 -0.1,0.98 -0.1,1.5 0,0.5 0,1.03 0.1,1.42 0.15,0.55 0.6,0.7 0.88,0.7 0.38,0 0.74,-0.23 0.87,-0.64 0.11,-0.38 0.12,-0.88 0.12,-1.48 0,-0.52 0,-1.04 -0.09,-1.48 -0.14,-0.63 -0.62,-0.78 -0.9,-0.78 h 0 v -0.2 c 1.62,0 1.62,1.86 1.62,2.36 z" />
</g>    </g>
    <g
       id="g5733">
      <path
         inkscape:transform-center-x="-58.422053"
         transform="matrix(0.309017,0.95105651,-0.95105651,0.309017,167.93262,17.315981)"
         inkscape:transform-center-y="-18.982471"
         d="m 190.71429,72.719322 c 0,10.453962 -8.47461,18.928572 -18.92857,18.928572 -10.45396,0 -18.92857,-8.47461 -18.92857,-18.928572 0,-10.453961 8.47461,-18.928571 18.92857,-18.928571 10.45396,0 18.92857,8.47461 18.92857,18.928571 z"
         sodipodi:ry="18.928572"
         sodipodi:rx="18.928572"
         sodipodi:cy="72.719322"
         sodipodi:cx="171.78572"
         id="path4350-5-5"
         style="fill:#ffffff;fill-opacity:1;stroke:#000000;stroke-width:1;stroke-miterlimit:4;stroke-dasharray:none;stroke-dashoffset:0"
         sodipodi:type="arc" />
      <g
         style="font-style:normal;font-variant:normal;font-weight:normal;font-stretch:normal;letter-spacing:normal;word-spacing:normal;text-anchor:start;fill:none;stroke:#000000;stroke-linecap:butt;stroke-linejoin:miter;stroke-miterlimit:10.43299961;stroke-opacity:1;stroke-dasharray:none;stroke-dashoffset:0"
         id="g5629"
         transform="matrix(2,0,0,-2,-303.42286,1620.3254)"
         xml:space="preserve"
         stroke-miterlimit="10.433"
         font-style="normal"
         font-variant="normal"
         font-weight="normal"
         font-stretch="normal"
         font-size-adjust="none"
         letter-spacing="normal"
         word-spacing="normal"
         ns0:text="$v_1$"
         ns0:preamble="">
<path
   style="fill:#000000;stroke-width:0"
   inkscape:connector-curvature="0"
   d="m 228.1,710.83 -0.01,0.02 0,0.03 0,0.02 0,0.03 0,0.02 0,0.02 0,0.02 -0.01,0.02 0,0.04 -0.01,0.04 -0.01,0.04 -0.01,0.03 -0.01,0.04 -0.01,0.03 -0.01,0.03 -0.02,0.03 -0.01,0.02 -0.02,0.03 -0.01,0.02 -0.02,0.02 -0.01,0.02 -0.02,0.02 -0.02,0.01 -0.02,0.02 -0.01,0.01 -0.02,0.01 -0.02,0.01 -0.02,0.01 -0.02,0.01 -0.02,0.01 -0.01,0 -0.02,0.01 -0.02,0 -0.02,0 -0.02,0.01 -0.01,0 c -0.25,0 -0.49,-0.26 -0.49,-0.48 0,-0.13 0.05,-0.19 0.16,-0.3 0.21,-0.2 0.34,-0.46 0.34,-0.82 0,-0.42 -0.61,-2.7 -1.78,-2.7 -0.51,0 -0.73,0.35 -0.73,0.87 0,0.56 0.27,1.28 0.57,2.11 0.07,0.17 0.12,0.31 0.12,0.5 0,0.45 -0.31,0.82 -0.81,0.82 -0.94,0 -1.32,-1.45 -1.32,-1.54 0,-0.1 0.1,-0.1 0.12,-0.1 0.1,0 0.11,0.02 0.16,0.18 0.29,1.01 0.72,1.24 1.01,1.24 0.08,0 0.25,0 0.25,-0.32 0,-0.25 -0.1,-0.52 -0.17,-0.7 -0.44,-1.15 -0.57,-1.61 -0.57,-2.04 0,-1.08 0.88,-1.24 1.33,-1.24 1.68,0 2.25,3.3 2.25,3.82 z"
   id="path5631" />
<path
   style="fill:#000000;stroke-width:0"
   inkscape:connector-curvature="0"
   d="m 230.6,710.07 0,0 0,0.01 0,0.01 0,0.01 0,0.01 0,0 0,0.01 0,0.01 0,0 0,0.01 0,0.01 0,0 0,0.01 0,0 -0.01,0.01 0,0.01 0,0 0,0.01 0,0 0,0.01 -0.01,0.01 0,0.01 0,0 -0.01,0.01 0,0 -0.01,0.01 0,0 -0.01,0.01 -0.01,0 -0.01,0 -0.01,0 0,0.01 -0.01,0 -0.01,0 0,0 -0.01,0 0,0 -0.01,0 0,0 -0.01,0 -0.01,0 -0.01,0 0,0 -0.01,0 -0.01,0 -0.01,0 0,0 -0.01,0 -0.01,0 -0.01,0 c -0.45,-0.44 -1.08,-0.45 -1.37,-0.45 v -0.25 c 0.17,0 0.63,0 1.01,0.2 v -3.56 c 0,-0.23 0,-0.32 -0.69,-0.32 h -0.27 v -0.25 c 1.24,0 0.13,0.01 0.98,0.03 0.26,0 0.48,0 1.36,-0.02 l 0.15,0.24 h -0.26 c -0.7,0 -0.7,0.09 -0.7,0.32 z"
   id="path5633" />
</g>    </g>
    <path
       style="fill:none;stroke:#000000;stroke-width:1px;stroke-linecap:butt;stroke-linejoin:miter;stroke-opacity:1"
       d="m 170.31024,151.87668 83.17343,19.06034"
       id="path5729"
       inkscape:connector-type="polyline"
       inkscape:connector-curvature="0"
       inkscape:connection-start="#g5723"
       inkscape:connection-start-point="d4"
       inkscape:connection-end="#g5417"
       inkscape:connection-end-point="d4" />
    <path
       style="fill:none;stroke:#000000;stroke-width:1px;stroke-linecap:butt;stroke-linejoin:miter;stroke-opacity:1"
       d="m 170.05942,208.36549 105.98554,30.2782"
       id="path5739"
       inkscape:connector-type="polyline"
       inkscape:connector-curvature="0"
       inkscape:connection-start="#g5733"
       inkscape:connection-start-point="d4"
       inkscape:connection-end="#g5426"
       inkscape:connection-end-point="d4" />
    <path
       style="fill:none;stroke:#000000;stroke-width:1px;stroke-linecap:butt;stroke-linejoin:miter;stroke-opacity:1"
       d="M 170.7241,146.06999 311.49339,134.29696"
       id="path5741"
       inkscape:connector-type="polyline"
       inkscape:connector-curvature="0"
       inkscape:connection-start="#g5723"
       inkscape:connection-start-point="d4"
       inkscape:connection-end="#g5445"
       inkscape:connection-end-point="d4" />
  </g>
</svg>
