<?xml version="1.0" encoding="UTF-8" standalone="no"?>
<!-- Created with Inkscape (http://www.inkscape.org/) -->

<svg
   xmlns:dc="http://purl.org/dc/elements/1.1/"
   xmlns:cc="http://creativecommons.org/ns#"
   xmlns:rdf="http://www.w3.org/1999/02/22-rdf-syntax-ns#"
   xmlns:svg="http://www.w3.org/2000/svg"
   xmlns="http://www.w3.org/2000/svg"
   xmlns:sodipodi="http://sodipodi.sourceforge.net/DTD/sodipodi-0.dtd"
   xmlns:inkscape="http://www.inkscape.org/namespaces/inkscape"
   id="svg3405"
   version="1.1"
   inkscape:version="0.48.4 r9939"
   width="860.37085"
   height="593.36865"
   xml:space="preserve"
   sodipodi:docname="most-specific.ps"><metadata
     id="metadata3411"><rdf:RDF><cc:Work
         rdf:about=""><dc:format>image/svg+xml</dc:format><dc:type
           rdf:resource="http://purl.org/dc/dcmitype/StillImage" /><dc:title></dc:title></cc:Work></rdf:RDF></metadata><defs
     id="defs3409" /><sodipodi:namedview
     pagecolor="#ffffff"
     bordercolor="#666666"
     borderopacity="1"
     objecttolerance="10"
     gridtolerance="10"
     guidetolerance="10"
     inkscape:pageopacity="0"
     inkscape:pageshadow="2"
     inkscape:window-width="1920"
     inkscape:window-height="1058"
     id="namedview3407"
     showgrid="false"
     fit-margin-top="0"
     fit-margin-left="0"
     fit-margin-right="0"
     fit-margin-bottom="0"
     inkscape:zoom="0.63462185"
     inkscape:cx="739.4155"
     inkscape:cy="355.56608"
     inkscape:window-x="-8"
     inkscape:window-y="6"
     inkscape:window-maximized="1"
     inkscape:current-layer="g3413" /><g
     id="g3413"
     inkscape:groupmode="layer"
     inkscape:label="ink_ext_XXXXXX"
     transform="matrix(0,1.25,1.25,0,-87.636691,-90.261824)"><g
       id="g3415"
       transform="scale(0.1,0.1)"><path
         d="m 4900,1600 0,63 m 0,5736 0,-63"
         style="fill:none;stroke:#000000;stroke-width:10;stroke-linecap:butt;stroke-linejoin:miter;stroke-miterlimit:10;stroke-opacity:1;stroke-dasharray:none"
         id="path3417"
         inkscape:connector-curvature="0" /><g
         id="g3419"
         transform="scale(10,10)"><text
           transform="matrix(0,1,1,0,496.67,136.88)"
           id="text3421"><tspan
             style="font-size:20px;font-variant:normal;font-weight:normal;writing-mode:lr-tb;fill:#000000;fill-opacity:1;fill-rule:nonzero;stroke:none;font-family:Helvetica;-inkscape-font-specification:Helvetica"
             x="0"
             y="0"
             id="tspan3423">0</tspan></text>
</g><path
         d="m 4140,1600 0,63 m 0,5736 0,-63"
         style="fill:none;stroke:#000000;stroke-width:10;stroke-linecap:butt;stroke-linejoin:miter;stroke-miterlimit:10;stroke-opacity:1;stroke-dasharray:none"
         id="path3425"
         inkscape:connector-curvature="0" /><g
         id="g3427"
         transform="scale(10,10)"><text
           transform="matrix(0,1,1,0,420.67,120.201)"
           id="text3429"><tspan
             style="font-size:20px;font-variant:normal;font-weight:normal;writing-mode:lr-tb;fill:#000000;fill-opacity:1;fill-rule:nonzero;stroke:none;font-family:Helvetica;-inkscape-font-specification:Helvetica"
             x="0 11.12 16.68"
             y="0"
             sodipodi:role="line"
             id="tspan3431">0.2</tspan></text>
</g><path
         d="m 3380,1600 0,63 m 0,5736 0,-63"
         style="fill:none;stroke:#000000;stroke-width:10;stroke-linecap:butt;stroke-linejoin:miter;stroke-miterlimit:10;stroke-opacity:1;stroke-dasharray:none"
         id="path3433"
         inkscape:connector-curvature="0" /><g
         id="g3435"
         transform="scale(10,10)"><text
           transform="matrix(0,1,1,0,344.67,120.201)"
           id="text3437"><tspan
             style="font-size:20px;font-variant:normal;font-weight:normal;writing-mode:lr-tb;fill:#000000;fill-opacity:1;fill-rule:nonzero;stroke:none;font-family:Helvetica;-inkscape-font-specification:Helvetica"
             x="0 11.12 16.68"
             y="0"
             sodipodi:role="line"
             id="tspan3439">0.4</tspan></text>
</g><path
         d="m 2621,1600 0,63 m 0,5736 0,-63"
         style="fill:none;stroke:#000000;stroke-width:10;stroke-linecap:butt;stroke-linejoin:miter;stroke-miterlimit:10;stroke-opacity:1;stroke-dasharray:none"
         id="path3441"
         inkscape:connector-curvature="0" /><g
         id="g3443"
         transform="scale(10,10)"><text
           transform="matrix(0,1,1,0,268.77,120.201)"
           id="text3445"><tspan
             style="font-size:20px;font-variant:normal;font-weight:normal;writing-mode:lr-tb;fill:#000000;fill-opacity:1;fill-rule:nonzero;stroke:none;font-family:Helvetica;-inkscape-font-specification:Helvetica"
             x="0 11.12 16.68"
             y="0"
             sodipodi:role="line"
             id="tspan3447">0.6</tspan></text>
</g><path
         d="m 1861,1600 0,63 m 0,5736 0,-63"
         style="fill:none;stroke:#000000;stroke-width:10;stroke-linecap:butt;stroke-linejoin:miter;stroke-miterlimit:10;stroke-opacity:1;stroke-dasharray:none"
         id="path3449"
         inkscape:connector-curvature="0" /><g
         id="g3451"
         transform="scale(10,10)"><text
           transform="matrix(0,1,1,0,192.77,120.201)"
           id="text3453"><tspan
             style="font-size:20px;font-variant:normal;font-weight:normal;writing-mode:lr-tb;fill:#000000;fill-opacity:1;fill-rule:nonzero;stroke:none;font-family:Helvetica;-inkscape-font-specification:Helvetica"
             x="0 11.12 16.68"
             y="0"
             sodipodi:role="line"
             id="tspan3455">0.8</tspan></text>
</g><path
         d="m 1101,1600 0,63 m 0,5736 0,-63"
         style="fill:none;stroke:#000000;stroke-width:10;stroke-linecap:butt;stroke-linejoin:miter;stroke-miterlimit:10;stroke-opacity:1;stroke-dasharray:none"
         id="path3457"
         inkscape:connector-curvature="0" /><g
         id="g3459"
         transform="scale(10,10)"><text
           transform="matrix(0,1,1,0,116.77,136.88)"
           id="text3461"><tspan
             style="font-size:20px;font-variant:normal;font-weight:normal;writing-mode:lr-tb;fill:#000000;fill-opacity:1;fill-rule:nonzero;stroke:none;font-family:Helvetica;-inkscape-font-specification:Helvetica"
             x="0"
             y="0"
             id="tspan3463">1</tspan></text>
</g><path
         d="m 4900,1600 -63,0 m -3736,0 63,0"
         style="fill:none;stroke:#000000;stroke-width:10;stroke-linecap:butt;stroke-linejoin:miter;stroke-miterlimit:10;stroke-opacity:1;stroke-dasharray:none"
         id="path3465"
         inkscape:connector-curvature="0" /><g
         id="g3467"
         transform="scale(10,10)"><text
           transform="matrix(0,1,1,0,516.67,157.22)"
           id="text3469"><tspan
             style="font-size:20px;font-variant:normal;font-weight:normal;writing-mode:lr-tb;fill:#000000;fill-opacity:1;fill-rule:nonzero;stroke:none;font-family:Helvetica;-inkscape-font-specification:Helvetica"
             x="0"
             y="0"
             id="tspan3471">0</tspan></text>
</g><path
         d="m 4900,2567 -63,0 m -3736,0 63,0"
         style="fill:none;stroke:#000000;stroke-width:10;stroke-linecap:butt;stroke-linejoin:miter;stroke-miterlimit:10;stroke-opacity:1;stroke-dasharray:none"
         id="path3473"
         inkscape:connector-curvature="0" /><g
         id="g3475"
         transform="scale(10,10)"><text
           transform="matrix(0,1,1,0,516.67,242.8)"
           id="text3477"><tspan
             style="font-size:20px;font-variant:normal;font-weight:normal;writing-mode:lr-tb;fill:#000000;fill-opacity:1;fill-rule:nonzero;stroke:none;font-family:Helvetica;-inkscape-font-specification:Helvetica"
             x="0 11.12 22.24"
             y="0"
             sodipodi:role="line"
             id="tspan3479">100</tspan></text>
</g><path
         d="m 4900,3533 -63,0 m -3736,0 63,0"
         style="fill:none;stroke:#000000;stroke-width:10;stroke-linecap:butt;stroke-linejoin:miter;stroke-miterlimit:10;stroke-opacity:1;stroke-dasharray:none"
         id="path3481"
         inkscape:connector-curvature="0" /><g
         id="g3483"
         transform="scale(10,10)"><text
           transform="matrix(0,1,1,0,516.67,339.4)"
           id="text3485"><tspan
             style="font-size:20px;font-variant:normal;font-weight:normal;writing-mode:lr-tb;fill:#000000;fill-opacity:1;fill-rule:nonzero;stroke:none;font-family:Helvetica;-inkscape-font-specification:Helvetica"
             x="0 11.12 22.24"
             y="0"
             sodipodi:role="line"
             id="tspan3487">200</tspan></text>
</g><path
         d="m 4900,4499 -63,0 m -3736,0 63,0"
         style="fill:none;stroke:#000000;stroke-width:10;stroke-linecap:butt;stroke-linejoin:miter;stroke-miterlimit:10;stroke-opacity:1;stroke-dasharray:none"
         id="path3489"
         inkscape:connector-curvature="0" /><g
         id="g3491"
         transform="scale(10,10)"><text
           transform="matrix(0,1,1,0,516.67,436)"
           id="text3493"><tspan
             style="font-size:20px;font-variant:normal;font-weight:normal;writing-mode:lr-tb;fill:#000000;fill-opacity:1;fill-rule:nonzero;stroke:none;font-family:Helvetica;-inkscape-font-specification:Helvetica"
             x="0 11.12 22.24"
             y="0"
             sodipodi:role="line"
             id="tspan3495">300</tspan></text>
</g><path
         d="m 4900,5466 -63,0 m -3736,0 63,0"
         style="fill:none;stroke:#000000;stroke-width:10;stroke-linecap:butt;stroke-linejoin:miter;stroke-miterlimit:10;stroke-opacity:1;stroke-dasharray:none"
         id="path3497"
         inkscape:connector-curvature="0" /><g
         id="g3499"
         transform="scale(10,10)"><text
           transform="matrix(0,1,1,0,516.67,532.7)"
           id="text3501"><tspan
             style="font-size:20px;font-variant:normal;font-weight:normal;writing-mode:lr-tb;fill:#000000;fill-opacity:1;fill-rule:nonzero;stroke:none;font-family:Helvetica;-inkscape-font-specification:Helvetica"
             x="0 11.12 22.24"
             y="0"
             sodipodi:role="line"
             id="tspan3503">400</tspan></text>
</g><path
         d="m 4900,6433 -63,0 m -3736,0 63,0"
         style="fill:none;stroke:#000000;stroke-width:10;stroke-linecap:butt;stroke-linejoin:miter;stroke-miterlimit:10;stroke-opacity:1;stroke-dasharray:none"
         id="path3505"
         inkscape:connector-curvature="0" /><g
         id="g3507"
         transform="scale(10,10)"><text
           transform="matrix(0,1,1,0,516.67,629.4)"
           id="text3509"><tspan
             style="font-size:20px;font-variant:normal;font-weight:normal;writing-mode:lr-tb;fill:#000000;fill-opacity:1;fill-rule:nonzero;stroke:none;font-family:Helvetica;-inkscape-font-specification:Helvetica"
             x="0 11.12 22.24"
             y="0"
             sodipodi:role="line"
             id="tspan3511">500</tspan></text>
</g><path
         d="m 4900,7399 -63,0 m -3736,0 63,0"
         style="fill:none;stroke:#000000;stroke-width:10;stroke-linecap:butt;stroke-linejoin:miter;stroke-miterlimit:10;stroke-opacity:1;stroke-dasharray:none"
         id="path3513"
         inkscape:connector-curvature="0" /><g
         id="g3515"
         transform="scale(10,10)"><text
           transform="matrix(0,1,1,0,516.67,726)"
           id="text3517"><tspan
             style="font-size:20px;font-variant:normal;font-weight:normal;writing-mode:lr-tb;fill:#000000;fill-opacity:1;fill-rule:nonzero;stroke:none;font-family:Helvetica;-inkscape-font-specification:Helvetica"
             x="0 11.12 22.24"
             y="0"
             sodipodi:role="line"
             id="tspan3519">600</tspan></text>
</g><path
         d="m 1101,1600 3799,0 0,5799 -3799,0 0,-5799 z"
         style="fill:none;stroke:#000000;stroke-width:10;stroke-linecap:butt;stroke-linejoin:miter;stroke-miterlimit:10;stroke-opacity:1;stroke-dasharray:none"
         id="path3521"
         inkscape:connector-curvature="0" /><g
         id="g3523"
         transform="scale(10,10)"><text
           transform="matrix(-1,0,0,1,405.138,84.6699)"
           id="text3525"><tspan
             style="font-size:20px;font-variant:normal;font-weight:normal;writing-mode:lr-tb;fill:#000000;fill-opacity:1;fill-rule:nonzero;stroke:none;font-family:Helvetica;-inkscape-font-specification:Helvetica"
             x="0 12.22 18.879999 30 40 45.560001 50 61.119999 72.239998 77.800003 88.919998 94.480003 100.04 105.6 116.72 127.84 133.39999 150.06 161.17999 172.3 176.74001 182.3 193.42 200.08"
             y="0"
             sodipodi:role="line"
             id="tspan3527">Fraction of the monitors</tspan></text>
<text
           transform="matrix(0,1,1,0,546.67,370.431)"
           id="text3529"><tspan
             style="font-size:20px;font-variant:normal;font-weight:normal;writing-mode:lr-tb;fill:#000000;fill-opacity:1;fill-rule:nonzero;stroke:none;font-family:Helvetica;-inkscape-font-specification:Helvetica"
             x="0 14.44 25.559999 42.220001 53.34 64.459999 71.120003 76.68 87.800003 93.360001 98.919998 110.04 121.16 126.72 133.38 137.82001 148.94"
             y="0"
             sodipodi:role="line"
             id="tspan3531">Number of entries</tspan><tspan
             style="font-size:20px;font-variant:normal;font-weight:normal;writing-mode:lr-tb;fill:#000000;fill-opacity:1;fill-rule:nonzero;stroke:none;font-family:Helvetica;-inkscape-font-specification:Helvetica"
             x="-141.717 -127.277 -122.837 -112.837 -107.277 -100.617 -96.177002 -85.056999 -73.936996 -68.376999 -63.937 -52.817001 -41.696999 -36.137001 -25.017 -19.457001 -13.897 -8.3369999 2.783 13.903 19.462999 30.583 41.702999 58.362999 69.483002 80.602997 87.263 92.822998 103.943 109.503 115.063 126.183 137.30299 142.86301 149.52299 153.963 165.08299 175.08299 180.64301 187.30299 192.86301 207.30299 212.86301 227.30299 241.743 247.30299 252.86301 263.983 275.103 279.543 290.66299"
             y="-459.89999"
             sodipodi:role="line"
             id="tspan3533">Distribution of the number of entries - CIDR tables</tspan><tspan
             style="font-size:20px;font-variant:normal;font-weight:normal;writing-mode:lr-tb;fill:#000000;fill-opacity:1;fill-rule:nonzero;stroke:none;font-family:Helvetica;-inkscape-font-specification:Helvetica"
             x="217.45 228.57001 234.13 245.81 251.37 262.48999 268.04999"
             y="-413.60001"
             sodipodi:role="line"
             id="tspan3535">p = 1.0</tspan></text>
</g><path
         d="m 1264,6616 0,543 m -163,-5540 9,10 6,10 7,9 10,10 5,10 14,9 9,10 14,10 17,9 8,10 21,10 23,9 21,10 16,10 15,9 23,10 232,10 532,29 3,9 3,10 1,10 1,9 2,10 2,10 5,9 1,29 2,10 2,19 5,10 4,10 1,19 6,10 1,19 2,19 1,20 1,9 1,29 3,10 3,10 2,9 2,10 3,10 2,9 2,10 3,10 6,19 4,10 1,9 1,10 2,10 3,9 4,10 1,19 3,10 2,10 4,29 1,9 1,10 1,10 2,9 3,10 2,10 1,9 5,10 2,10 3,9 3,10 2,19 1,10 5,10 1,9 1,10 4,10 5,9 2,10 3,10 4,9 14,10 5,10 8,9 2,10 3,10 1,9 4,10 5,9 6,10 7,10 6,9 6,10 9,10 7,9 7,10 3,10 4,9 4,10 2,10 5,9 5,10 3,10 7,9 7,10 3,10"
         style="fill:none;stroke:#ff0000;stroke-width:5;stroke-linecap:butt;stroke-linejoin:miter;stroke-miterlimit:10;stroke-opacity:1;stroke-dasharray:none"
         id="path3537"
         inkscape:connector-curvature="0" /><path
         d="m 2363,2760 3,9 7,10 8,10 4,9 7,10 15,10 17,9 20,10 29,10 29,9 31,10 38,10 24,9 32,10 33,10 25,9 37,10 35,10 44,9 26,10 23,10 23,9 12,10 16,10 11,9 8,10 10,10 11,9 4,10 5,10 7,9 3,10 6,10 14,9 8,10 15,10 4,9 3,10 11,10 18,9 3,10 2,10 6,9 10,10 11,10 11,9 4,10 9,10 14,9 12,10 3,10 11,9 10,10 10,10 8,9 3,10 10,10 12,9 15,10 6,10 13,9 17,10 14,10 18,9 13,10 19,10 13,9 14,10 21,10 23,9 26,10 33,10 34,9 40,10 47,10 40,9 39,10 74,10 37,9 40,10 35,10 46,9 38,10 45,10 34,9 29,10 26,10 17,9 15,10 11,10 6,9 7,10 3,10 6,9 2,10 7,10 6,19 3,10 5,9 4,10 5,10 5,9 4,10 3,10"
         style="fill:none;stroke:#ff0000;stroke-width:5;stroke-linecap:butt;stroke-linejoin:miter;stroke-miterlimit:10;stroke-opacity:1;stroke-dasharray:none"
         id="path3539"
         inkscape:connector-curvature="0" /><path
         d="m 4146,3775 6,9 14,10 6,10 6,9 10,10 8,10 8,9 8,10 6,10 6,9 11,10 6,10 5,9 5,10 3,10 7,9 5,10 5,10 5,9 6,10 4,10 5,9 3,10 4,10 6,9 1,10 5,19 3,49 5,9 1,10 4,10 1,19 4,19 1,10 2,10 2,9 1,10 2,19 2,10 2,10 2,9 3,20 2,9 2,29 2,20 3,29 3,9 4,10 1,10 1,9 2,10 1,19 2,20 2,9 1,48 1,10 1,10 3,9 2,10 3,39 1,9 1,58 1,10 2,29 1,19 2,29 2,20 2,29 1,19 1,10 2,9 2,20 1,38 2,10 1,29 1,29 1,29 2,77 1,10 1,58 1,68 2,48 1,10 1,9 1,107 1,58 2,154 1,20 1,77 1,155 2,9 2,39 1,29 2,116 1,10 1,87 4,9 1,29 1,10 1,10 2,9 1,29 1,20 1,9"
         style="fill:none;stroke:#ff0000;stroke-width:5;stroke-linecap:butt;stroke-linejoin:miter;stroke-miterlimit:10;stroke-opacity:1;stroke-dasharray:none"
         id="path3541"
         inkscape:connector-curvature="0" /><path
         d="m 4442,6239 2,10 1,10 1,9 3,20 2,9 1,29 1,10 2,10 1,19 1,10 3,9 2,10 3,10 2,9 1,10 4,10 6,9 5,10 4,9 2,10 4,10 7,9 8,10 3,10 12,9 7,10 15,10 16,9 16,10 15,10 7,9 11,10 17,10 20,9 24,10 18,10 25,9 22,10 28,10 16,9 27,10 20,10 21,9 25,10 5,10 6,9 5,10 1,10 4,9 2,10 2,19 1,29"
         style="fill:none;stroke:#ff0000;stroke-width:5;stroke-linecap:butt;stroke-linejoin:miter;stroke-miterlimit:10;stroke-opacity:1;stroke-dasharray:none"
         id="path3543"
         inkscape:connector-curvature="0" /><g
         id="g3545"
         transform="scale(10,10)"><text
           transform="matrix(0,1,1,0,153.07,587.881)"
           id="text3547"><tspan
             style="font-size:20px;font-variant:normal;font-weight:normal;writing-mode:lr-tb;fill:#000000;fill-opacity:1;fill-rule:nonzero;stroke:none;font-family:Helvetica;-inkscape-font-specification:Helvetica"
             x="0 11.12 16.68 28.360001 33.919998 45.040001 50.599998"
             y="0"
             sodipodi:role="line"
             id="tspan3549">p = 0.9</tspan></text>
</g><path
         d="m 1464,6616 0,543 m -363,-5540 14,10 8,10 4,9 7,10 13,10 11,9 13,10 13,10 14,9 14,10 27,10 19,9 19,10 20,10 20,9 233,10 534,10 1,19 3,10 2,9 3,10 3,19 3,10 2,19 4,10 2,10 2,19 3,10 3,19 5,10 2,9 1,10 2,29 1,10 1,9 3,10 3,10 2,9 3,10 3,10 1,9 4,10 6,10 1,9 1,10 2,10 3,19 4,10 1,9 4,10 2,10 2,19 2,10 1,9 4,10 1,10 1,9 2,10 3,10 3,9 4,20 1,9 2,10 2,10 3,9 4,10 2,10 5,9 3,10 1,10 2,9 5,10 4,10 10,9 10,10 6,10 4,9 10,10 2,10 3,9 3,10 6,10 3,9 6,10 11,10 6,9 8,10 5,10 12,9 4,10 3,9 7,10 2,10 11,9 3,10 8,10 4,9 5,10 7,10 16,9 24,10 22,10"
         style="fill:none;stroke:#00ff00;stroke-width:5;stroke-linecap:butt;stroke-linejoin:miter;stroke-miterlimit:10;stroke-opacity:1;stroke-dasharray:none"
         id="path3551"
         inkscape:connector-curvature="0" /><path
         d="m 2448,2702 25,9 28,10 25,10 22,9 37,10 33,10 31,9 36,10 32,10 39,9 29,10 37,10 30,9 20,10 15,10 21,9 7,10 5,10 10,9 8,10 8,10 8,9 11,10 14,10 14,9 11,10 8,10 6,9 8,10 5,10 14,9 9,10 4,10 8,9 12,10 15,10 7,9 13,10 7,10 10,9 10,10 17,10 9,9 5,10 11,10 10,9 12,10 16,10 15,9 18,10 13,10 13,9 19,10 17,10 26,9 31,10 33,10 33,9 46,10 36,10 37,9 53,10 47,10 54,9 36,10 53,10 43,9 46,10 37,10 48,9 33,10 17,10 25,9 15,10 13,10 8,9 11,10 7,10 5,9 4,10 2,10 5,9 1,10 4,10 1,9 7,10 6,10 13,9 8,10 6,10 7,9 9,10 10,10 8,9 7,10 8,10 4,9 5,10 8,10 13,9 11,10 5,10 7,9 4,10"
         style="fill:none;stroke:#00ff00;stroke-width:5;stroke-linecap:butt;stroke-linejoin:miter;stroke-miterlimit:10;stroke-opacity:1;stroke-dasharray:none"
         id="path3553"
         inkscape:connector-curvature="0" /><path
         d="m 4271,3707 5,10 5,9 5,10 2,10 3,9 3,10 9,10 5,9 4,10 1,10 2,9 3,29 3,20 3,9 1,20 3,9 3,10 2,19 1,10 1,10 1,9 4,10 4,10 1,19 1,19 1,10 2,10 3,19 3,10 2,9 1,10 2,10 2,9 1,10 2,10 1,38 1,20 3,19 5,19 1,10 1,19 2,10 2,29 1,10 1,9 1,20 2,67 1,29 2,10 2,10 2,9 3,20 1,19 1,48 2,19 3,49 1,29 1,29 2,48 1,10 2,96 2,78 2,9 1,87 1,68 2,68 1,48 1,87 1,145 4,48 1,29 2,87 1,20 1,58 3,9 2,20 1,9 1,39 2,10 1,19 1,10 3,9 2,10 1,19 2,10 1,10 1,9 1,10 1,19 2,20 3,9 2,10 5,19 8,10 3,10 6,9 6,10 1,10 2,9 2,10 11,10 5,9 7,10 14,10"
         style="fill:none;stroke:#00ff00;stroke-width:5;stroke-linecap:butt;stroke-linejoin:miter;stroke-miterlimit:10;stroke-opacity:1;stroke-dasharray:none"
         id="path3555"
         inkscape:connector-curvature="0" /><path
         d="m 4530,6027 15,9 21,10 13,10 13,9 17,10 21,10 17,9 19,10 28,10 25,9 21,10 28,10 27,9 20,10 21,10 27,9 12,10 8,10 3,9 3,10 4,10 2,9 1,10 2,10 1,38"
         style="fill:none;stroke:#00ff00;stroke-width:5;stroke-linecap:butt;stroke-linejoin:miter;stroke-miterlimit:10;stroke-opacity:1;stroke-dasharray:none"
         id="path3557"
         inkscape:connector-curvature="0" /><g
         id="g3559"
         transform="scale(10,10)"><text
           transform="matrix(0,1,1,0,173.07,587.881)"
           id="text3561"><tspan
             style="font-size:20px;font-variant:normal;font-weight:normal;writing-mode:lr-tb;fill:#000000;fill-opacity:1;fill-rule:nonzero;stroke:none;font-family:Helvetica;-inkscape-font-specification:Helvetica"
             x="0 11.12 16.68 28.360001 33.919998 45.040001 50.599998"
             y="0"
             sodipodi:role="line"
             id="tspan3563">p = 0.8</tspan></text>
</g><path
         d="m 1664,6616 0,543 m -563,-5540 12,10 10,10 19,9 6,10 12,10 22,9 25,10 29,10 25,9 18,10 23,10 238,9 540,10 1,19 3,10 2,10 1,9 4,10 1,10 3,9 4,10 1,10 3,19 3,19 2,10 7,10 1,9 2,10 3,10 1,9 1,20 3,19 2,19 4,10 4,10 3,9 4,10 4,19 3,20 3,9 6,10 4,10 2,19 1,19 2,10 1,10 4,9 3,10 2,19 3,10 4,10 1,9 4,10 1,10 3,9 3,10 2,10 9,9 5,20 7,9 3,10 3,10 7,9 6,10 5,10 6,9 4,10 4,10 3,9 8,10 5,10 7,9 8,10 8,10 4,9 9,10 10,10 9,9 4,10 6,10 3,9 7,10 6,10 5,9 14,10 7,10 11,9 14,10 20,9 32,10 23,10 35,9 29,10 36,10 43,9 30,10 35,10 44,9 27,10 34,10 32,9 34,10"
         style="fill:none;stroke:#0000ff;stroke-width:5;stroke-linecap:butt;stroke-linejoin:miter;stroke-miterlimit:10;stroke-opacity:1;stroke-dasharray:none"
         id="path3565"
         inkscape:connector-curvature="0" /><path
         d="m 2860,2721 31,10 13,9 16,10 8,10 10,9 10,10 14,10 9,9 7,10 9,10 8,9 5,10 8,10 9,9 5,10 10,10 17,9 10,10 11,10 13,9 16,10 11,10 10,9 13,10 11,10 10,9 10,10 10,10 16,9 21,10 9,10 14,9 15,10 22,10 21,9 20,10 32,10 41,9 38,10 30,10 41,9 47,10 42,10 50,9 55,10 53,10 47,9 58,10 29,10 43,9 35,10 21,10 31,9 18,10 20,10 20,9 15,10 13,10 11,9 3,10 7,10 6,9 8,10 6,10 5,9 2,10 10,10 10,9 1,10 8,10 11,9 7,10 13,10 11,9 6,10 11,10 4,9 11,10 9,10 8,9 4,10 4,10 3,9 9,10 7,10 5,9 4,10 5,10 4,9 5,10 2,10 3,9 2,10 6,10 3,9 2,10 1,10 2,9 2,10 1,19 2,10 3,10 3,9 1,20"
         style="fill:none;stroke:#0000ff;stroke-width:5;stroke-linecap:butt;stroke-linejoin:miter;stroke-miterlimit:10;stroke-opacity:1;stroke-dasharray:none"
         id="path3567"
         inkscape:connector-curvature="0" /><path
         d="m 4342,3746 4,9 1,10 2,19 2,10 1,10 4,9 2,20 1,9 4,10 2,10 3,19 1,19 1,10 2,29 1,19 1,10 2,10 2,9 1,10 1,19 1,10 2,19 1,10 1,29 1,39 2,19 1,10 2,19 3,10 2,58 1,19 2,10 3,29 2,38 1,10 1,39 1,38 3,58 1,48 3,29 1,58 1,29 1,145 3,107 1,96 1,20 3,9 1,10 1,106 1,39 2,58 2,19 1,10 3,10 2,19 3,39 1,9 1,10 4,19 1,10 1,10 2,9 1,20 1,9 1,10 2,10 3,9 1,10 4,10 5,9 3,10 3,10 4,9 7,10 4,10 4,9 6,10 6,10 10,9 9,10 8,10 8,9 26,10 19,10 23,9 29,10 31,10 27,9 37,10 29,10 32,9 36,10 18,10 25,9 16,10 7,19 2,10 1,10"
         style="fill:none;stroke:#0000ff;stroke-width:5;stroke-linecap:butt;stroke-linejoin:miter;stroke-miterlimit:10;stroke-opacity:1;stroke-dasharray:none"
         id="path3569"
         inkscape:connector-curvature="0" /><g
         id="g3571"
         transform="scale(10,10)"><text
           transform="matrix(0,1,1,0,193.07,587.881)"
           id="text3573"><tspan
             style="font-size:20px;font-variant:normal;font-weight:normal;writing-mode:lr-tb;fill:#000000;fill-opacity:1;fill-rule:nonzero;stroke:none;font-family:Helvetica;-inkscape-font-specification:Helvetica"
             x="0 11.12 16.68 28.360001 33.919998 45.040001 50.599998"
             y="0"
             sodipodi:role="line"
             id="tspan3575">p = 0.7</tspan></text>
</g><path
         d="m 1864,6616 0,543 m -763,-5540 7,10 10,10 15,9 5,10 14,10 18,9 17,10 16,10 20,9 19,10 28,10 16,9 27,10 229,10 540,9 3,10 4,10 1,9 6,20 3,9 3,10 4,10 1,9 3,10 1,10 2,9 4,10 1,10 3,9 1,10 1,10 4,9 2,10 3,10 2,9 5,10 8,10 5,9 2,10 3,19 2,10 5,10 1,9 4,10 1,10 4,9 1,10 4,10 2,9 1,10 3,10 5,9 2,10 4,10 3,9 2,10 4,10 2,9 3,10 6,10 7,9 4,10 6,10 12,9 9,10 5,10 10,9 9,10 13,10 5,9 6,10 14,19 7,10 5,10 4,9 7,10 8,10 8,9 8,10 13,10 23,9 11,10 17,10 21,9 27,10 35,10 47,9 30,10 56,10 33,9 31,10 40,10 38,9 20,10 38,10 33,9 24,10 15,9 16,10 18,10 14,9 11,10"
         style="fill:none;stroke:#ffff00;stroke-width:5;stroke-linecap:butt;stroke-linejoin:miter;stroke-miterlimit:10;stroke-opacity:1;stroke-dasharray:none"
         id="path3577"
         inkscape:connector-curvature="0" /><path
         d="m 2974,2634 12,10 18,9 13,10 15,10 5,9 10,10 6,10 14,9 17,10 20,10 11,9 10,10 16,10 19,9 15,10 9,10 17,9 24,10 24,10 29,9 28,10 26,10 37,9 44,10 45,10 49,9 47,10 50,10 38,9 48,10 54,10 56,9 36,10 49,10 32,9 41,10 23,10 37,9 28,10 8,10 19,9 13,10 13,10 7,9 6,10 14,10 7,9 3,10 13,10 11,9 15,10 6,10 8,9 10,10 15,10 6,9 11,10 7,10 6,9 9,10 7,10 9,9 14,10 5,10 6,9 3,10 7,10 5,9 2,10 1,29 5,10 3,9 3,10 3,10 5,9 2,20 2,9 1,20 1,9 2,10 3,10 1,9 8,10 3,10 2,9 1,10 2,10 4,9 1,20 4,19 1,10 3,9 1,20 2,9 1,10 3,10 1,58 1,9 2,10 1,19 1,10 1,10 2,19 1,10"
         style="fill:none;stroke:#ffff00;stroke-width:5;stroke-linecap:butt;stroke-linejoin:miter;stroke-miterlimit:10;stroke-opacity:1;stroke-dasharray:none"
         id="path3579"
         inkscape:connector-curvature="0" /><path
         d="m 4389,3775 2,29 3,29 2,9 4,20 2,38 2,20 1,9 1,10 1,39 3,87 2,9 2,39 1,29 1,116 1,97 1,29 3,96 1,39 1,19 3,10 1,67 1,29 2,49 1,9 1,39 3,10 1,19 3,19 2,10 2,10 1,29 4,9 1,10 2,10 3,9 3,29 2,10 3,10 7,9 4,10 8,10 2,9 2,10 5,10 5,9 6,10 4,10 12,9 14,10 15,10 26,9 24,10 24,10 31,9 43,10 28,10 38,9 29,10 23,10 39,9 14,10 9,10 11,9 5,10 3,10 3,19 3,39"
         style="fill:none;stroke:#ffff00;stroke-width:5;stroke-linecap:butt;stroke-linejoin:miter;stroke-miterlimit:10;stroke-opacity:1;stroke-dasharray:none"
         id="path3581"
         inkscape:connector-curvature="0" /><g
         id="g3583"
         transform="scale(10,10)"><text
           transform="matrix(0,1,1,0,213.07,587.881)"
           id="text3585"><tspan
             style="font-size:20px;font-variant:normal;font-weight:normal;writing-mode:lr-tb;fill:#000000;fill-opacity:1;fill-rule:nonzero;stroke:none;font-family:Helvetica;-inkscape-font-specification:Helvetica"
             x="0 11.12 16.68 28.360001 33.919998 45.040001 50.599998"
             y="0"
             sodipodi:role="line"
             id="tspan3587">p = 0.6</tspan></text>
</g><path
         d="m 2064,6616 0,543 m -963,-5540 11,10 19,10 28,9 15,10 33,10 30,9 35,10 36,10 764,9 2,10 1,10 2,9 4,10 5,10 3,9 2,10 4,10 3,9 2,10 6,19 4,20 6,9 2,10 4,10 1,9 1,10 7,10 3,9 4,10 4,10 3,9 5,10 4,10 3,9 6,10 1,10 2,9 7,20 3,9 3,10 4,10 3,9 6,10 7,10 2,9 10,10 7,10 3,9 6,10 6,10 10,9 3,10 22,10 9,9 6,10 6,10 11,9 10,10 7,10 7,9 13,10 5,10 14,9 13,10 21,10 21,9 17,10 27,10 33,9 40,10 44,10 45,9 54,10 39,10 53,9 47,10 31,10 28,9 20,10 26,10 12,9 18,10 18,10 13,9 13,10 9,10 5,9 15,10 10,10 17,9 15,10 16,10 17,9 16,10 16,10 22,9 17,10 21,9 23,10 19,10 37,9 27,10"
         style="fill:none;stroke:#ff00ff;stroke-width:5;stroke-linecap:butt;stroke-linejoin:miter;stroke-miterlimit:10;stroke-opacity:1;stroke-dasharray:none"
         id="path3589"
         inkscape:connector-curvature="0" /><path
         d="m 3291,2634 32,10 43,9 43,10 48,10 67,9 79,10 39,10 51,9 60,10 57,10 47,9 43,10 35,10 27,9 40,10 34,10 21,9 18,10 13,10 21,9 14,10 16,10 6,9 10,10 10,10 15,9 11,10 9,10 11,9 8,10 7,10 12,9 12,10 10,10 4,9 6,10 5,10 5,9 7,10 10,10 7,9 1,10 1,10 1,9 3,10 1,10 2,9 7,10 1,10 4,9 1,10 6,10 2,9 8,10 2,10 2,29 5,9 2,20 4,9 2,20 3,9 3,20 3,9 4,10 2,19 1,10 2,10 1,29 1,29 1,9 3,10 2,10 1,9 2,10 1,10 1,29 1,9 3,10 2,10 3,9 2,10 3,68 2,87 1,19 2,29 1,19 1,10 3,68 1,19 1,106 1,10 3,135 2,10 2,39 1,9 1,107 1,9 4,10 1,10 1,9 3,20 4,19 1,10 2,9"
         style="fill:none;stroke:#ff00ff;stroke-width:5;stroke-linecap:butt;stroke-linejoin:miter;stroke-miterlimit:10;stroke-opacity:1;stroke-dasharray:none"
         id="path3591"
         inkscape:connector-curvature="0" /><path
         d="m 4443,4364 3,10 1,19 1,20 3,19 1,10 3,9 2,10 10,10 7,9 4,10 4,9 5,10 6,10 7,9 16,10 10,10 19,9 26,10 32,10 25,9 22,10 33,10 39,9 30,10 33,10 40,9 30,10 19,10 11,9 8,10 3,10 2,19"
         style="fill:none;stroke:#ff00ff;stroke-width:5;stroke-linecap:butt;stroke-linejoin:miter;stroke-miterlimit:10;stroke-opacity:1;stroke-dasharray:none"
         id="path3593"
         inkscape:connector-curvature="0" /><g
         id="g3595"
         transform="scale(10,10)"><text
           transform="matrix(0,1,1,0,233.07,587.881)"
           id="text3597"><tspan
             style="font-size:20px;font-variant:normal;font-weight:normal;writing-mode:lr-tb;fill:#000000;fill-opacity:1;fill-rule:nonzero;stroke:none;font-family:Helvetica;-inkscape-font-specification:Helvetica"
             x="0 11.12 16.68 28.360001 33.919998 45.040001 50.599998"
             y="0"
             sodipodi:role="line"
             id="tspan3599">p = 0.5</tspan></text>
</g><path
         d="m 2264,6616 0,543 m -1163,-5540 17,10 26,10 26,9 19,10 36,10 30,9 50,10 765,10 2,9 1,10 4,10 9,9 2,10 5,10 8,9 2,10 1,10 4,9 4,39 6,10 2,9 3,10 6,10 6,9 9,10 4,10 5,9 1,10 5,10 1,9 1,10 8,19 3,10 9,10 5,9 5,10 4,10 2,9 3,10 7,10 5,9 9,10 7,10 8,9 16,10 8,10 7,9 11,10 15,10 16,9 13,10 13,10 13,9 15,10 11,10 16,9 23,10 26,10 23,9 18,10 28,10 52,9 44,10 47,10 43,9 40,10 34,10 41,9 40,10 41,10 28,9 32,10 18,10 17,9 21,10 17,10 25,9 16,10 24,10 18,9 30,10 24,10 24,9 18,10 22,10 36,9 29,10 18,10 35,9 52,10 30,10 39,9 61,10 49,10 57,9 55,10 54,9 60,10 54,10 33,9 42,10 43,10"
         style="fill:none;stroke:#00ffff;stroke-width:5;stroke-linecap:butt;stroke-linejoin:miter;stroke-miterlimit:10;stroke-opacity:1;stroke-dasharray:none"
         id="path3601"
         inkscape:connector-curvature="0" /><path
         d="m 3971,2644 50,9 39,10 34,10 29,9 19,10 21,10 19,9 16,10 6,10 20,9 6,10 7,10 14,9 12,10 14,10 5,9 5,10 12,10 4,9 7,10 3,10 4,9 5,10 2,10 5,9 1,10 3,10 2,19 3,10 3,9 2,10 6,10 4,9 1,10 1,10 2,19 2,10 2,9 5,10 4,10 6,9 1,10 2,19 1,10 2,19 1,10 3,10 2,9 2,10 2,10 1,9 4,10 1,29 2,10 1,9 1,20 1,19 3,19 1,20 1,38 1,10 2,10 1,9 1,29 1,78 2,77 1,48 1,39 1,10 2,19 1,10 1,19 1,48 2,10 2,19 1,29 2,20 1,9 2,10 2,10 2,9 1,10 1,10 3,19 5,10 1,9 1,10 4,10 4,9 2,10 6,10 9,9 3,10 11,10 8,9 13,10 5,10 15,9 21,10 38,10 38,9 56,10 56,10 37,9"
         style="fill:none;stroke:#00ffff;stroke-width:5;stroke-linecap:butt;stroke-linejoin:miter;stroke-miterlimit:10;stroke-opacity:1;stroke-dasharray:none"
         id="path3603"
         inkscape:connector-curvature="0" /><path
         d="m 4776,4103 37,10 34,10 18,9 16,10 8,10 4,9 3,10 2,10 1,19"
         style="fill:none;stroke:#00ffff;stroke-width:5;stroke-linecap:butt;stroke-linejoin:miter;stroke-miterlimit:10;stroke-opacity:1;stroke-dasharray:none"
         id="path3605"
         inkscape:connector-curvature="0" /><path
         d="m 1101,1600 3799,0 0,5799 -3799,0 0,-5799 z"
         style="fill:none;stroke:#000000;stroke-width:10;stroke-linecap:butt;stroke-linejoin:miter;stroke-miterlimit:10;stroke-opacity:1;stroke-dasharray:none"
         id="path3607"
         inkscape:connector-curvature="0" /></g></g></svg>