<?xml version="1.0" encoding="UTF-8" standalone="no"?>
<!-- Created with Inkscape (http://www.inkscape.org/) -->

<svg
   xmlns:dc="http://purl.org/dc/elements/1.1/"
   xmlns:cc="http://creativecommons.org/ns#"
   xmlns:rdf="http://www.w3.org/1999/02/22-rdf-syntax-ns#"
   xmlns:svg="http://www.w3.org/2000/svg"
   xmlns="http://www.w3.org/2000/svg"
   xmlns:sodipodi="http://sodipodi.sourceforge.net/DTD/sodipodi-0.dtd"
   xmlns:inkscape="http://www.inkscape.org/namespaces/inkscape"
   id="svg2"
   version="1.1"
   inkscape:version="0.48.4 r9939"
   width="860.37085"
   height="600.63684"
   xml:space="preserve"
   sodipodi:docname="revtables-impact-monitors-most-specific.eps"><metadata
     id="metadata8"><rdf:RDF><cc:Work
         rdf:about=""><dc:format>image/svg+xml</dc:format><dc:type
           rdf:resource="http://purl.org/dc/dcmitype/StillImage" /><dc:title></dc:title></cc:Work></rdf:RDF></metadata><defs
     id="defs6" /><sodipodi:namedview
     pagecolor="#ffffff"
     bordercolor="#666666"
     borderopacity="1"
     objecttolerance="10"
     gridtolerance="10"
     guidetolerance="10"
     inkscape:pageopacity="0"
     inkscape:pageshadow="2"
     inkscape:window-width="1920"
     inkscape:window-height="1058"
     id="namedview4"
     showgrid="false"
     fit-margin-top="0"
     fit-margin-left="0"
     fit-margin-right="0"
     fit-margin-bottom="0"
     inkscape:zoom="0.89749082"
     inkscape:cx="537.56369"
     inkscape:cy="235.45428"
     inkscape:window-x="-8"
     inkscape:window-y="6"
     inkscape:window-maximized="1"
     inkscape:current-layer="g10" /><g
     id="g10"
     inkscape:groupmode="layer"
     inkscape:label="ink_ext_XXXXXX"
     transform="matrix(0,1.25,1.25,0,-87.636691,-82.993625)"><g
       id="g12"
       transform="scale(0.1,0.1)"><path
         d="m 4900,1600 0,63 m 0,5736 0,-63"
         style="fill:none;stroke:#000000;stroke-width:10;stroke-linecap:butt;stroke-linejoin:miter;stroke-miterlimit:10;stroke-opacity:1;stroke-dasharray:none"
         id="path14"
         inkscape:connector-curvature="0" /><g
         id="g16"
         transform="scale(10,10)"><text
           transform="matrix(0,1,1,0,496.67,136.88)"
           id="text18"><tspan
             style="font-size:20px;font-variant:normal;font-weight:normal;writing-mode:lr-tb;fill:#000000;fill-opacity:1;fill-rule:nonzero;stroke:none;font-family:Helvetica;-inkscape-font-specification:Helvetica"
             x="0"
             y="0"
             id="tspan20">0</tspan></text>
</g><path
         d="m 4068,1600 0,63 m 0,5736 0,-63"
         style="fill:none;stroke:#000000;stroke-width:10;stroke-linecap:butt;stroke-linejoin:miter;stroke-miterlimit:10;stroke-opacity:1;stroke-dasharray:none"
         id="path22"
         inkscape:connector-curvature="0" /><g
         id="g24"
         transform="scale(10,10)"><text
           transform="matrix(0,1,1,0,413.47,120.201)"
           id="text26"><tspan
             style="font-size:20px;font-variant:normal;font-weight:normal;writing-mode:lr-tb;fill:#000000;fill-opacity:1;fill-rule:nonzero;stroke:none;font-family:Helvetica;-inkscape-font-specification:Helvetica"
             x="0 11.12 16.68"
             y="0"
             sodipodi:role="line"
             id="tspan28">0.2</tspan></text>
</g><path
         d="m 3236,1600 0,63 m 0,5736 0,-63"
         style="fill:none;stroke:#000000;stroke-width:10;stroke-linecap:butt;stroke-linejoin:miter;stroke-miterlimit:10;stroke-opacity:1;stroke-dasharray:none"
         id="path30"
         inkscape:connector-curvature="0" /><g
         id="g32"
         transform="scale(10,10)"><text
           transform="matrix(0,1,1,0,330.27,120.201)"
           id="text34"><tspan
             style="font-size:20px;font-variant:normal;font-weight:normal;writing-mode:lr-tb;fill:#000000;fill-opacity:1;fill-rule:nonzero;stroke:none;font-family:Helvetica;-inkscape-font-specification:Helvetica"
             x="0 11.12 16.68"
             y="0"
             sodipodi:role="line"
             id="tspan36">0.4</tspan></text>
</g><path
         d="m 2405,1600 0,63 m 0,5736 0,-63"
         style="fill:none;stroke:#000000;stroke-width:10;stroke-linecap:butt;stroke-linejoin:miter;stroke-miterlimit:10;stroke-opacity:1;stroke-dasharray:none"
         id="path38"
         inkscape:connector-curvature="0" /><g
         id="g40"
         transform="scale(10,10)"><text
           transform="matrix(0,1,1,0,247.17,120.201)"
           id="text42"><tspan
             style="font-size:20px;font-variant:normal;font-weight:normal;writing-mode:lr-tb;fill:#000000;fill-opacity:1;fill-rule:nonzero;stroke:none;font-family:Helvetica;-inkscape-font-specification:Helvetica"
             x="0 11.12 16.68"
             y="0"
             sodipodi:role="line"
             id="tspan44">0.6</tspan></text>
</g><path
         d="m 1573,1600 0,63 m 0,5736 0,-63"
         style="fill:none;stroke:#000000;stroke-width:10;stroke-linecap:butt;stroke-linejoin:miter;stroke-miterlimit:10;stroke-opacity:1;stroke-dasharray:none"
         id="path46"
         inkscape:connector-curvature="0" /><g
         id="g48"
         transform="scale(10,10)"><text
           transform="matrix(0,1,1,0,163.97,120.201)"
           id="text50"><tspan
             style="font-size:20px;font-variant:normal;font-weight:normal;writing-mode:lr-tb;fill:#000000;fill-opacity:1;fill-rule:nonzero;stroke:none;font-family:Helvetica;-inkscape-font-specification:Helvetica"
             x="0 11.12 16.68"
             y="0"
             sodipodi:role="line"
             id="tspan52">0.8</tspan></text>
</g><path
         d="m 741,1600 0,63 m 0,5736 0,-63"
         style="fill:none;stroke:#000000;stroke-width:10;stroke-linecap:butt;stroke-linejoin:miter;stroke-miterlimit:10;stroke-opacity:1;stroke-dasharray:none"
         id="path54"
         inkscape:connector-curvature="0" /><g
         id="g56"
         transform="scale(10,10)"><text
           transform="matrix(0,1,1,0,80.7699,136.88)"
           id="text58"><tspan
             style="font-size:20px;font-variant:normal;font-weight:normal;writing-mode:lr-tb;fill:#000000;fill-opacity:1;fill-rule:nonzero;stroke:none;font-family:Helvetica;-inkscape-font-specification:Helvetica"
             x="0"
             y="0"
             id="tspan60">1</tspan></text>
</g><path
         d="m 4900,1600 -63,0 m -4096,0 63,0"
         style="fill:none;stroke:#000000;stroke-width:10;stroke-linecap:butt;stroke-linejoin:miter;stroke-miterlimit:10;stroke-opacity:1;stroke-dasharray:none"
         id="path62"
         inkscape:connector-curvature="0" /><g
         id="g64"
         transform="scale(10,10)"><text
           transform="matrix(0,1,1,0,516.67,157.22)"
           id="text66"><tspan
             style="font-size:20px;font-variant:normal;font-weight:normal;writing-mode:lr-tb;fill:#000000;fill-opacity:1;fill-rule:nonzero;stroke:none;font-family:Helvetica;-inkscape-font-specification:Helvetica"
             x="0"
             y="0"
             id="tspan68">0</tspan></text>
</g><path
         d="m 4900,2180 -63,0 m -4096,0 63,0"
         style="fill:none;stroke:#000000;stroke-width:10;stroke-linecap:butt;stroke-linejoin:miter;stroke-miterlimit:10;stroke-opacity:1;stroke-dasharray:none"
         id="path70"
         inkscape:connector-curvature="0" /><g
         id="g72"
         transform="scale(10,10)"><text
           transform="matrix(0,1,1,0,516.67,209.66)"
           id="text74"><tspan
             style="font-size:20px;font-variant:normal;font-weight:normal;writing-mode:lr-tb;fill:#000000;fill-opacity:1;fill-rule:nonzero;stroke:none;font-family:Helvetica;-inkscape-font-specification:Helvetica"
             x="0 11.12"
             y="0"
             sodipodi:role="line"
             id="tspan76">50</tspan></text>
</g><path
         d="m 4900,2760 -63,0 m -4096,0 63,0"
         style="fill:none;stroke:#000000;stroke-width:10;stroke-linecap:butt;stroke-linejoin:miter;stroke-miterlimit:10;stroke-opacity:1;stroke-dasharray:none"
         id="path78"
         inkscape:connector-curvature="0" /><g
         id="g80"
         transform="scale(10,10)"><text
           transform="matrix(0,1,1,0,516.67,262.1)"
           id="text82"><tspan
             style="font-size:20px;font-variant:normal;font-weight:normal;writing-mode:lr-tb;fill:#000000;fill-opacity:1;fill-rule:nonzero;stroke:none;font-family:Helvetica;-inkscape-font-specification:Helvetica"
             x="0 11.12 22.24"
             y="0"
             sodipodi:role="line"
             id="tspan84">100</tspan></text>
</g><path
         d="m 4900,3340 -63,0 m -4096,0 63,0"
         style="fill:none;stroke:#000000;stroke-width:10;stroke-linecap:butt;stroke-linejoin:miter;stroke-miterlimit:10;stroke-opacity:1;stroke-dasharray:none"
         id="path86"
         inkscape:connector-curvature="0" /><g
         id="g88"
         transform="scale(10,10)"><text
           transform="matrix(0,1,1,0,516.67,320.1)"
           id="text90"><tspan
             style="font-size:20px;font-variant:normal;font-weight:normal;writing-mode:lr-tb;fill:#000000;fill-opacity:1;fill-rule:nonzero;stroke:none;font-family:Helvetica;-inkscape-font-specification:Helvetica"
             x="0 11.12 22.24"
             y="0"
             sodipodi:role="line"
             id="tspan92">150</tspan></text>
</g><path
         d="m 4900,3920 -63,0 m -4096,0 63,0"
         style="fill:none;stroke:#000000;stroke-width:10;stroke-linecap:butt;stroke-linejoin:miter;stroke-miterlimit:10;stroke-opacity:1;stroke-dasharray:none"
         id="path94"
         inkscape:connector-curvature="0" /><g
         id="g96"
         transform="scale(10,10)"><text
           transform="matrix(0,1,1,0,516.67,378.1)"
           id="text98"><tspan
             style="font-size:20px;font-variant:normal;font-weight:normal;writing-mode:lr-tb;fill:#000000;fill-opacity:1;fill-rule:nonzero;stroke:none;font-family:Helvetica;-inkscape-font-specification:Helvetica"
             x="0 11.12 22.24"
             y="0"
             sodipodi:role="line"
             id="tspan100">200</tspan></text>
</g><path
         d="m 4900,4500 -63,0 m -4096,0 63,0"
         style="fill:none;stroke:#000000;stroke-width:10;stroke-linecap:butt;stroke-linejoin:miter;stroke-miterlimit:10;stroke-opacity:1;stroke-dasharray:none"
         id="path102"
         inkscape:connector-curvature="0" /><g
         id="g104"
         transform="scale(10,10)"><text
           transform="matrix(0,1,1,0,516.67,436.1)"
           id="text106"><tspan
             style="font-size:20px;font-variant:normal;font-weight:normal;writing-mode:lr-tb;fill:#000000;fill-opacity:1;fill-rule:nonzero;stroke:none;font-family:Helvetica;-inkscape-font-specification:Helvetica"
             x="0 11.12 22.24"
             y="0"
             sodipodi:role="line"
             id="tspan108">250</tspan></text>
</g><path
         d="m 4900,5079 -63,0 m -4096,0 63,0"
         style="fill:none;stroke:#000000;stroke-width:10;stroke-linecap:butt;stroke-linejoin:miter;stroke-miterlimit:10;stroke-opacity:1;stroke-dasharray:none"
         id="path110"
         inkscape:connector-curvature="0" /><g
         id="g112"
         transform="scale(10,10)"><text
           transform="matrix(0,1,1,0,516.67,494)"
           id="text114"><tspan
             style="font-size:20px;font-variant:normal;font-weight:normal;writing-mode:lr-tb;fill:#000000;fill-opacity:1;fill-rule:nonzero;stroke:none;font-family:Helvetica;-inkscape-font-specification:Helvetica"
             x="0 11.12 22.24"
             y="0"
             sodipodi:role="line"
             id="tspan116">300</tspan></text>
</g><path
         d="m 4900,5659 -63,0 m -4096,0 63,0"
         style="fill:none;stroke:#000000;stroke-width:10;stroke-linecap:butt;stroke-linejoin:miter;stroke-miterlimit:10;stroke-opacity:1;stroke-dasharray:none"
         id="path118"
         inkscape:connector-curvature="0" /><g
         id="g120"
         transform="scale(10,10)"><text
           transform="matrix(0,1,1,0,516.67,552)"
           id="text122"><tspan
             style="font-size:20px;font-variant:normal;font-weight:normal;writing-mode:lr-tb;fill:#000000;fill-opacity:1;fill-rule:nonzero;stroke:none;font-family:Helvetica;-inkscape-font-specification:Helvetica"
             x="0 11.12 22.24"
             y="0"
             sodipodi:role="line"
             id="tspan124">350</tspan></text>
</g><path
         d="m 4900,6239 -63,0 m -4096,0 63,0"
         style="fill:none;stroke:#000000;stroke-width:10;stroke-linecap:butt;stroke-linejoin:miter;stroke-miterlimit:10;stroke-opacity:1;stroke-dasharray:none"
         id="path126"
         inkscape:connector-curvature="0" /><g
         id="g128"
         transform="scale(10,10)"><text
           transform="matrix(0,1,1,0,516.67,610)"
           id="text130"><tspan
             style="font-size:20px;font-variant:normal;font-weight:normal;writing-mode:lr-tb;fill:#000000;fill-opacity:1;fill-rule:nonzero;stroke:none;font-family:Helvetica;-inkscape-font-specification:Helvetica"
             x="0 11.12 22.24"
             y="0"
             sodipodi:role="line"
             id="tspan132">400</tspan></text>
</g><path
         d="m 4900,6819 -63,0 m -4096,0 63,0"
         style="fill:none;stroke:#000000;stroke-width:10;stroke-linecap:butt;stroke-linejoin:miter;stroke-miterlimit:10;stroke-opacity:1;stroke-dasharray:none"
         id="path134"
         inkscape:connector-curvature="0" /><g
         id="g136"
         transform="scale(10,10)"><text
           transform="matrix(0,1,1,0,516.67,668)"
           id="text138"><tspan
             style="font-size:20px;font-variant:normal;font-weight:normal;writing-mode:lr-tb;fill:#000000;fill-opacity:1;fill-rule:nonzero;stroke:none;font-family:Helvetica;-inkscape-font-specification:Helvetica"
             x="0 11.12 22.24"
             y="0"
             sodipodi:role="line"
             id="tspan140">450</tspan></text>
</g><path
         d="m 4900,7399 -63,0 m -4096,0 63,0"
         style="fill:none;stroke:#000000;stroke-width:10;stroke-linecap:butt;stroke-linejoin:miter;stroke-miterlimit:10;stroke-opacity:1;stroke-dasharray:none"
         id="path142"
         inkscape:connector-curvature="0" /><g
         id="g144"
         transform="scale(10,10)"><text
           transform="matrix(0,1,1,0,516.67,726)"
           id="text146"><tspan
             style="font-size:20px;font-variant:normal;font-weight:normal;writing-mode:lr-tb;fill:#000000;fill-opacity:1;fill-rule:nonzero;stroke:none;font-family:Helvetica;-inkscape-font-specification:Helvetica"
             x="0 11.12 22.24"
             y="0"
             sodipodi:role="line"
             id="tspan148">500</tspan></text>
</g><path
         d="m 741,1600 4159,0 0,5799 -4159,0 0,-5799 z"
         style="fill:none;stroke:#000000;stroke-width:10;stroke-linecap:butt;stroke-linejoin:miter;stroke-miterlimit:10;stroke-opacity:1;stroke-dasharray:none"
         id="path150"
         inkscape:connector-curvature="0" /><g
         id="g152"
         transform="scale(10,10)"><text
           transform="matrix(-1,0,0,1,387.138,84.6699)"
           id="text154"><tspan
             style="font-size:20px;font-variant:normal;font-weight:normal;writing-mode:lr-tb;fill:#000000;fill-opacity:1;fill-rule:nonzero;stroke:none;font-family:Helvetica;-inkscape-font-specification:Helvetica"
             x="0 12.22 18.879999 30 40 45.560001 50 61.119999 72.239998 77.800003 88.919998 94.480003 100.04 105.6 116.72 127.84 133.39999 150.06 161.17999 172.3 176.74001 182.3 193.42 200.08"
             y="0"
             sodipodi:role="line"
             id="tspan156">Fraction of the monitors</tspan></text>
<text
           transform="matrix(0,1,1,0,546.67,370.431)"
           id="text158"><tspan
             style="font-size:20px;font-variant:normal;font-weight:normal;writing-mode:lr-tb;fill:#000000;fill-opacity:1;fill-rule:nonzero;stroke:none;font-family:Helvetica;-inkscape-font-specification:Helvetica"
             x="0 14.44 25.559999 42.220001 53.34 64.459999 71.120003 76.68 87.800003 93.360001 98.919998 110.04 121.16 126.72 133.38 137.82001 148.94"
             y="0"
             sodipodi:role="line"
             id="tspan160">Number of entries</tspan><tspan
             style="font-size:20px;font-variant:normal;font-weight:normal;writing-mode:lr-tb;fill:#000000;fill-opacity:1;fill-rule:nonzero;stroke:none;font-family:Helvetica;-inkscape-font-specification:Helvetica"
             x="217.45 228.57001 234.13 245.81 251.37 262.48999 268.04999"
             y="-449.60001"
             sodipodi:role="line"
             id="tspan162">p = 1.0</tspan></text>
</g><path
         d="m 904,6616 0,543 m -163,-5536 2,12 22,11 42,12 37,12 27,11 55,12 81,11 44,12 83,12 91,11 123,12 96,11 143,12 143,12 105,11 100,12 76,11 33,12 7,12 6,11 7,12 5,11 8,12 2,12 11,11 11,12 3,11 9,12 4,12 6,11 12,12 2,11 11,12 2,12 6,11 9,12 11,11 9,12 11,12 13,11 9,12 9,11 6,12 9,12 9,23 9,11 4,12 9,11 4,12 5,12 8,11 3,12 8,11 1,12 11,12 6,11 5,12 8,11 2,12 11,12 11,11 11,12 7,11 7,12 6,12 5,11 6,12 9,11 13,12 9,12 9,11 7,12 10,11 11,12 5,12 8,11 1,12 13,11 11,12 22,12 8,11 12,12 13,11 11,12 11,12 13,11 13,12 24,11 16,12 13,12 11,11 26,12 20,11 9,12 15,12 15,11 27,12 17,11 23,12 15,12 9,11 13,12"
         style="fill:none;stroke:#ff0000;stroke-width:5;stroke-linecap:butt;stroke-linejoin:miter;stroke-miterlimit:10;stroke-opacity:1;stroke-dasharray:none"
         id="path164"
         inkscape:connector-curvature="0" /><path
         d="m 2860,2818 22,11 22,12 6,12 9,23 11,11 13,12 18,12 6,11 12,12 6,11 5,12 10,12 7,11 9,12 20,11 4,12 5,12 11,11 6,12 13,11 5,12 4,12 18,11 8,12 16,11 24,12 18,12 8,11 14,12 17,11 26,12 22,12 18,11 24,12 20,11 15,12 42,12 22,11 16,12 24,11 37,12 31,12 22,11 37,12 29,11 33,12 44,11 48,12 55,12 55,11 51,12 37,11 42,12 39,12 35,11 36,12 24,11 18,12 24,12 39,11 22,12 7,11 7,12 8,12 9,11 15,12 14,11 10,12 5,12 7,11 2,12 6,11 2,12 3,12 9,11 4,12 2,11 11,12 7,12 6,11 5,12 8,11 3,12 6,12 9,11 7,12 9,11 6,12 5,12 8,11 5,12 6,11 11,12 2,12 3,11 6,12 13,11 5,12 13,23 4,12 3,11 4,12 5,12 6,11"
         style="fill:none;stroke:#ff0000;stroke-width:5;stroke-linecap:butt;stroke-linejoin:miter;stroke-miterlimit:10;stroke-opacity:1;stroke-dasharray:none"
         id="path166"
         inkscape:connector-curvature="0" /><path
         d="m 4480,4047 5,12 6,11 2,12 5,23 4,12 4,11 3,12 4,12 2,46 2,23 5,12 2,11 2,12 2,12 3,46 2,12 4,11 2,47 2,11 1,12 4,11 4,24 2,11 5,23 4,35 2,12 1,11 2,93 2,35 2,23 2,23 2,12 1,23 4,23 6,12 3,11 4,24 4,23 1,11 2,24 2,11 2,47 2,46 2,58 1,12 2,23 4,11 2,35 2,12 3,23 2,23 2,35 5,12 6,23 2,11 2,12 1,23 2,35 2,58 6,35 1,23 2,12 2,23 4,11 2,24 1,34 4,12 2,12 2,11 2,23 3,24 2,34 2,12 2,69 2,24 5,11 2,47 2,11 3,12 2,11 2,12 2,23 2,58 5,12 4,11 2,12 3,23 2,12 2,11 4,12 2,12 3,23 2,23 4,12 2,11 3,12 4,11 2,12 5,12 6,34 2,24 1,34 4,12 2,35"
         style="fill:none;stroke:#ff0000;stroke-width:5;stroke-linecap:butt;stroke-linejoin:miter;stroke-miterlimit:10;stroke-opacity:1;stroke-dasharray:none"
         id="path168"
         inkscape:connector-curvature="0" /><path
         d="m 4768,6309 2,11 3,12 4,46 2,35 5,12 4,11 2,12 2,35 2,23 1,23 2,35 2,12 2,58 5,11 2,23 2,24 7,23 4,11 2,12 2,12 5,11 2,12 2,11 4,12 5,12 2,11 4,12 1,23 2,11 6,12 3,12 2,11 2,35 2,12 2,11 2,12 1,11 2,12 2,46 2,47 4,23 1,23 2,58 2,47 4,11 2,70 3,46 2,12"
         style="fill:none;stroke:#ff0000;stroke-width:5;stroke-linecap:butt;stroke-linejoin:miter;stroke-miterlimit:10;stroke-opacity:1;stroke-dasharray:none"
         id="path170"
         inkscape:connector-curvature="0" /><g
         id="g172"
         transform="scale(10,10)"><text
           transform="matrix(0,1,1,0,117.07,587.881)"
           id="text174"><tspan
             style="font-size:20px;font-variant:normal;font-weight:normal;writing-mode:lr-tb;fill:#000000;fill-opacity:1;fill-rule:nonzero;stroke:none;font-family:Helvetica;-inkscape-font-specification:Helvetica"
             x="0 11.12 16.68 28.360001 33.919998 45.040001 50.599998"
             y="0"
             sodipodi:role="line"
             id="tspan176">p = 0.9</tspan></text>
</g><path
         d="m 1104,6616 0,543 m -363,-5536 7,12 22,11 50,12 29,12 30,11 64,12 79,11 61,12 92,12 97,11 147,12 92,11 141,12 160,12 110,11 74,12 36,11 13,12 4,12 11,11 9,12 8,11 9,12 7,12 13,11 7,12 4,11 7,12 8,12 1,11 17,12 6,11 9,12 9,12 9,11 7,12 19,11 3,12 6,12 15,11 9,12 7,11 8,12 5,12 6,11 3,12 8,11 9,12 7,11 9,12 6,12 3,11 2,12 8,11 7,12 9,12 8,11 9,12 7,11 7,12 11,12 2,11 8,12 11,11 5,12 11,12 11,11 6,12 25,11 2,12 15,12 9,11 13,12 6,11 14,12 6,12 11,11 24,12 7,11 13,12 7,12 26,11 9,12 18,11 13,12 15,12 26,11 13,12 29,11 24,12 27,12 24,11 24,12 17,11 18,12 13,12 9,11 20,12 21,11 5,12 9,12 17,11"
         style="fill:none;stroke:#00ff00;stroke-width:5;stroke-linecap:butt;stroke-linejoin:miter;stroke-miterlimit:10;stroke-opacity:1;stroke-dasharray:none"
         id="path178"
         inkscape:connector-curvature="0" /><path
         d="m 2964,2806 9,12 11,11 13,12 16,12 10,11 3,12 6,11 11,12 9,12 13,11 18,12 13,11 9,12 13,12 9,11 13,12 20,11 30,12 16,12 26,11 26,12 20,11 38,12 21,12 40,11 35,12 40,11 39,12 33,12 59,11 44,12 51,11 61,12 40,12 44,11 50,12 55,11 33,12 28,12 48,11 40,12 29,11 32,12 16,12 19,11 12,12 19,11 9,12 11,11 4,12 5,23 6,12 13,11 9,12 9,12 7,11 6,12 11,11 5,12 6,12 9,11 4,12 7,11 4,12 11,12 7,11 6,12 5,11 7,12 8,12 7,11 13,12 7,11 9,12 12,12 5,11 2,12 5,11 4,12 11,12 7,11 11,12 4,11 9,12 6,12 5,23 4,11 4,12 1,12 4,11 4,12 2,11 3,58 6,24 4,11 3,23 2,12 4,12 2,11 5,35 2,12 2,11 2,23 3,35"
         style="fill:none;stroke:#00ff00;stroke-width:5;stroke-linecap:butt;stroke-linejoin:miter;stroke-miterlimit:10;stroke-opacity:1;stroke-dasharray:none"
         id="path180"
         inkscape:connector-curvature="0" /><path
         d="m 4547,4163 6,12 2,11 1,12 2,58 2,12 4,34 2,24 1,11 2,23 2,12 2,35 4,23 1,12 4,11 2,12 4,11 2,24 5,11 2,12 2,104 3,12 2,58 2,46 4,12 3,23 2,11 2,12 4,12 2,23 1,11 2,12 2,12 2,11 2,35 3,12 4,34 2,35 4,12 1,11 2,12 2,35 2,11 4,12 1,12 2,11 2,12 2,11 2,35 2,12 2,11 1,35 4,12 2,11 4,12 3,12 2,46 2,35 4,58 1,11 4,12 2,12 5,11 4,35 4,23 5,23 2,12 6,12 3,11 2,35 6,23 3,12 2,11 2,23 2,12 4,12 3,34 2,12 7,12 2,11 4,23 2,12 2,12 1,11 2,12 2,11 4,12 3,35 2,23 2,35 2,11 2,12 2,46 1,24 4,11 2,12 2,11 2,24 1,34 6,12 4,12 5,11 2,23 2,12 4,12"
         style="fill:none;stroke:#00ff00;stroke-width:5;stroke-linecap:butt;stroke-linejoin:miter;stroke-miterlimit:10;stroke-opacity:1;stroke-dasharray:none"
         id="path182"
         inkscape:connector-curvature="0" /><path
         d="m 4827,6228 11,11 5,12 4,11 5,12 2,12 2,11 2,12 3,23 6,12 2,23 2,11 1,24 2,11 2,23 2,12 4,46 1,47 2,104 2,12 4,35 2,58 1,23 4,58"
         style="fill:none;stroke:#00ff00;stroke-width:5;stroke-linecap:butt;stroke-linejoin:miter;stroke-miterlimit:10;stroke-opacity:1;stroke-dasharray:none"
         id="path184"
         inkscape:connector-curvature="0" /><g
         id="g186"
         transform="scale(10,10)"><text
           transform="matrix(0,1,1,0,137.07,587.881)"
           id="text188"><tspan
             style="font-size:20px;font-variant:normal;font-weight:normal;writing-mode:lr-tb;fill:#000000;fill-opacity:1;fill-rule:nonzero;stroke:none;font-family:Helvetica;-inkscape-font-specification:Helvetica"
             x="0 11.12 16.68 28.360001 33.919998 45.040001 50.599998"
             y="0"
             sodipodi:role="line"
             id="tspan190">p = 0.8</tspan></text>
</g><path
         d="m 1304,6616 0,543 m -563,-5536 9,12 24,11 67,12 46,12 85,11 85,12 131,11 120,12 209,12 165,11 133,12 105,11 68,12 8,12 16,11 17,12 6,11 7,12 9,12 11,11 11,12 6,11 5,12 8,12 9,11 6,12 7,11 7,12 6,12 13,11 15,12 13,11 1,12 10,12 13,11 14,12 11,11 2,12 11,12 8,11 11,12 4,11 1,12 13,12 8,11 3,12 13,11 6,12 4,11 7,12 13,12 7,11 8,12 18,11 8,12 11,12 11,11 3,12 15,11 8,12 7,12 6,11 16,12 6,11 20,12 6,12 14,11 6,12 13,11 15,12 14,12 17,11 17,12 24,11 2,12 11,12 22,11 29,12 19,11 20,12 24,12 19,11 25,12 19,11 26,12 16,12 12,11 22,12 14,11 6,12 24,12 15,11 13,12 24,11 15,12 9,12 15,11 13,12 5,11 26,12 9,12 13,11"
         style="fill:none;stroke:#0000ff;stroke-width:5;stroke-linecap:butt;stroke-linejoin:miter;stroke-miterlimit:10;stroke-opacity:1;stroke-dasharray:none"
         id="path192"
         inkscape:connector-curvature="0" /><path
         d="m 3058,2806 20,12 13,11 19,12 13,12 22,11 7,12 21,11 16,12 17,12 26,11 18,12 33,11 34,12 42,12 37,11 50,12 50,11 46,12 43,12 35,11 66,12 39,11 54,12 51,12 39,11 24,12 67,11 40,12 47,12 27,11 32,12 22,11 20,12 15,12 13,11 20,12 15,11 13,12 5,12 15,11 6,12 9,11 4,12 13,12 11,11 11,12 5,11 11,12 12,11 9,12 7,12 4,11 9,12 13,11 4,12 11,12 9,11 2,12 5,11 2,12 10,12 9,11 9,12 6,11 5,12 6,12 11,11 9,12 4,11 3,12 8,12 7,11 4,12 2,11 5,12 2,12 7,11 2,35 2,23 2,12 6,46 5,12 2,11 4,12 3,12 4,11 2,12 2,23 2,12 1,11 2,12 4,11 2,24 3,23 2,35 2,11 2,12 4,23 2,12 3,58 6,11 3,12 2,11 4,12"
         style="fill:none;stroke:#0000ff;stroke-width:5;stroke-linecap:butt;stroke-linejoin:miter;stroke-miterlimit:10;stroke-opacity:1;stroke-dasharray:none"
         id="path194"
         inkscape:connector-curvature="0" /><path
         d="m 4586,4198 4,12 2,34 1,35 2,12 2,11 2,58 2,12 2,35 1,11 2,24 2,11 2,12 4,11 2,12 1,12 4,34 4,35 2,23 3,12 2,23 2,23 2,12 4,11 1,12 2,12 2,11 4,12 2,35 3,11 6,23 2,35 2,70 1,11 2,12 2,12 4,23 2,11 3,24 2,11 8,23 3,12 4,12 2,34 2,12 5,12 2,23 4,35 2,23 5,46 6,12 2,11 7,24 4,11 1,35 4,23 2,12 7,23 4,12 4,11 2,12 5,11 2,12 2,12 4,23 1,23 2,12 2,34 2,12 2,12 3,11 2,12 2,11 2,35 4,12 5,11 2,12 4,11 2,35 5,12 2,23 4,12 3,11 4,12 8,11 1,12 6,23 4,12 1,11 4,12 8,12 3,23 2,11 2,12 4,12 1,23 4,23 2,46 2,24 2,34 3,24 2,34 6,24 2,58 1,11"
         style="fill:none;stroke:#0000ff;stroke-width:5;stroke-linecap:butt;stroke-linejoin:miter;stroke-miterlimit:10;stroke-opacity:1;stroke-dasharray:none"
         id="path196"
         inkscape:connector-curvature="0" /><path
         d="m 4894,6239 2,23 2,35"
         style="fill:none;stroke:#0000ff;stroke-width:5;stroke-linecap:butt;stroke-linejoin:miter;stroke-miterlimit:10;stroke-opacity:1;stroke-dasharray:none"
         id="path198"
         inkscape:connector-curvature="0" /><g
         id="g200"
         transform="scale(10,10)"><text
           transform="matrix(0,1,1,0,157.07,587.881)"
           id="text202"><tspan
             style="font-size:20px;font-variant:normal;font-weight:normal;writing-mode:lr-tb;fill:#000000;fill-opacity:1;fill-rule:nonzero;stroke:none;font-family:Helvetica;-inkscape-font-specification:Helvetica"
             x="0 11.12 16.68 28.360001 33.919998 45.040001 50.599998"
             y="0"
             sodipodi:role="line"
             id="tspan204">p = 0.7</tspan></text>
</g><path
         d="m 1504,6616 0,543 m -763,-5536 7,12 21,11 44,12 52,12 61,11 48,12 89,11 94,12 106,12 131,11 142,12 182,11 168,12 94,12 28,11 11,12 22,11 15,12 11,12 11,11 8,12 11,11 4,12 9,12 9,11 8,12 13,11 7,12 17,12 14,11 8,12 13,11 9,12 6,12 14,11 6,12 15,11 9,12 2,12 7,11 13,12 6,11 13,12 9,12 11,11 13,12 22,11 11,12 8,11 5,12 13,12 9,11 10,12 14,11 4,12 15,12 15,11 22,12 15,11 9,12 7,12 8,11 11,12 15,11 15,12 20,12 26,11 22,12 24,11 20,12 34,12 20,11 26,12 22,11 32,12 22,12 24,11 28,12 14,11 28,12 20,12 19,11 7,12 11,11 21,12 20,12 21,11 11,12 14,11 26,12 32,12 24,11 18,12 28,11 26,12 26,12 55,11 47,12 51,11 67,12 44,12 67,11"
         style="fill:none;stroke:#ffff00;stroke-width:5;stroke-linecap:butt;stroke-linejoin:miter;stroke-miterlimit:10;stroke-opacity:1;stroke-dasharray:none"
         id="path206"
         inkscape:connector-curvature="0" /><path
         d="m 3577,2806 61,12 72,11 47,12 51,12 54,11 43,12 40,11 30,12 39,12 26,11 35,12 31,11 28,12 17,12 13,11 14,12 17,11 15,12 16,12 10,11 9,12 7,11 11,12 6,12 11,11 11,12 13,11 8,12 5,12 9,11 10,12 18,11 6,12 11,12 11,11 11,12 15,11 5,12 8,12 16,11 4,12 11,11 6,12 7,12 6,11 5,23 6,12 3,11 2,12 2,23 8,12 7,11 2,12 2,12 3,11 2,12 4,11 4,12 3,23 4,12 2,11 5,24 2,23 2,11 6,12 2,12 1,11 2,23 4,24 2,23 2,11 2,12 1,12 2,11 2,12 4,11 2,12 1,12 8,11 5,12 2,23 2,23 2,23 6,12 1,23 2,12 2,81 6,23 1,12 6,58 4,11 2,24 1,23 2,11 2,24 4,11 4,58 3,12 2,11 2,24 4,11 7,35 2,12 4,11"
         style="fill:none;stroke:#ffff00;stroke-width:5;stroke-linecap:butt;stroke-linejoin:miter;stroke-miterlimit:10;stroke-opacity:1;stroke-dasharray:none"
         id="path208"
         inkscape:connector-curvature="0" /><path
         d="m 4658,4395 3,47 2,11 2,12 2,11 5,24 2,11 4,12 4,34 3,35 2,12 2,46 4,23 2,12 1,23 2,12 8,11 3,12 6,23 2,12 7,11 9,12 8,23 4,12 5,11 2,12 2,12 5,23 8,11 2,12 5,12 2,11 4,12 3,58 2,11 2,12 2,35 4,11 2,24 1,11 2,12 2,11 2,12 4,12 1,11 2,12 2,11 4,12 2,12 2,11 7,12 2,11 9,12 6,12 3,11 4,12 6,11 11,12 2,12 1,23 4,11 2,35 5,12 2,81 2,35 2,23 2,12 2,23 2,23 1,23 2,23 2,12"
         style="fill:none;stroke:#ffff00;stroke-width:5;stroke-linecap:butt;stroke-linejoin:miter;stroke-miterlimit:10;stroke-opacity:1;stroke-dasharray:none"
         id="path210"
         inkscape:connector-curvature="0" /><g
         id="g212"
         transform="scale(10,10)"><text
           transform="matrix(0,1,1,0,177.07,587.881)"
           id="text214"><tspan
             style="font-size:20px;font-variant:normal;font-weight:normal;writing-mode:lr-tb;fill:#000000;fill-opacity:1;fill-rule:nonzero;stroke:none;font-family:Helvetica;-inkscape-font-specification:Helvetica"
             x="0 11.12 16.68 28.360001 33.919998 45.040001 50.599998"
             y="0"
             sodipodi:role="line"
             id="tspan216">p = 0.6</tspan></text>
</g><path
         d="m 1704,6616 0,543 m -963,-5536 23,12 38,11 68,12 98,12 116,11 125,12 294,11 200,12 129,12 23,11 28,12 55,11 6,12 10,12 17,11 17,12 21,11 7,12 17,12 6,11 11,12 10,11 7,12 10,12 11,11 13,12 8,11 25,12 5,12 17,11 6,12 25,11 11,12 21,12 17,11 6,12 11,11 7,12 16,12 9,11 11,12 29,11 6,12 13,12 7,11 17,12 4,11 21,12 13,11 21,12 19,12 13,11 8,12 23,11 21,12 24,12 31,11 24,12 17,11 19,12 32,12 23,11 27,12 22,11 31,12 24,12 33,11 32,12 22,11 27,12 21,12 26,11 19,12 27,11 21,12 36,12 38,11 26,12 27,11 45,12 49,12 33,11 51,12 55,11 55,12 55,12 43,11 72,12 51,11 63,12 61,12 39,11 42,12 49,11 50,12 41,12 38,11 51,12 38,11 29,12 17,12 32,11"
         style="fill:none;stroke:#ff00ff;stroke-width:5;stroke-linecap:butt;stroke-linejoin:miter;stroke-miterlimit:10;stroke-opacity:1;stroke-dasharray:none"
         id="path218"
         inkscape:connector-curvature="0" /><path
         d="m 4199,2806 17,12 19,11 11,12 13,12 4,11 21,12 10,11 11,12 19,12 9,11 14,12 11,11 8,12 5,12 14,11 5,12 13,11 6,12 8,12 11,11 6,12 9,11 6,12 2,12 2,11 9,12 6,11 2,12 2,12 5,11 4,12 6,11 2,12 7,12 4,11 4,12 7,11 2,24 4,11 2,23 6,12 2,12 5,11 6,12 2,11 2,23 4,12 1,12 2,11 6,12 6,46 4,12 1,23 6,12 6,23 4,11 3,24 2,34 2,12 2,23 2,12 2,35 2,23 2,11 2,12 5,23 4,12 2,11 6,12 2,23 1,23 2,12 2,46 2,12 8,12 2,23 3,11 2,12 2,12 2,23 4,11 2,12 2,12 2,23 1,11 6,24 6,11 2,12 2,11 1,12 8,23 4,12 2,11 4,12 7,12 2,11 2,12 2,11 2,12 2,12 7,34 2,12 4,12 4,11"
         style="fill:none;stroke:#ff00ff;stroke-width:5;stroke-linecap:butt;stroke-linejoin:miter;stroke-miterlimit:10;stroke-opacity:1;stroke-dasharray:none"
         id="path220"
         inkscape:connector-curvature="0" /><path
         d="m 4726,4337 3,23 2,12 6,12 6,11 2,12 1,11 4,12 2,12 4,11 2,12 4,11 2,12 7,12 6,11 2,12 2,23 2,11 3,12 2,12 6,11 4,12 9,11 4,12 6,12 3,23 4,35 4,34 6,12 3,12 2,11 10,12 4,11 2,12 1,23 4,12 10,11 5,24 6,23 2,46 2,58 2,23 7,58 2,24 2,34"
         style="fill:none;stroke:#ff00ff;stroke-width:5;stroke-linecap:butt;stroke-linejoin:miter;stroke-miterlimit:10;stroke-opacity:1;stroke-dasharray:none"
         id="path222"
         inkscape:connector-curvature="0" /><g
         id="g224"
         transform="scale(10,10)"><text
           transform="matrix(0,1,1,0,197.07,587.881)"
           id="text226"><tspan
             style="font-size:20px;font-variant:normal;font-weight:normal;writing-mode:lr-tb;fill:#000000;fill-opacity:1;fill-rule:nonzero;stroke:none;font-family:Helvetica;-inkscape-font-specification:Helvetica"
             x="0 11.12 16.68 28.360001 33.919998 45.040001 50.599998"
             y="0"
             sodipodi:role="line"
             id="tspan228">p = 0.5</tspan></text>
</g><path
         d="m 1904,6616 0,543 M 741,1623 l 39,12 41,11 56,12 60,12 152,11 167,12 353,11 217,12 18,12 17,11 10,12 16,11 15,12 18,12 19,11 10,12 25,11 8,12 20,12 15,11 21,12 18,11 14,12 13,12 10,11 17,12 18,11 10,12 7,12 6,11 10,12 14,11 9,12 20,12 13,11 20,12 10,11 15,12 16,12 29,11 25,12 26,11 11,12 14,12 25,11 16,12 31,11 13,12 35,11 24,12 29,12 35,11 41,12 37,11 19,12 29,12 30,11 35,12 19,11 23,12 32,12 56,11 47,12 31,11 37,12 43,12 27,11 58,12 37,11 45,12 45,12 64,11 78,12 64,11 72,12 70,12 74,11 46,12 72,11 74,12 49,12 49,11 42,12 37,11 35,12 35,12 28,11 27,12 15,11 18,12 12,12 13,11 16,12 17,11 8,12 8,12 25,11 12,12 9,11 10,12 16,12 9,11"
         style="fill:none;stroke:#00ffff;stroke-width:5;stroke-linecap:butt;stroke-linejoin:miter;stroke-miterlimit:10;stroke-opacity:1;stroke-dasharray:none"
         id="path230"
         inkscape:connector-curvature="0" /><path
         d="m 4386,2806 16,12 10,11 15,12 6,12 4,11 12,12 7,11 10,12 8,12 4,23 6,11 4,12 9,12 4,11 4,12 8,23 4,12 2,11 6,12 5,11 6,12 4,12 4,23 2,23 2,12 2,11 2,12 4,11 4,12 2,12 1,11 2,12 2,23 2,12 4,11 4,47 2,11 2,12 4,11 10,35 3,12 4,11 2,12 4,23 6,12 2,11 2,12 2,11 4,24 2,11 4,12 3,23 4,12 2,11 2,12 2,23 4,12 2,11 4,35 2,12 10,11 7,12 2,11 8,12 2,12 4,11 2,12 4,11 2,12 2,12 4,23 3,11 8,12 6,12 2,11 2,12 4,11 2,12 6,12 7,11 4,12 4,11 2,12 2,12 2,11 6,12 2,23 2,12 6,11 5,23 10,12 2,12 4,11 4,12 2,11 8,12 2,12 2,11 1,12 4,11 10,12 8,12 4,11 13,12"
         style="fill:none;stroke:#00ffff;stroke-width:5;stroke-linecap:butt;stroke-linejoin:miter;stroke-miterlimit:10;stroke-opacity:1;stroke-dasharray:none"
         id="path232"
         inkscape:connector-curvature="0" /><path
         d="m 4851,4233 6,11 4,12 6,23 4,12 2,11 2,12 4,23 2,12 1,11 2,47 4,23 2,23 4,12 2,23"
         style="fill:none;stroke:#00ffff;stroke-width:5;stroke-linecap:butt;stroke-linejoin:miter;stroke-miterlimit:10;stroke-opacity:1;stroke-dasharray:none"
         id="path234"
         inkscape:connector-curvature="0" /><path
         d="m 741,1600 4159,0 0,5799 -4159,0 0,-5799 z"
         style="fill:none;stroke:#000000;stroke-width:10;stroke-linecap:butt;stroke-linejoin:miter;stroke-miterlimit:10;stroke-opacity:1;stroke-dasharray:none"
         id="path236"
         inkscape:connector-curvature="0" /></g></g></svg>