<?xml version="1.0" encoding="UTF-8" standalone="no"?>
<!-- Created with Inkscape (http://www.inkscape.org/) -->

<svg
   xmlns:dc="http://purl.org/dc/elements/1.1/"
   xmlns:cc="http://creativecommons.org/ns#"
   xmlns:rdf="http://www.w3.org/1999/02/22-rdf-syntax-ns#"
   xmlns:svg="http://www.w3.org/2000/svg"
   xmlns="http://www.w3.org/2000/svg"
   xmlns:sodipodi="http://sodipodi.sourceforge.net/DTD/sodipodi-0.dtd"
   xmlns:inkscape="http://www.inkscape.org/namespaces/inkscape"
   id="svg3213"
   version="1.1"
   inkscape:version="0.48.4 r9939"
   width="860.37085"
   height="600.63684"
   xml:space="preserve"
   sodipodi:docname="cidr-as.ps"><metadata
     id="metadata3219"><rdf:RDF><cc:Work
         rdf:about=""><dc:format>image/svg+xml</dc:format><dc:type
           rdf:resource="http://purl.org/dc/dcmitype/StillImage" /><dc:title></dc:title></cc:Work></rdf:RDF></metadata><defs
     id="defs3217" /><sodipodi:namedview
     pagecolor="#ffffff"
     bordercolor="#666666"
     borderopacity="1"
     objecttolerance="10"
     gridtolerance="10"
     guidetolerance="10"
     inkscape:pageopacity="0"
     inkscape:pageshadow="2"
     inkscape:window-width="1920"
     inkscape:window-height="1058"
     id="namedview3215"
     showgrid="false"
     fit-margin-top="0"
     fit-margin-left="0"
     fit-margin-right="0"
     fit-margin-bottom="0"
     inkscape:zoom="0.89749082"
     inkscape:cx="287.43398"
     inkscape:cy="193.83956"
     inkscape:window-x="-8"
     inkscape:window-y="6"
     inkscape:window-maximized="1"
     inkscape:current-layer="g3221" /><g
     id="g3221"
     inkscape:groupmode="layer"
     inkscape:label="ink_ext_XXXXXX"
     transform="matrix(0,1.25,1.25,0,-87.636691,-82.993625)"><g
       id="g3223"
       transform="scale(0.1,0.1)"><path
         d="m 4900,1600 0,63 m 0,5736 0,-63"
         style="fill:none;stroke:#000000;stroke-width:10;stroke-linecap:butt;stroke-linejoin:miter;stroke-miterlimit:10;stroke-opacity:1;stroke-dasharray:none"
         id="path3225"
         inkscape:connector-curvature="0" /><g
         id="g3227"
         transform="scale(10,10)"><text
           transform="matrix(0,1,1,0,496.67,136.88)"
           id="text3229"><tspan
             style="font-size:20px;font-variant:normal;font-weight:normal;writing-mode:lr-tb;fill:#000000;fill-opacity:1;fill-rule:nonzero;stroke:none;font-family:Helvetica;-inkscape-font-specification:Helvetica"
             x="0"
             y="0"
             id="tspan3231">0</tspan></text>
</g><path
         d="m 4068,1600 0,63 m 0,5736 0,-63"
         style="fill:none;stroke:#000000;stroke-width:10;stroke-linecap:butt;stroke-linejoin:miter;stroke-miterlimit:10;stroke-opacity:1;stroke-dasharray:none"
         id="path3233"
         inkscape:connector-curvature="0" /><g
         id="g3235"
         transform="scale(10,10)"><text
           transform="matrix(0,1,1,0,413.47,120.201)"
           id="text3237"><tspan
             style="font-size:20px;font-variant:normal;font-weight:normal;writing-mode:lr-tb;fill:#000000;fill-opacity:1;fill-rule:nonzero;stroke:none;font-family:Helvetica;-inkscape-font-specification:Helvetica"
             x="0 11.12 16.68"
             y="0"
             sodipodi:role="line"
             id="tspan3239">0.2</tspan></text>
</g><path
         d="m 3236,1600 0,63 m 0,5736 0,-63"
         style="fill:none;stroke:#000000;stroke-width:10;stroke-linecap:butt;stroke-linejoin:miter;stroke-miterlimit:10;stroke-opacity:1;stroke-dasharray:none"
         id="path3241"
         inkscape:connector-curvature="0" /><g
         id="g3243"
         transform="scale(10,10)"><text
           transform="matrix(0,1,1,0,330.27,120.201)"
           id="text3245"><tspan
             style="font-size:20px;font-variant:normal;font-weight:normal;writing-mode:lr-tb;fill:#000000;fill-opacity:1;fill-rule:nonzero;stroke:none;font-family:Helvetica;-inkscape-font-specification:Helvetica"
             x="0 11.12 16.68"
             y="0"
             sodipodi:role="line"
             id="tspan3247">0.4</tspan></text>
</g><path
         d="m 2405,1600 0,63 m 0,5736 0,-63"
         style="fill:none;stroke:#000000;stroke-width:10;stroke-linecap:butt;stroke-linejoin:miter;stroke-miterlimit:10;stroke-opacity:1;stroke-dasharray:none"
         id="path3249"
         inkscape:connector-curvature="0" /><g
         id="g3251"
         transform="scale(10,10)"><text
           transform="matrix(0,1,1,0,247.17,120.201)"
           id="text3253"><tspan
             style="font-size:20px;font-variant:normal;font-weight:normal;writing-mode:lr-tb;fill:#000000;fill-opacity:1;fill-rule:nonzero;stroke:none;font-family:Helvetica;-inkscape-font-specification:Helvetica"
             x="0 11.12 16.68"
             y="0"
             sodipodi:role="line"
             id="tspan3255">0.6</tspan></text>
</g><path
         d="m 1573,1600 0,63 m 0,5736 0,-63"
         style="fill:none;stroke:#000000;stroke-width:10;stroke-linecap:butt;stroke-linejoin:miter;stroke-miterlimit:10;stroke-opacity:1;stroke-dasharray:none"
         id="path3257"
         inkscape:connector-curvature="0" /><g
         id="g3259"
         transform="scale(10,10)"><text
           transform="matrix(0,1,1,0,163.97,120.201)"
           id="text3261"><tspan
             style="font-size:20px;font-variant:normal;font-weight:normal;writing-mode:lr-tb;fill:#000000;fill-opacity:1;fill-rule:nonzero;stroke:none;font-family:Helvetica;-inkscape-font-specification:Helvetica"
             x="0 11.12 16.68"
             y="0"
             sodipodi:role="line"
             id="tspan3263">0.8</tspan></text>
</g><path
         d="m 741,1600 0,63 m 0,5736 0,-63"
         style="fill:none;stroke:#000000;stroke-width:10;stroke-linecap:butt;stroke-linejoin:miter;stroke-miterlimit:10;stroke-opacity:1;stroke-dasharray:none"
         id="path3265"
         inkscape:connector-curvature="0" /><g
         id="g3267"
         transform="scale(10,10)"><text
           transform="matrix(0,1,1,0,80.7699,136.88)"
           id="text3269"><tspan
             style="font-size:20px;font-variant:normal;font-weight:normal;writing-mode:lr-tb;fill:#000000;fill-opacity:1;fill-rule:nonzero;stroke:none;font-family:Helvetica;-inkscape-font-specification:Helvetica"
             x="0"
             y="0"
             id="tspan3271">1</tspan></text>
</g><path
         d="m 4900,1600 -63,0 m -4096,0 63,0"
         style="fill:none;stroke:#000000;stroke-width:10;stroke-linecap:butt;stroke-linejoin:miter;stroke-miterlimit:10;stroke-opacity:1;stroke-dasharray:none"
         id="path3273"
         inkscape:connector-curvature="0" /><g
         id="g3275"
         transform="scale(10,10)"><text
           transform="matrix(0,1,1,0,516.67,157.22)"
           id="text3277"><tspan
             style="font-size:20px;font-variant:normal;font-weight:normal;writing-mode:lr-tb;fill:#000000;fill-opacity:1;fill-rule:nonzero;stroke:none;font-family:Helvetica;-inkscape-font-specification:Helvetica"
             x="0"
             y="0"
             id="tspan3279">0</tspan></text>
</g><path
         d="m 4900,2567 -63,0 m -4096,0 63,0"
         style="fill:none;stroke:#000000;stroke-width:10;stroke-linecap:butt;stroke-linejoin:miter;stroke-miterlimit:10;stroke-opacity:1;stroke-dasharray:none"
         id="path3281"
         inkscape:connector-curvature="0" /><g
         id="g3283"
         transform="scale(10,10)"><text
           transform="matrix(0,1,1,0,516.67,248.36)"
           id="text3285"><tspan
             style="font-size:20px;font-variant:normal;font-weight:normal;writing-mode:lr-tb;fill:#000000;fill-opacity:1;fill-rule:nonzero;stroke:none;font-family:Helvetica;-inkscape-font-specification:Helvetica"
             x="0 11.12"
             y="0"
             sodipodi:role="line"
             id="tspan3287">50</tspan></text>
</g><path
         d="m 4900,3533 -63,0 m -4096,0 63,0"
         style="fill:none;stroke:#000000;stroke-width:10;stroke-linecap:butt;stroke-linejoin:miter;stroke-miterlimit:10;stroke-opacity:1;stroke-dasharray:none"
         id="path3289"
         inkscape:connector-curvature="0" /><g
         id="g3291"
         transform="scale(10,10)"><text
           transform="matrix(0,1,1,0,516.67,339.4)"
           id="text3293"><tspan
             style="font-size:20px;font-variant:normal;font-weight:normal;writing-mode:lr-tb;fill:#000000;fill-opacity:1;fill-rule:nonzero;stroke:none;font-family:Helvetica;-inkscape-font-specification:Helvetica"
             x="0 11.12 22.24"
             y="0"
             sodipodi:role="line"
             id="tspan3295">100</tspan></text>
</g><path
         d="m 4900,4499 -63,0 m -4096,0 63,0"
         style="fill:none;stroke:#000000;stroke-width:10;stroke-linecap:butt;stroke-linejoin:miter;stroke-miterlimit:10;stroke-opacity:1;stroke-dasharray:none"
         id="path3297"
         inkscape:connector-curvature="0" /><g
         id="g3299"
         transform="scale(10,10)"><text
           transform="matrix(0,1,1,0,516.67,436)"
           id="text3301"><tspan
             style="font-size:20px;font-variant:normal;font-weight:normal;writing-mode:lr-tb;fill:#000000;fill-opacity:1;fill-rule:nonzero;stroke:none;font-family:Helvetica;-inkscape-font-specification:Helvetica"
             x="0 11.12 22.24"
             y="0"
             sodipodi:role="line"
             id="tspan3303">150</tspan></text>
</g><path
         d="m 4900,5466 -63,0 m -4096,0 63,0"
         style="fill:none;stroke:#000000;stroke-width:10;stroke-linecap:butt;stroke-linejoin:miter;stroke-miterlimit:10;stroke-opacity:1;stroke-dasharray:none"
         id="path3305"
         inkscape:connector-curvature="0" /><g
         id="g3307"
         transform="scale(10,10)"><text
           transform="matrix(0,1,1,0,516.67,532.7)"
           id="text3309"><tspan
             style="font-size:20px;font-variant:normal;font-weight:normal;writing-mode:lr-tb;fill:#000000;fill-opacity:1;fill-rule:nonzero;stroke:none;font-family:Helvetica;-inkscape-font-specification:Helvetica"
             x="0 11.12 22.24"
             y="0"
             sodipodi:role="line"
             id="tspan3311">200</tspan></text>
</g><path
         d="m 4900,6433 -63,0 m -4096,0 63,0"
         style="fill:none;stroke:#000000;stroke-width:10;stroke-linecap:butt;stroke-linejoin:miter;stroke-miterlimit:10;stroke-opacity:1;stroke-dasharray:none"
         id="path3313"
         inkscape:connector-curvature="0" /><g
         id="g3315"
         transform="scale(10,10)"><text
           transform="matrix(0,1,1,0,516.67,629.4)"
           id="text3317"><tspan
             style="font-size:20px;font-variant:normal;font-weight:normal;writing-mode:lr-tb;fill:#000000;fill-opacity:1;fill-rule:nonzero;stroke:none;font-family:Helvetica;-inkscape-font-specification:Helvetica"
             x="0 11.12 22.24"
             y="0"
             sodipodi:role="line"
             id="tspan3319">250</tspan></text>
</g><path
         d="m 4900,7399 -63,0 m -4096,0 63,0"
         style="fill:none;stroke:#000000;stroke-width:10;stroke-linecap:butt;stroke-linejoin:miter;stroke-miterlimit:10;stroke-opacity:1;stroke-dasharray:none"
         id="path3321"
         inkscape:connector-curvature="0" /><g
         id="g3323"
         transform="scale(10,10)"><text
           transform="matrix(0,1,1,0,516.67,726)"
           id="text3325"><tspan
             style="font-size:20px;font-variant:normal;font-weight:normal;writing-mode:lr-tb;fill:#000000;fill-opacity:1;fill-rule:nonzero;stroke:none;font-family:Helvetica;-inkscape-font-specification:Helvetica"
             x="0 11.12 22.24"
             y="0"
             sodipodi:role="line"
             id="tspan3327">300</tspan></text>
</g><path
         d="m 741,1600 4159,0 0,5799 -4159,0 0,-5799 z"
         style="fill:none;stroke:#000000;stroke-width:10;stroke-linecap:butt;stroke-linejoin:miter;stroke-miterlimit:10;stroke-opacity:1;stroke-dasharray:none"
         id="path3329"
         inkscape:connector-curvature="0" /><g
         id="g3331"
         transform="scale(10,10)"><text
           transform="matrix(-1,0,0,1,387.138,84.6699)"
           id="text3333"><tspan
             style="font-size:20px;font-variant:normal;font-weight:normal;writing-mode:lr-tb;fill:#000000;fill-opacity:1;fill-rule:nonzero;stroke:none;font-family:Helvetica;-inkscape-font-specification:Helvetica"
             x="0 12.22 18.879999 30 40 45.560001 50 61.119999 72.239998 77.800003 88.919998 94.480003 100.04 105.6 116.72 127.84 133.39999 150.06 161.17999 172.3 176.74001 182.3 193.42 200.08"
             y="0"
             sodipodi:role="line"
             id="tspan3335">Fraction of the monitors</tspan></text>
<text
           transform="matrix(0,1,1,0,546.67,370.431)"
           id="text3337"><tspan
             style="font-size:20px;font-variant:normal;font-weight:normal;writing-mode:lr-tb;fill:#000000;fill-opacity:1;fill-rule:nonzero;stroke:none;font-family:Helvetica;-inkscape-font-specification:Helvetica"
             x="0 14.44 25.559999 42.220001 53.34 64.459999 71.120003 76.68 87.800003 93.360001 98.919998 110.04 121.16 126.72 133.38 137.82001 148.94"
             y="0"
             sodipodi:role="line"
             id="tspan3339">Number of entries</tspan><tspan
             style="font-size:20px;font-variant:normal;font-weight:normal;writing-mode:lr-tb;fill:#000000;fill-opacity:1;fill-rule:nonzero;stroke:none;font-family:Helvetica;-inkscape-font-specification:Helvetica"
             x="217.45 228.57001 234.13 245.81 251.37 262.48999 268.04999"
             y="-449.60001"
             sodipodi:role="line"
             id="tspan3341">p = 1.0</tspan></text>
</g><path
         d="m 904,6616 0,543 m -163,-5501 19,19 15,20 19,19 8,19 11,20 11,19 12,19 22,20 46,19 41,19 87,20 136,19 291,19 375,20 4,96 7,78 4,58 4,38 3,39 4,19 8,58 4,20 3,116 4,38 4,20 11,19 4,19 4,20 4,19 15,58 3,38 4,20 4,77 4,77 7,20 8,38 7,20 8,19 4,19 7,116 8,20 8,19 3,19 8,20 4,19 22,19 12,20 3,19 23,19 11,39 4,39 8,19 4,19 19,20 11,19 11,19 8,20 11,19 11,39 8,38 23,39 19,19 15,20 38,19 30,19 15,20 41,19 42,19 49,20 64,19 42,19 38,20 76,19 83,19 45,20 38,19 38,19 64,20 42,19 26,19 53,20 38,19 56,19 34,20 65,19 60,19 42,20 41,19 50,19 49,20 41,19 61,19 30,20 64,19 76,19 34,20 49,19 46,19 64,20 38,19 34,19 37,20"
         style="fill:none;stroke:#ff0000;stroke-width:5;stroke-linecap:butt;stroke-linejoin:miter;stroke-miterlimit:10;stroke-opacity:1;stroke-dasharray:none"
         id="path3343"
         inkscape:connector-curvature="0" /><path
         d="m 4064,4384 12,19 38,19 45,20 23,19 19,19 22,19 19,20 15,19 12,19 22,20 19,19 34,19 15,20 19,19 15,19 19,20 4,19 15,39 4,19 11,19 4,20 8,19 11,19 4,20 11,38 4,20 11,19 4,19 4,20 4,19 3,39 4,19 4,19 4,58 3,39 12,19 4,20 7,58 4,58 4,38 7,39 4,97 4,19 4,19 7,194 4,116 4,96 4,20 3,19 4,39 4,116 4,38 3,58 4,97 4,19 4,251 7,78 4,19 4,19 11,20 30,19 42,19 23,20 49,19 23,19 30,20 11,19 15,19 15,20"
         style="fill:none;stroke:#ff0000;stroke-width:5;stroke-linecap:butt;stroke-linejoin:miter;stroke-miterlimit:10;stroke-opacity:1;stroke-dasharray:none"
         id="path3345"
         inkscape:connector-curvature="0" /><g
         id="g3347"
         transform="scale(10,10)"><text
           transform="matrix(0,1,1,0,117.07,587.881)"
           id="text3349"><tspan
             style="font-size:20px;font-variant:normal;font-weight:normal;writing-mode:lr-tb;fill:#000000;fill-opacity:1;fill-rule:nonzero;stroke:none;font-family:Helvetica;-inkscape-font-specification:Helvetica"
             x="0 11.12 16.68 28.360001 33.919998 45.040001 50.599998"
             y="0"
             sodipodi:role="line"
             id="tspan3351">p = 0.9</tspan></text>
</g><path
         d="m 1104,6616 0,543 m -363,-5520 5,19 11,19 10,20 11,19 13,19 19,20 19,19 18,19 38,20 40,19 92,19 150,20 264,19 379,19 2,20 2,58 3,19 4,19 4,20 1,19 5,39 1,19 3,19 2,20 4,19 4,19 4,20 2,19 1,19 3,20 4,19 1,19 2,20 2,38 4,20 6,38 3,20 2,19 7,19 8,39 3,19 4,20 4,19 1,19 3,19 4,20 3,19 4,39 1,19 4,19 4,20 3,19 3,39 4,19 3,19 8,20 2,19 4,19 2,20 2,19 5,19 2,20 8,19 8,19 6,20 15,19 7,19 8,20 9,19 6,19 9,20 14,19 10,19 7,20 7,19 13,19 13,20 8,19 12,19 11,20 11,19 12,19 7,20 10,19 22,19 20,20 35,19 19,19 30,20 35,19 45,19 35,20 45,19 42,19 72,20 55,19 45,19 48,20 40,19 43,19 45,20 39,19"
         style="fill:none;stroke:#00ff00;stroke-width:5;stroke-linecap:butt;stroke-linejoin:miter;stroke-miterlimit:10;stroke-opacity:1;stroke-dasharray:none"
         id="path3353"
         inkscape:connector-curvature="0" /><path
         d="m 2893,3765 32,19 32,20 42,19 43,19 44,20 47,19 36,19 61,20 64,19 60,19 36,20 55,19 46,19 54,20 49,19 42,19 38,20 54,19 50,19 39,20 50,19 38,19 40,20 36,19 34,19 32,20 33,19 22,19 31,20 35,19 30,19 29,20 18,19 11,19 16,20 8,19 19,19 11,19 16,20 14,19 13,19 10,20 9,19 10,19 5,20 6,19 4,39 6,19 6,19 5,20 7,19 3,19 4,39 4,19 2,20 3,38 6,20 5,19 1,19 4,20 7,19 7,19 7,20 6,19 5,19 2,20 3,19 3,19 8,20 3,19 1,19 7,20 4,19 4,19 5,20 7,19 1,19 3,20 1,19 2,19 1,20 1,19 3,19 1,20 2,38 1,39 4,58 4,39 4,38 4,78 2,19 1,19 1,39 3,19 2,39 1,39 1,38 2,20 1,19 3,19 1,58 1,20 2,38 2,20"
         style="fill:none;stroke:#00ff00;stroke-width:5;stroke-linecap:butt;stroke-linejoin:miter;stroke-miterlimit:10;stroke-opacity:1;stroke-dasharray:none"
         id="path3355"
         inkscape:connector-curvature="0" /><path
         d="m 4587,6143 3,58 3,19 1,77 1,20 2,19 1,19 3,39 1,39 6,19 1,38 3,20 1,19 3,19 4,20 4,19 8,19 19,20 24,19 38,19 41,20 30,19 31,19 24,20 20,19 21,19 15,20 2,38 2,39"
         style="fill:none;stroke:#00ff00;stroke-width:5;stroke-linecap:butt;stroke-linejoin:miter;stroke-miterlimit:10;stroke-opacity:1;stroke-dasharray:none"
         id="path3357"
         inkscape:connector-curvature="0" /><g
         id="g3359"
         transform="scale(10,10)"><text
           transform="matrix(0,1,1,0,137.07,587.881)"
           id="text3361"><tspan
             style="font-size:20px;font-variant:normal;font-weight:normal;writing-mode:lr-tb;fill:#000000;fill-opacity:1;fill-rule:nonzero;stroke:none;font-family:Helvetica;-inkscape-font-specification:Helvetica"
             x="0 11.12 16.68 28.360001 33.919998 45.040001 50.599998"
             y="0"
             sodipodi:role="line"
             id="tspan3363">p = 0.8</tspan></text>
</g><path
         d="m 1304,6616 0,543 m -563,-5520 7,19 16,19 18,20 14,19 22,19 33,20 38,19 60,19 116,20 314,19 428,19 2,20 2,38 2,20 2,19 4,19 4,20 1,19 3,19 1,20 3,19 4,19 3,20 3,19 1,19 1,20 7,19 4,19 3,39 3,19 1,20 4,38 1,20 6,19 5,19 6,20 5,19 3,19 4,39 5,19 2,20 4,38 4,20 5,19 1,19 3,19 3,20 5,19 2,19 4,20 5,19 1,19 3,20 4,19 3,19 3,20 8,19 4,39 4,19 5,19 10,20 5,19 15,19 10,20 9,19 12,19 12,20 9,19 9,19 12,20 10,19 12,19 12,20 11,19 3,19 16,20 18,19 17,19 19,20 29,19 23,19 31,20 36,19 42,19 56,20 49,19 56,19 52,20 46,19 50,19 61,20 31,19 48,19 27,20 44,19 33,19 27,20 36,19 30,19 37,20 58,19 50,19"
         style="fill:none;stroke:#0000ff;stroke-width:5;stroke-linecap:butt;stroke-linejoin:miter;stroke-miterlimit:10;stroke-opacity:1;stroke-dasharray:none"
         id="path3365"
         inkscape:connector-curvature="0" /><path
         d="m 3146,3726 45,20 46,19 62,19 64,20 55,19 53,19 46,20 34,19 54,19 45,20 51,19 48,19 54,20 41,19 51,19 35,20 38,19 31,19 30,20 37,19 34,19 27,20 15,19 31,19 19,20 20,19 15,19 20,20 19,19 12,19 11,20 18,19 16,19 5,20 9,19 5,19 7,20 5,19 10,19 13,19 8,20 4,19 3,19 4,20 2,19 5,19 4,20 5,19 6,39 5,19 3,19 1,20 6,19 4,19 1,20 4,19 3,19 4,20 5,19 9,19 2,20 2,19 5,19 4,20 8,19 4,19 8,20 3,19 6,19 4,20 6,19 6,19 4,20 5,19 4,19 3,97 4,19 1,20 6,19 1,19 3,58 3,20 4,19 1,19 1,20 2,19 2,19 3,20 2,38 1,20 1,19 3,19 1,39 2,58 1,19 1,39 3,19 3,20 3,38 2,78 3,58 1,38 4,20 2,19"
         style="fill:none;stroke:#0000ff;stroke-width:5;stroke-linecap:butt;stroke-linejoin:miter;stroke-miterlimit:10;stroke-opacity:1;stroke-dasharray:none"
         id="path3367"
         inkscape:connector-curvature="0" /><path
         d="m 4601,6104 1,19 1,20 3,19 3,19 3,20 2,38 6,20 2,19 2,19 8,20 26,19 28,19 31,20 37,19 34,19 36,20 31,19 23,19 17,19 1,20 3,38"
         style="fill:none;stroke:#0000ff;stroke-width:5;stroke-linecap:butt;stroke-linejoin:miter;stroke-miterlimit:10;stroke-opacity:1;stroke-dasharray:none"
         id="path3369"
         inkscape:connector-curvature="0" /><g
         id="g3371"
         transform="scale(10,10)"><text
           transform="matrix(0,1,1,0,157.07,587.881)"
           id="text3373"><tspan
             style="font-size:20px;font-variant:normal;font-weight:normal;writing-mode:lr-tb;fill:#000000;fill-opacity:1;fill-rule:nonzero;stroke:none;font-family:Helvetica;-inkscape-font-specification:Helvetica"
             x="0 11.12 16.68 28.360001 33.919998 45.040001 50.599998"
             y="0"
             sodipodi:role="line"
             id="tspan3375">p = 0.7</tspan></text>
</g><path
         d="m 1504,6616 0,543 m -763,-5519 1,18 15,19 15,20 12,19 14,19 25,20 23,19 26,19 33,20 57,19 138,19 289,20 423,19 2,19 5,20 1,19 1,19 4,20 6,38 2,20 5,19 2,19 3,20 4,19 4,19 3,20 5,19 3,19 4,20 3,19 2,19 4,20 3,19 10,19 1,20 8,19 3,19 8,20 1,19 3,19 4,20 1,19 4,19 6,20 3,19 4,19 2,20 3,19 1,38 3,20 6,19 8,19 4,20 11,19 13,19 4,20 16,19 10,19 8,20 8,19 19,19 14,20 9,19 4,19 10,20 9,19 8,19 10,20 12,19 20,19 14,20 24,19 16,19 30,20 33,19 56,19 45,20 50,19 67,19 46,20 58,19 38,19 55,20 50,19 45,19 26,20 30,19 28,19 26,20 31,19 27,19 46,20 35,19 57,19 51,20 51,19 55,19 51,20 70,19 65,19 60,20 45,19"
         style="fill:none;stroke:#ffff00;stroke-width:5;stroke-linecap:butt;stroke-linejoin:miter;stroke-miterlimit:10;stroke-opacity:1;stroke-dasharray:none"
         id="path3377"
         inkscape:connector-curvature="0" /><path
         d="m 3527,3649 64,19 57,20 63,19 54,19 46,20 61,19 45,19 42,20 35,19 30,19 34,20 30,19 40,19 21,20 21,19 10,19 20,20 9,19 14,19 11,20 12,19 11,19 5,20 6,19 5,19 10,20 4,19 6,19 9,20 4,19 6,19 4,20 3,19 7,19 1,20 2,19 1,19 3,20 4,19 2,19 3,39 4,19 6,19 8,20 7,38 2,20 4,19 12,19 5,20 5,19 3,19 1,20 7,19 4,19 5,20 6,19 5,19 10,20 4,19 5,19 4,20 4,19 3,19 1,20 4,19 6,19 5,20 3,19 9,19 4,20 4,19 3,19 8,20 8,19 4,19 6,20 5,19 8,19 4,20 2,19 4,19 3,20 2,19 4,39 3,38 4,20 2,19 1,19 1,20 3,19 4,19 1,20 2,19 2,39 2,19 2,19 2,20 1,19 2,19 1,20 4,19 3,19 2,20 3,19"
         style="fill:none;stroke:#ffff00;stroke-width:5;stroke-linecap:butt;stroke-linejoin:miter;stroke-miterlimit:10;stroke-opacity:1;stroke-dasharray:none"
         id="path3379"
         inkscape:connector-curvature="0" /><path
         d="m 4598,5756 1,19 2,20 1,38 4,39 2,39 2,19 4,19 3,20 4,19 4,19 8,20 12,19 17,19 25,20 37,19 32,19 47,20 31,19 32,19 22,20 5,19 3,19 3,58"
         style="fill:none;stroke:#ffff00;stroke-width:5;stroke-linecap:butt;stroke-linejoin:miter;stroke-miterlimit:10;stroke-opacity:1;stroke-dasharray:none"
         id="path3381"
         inkscape:connector-curvature="0" /><g
         id="g3383"
         transform="scale(10,10)"><text
           transform="matrix(0,1,1,0,177.07,587.881)"
           id="text3385"><tspan
             style="font-size:20px;font-variant:normal;font-weight:normal;writing-mode:lr-tb;fill:#000000;fill-opacity:1;fill-rule:nonzero;stroke:none;font-family:Helvetica;-inkscape-font-specification:Helvetica"
             x="0 11.12 16.68 28.360001 33.919998 45.040001 50.599998"
             y="0"
             sodipodi:role="line"
             id="tspan3387">p = 0.6</tspan></text>
</g><path
         d="m 1704,6616 0,543 m -963,-5520 14,19 21,19 36,20 15,19 47,19 39,20 194,19 693,19 2,20 2,19 4,19 7,39 8,39 4,19 4,19 3,20 4,19 3,39 5,19 10,19 2,20 6,19 4,19 7,20 4,19 3,19 5,20 4,19 3,19 1,20 3,19 7,19 6,20 4,19 6,19 3,20 4,19 4,19 8,20 7,19 6,19 9,20 10,19 6,19 2,20 9,19 9,19 20,19 11,20 19,19 12,19 11,20 18,19 20,19 8,20 13,19 24,19 22,20 27,19 30,19 43,20 46,19 44,19 58,20 73,19 64,19 60,20 48,19 42,19 45,20 46,19 26,19 31,20 23,19 23,19 41,20 27,19 41,19 43,20 48,19 57,19 62,20 65,19 72,19 81,20 53,19 73,19 63,20 76,19 61,19 55,20 67,19 47,19 31,20 36,19 31,19 32,20 30,19 22,19 27,20 20,19 22,19"
         style="fill:none;stroke:#ff00ff;stroke-width:5;stroke-linecap:butt;stroke-linejoin:miter;stroke-miterlimit:10;stroke-opacity:1;stroke-dasharray:none"
         id="path3389"
         inkscape:connector-curvature="0" /><path
         d="m 4188,3668 16,20 18,19 18,19 11,20 4,19 8,19 4,20 11,19 2,19 6,20 7,19 6,19 3,20 5,19 3,19 6,20 4,19 4,19 4,20 3,58 2,19 4,19 2,20 1,19 1,19 2,20 5,19 3,19 3,20 4,19 6,19 6,20 3,19 1,19 8,20 11,19 9,19 4,20 6,19 3,19 6,19 4,20 2,19 2,19 7,20 4,19 6,19 2,20 3,19 4,19 7,20 3,19 11,19 5,20 4,19 5,19 9,20 5,19 5,19 3,20 8,19 7,19 10,20 4,19 4,19 5,20 2,38 1,20 5,19 6,19 2,20 2,19 5,39 7,19 1,19 2,20 1,19 1,58 3,19 1,20 2,19 1,19 4,20 4,19 2,19 4,20 4,19 3,39 2,38 3,20 12,19 19,19 25,20 31,19 44,19 29,20 33,19 35,19 27,20 13,19 9,19 2,39"
         style="fill:none;stroke:#ff00ff;stroke-width:5;stroke-linecap:butt;stroke-linejoin:miter;stroke-miterlimit:10;stroke-opacity:1;stroke-dasharray:none"
         id="path3391"
         inkscape:connector-curvature="0" /><g
         id="g3393"
         transform="scale(10,10)"><text
           transform="matrix(0,1,1,0,197.07,587.881)"
           id="text3395"><tspan
             style="font-size:20px;font-variant:normal;font-weight:normal;writing-mode:lr-tb;fill:#000000;fill-opacity:1;fill-rule:nonzero;stroke:none;font-family:Helvetica;-inkscape-font-specification:Helvetica"
             x="0 11.12 16.68 28.360001 33.919998 45.040001 50.599998"
             y="0"
             sodipodi:role="line"
             id="tspan3397">p = 0.5</tspan></text>
</g><path
         d="m 1904,6616 0,543 M 741,1639 l 20,19 34,19 30,20 34,19 47,19 243,20 649,19 3,19 5,20 4,19 3,19 11,20 3,19 2,19 8,39 4,19 2,20 3,19 4,19 8,20 2,19 7,19 3,20 7,19 7,19 4,20 5,19 5,19 6,20 5,19 8,19 3,20 6,19 4,19 5,20 4,19 8,19 3,20 14,19 4,19 9,20 8,19 11,19 18,20 19,19 19,19 19,20 15,19 9,19 12,19 19,20 28,19 25,19 27,20 38,19 36,19 39,20 49,19 56,19 59,20 64,19 54,19 56,20 47,19 57,19 51,20 39,19 56,19 34,20 33,19 49,19 53,20 45,19 53,19 58,20 67,19 65,19 81,20 57,19 74,19 70,20 79,19 64,19 44,20 64,19 64,19 47,20 52,19 46,19 30,20 24,19 18,19 25,20 21,19 11,19 15,20 8,19 7,19 18,20 6,19 9,19 2,20"
         style="fill:none;stroke:#00ffff;stroke-width:5;stroke-linecap:butt;stroke-linejoin:miter;stroke-miterlimit:10;stroke-opacity:1;stroke-dasharray:none"
         id="path3399"
         inkscape:connector-curvature="0" /><path
         d="m 4300,3630 6,19 4,39 5,19 3,19 7,20 4,19 1,19 1,20 4,38 6,39 1,19 6,20 1,19 3,19 1,39 4,19 3,39 1,19 2,39 1,39 1,58 3,19 3,19 2,20 2,19 4,19 4,20 8,19 3,19 5,20 6,19 11,19 4,20 10,19 7,19 11,19 4,20 11,19 10,19 2,20 4,19 7,19 4,20 14,19 8,19 13,20 6,19 13,19 5,20 6,19 7,19 7,20 3,38 2,20 6,19 7,19 2,20 3,19 1,19 2,20 4,38 7,20 2,19 6,19 6,20 7,19 14,19 20,20 34,19 46,19 49,20 23,19 31,19 40,20 9,19 3,19 1,20 2,19"
         style="fill:none;stroke:#00ffff;stroke-width:5;stroke-linecap:butt;stroke-linejoin:miter;stroke-miterlimit:10;stroke-opacity:1;stroke-dasharray:none"
         id="path3401"
         inkscape:connector-curvature="0" /><path
         d="m 741,1600 4159,0 0,5799 -4159,0 0,-5799 z"
         style="fill:none;stroke:#000000;stroke-width:10;stroke-linecap:butt;stroke-linejoin:miter;stroke-miterlimit:10;stroke-opacity:1;stroke-dasharray:none"
         id="path3403"
         inkscape:connector-curvature="0" /></g></g></svg>