<?xml version="1.0" encoding="UTF-8" standalone="no"?>
<!-- Created with Inkscape (http://www.inkscape.org/) -->

<svg
   xmlns:dc="http://purl.org/dc/elements/1.1/"
   xmlns:cc="http://creativecommons.org/ns#"
   xmlns:rdf="http://www.w3.org/1999/02/22-rdf-syntax-ns#"
   xmlns:svg="http://www.w3.org/2000/svg"
   xmlns="http://www.w3.org/2000/svg"
   xmlns:sodipodi="http://sodipodi.sourceforge.net/DTD/sodipodi-0.dtd"
   xmlns:inkscape="http://www.inkscape.org/namespaces/inkscape"
   id="svg27403"
   version="1.1"
   inkscape:version="0.48.4 r9939"
   width="400.44931"
   height="294.80045"
   xml:space="preserve"
   sodipodi:docname="traceroute-distrib.svg"
   inkscape:export-filename="C:\Users\Elie Rotenberg\git\phd\src\images\traceroute-distrib.png"
   inkscape:export-xdpi="120.08141"
   inkscape:export-ydpi="120.08141"><metadata
     id="metadata27409"><rdf:RDF><cc:Work
         rdf:about=""><dc:format>image/svg+xml</dc:format><dc:type
           rdf:resource="http://purl.org/dc/dcmitype/StillImage" /><dc:title></dc:title></cc:Work></rdf:RDF></metadata><defs
     id="defs27407" /><sodipodi:namedview
     pagecolor="#ffffff"
     bordercolor="#666666"
     borderopacity="1"
     objecttolerance="10"
     gridtolerance="10"
     guidetolerance="10"
     inkscape:pageopacity="0"
     inkscape:pageshadow="2"
     inkscape:window-width="1920"
     inkscape:window-height="964"
     id="namedview27405"
     showgrid="false"
     fit-margin-top="0"
     fit-margin-left="0"
     fit-margin-right="0"
     fit-margin-bottom="0"
     inkscape:zoom="1.4984127"
     inkscape:cx="-30.601425"
     inkscape:cy="89.099351"
     inkscape:window-x="1912"
     inkscape:window-y="-8"
     inkscape:window-maximized="1"
     inkscape:current-layer="g27411" /><g
     id="g27411"
     inkscape:groupmode="layer"
     inkscape:label="ink_ext_XXXXXX"
     transform="matrix(1.25,0,0,-1.25,-41.649817,303.80156)"><g
       id="g27413"
       transform="scale(0.1,0.1)"><path
         d="m 693,220 31.5,0 m 2710.5,0 -31.5,0"
         style="fill:none;stroke:#000000;stroke-width:5;stroke-linecap:butt;stroke-linejoin:miter;stroke-miterlimit:10;stroke-opacity:1;stroke-dasharray:none"
         id="path27415"
         inkscape:connector-curvature="0" /><g
         id="g27417"
         transform="scale(10,10)"><text
           transform="matrix(1,0,0,-1,56.5846,18.3352)"
           id="text27419"><tspan
             style="font-size:11px;font-variant:normal;font-weight:normal;writing-mode:lr-tb;fill:#000000;fill-opacity:1;fill-rule:nonzero;stroke:none;font-family:Helvetica;-inkscape-font-specification:Helvetica"
             x="0"
             y="0"
             id="tspan27421">1</tspan></text>
</g><path
         d="m 693,383 15.5,0 m 2726.5,0 -15.5,0 M 693,478.5 l 15.5,0 m 2726.5,0 -15.5,0 m -2726.5,68 15.5,0 m 2726.5,0 -15.5,0 M 693,599 l 15.5,0 m 2726.5,0 -15.5,0 M 693,642 l 15.5,0 m 2726.5,0 -15.5,0 M 693,678 l 15.5,0 m 2726.5,0 -15.5,0 M 693,709.5 l 15.5,0 m 2726.5,0 -15.5,0 M 693,737 l 15.5,0 m 2726.5,0 -15.5,0 M 693,762 l 31.5,0 m 2710.5,0 -31.5,0"
         style="fill:none;stroke:#000000;stroke-width:5;stroke-linecap:butt;stroke-linejoin:miter;stroke-miterlimit:10;stroke-opacity:1;stroke-dasharray:none"
         id="path27423"
         inkscape:connector-curvature="0" /><g
         id="g27425"
         transform="scale(10,10)"><text
           transform="matrix(1,0,0,-1,50.4689,72.5352)"
           id="text27427"><tspan
             style="font-size:11px;font-variant:normal;font-weight:normal;writing-mode:lr-tb;fill:#000000;fill-opacity:1;fill-rule:nonzero;stroke:none;font-family:Helvetica;-inkscape-font-specification:Helvetica"
             x="0 6.1160002"
             y="0"
             sodipodi:role="line"
             id="tspan27429">10</tspan></text>
</g><path
         d="m 693,925 15.5,0 m 2726.5,0 -15.5,0 m -2726.5,95.5 15.5,0 m 2726.5,0 -15.5,0 m -2726.5,68 15.5,0 m 2726.5,0 -15.5,0 M 693,1141 l 15.5,0 m 2726.5,0 -15.5,0 m -2726.5,43 15.5,0 m 2726.5,0 -15.5,0 m -2726.5,36 15.5,0 m 2726.5,0 -15.5,0 m -2726.5,31.5 15.5,0 m 2726.5,0 -15.5,0 M 693,1279 l 15.5,0 m 2726.5,0 -15.5,0 m -2726.5,25 31.5,0 m 2710.5,0 -31.5,0"
         style="fill:none;stroke:#000000;stroke-width:5;stroke-linecap:butt;stroke-linejoin:miter;stroke-miterlimit:10;stroke-opacity:1;stroke-dasharray:none"
         id="path27431"
         inkscape:connector-curvature="0" /><g
         id="g27433"
         transform="scale(10,10)"><text
           transform="matrix(1,0,0,-1,44.3533,126.735)"
           id="text27435"><tspan
             style="font-size:11px;font-variant:normal;font-weight:normal;writing-mode:lr-tb;fill:#000000;fill-opacity:1;fill-rule:nonzero;stroke:none;font-family:Helvetica;-inkscape-font-specification:Helvetica"
             x="0 6.1160002 12.232"
             y="0"
             sodipodi:role="line"
             id="tspan27437">100</tspan></text>
</g><path
         d="m 693,1467 15.5,0 m 2726.5,0 -15.5,0 m -2726.5,95.5 15.5,0 m 2726.5,0 -15.5,0 m -2726.5,68 15.5,0 m 2726.5,0 -15.5,0 M 693,1683 l 15.5,0 m 2726.5,0 -15.5,0 m -2726.5,43 15.5,0 m 2726.5,0 -15.5,0 m -2726.5,36 15.5,0 m 2726.5,0 -15.5,0 m -2726.5,31.5 15.5,0 m 2726.5,0 -15.5,0 M 693,1821 l 15.5,0 m 2726.5,0 -15.5,0 m -2726.5,25 31.5,0 m 2710.5,0 -31.5,0"
         style="fill:none;stroke:#000000;stroke-width:5;stroke-linecap:butt;stroke-linejoin:miter;stroke-miterlimit:10;stroke-opacity:1;stroke-dasharray:none"
         id="path27439"
         inkscape:connector-curvature="0" /><g
         id="g27441"
         transform="scale(10,10)"><text
           transform="matrix(1,0,0,-1,38.2377,180.935)"
           id="text27443"><tspan
             style="font-size:11px;font-variant:normal;font-weight:normal;writing-mode:lr-tb;fill:#000000;fill-opacity:1;fill-rule:nonzero;stroke:none;font-family:Helvetica;-inkscape-font-specification:Helvetica"
             x="0 6.1160002 12.232 18.348"
             y="0"
             sodipodi:role="line"
             id="tspan27445">1000</tspan></text>
</g><path
         d="m 693,2009 15.5,0 m 2726.5,0 -15.5,0 m -2726.5,95.5 15.5,0 m 2726.5,0 -15.5,0 m -2726.5,68 15.5,0 m 2726.5,0 -15.5,0 M 693,2225 l 15.5,0 m 2726.5,0 -15.5,0 m -2726.5,43 15.5,0 m 2726.5,0 -15.5,0 m -2726.5,36 15.5,0 m 2726.5,0 -15.5,0 m -2726.5,31.5 15.5,0 m 2726.5,0 -15.5,0 M 693,2363 l 15.5,0 m 2726.5,0 -15.5,0 m -2726.5,25 31.5,0 m 2710.5,0 -31.5,0"
         style="fill:none;stroke:#000000;stroke-width:5;stroke-linecap:butt;stroke-linejoin:miter;stroke-miterlimit:10;stroke-opacity:1;stroke-dasharray:none"
         id="path27447"
         inkscape:connector-curvature="0" /><g
         id="g27449"
         transform="scale(10,10)"><text
           transform="matrix(1,0,0,-1,32.1221,235.135)"
           id="text27451"><tspan
             style="font-size:11px;font-variant:normal;font-weight:normal;writing-mode:lr-tb;fill:#000000;fill-opacity:1;fill-rule:nonzero;stroke:none;font-family:Helvetica;-inkscape-font-specification:Helvetica"
             x="0 6.1160002 12.232 18.348 24.464001"
             y="0"
             sodipodi:role="line"
             id="tspan27453">10000</tspan></text>
</g><path
         d="m 693,220 0,31.5 m 0,2136.5 0,-31.5"
         style="fill:none;stroke:#000000;stroke-width:5;stroke-linecap:butt;stroke-linejoin:miter;stroke-miterlimit:10;stroke-opacity:1;stroke-dasharray:none"
         id="path27455"
         inkscape:connector-curvature="0" /><g
         id="g27457"
         transform="scale(10,10)"><text
           transform="matrix(1,0,0,-1,67.7713,7.33516)"
           id="text27459"><tspan
             style="font-size:11px;font-variant:normal;font-weight:normal;writing-mode:lr-tb;fill:#000000;fill-opacity:1;fill-rule:nonzero;stroke:none;font-family:Helvetica;-inkscape-font-specification:Helvetica"
             x="0"
             y="0"
             id="tspan27461">1</tspan></text>
</g><path
         d="m 1105.5,220 0,15.5 m 0,2152.5 0,-15.5 M 1347,220 l 0,15.5 m 0,2152.5 0,-15.5 M 1518.5,220 l 0,15.5 m 0,2152.5 0,-15.5 m 133,-2152.5 0,15.5 m 0,2152.5 0,-15.5 M 1760,220 l 0,15.5 m 0,2152.5 0,-15.5 m 91.5,-2152.5 0,15.5 m 0,2152.5 0,-15.5 M 1931,220 l 0,15.5 m 0,2152.5 0,-15.5 m 70.5,-2152.5 0,15.5 m 0,2152.5 0,-15.5 M 2064,220 l 0,31.5 m 0,2136.5 0,-31.5"
         style="fill:none;stroke:#000000;stroke-width:5;stroke-linecap:butt;stroke-linejoin:miter;stroke-miterlimit:10;stroke-opacity:1;stroke-dasharray:none"
         id="path27463"
         inkscape:connector-curvature="0" /><g
         id="g27465"
         transform="scale(10,10)"><text
           transform="matrix(1,0,0,-1,201.813,7.33516)"
           id="text27467"><tspan
             style="font-size:11px;font-variant:normal;font-weight:normal;writing-mode:lr-tb;fill:#000000;fill-opacity:1;fill-rule:nonzero;stroke:none;font-family:Helvetica;-inkscape-font-specification:Helvetica"
             x="0 6.1160002"
             y="0"
             sodipodi:role="line"
             id="tspan27469">10</tspan></text>
</g><path
         d="m 2476.5,220 0,15.5 m 0,2152.5 0,-15.5 M 2718,220 l 0,15.5 m 0,2152.5 0,-15.5 M 2889.5,220 l 0,15.5 m 0,2152.5 0,-15.5 m 133,-2152.5 0,15.5 m 0,2152.5 0,-15.5 M 3131,220 l 0,15.5 m 0,2152.5 0,-15.5 m 91.5,-2152.5 0,15.5 m 0,2152.5 0,-15.5 M 3302,220 l 0,15.5 m 0,2152.5 0,-15.5 m 70.5,-2152.5 0,15.5 m 0,2152.5 0,-15.5 M 3435,220 l 0,31.5 m 0,2136.5 0,-31.5"
         style="fill:none;stroke:#000000;stroke-width:5;stroke-linecap:butt;stroke-linejoin:miter;stroke-miterlimit:10;stroke-opacity:1;stroke-dasharray:none"
         id="path27471"
         inkscape:connector-curvature="0" /><g
         id="g27473"
         transform="scale(10,10)"><text
           transform="matrix(1,0,0,-1,335.856,7.33516)"
           id="text27475"><tspan
             style="font-size:11px;font-variant:normal;font-weight:normal;writing-mode:lr-tb;fill:#000000;fill-opacity:1;fill-rule:nonzero;stroke:none;font-family:Helvetica;-inkscape-font-specification:Helvetica"
             x="0 6.1160002 12.232"
             y="0"
             sodipodi:role="line"
             id="tspan27477">100</tspan></text>
</g><path
         d="m 693,220 2742,0 0,2168 -2742,0 0,-2168 z"
         style="fill:none;stroke:#000000;stroke-width:5;stroke-linecap:butt;stroke-linejoin:miter;stroke-miterlimit:10;stroke-opacity:1;stroke-dasharray:none"
         id="path27479"
         inkscape:connector-curvature="0" /><path
         d="m 693,2096 412.5,-71.5 241.5,-285 171.5,-30 133,-239 108.5,-79 91.5,-152 79.5,80.5 70.5,-256.5 62.5,12.5 56.5,-118 52,0 47.5,-71 44.5,-82 41,-127 38.5,0 36,127 34,-206 32,-216 30.5,95.5 29.5,0 27.5,-95.5 26.5,-163 25.5,0 47.5,163 22.5,-163 21.5,258.5 21,-95.5 20,-163 19.5,163 19,0 229,-163 115,0"
         style="fill:none;stroke:#ff0000;stroke-width:2.5;stroke-linecap:butt;stroke-linejoin:miter;stroke-miterlimit:10;stroke-opacity:1;stroke-dasharray:none"
         id="path27481"
         inkscape:connector-curvature="0" /><path
         d="m 693,2080.25 0,31.5"
         style="fill:none;stroke:#ff0000;stroke-width:2.5;stroke-linecap:butt;stroke-linejoin:miter;stroke-miterlimit:10;stroke-opacity:1;stroke-dasharray:none"
         id="path27483"
         inkscape:connector-curvature="0" /><path
         d="m 677.25,2096 31.5,0"
         style="fill:none;stroke:#ff0000;stroke-width:2.5;stroke-linecap:butt;stroke-linejoin:miter;stroke-miterlimit:10;stroke-opacity:1;stroke-dasharray:none"
         id="path27485"
         inkscape:connector-curvature="0" /><path
         d="m 1105.5,2008.75 0,31.5"
         style="fill:none;stroke:#ff0000;stroke-width:2.5;stroke-linecap:butt;stroke-linejoin:miter;stroke-miterlimit:10;stroke-opacity:1;stroke-dasharray:none"
         id="path27487"
         inkscape:connector-curvature="0" /><path
         d="m 1089.75,2024.5 31.5,0"
         style="fill:none;stroke:#ff0000;stroke-width:2.5;stroke-linecap:butt;stroke-linejoin:miter;stroke-miterlimit:10;stroke-opacity:1;stroke-dasharray:none"
         id="path27489"
         inkscape:connector-curvature="0" /><path
         d="m 1347,1723.75 0,31.5"
         style="fill:none;stroke:#ff0000;stroke-width:2.5;stroke-linecap:butt;stroke-linejoin:miter;stroke-miterlimit:10;stroke-opacity:1;stroke-dasharray:none"
         id="path27491"
         inkscape:connector-curvature="0" /><path
         d="m 1331.25,1739.5 31.5,0"
         style="fill:none;stroke:#ff0000;stroke-width:2.5;stroke-linecap:butt;stroke-linejoin:miter;stroke-miterlimit:10;stroke-opacity:1;stroke-dasharray:none"
         id="path27493"
         inkscape:connector-curvature="0" /><path
         d="m 1518.5,1693.75 0,31.5"
         style="fill:none;stroke:#ff0000;stroke-width:2.5;stroke-linecap:butt;stroke-linejoin:miter;stroke-miterlimit:10;stroke-opacity:1;stroke-dasharray:none"
         id="path27495"
         inkscape:connector-curvature="0" /><path
         d="m 1502.75,1709.5 31.5,0"
         style="fill:none;stroke:#ff0000;stroke-width:2.5;stroke-linecap:butt;stroke-linejoin:miter;stroke-miterlimit:10;stroke-opacity:1;stroke-dasharray:none"
         id="path27497"
         inkscape:connector-curvature="0" /><path
         d="m 1651.5,1454.75 0,31.5"
         style="fill:none;stroke:#ff0000;stroke-width:2.5;stroke-linecap:butt;stroke-linejoin:miter;stroke-miterlimit:10;stroke-opacity:1;stroke-dasharray:none"
         id="path27499"
         inkscape:connector-curvature="0" /><path
         d="m 1635.75,1470.5 31.5,0"
         style="fill:none;stroke:#ff0000;stroke-width:2.5;stroke-linecap:butt;stroke-linejoin:miter;stroke-miterlimit:10;stroke-opacity:1;stroke-dasharray:none"
         id="path27501"
         inkscape:connector-curvature="0" /><path
         d="m 1760,1375.75 0,31.5"
         style="fill:none;stroke:#ff0000;stroke-width:2.5;stroke-linecap:butt;stroke-linejoin:miter;stroke-miterlimit:10;stroke-opacity:1;stroke-dasharray:none"
         id="path27503"
         inkscape:connector-curvature="0" /><path
         d="m 1744.25,1391.5 31.5,0"
         style="fill:none;stroke:#ff0000;stroke-width:2.5;stroke-linecap:butt;stroke-linejoin:miter;stroke-miterlimit:10;stroke-opacity:1;stroke-dasharray:none"
         id="path27505"
         inkscape:connector-curvature="0" /><path
         d="m 1851.5,1223.75 0,31.5"
         style="fill:none;stroke:#ff0000;stroke-width:2.5;stroke-linecap:butt;stroke-linejoin:miter;stroke-miterlimit:10;stroke-opacity:1;stroke-dasharray:none"
         id="path27507"
         inkscape:connector-curvature="0" /><path
         d="m 1835.75,1239.5 31.5,0"
         style="fill:none;stroke:#ff0000;stroke-width:2.5;stroke-linecap:butt;stroke-linejoin:miter;stroke-miterlimit:10;stroke-opacity:1;stroke-dasharray:none"
         id="path27509"
         inkscape:connector-curvature="0" /><path
         d="m 1931,1304.25 0,31.5"
         style="fill:none;stroke:#ff0000;stroke-width:2.5;stroke-linecap:butt;stroke-linejoin:miter;stroke-miterlimit:10;stroke-opacity:1;stroke-dasharray:none"
         id="path27511"
         inkscape:connector-curvature="0" /><path
         d="m 1915.25,1320 31.5,0"
         style="fill:none;stroke:#ff0000;stroke-width:2.5;stroke-linecap:butt;stroke-linejoin:miter;stroke-miterlimit:10;stroke-opacity:1;stroke-dasharray:none"
         id="path27513"
         inkscape:connector-curvature="0" /><path
         d="m 2001.5,1047.75 0,31.5"
         style="fill:none;stroke:#ff0000;stroke-width:2.5;stroke-linecap:butt;stroke-linejoin:miter;stroke-miterlimit:10;stroke-opacity:1;stroke-dasharray:none"
         id="path27515"
         inkscape:connector-curvature="0" /><path
         d="m 1985.75,1063.5 31.5,0"
         style="fill:none;stroke:#ff0000;stroke-width:2.5;stroke-linecap:butt;stroke-linejoin:miter;stroke-miterlimit:10;stroke-opacity:1;stroke-dasharray:none"
         id="path27517"
         inkscape:connector-curvature="0" /><path
         d="m 2064,1060.25 0,31.5"
         style="fill:none;stroke:#ff0000;stroke-width:2.5;stroke-linecap:butt;stroke-linejoin:miter;stroke-miterlimit:10;stroke-opacity:1;stroke-dasharray:none"
         id="path27519"
         inkscape:connector-curvature="0" /><path
         d="m 2048.25,1076 31.5,0"
         style="fill:none;stroke:#ff0000;stroke-width:2.5;stroke-linecap:butt;stroke-linejoin:miter;stroke-miterlimit:10;stroke-opacity:1;stroke-dasharray:none"
         id="path27521"
         inkscape:connector-curvature="0" /><path
         d="m 2120.5,942.25 0,31.5"
         style="fill:none;stroke:#ff0000;stroke-width:2.5;stroke-linecap:butt;stroke-linejoin:miter;stroke-miterlimit:10;stroke-opacity:1;stroke-dasharray:none"
         id="path27523"
         inkscape:connector-curvature="0" /><path
         d="m 2104.75,958 31.5,0"
         style="fill:none;stroke:#ff0000;stroke-width:2.5;stroke-linecap:butt;stroke-linejoin:miter;stroke-miterlimit:10;stroke-opacity:1;stroke-dasharray:none"
         id="path27525"
         inkscape:connector-curvature="0" /><path
         d="m 2172.5,942.25 0,31.5"
         style="fill:none;stroke:#ff0000;stroke-width:2.5;stroke-linecap:butt;stroke-linejoin:miter;stroke-miterlimit:10;stroke-opacity:1;stroke-dasharray:none"
         id="path27527"
         inkscape:connector-curvature="0" /><path
         d="m 2156.75,958 31.5,0"
         style="fill:none;stroke:#ff0000;stroke-width:2.5;stroke-linecap:butt;stroke-linejoin:miter;stroke-miterlimit:10;stroke-opacity:1;stroke-dasharray:none"
         id="path27529"
         inkscape:connector-curvature="0" /><path
         d="m 2220,871.25 0,31.5"
         style="fill:none;stroke:#ff0000;stroke-width:2.5;stroke-linecap:butt;stroke-linejoin:miter;stroke-miterlimit:10;stroke-opacity:1;stroke-dasharray:none"
         id="path27531"
         inkscape:connector-curvature="0" /><path
         d="m 2204.25,887 31.5,0"
         style="fill:none;stroke:#ff0000;stroke-width:2.5;stroke-linecap:butt;stroke-linejoin:miter;stroke-miterlimit:10;stroke-opacity:1;stroke-dasharray:none"
         id="path27533"
         inkscape:connector-curvature="0" /><path
         d="m 2264.5,789.25 0,31.5"
         style="fill:none;stroke:#ff0000;stroke-width:2.5;stroke-linecap:butt;stroke-linejoin:miter;stroke-miterlimit:10;stroke-opacity:1;stroke-dasharray:none"
         id="path27535"
         inkscape:connector-curvature="0" /><path
         d="m 2248.75,805 31.5,0"
         style="fill:none;stroke:#ff0000;stroke-width:2.5;stroke-linecap:butt;stroke-linejoin:miter;stroke-miterlimit:10;stroke-opacity:1;stroke-dasharray:none"
         id="path27537"
         inkscape:connector-curvature="0" /><path
         d="m 2305.5,662.25 0,31.5"
         style="fill:none;stroke:#ff0000;stroke-width:2.5;stroke-linecap:butt;stroke-linejoin:miter;stroke-miterlimit:10;stroke-opacity:1;stroke-dasharray:none"
         id="path27539"
         inkscape:connector-curvature="0" /><path
         d="m 2289.75,678 31.5,0"
         style="fill:none;stroke:#ff0000;stroke-width:2.5;stroke-linecap:butt;stroke-linejoin:miter;stroke-miterlimit:10;stroke-opacity:1;stroke-dasharray:none"
         id="path27541"
         inkscape:connector-curvature="0" /><path
         d="m 2344,662.25 0,31.5"
         style="fill:none;stroke:#ff0000;stroke-width:2.5;stroke-linecap:butt;stroke-linejoin:miter;stroke-miterlimit:10;stroke-opacity:1;stroke-dasharray:none"
         id="path27543"
         inkscape:connector-curvature="0" /><path
         d="m 2328.25,678 31.5,0"
         style="fill:none;stroke:#ff0000;stroke-width:2.5;stroke-linecap:butt;stroke-linejoin:miter;stroke-miterlimit:10;stroke-opacity:1;stroke-dasharray:none"
         id="path27545"
         inkscape:connector-curvature="0" /><path
         d="m 2380,789.25 0,31.5"
         style="fill:none;stroke:#ff0000;stroke-width:2.5;stroke-linecap:butt;stroke-linejoin:miter;stroke-miterlimit:10;stroke-opacity:1;stroke-dasharray:none"
         id="path27547"
         inkscape:connector-curvature="0" /><path
         d="m 2364.25,805 31.5,0"
         style="fill:none;stroke:#ff0000;stroke-width:2.5;stroke-linecap:butt;stroke-linejoin:miter;stroke-miterlimit:10;stroke-opacity:1;stroke-dasharray:none"
         id="path27549"
         inkscape:connector-curvature="0" /><path
         d="m 2414,583.25 0,31.5"
         style="fill:none;stroke:#ff0000;stroke-width:2.5;stroke-linecap:butt;stroke-linejoin:miter;stroke-miterlimit:10;stroke-opacity:1;stroke-dasharray:none"
         id="path27551"
         inkscape:connector-curvature="0" /><path
         d="m 2398.25,599 31.5,0"
         style="fill:none;stroke:#ff0000;stroke-width:2.5;stroke-linecap:butt;stroke-linejoin:miter;stroke-miterlimit:10;stroke-opacity:1;stroke-dasharray:none"
         id="path27553"
         inkscape:connector-curvature="0" /><path
         d="m 2446,367.25 0,31.5"
         style="fill:none;stroke:#ff0000;stroke-width:2.5;stroke-linecap:butt;stroke-linejoin:miter;stroke-miterlimit:10;stroke-opacity:1;stroke-dasharray:none"
         id="path27555"
         inkscape:connector-curvature="0" /><path
         d="m 2430.25,383 31.5,0"
         style="fill:none;stroke:#ff0000;stroke-width:2.5;stroke-linecap:butt;stroke-linejoin:miter;stroke-miterlimit:10;stroke-opacity:1;stroke-dasharray:none"
         id="path27557"
         inkscape:connector-curvature="0" /><path
         d="m 2476.5,462.75 0,31.5"
         style="fill:none;stroke:#ff0000;stroke-width:2.5;stroke-linecap:butt;stroke-linejoin:miter;stroke-miterlimit:10;stroke-opacity:1;stroke-dasharray:none"
         id="path27559"
         inkscape:connector-curvature="0" /><path
         d="m 2460.75,478.5 31.5,0"
         style="fill:none;stroke:#ff0000;stroke-width:2.5;stroke-linecap:butt;stroke-linejoin:miter;stroke-miterlimit:10;stroke-opacity:1;stroke-dasharray:none"
         id="path27561"
         inkscape:connector-curvature="0" /><path
         d="m 2506,462.75 0,31.5"
         style="fill:none;stroke:#ff0000;stroke-width:2.5;stroke-linecap:butt;stroke-linejoin:miter;stroke-miterlimit:10;stroke-opacity:1;stroke-dasharray:none"
         id="path27563"
         inkscape:connector-curvature="0" /><path
         d="m 2490.25,478.5 31.5,0"
         style="fill:none;stroke:#ff0000;stroke-width:2.5;stroke-linecap:butt;stroke-linejoin:miter;stroke-miterlimit:10;stroke-opacity:1;stroke-dasharray:none"
         id="path27565"
         inkscape:connector-curvature="0" /><path
         d="m 2533.5,367.25 0,31.5"
         style="fill:none;stroke:#ff0000;stroke-width:2.5;stroke-linecap:butt;stroke-linejoin:miter;stroke-miterlimit:10;stroke-opacity:1;stroke-dasharray:none"
         id="path27567"
         inkscape:connector-curvature="0" /><path
         d="m 2517.75,383 31.5,0"
         style="fill:none;stroke:#ff0000;stroke-width:2.5;stroke-linecap:butt;stroke-linejoin:miter;stroke-miterlimit:10;stroke-opacity:1;stroke-dasharray:none"
         id="path27569"
         inkscape:connector-curvature="0" /><path
         d="m 2560,204.25 0,31.5"
         style="fill:none;stroke:#ff0000;stroke-width:2.5;stroke-linecap:butt;stroke-linejoin:miter;stroke-miterlimit:10;stroke-opacity:1;stroke-dasharray:none"
         id="path27571"
         inkscape:connector-curvature="0" /><path
         d="m 2544.25,220 31.5,0"
         style="fill:none;stroke:#ff0000;stroke-width:2.5;stroke-linecap:butt;stroke-linejoin:miter;stroke-miterlimit:10;stroke-opacity:1;stroke-dasharray:none"
         id="path27573"
         inkscape:connector-curvature="0" /><path
         d="m 2585.5,204.25 0,31.5"
         style="fill:none;stroke:#ff0000;stroke-width:2.5;stroke-linecap:butt;stroke-linejoin:miter;stroke-miterlimit:10;stroke-opacity:1;stroke-dasharray:none"
         id="path27575"
         inkscape:connector-curvature="0" /><path
         d="m 2569.75,220 31.5,0"
         style="fill:none;stroke:#ff0000;stroke-width:2.5;stroke-linecap:butt;stroke-linejoin:miter;stroke-miterlimit:10;stroke-opacity:1;stroke-dasharray:none"
         id="path27577"
         inkscape:connector-curvature="0" /><path
         d="m 2633,367.25 0,31.5"
         style="fill:none;stroke:#ff0000;stroke-width:2.5;stroke-linecap:butt;stroke-linejoin:miter;stroke-miterlimit:10;stroke-opacity:1;stroke-dasharray:none"
         id="path27579"
         inkscape:connector-curvature="0" /><path
         d="m 2617.25,383 31.5,0"
         style="fill:none;stroke:#ff0000;stroke-width:2.5;stroke-linecap:butt;stroke-linejoin:miter;stroke-miterlimit:10;stroke-opacity:1;stroke-dasharray:none"
         id="path27581"
         inkscape:connector-curvature="0" /><path
         d="m 2655.5,204.25 0,31.5"
         style="fill:none;stroke:#ff0000;stroke-width:2.5;stroke-linecap:butt;stroke-linejoin:miter;stroke-miterlimit:10;stroke-opacity:1;stroke-dasharray:none"
         id="path27583"
         inkscape:connector-curvature="0" /><path
         d="m 2639.75,220 31.5,0"
         style="fill:none;stroke:#ff0000;stroke-width:2.5;stroke-linecap:butt;stroke-linejoin:miter;stroke-miterlimit:10;stroke-opacity:1;stroke-dasharray:none"
         id="path27585"
         inkscape:connector-curvature="0" /><path
         d="m 2677,462.75 0,31.5"
         style="fill:none;stroke:#ff0000;stroke-width:2.5;stroke-linecap:butt;stroke-linejoin:miter;stroke-miterlimit:10;stroke-opacity:1;stroke-dasharray:none"
         id="path27587"
         inkscape:connector-curvature="0" /><path
         d="m 2661.25,478.5 31.5,0"
         style="fill:none;stroke:#ff0000;stroke-width:2.5;stroke-linecap:butt;stroke-linejoin:miter;stroke-miterlimit:10;stroke-opacity:1;stroke-dasharray:none"
         id="path27589"
         inkscape:connector-curvature="0" /><path
         d="m 2698,367.25 0,31.5"
         style="fill:none;stroke:#ff0000;stroke-width:2.5;stroke-linecap:butt;stroke-linejoin:miter;stroke-miterlimit:10;stroke-opacity:1;stroke-dasharray:none"
         id="path27591"
         inkscape:connector-curvature="0" /><path
         d="m 2682.25,383 31.5,0"
         style="fill:none;stroke:#ff0000;stroke-width:2.5;stroke-linecap:butt;stroke-linejoin:miter;stroke-miterlimit:10;stroke-opacity:1;stroke-dasharray:none"
         id="path27593"
         inkscape:connector-curvature="0" /><path
         d="m 2718,204.25 0,31.5"
         style="fill:none;stroke:#ff0000;stroke-width:2.5;stroke-linecap:butt;stroke-linejoin:miter;stroke-miterlimit:10;stroke-opacity:1;stroke-dasharray:none"
         id="path27595"
         inkscape:connector-curvature="0" /><path
         d="m 2702.25,220 31.5,0"
         style="fill:none;stroke:#ff0000;stroke-width:2.5;stroke-linecap:butt;stroke-linejoin:miter;stroke-miterlimit:10;stroke-opacity:1;stroke-dasharray:none"
         id="path27597"
         inkscape:connector-curvature="0" /><path
         d="m 2737.5,367.25 0,31.5"
         style="fill:none;stroke:#ff0000;stroke-width:2.5;stroke-linecap:butt;stroke-linejoin:miter;stroke-miterlimit:10;stroke-opacity:1;stroke-dasharray:none"
         id="path27599"
         inkscape:connector-curvature="0" /><path
         d="m 2721.75,383 31.5,0"
         style="fill:none;stroke:#ff0000;stroke-width:2.5;stroke-linecap:butt;stroke-linejoin:miter;stroke-miterlimit:10;stroke-opacity:1;stroke-dasharray:none"
         id="path27601"
         inkscape:connector-curvature="0" /><path
         d="m 2756.5,367.25 0,31.5"
         style="fill:none;stroke:#ff0000;stroke-width:2.5;stroke-linecap:butt;stroke-linejoin:miter;stroke-miterlimit:10;stroke-opacity:1;stroke-dasharray:none"
         id="path27603"
         inkscape:connector-curvature="0" /><path
         d="m 2740.75,383 31.5,0"
         style="fill:none;stroke:#ff0000;stroke-width:2.5;stroke-linecap:butt;stroke-linejoin:miter;stroke-miterlimit:10;stroke-opacity:1;stroke-dasharray:none"
         id="path27605"
         inkscape:connector-curvature="0" /><path
         d="m 2985.5,204.25 0,31.5"
         style="fill:none;stroke:#ff0000;stroke-width:2.5;stroke-linecap:butt;stroke-linejoin:miter;stroke-miterlimit:10;stroke-opacity:1;stroke-dasharray:none"
         id="path27607"
         inkscape:connector-curvature="0" /><path
         d="m 2969.75,220 31.5,0"
         style="fill:none;stroke:#ff0000;stroke-width:2.5;stroke-linecap:butt;stroke-linejoin:miter;stroke-miterlimit:10;stroke-opacity:1;stroke-dasharray:none"
         id="path27609"
         inkscape:connector-curvature="0" /><path
         d="m 2998,204.25 0,31.5"
         style="fill:none;stroke:#ff0000;stroke-width:2.5;stroke-linecap:butt;stroke-linejoin:miter;stroke-miterlimit:10;stroke-opacity:1;stroke-dasharray:none"
         id="path27611"
         inkscape:connector-curvature="0" /><path
         d="m 2982.25,220 31.5,0"
         style="fill:none;stroke:#ff0000;stroke-width:2.5;stroke-linecap:butt;stroke-linejoin:miter;stroke-miterlimit:10;stroke-opacity:1;stroke-dasharray:none"
         id="path27613"
         inkscape:connector-curvature="0" /><path
         d="m 3045.5,204.25 0,31.5"
         style="fill:none;stroke:#ff0000;stroke-width:2.5;stroke-linecap:butt;stroke-linejoin:miter;stroke-miterlimit:10;stroke-opacity:1;stroke-dasharray:none"
         id="path27615"
         inkscape:connector-curvature="0" /><path
         d="m 3029.75,220 31.5,0"
         style="fill:none;stroke:#ff0000;stroke-width:2.5;stroke-linecap:butt;stroke-linejoin:miter;stroke-miterlimit:10;stroke-opacity:1;stroke-dasharray:none"
         id="path27617"
         inkscape:connector-curvature="0" /><path
         d="m 3057,204.25 0,31.5"
         style="fill:none;stroke:#ff0000;stroke-width:2.5;stroke-linecap:butt;stroke-linejoin:miter;stroke-miterlimit:10;stroke-opacity:1;stroke-dasharray:none"
         id="path27619"
         inkscape:connector-curvature="0" /><path
         d="m 3041.25,220 31.5,0"
         style="fill:none;stroke:#ff0000;stroke-width:2.5;stroke-linecap:butt;stroke-linejoin:miter;stroke-miterlimit:10;stroke-opacity:1;stroke-dasharray:none"
         id="path27621"
         inkscape:connector-curvature="0" /><path
         d="m 3100.5,204.25 0,31.5"
         style="fill:none;stroke:#ff0000;stroke-width:2.5;stroke-linecap:butt;stroke-linejoin:miter;stroke-miterlimit:10;stroke-opacity:1;stroke-dasharray:none"
         id="path27623"
         inkscape:connector-curvature="0" /><path
         d="m 3084.75,220 31.5,0"
         style="fill:none;stroke:#ff0000;stroke-width:2.5;stroke-linecap:butt;stroke-linejoin:miter;stroke-miterlimit:10;stroke-opacity:1;stroke-dasharray:none"
         id="path27625"
         inkscape:connector-curvature="0" /><path
         d="m 693,220 2742,0 0,2168 -2742,0 0,-2168 z"
         style="fill:none;stroke:#000000;stroke-width:5;stroke-linecap:butt;stroke-linejoin:miter;stroke-miterlimit:10;stroke-opacity:1;stroke-dasharray:none"
         id="path27627"
         inkscape:connector-curvature="0" /></g></g></svg>