<?xml version="1.0" encoding="UTF-8" standalone="no"?>
<!-- Created with Inkscape (http://www.inkscape.org/) -->

<svg
   xmlns:ns0="http://www.iki.fi/pav/software/textext/"
   xmlns:dc="http://purl.org/dc/elements/1.1/"
   xmlns:cc="http://creativecommons.org/ns#"
   xmlns:rdf="http://www.w3.org/1999/02/22-rdf-syntax-ns#"
   xmlns:svg="http://www.w3.org/2000/svg"
   xmlns="http://www.w3.org/2000/svg"
   xmlns:sodipodi="http://sodipodi.sourceforge.net/DTD/sodipodi-0.dtd"
   xmlns:inkscape="http://www.inkscape.org/namespaces/inkscape"
   width="557.07703"
   height="274.45819"
   id="svg31791"
   version="1.1"
   inkscape:version="0.48.4 r9939"
   sodipodi:docname="udpping-one-to-one-example.svg"
   inkscape:export-filename="C:\Users\Elie Rotenberg\git\phd\src\images\udpping-one-to-one-example.png"
   inkscape:export-xdpi="120.08141"
   inkscape:export-ydpi="120.08141">
  <sodipodi:namedview
     id="base"
     pagecolor="#ffffff"
     bordercolor="#666666"
     borderopacity="1.0"
     inkscape:pageopacity="0.0"
     inkscape:pageshadow="2"
     inkscape:zoom="1.979899"
     inkscape:cx="274.99982"
     inkscape:cy="93.92725"
     inkscape:document-units="px"
     inkscape:current-layer="layer1"
     showgrid="false"
     inkscape:window-width="1920"
     inkscape:window-height="1058"
     inkscape:window-x="-8"
     inkscape:window-y="6"
     inkscape:window-maximized="1"
     fit-margin-top="0"
     fit-margin-left="0"
     fit-margin-right="0"
     fit-margin-bottom="0"
     inkscape:connector-spacing="0" />
  <defs
     id="defs31793">
    <marker
       style="overflow:visible"
       id="Arrow1Lend"
       refX="0"
       refY="0"
       orient="auto"
       inkscape:stockid="Arrow1Lend">
      <path
         transform="matrix(-0.8,0,0,-0.8,-10,0)"
         style="fill-rule:evenodd;stroke:#000000;stroke-width:1pt"
         d="M 0,0 5,-5 -12.5,0 5,5 0,0 z"
         id="path28451"
         inkscape:connector-curvature="0" />
    </marker>
    <marker
       style="overflow:visible"
       id="Arrow1Send"
       refX="0"
       refY="0"
       orient="auto"
       inkscape:stockid="Arrow1Send">
      <path
         transform="matrix(-0.2,0,0,-0.2,-1.2,0)"
         style="fill-rule:evenodd;stroke:#000000;stroke-width:1pt"
         d="M 0,0 5,-5 -12.5,0 5,5 0,0 z"
         id="path28463"
         inkscape:connector-curvature="0" />
    </marker>
  </defs>
  <metadata
     id="metadata31796">
    <rdf:RDF>
      <cc:Work
         rdf:about="">
        <dc:format>image/svg+xml</dc:format>
        <dc:type
           rdf:resource="http://purl.org/dc/dcmitype/StillImage" />
        <dc:title></dc:title>
      </cc:Work>
    </rdf:RDF>
  </metadata>
  <g
     id="layer1"
     inkscape:groupmode="layer"
     inkscape:label="Layer 1"
     transform="translate(-85.141778,-146.8427)">
    <path
       transform="matrix(0.99583609,0,0,0.99583609,463.66838,72.284462)"
       sodipodi:type="arc"
       style="fill:#ffffff;fill-opacity:1;stroke:#000000;stroke-width:1;stroke-miterlimit:4;stroke-dasharray:none;stroke-dashoffset:0"
       id="path6557-9-1-1-1-8"
       sodipodi:cx="142.4315"
       sodipodi:cy="212.92542"
       sodipodi:rx="36.36549"
       sodipodi:ry="36.36549"
       d="m 178.79699,212.92542 c 0,20.0841 -16.28138,36.36548 -36.36549,36.36548 -20.0841,0 -36.36549,-16.28138 -36.36549,-36.36548 0,-20.08411 16.28139,-36.36549 36.36549,-36.36549 20.08411,0 36.36549,16.28138 36.36549,36.36549 z" />
    <g
       id="g34202"
       transform="translate(-1.6422745e-5,13.567682)">
      <path
         transform="matrix(0.99583609,0,0,0.99583609,233.41544,222.02846)"
         d="m 353.04832,74.787056 c 0,7.671013 -6.21858,13.889598 -13.8896,13.889598 -7.67101,0 -13.8896,-6.218585 -13.8896,-13.889598 0,-7.671013 6.21859,-13.889598 13.8896,-13.889598 7.67102,0 13.8896,6.218585 13.8896,13.889598 z"
         sodipodi:ry="13.889598"
         sodipodi:rx="13.889598"
         sodipodi:cy="74.787056"
         sodipodi:cx="339.15872"
         id="path7110-4-3-98-2-1"
         style="fill:#e6e6e6;fill-opacity:1;stroke:#000000;stroke-width:1;stroke-miterlimit:4;stroke-dasharray:none;stroke-dashoffset:0"
         sodipodi:type="arc" />
      <g
         ns0:preamble=""
         ns0:text="$i = m(t)$"
         word-spacing="normal"
         letter-spacing="normal"
         font-size-adjust="none"
         font-stretch="normal"
         font-weight="normal"
         font-variant="normal"
         font-style="normal"
         stroke-miterlimit="10.433"
         xml:space="preserve"
         transform="matrix(0.70139072,0,0,-0.70139072,401.7901,794.21798)"
         id="g33319"
         style="font-style:normal;font-variant:normal;font-weight:normal;font-stretch:normal;letter-spacing:normal;word-spacing:normal;text-anchor:start;fill:none;stroke:#000000;stroke-linecap:butt;stroke-linejoin:miter;stroke-miterlimit:10.43299961;stroke-opacity:1;stroke-dasharray:none;stroke-dashoffset:0">
<path
   id="path33321"
   d="m 226.26,713.35 0,0.02 0,0.02 0,0.01 0,0.02 -0.01,0.02 0,0.02 -0.01,0.01 0,0.02 -0.01,0.01 -0.01,0.02 -0.01,0.02 0,0.01 -0.01,0.01 -0.01,0.02 -0.02,0.01 -0.01,0.01 -0.01,0.01 -0.01,0.02 -0.02,0.01 -0.01,0.01 -0.01,0.01 -0.02,0 -0.02,0.01 -0.01,0.01 -0.02,0.01 -0.02,0 -0.02,0.01 -0.02,0 -0.01,0 -0.03,0.01 -0.02,0 -0.02,0 c -0.27,0 -0.54,-0.26 -0.54,-0.53 0,-0.19 0.14,-0.36 0.38,-0.36 0.23,0 0.53,0.23 0.53,0.53 z"
   inkscape:connector-curvature="0"
   style="fill:#000000;stroke-width:0" />
<path
   id="path33323"
   d="m 225.51,709.6 0.01,0.03 0.01,0.02 0.01,0.03 0,0.02 0.01,0.02 0.01,0.02 0.01,0.02 0.01,0.02 0,0.01 0.01,0.02 0,0.02 0.01,0.01 0.01,0.02 0,0.01 0.01,0.03 0.01,0.03 0.01,0.03 0.01,0.01 0,0.02 0.01,0.01 0,0.02 0.01,0.01 0.01,0.02 0,0.02 0.01,0.02 0.01,0.02 0.01,0.02 0,0.03 0.01,0.02 c 0.08,0.2 0.13,0.34 0.13,0.53 0,0.45 -0.31,0.82 -0.81,0.82 -0.94,0 -1.32,-1.45 -1.32,-1.54 0,-0.1 0.1,-0.1 0.12,-0.1 0.1,0 0.11,0.02 0.16,0.18 0.27,0.94 0.67,1.24 1.01,1.24 0.08,0 0.25,0 0.25,-0.32 0,-0.21 -0.07,-0.42 -0.11,-0.52 -0.08,-0.26 -0.53,-1.42 -0.69,-1.84 -0.1,-0.26 -0.23,-0.59 -0.23,-0.8 0,-0.47 0.34,-0.82 0.82,-0.82 0.93,0 1.3,1.45 1.3,1.54 0,0.1 -0.09,0.1 -0.12,0.1 -0.1,0 -0.1,-0.03 -0.15,-0.18 -0.18,-0.63 -0.51,-1.24 -1.01,-1.24 -0.17,0 -0.24,0.1 -0.24,0.33 0,0.25 0.06,0.39 0.29,1 z"
   inkscape:connector-curvature="0"
   style="fill:#000000;stroke-width:0" />
<path
   id="path33325"
   d="m 236.48,710.38 0.03,0 0.03,0 0.03,0 0.01,0 0.02,0 0.01,0 0.01,0.01 0.02,0 0.01,0 0.02,0 0.01,0.01 0.01,0 0.01,0.01 0.02,0 0.01,0.01 0.01,0 0.01,0.01 0.01,0.01 0.01,0 0.01,0.01 0.01,0.01 0,0.01 0,0.01 0.01,0 0,0.01 0,0 0.01,0.01 0,0.01 0,0 0,0.01 0,0.01 0,0.01 0.01,0 0,0.01 0,0.01 0,0.01 0,0.01 c 0,0.2 -0.19,0.2 -0.33,0.2 h -5.97 c -0.14,0 -0.33,0 -0.33,-0.2 0,-0.2 0.19,-0.2 0.34,-0.2 z"
   inkscape:connector-curvature="0"
   style="fill:#000000;stroke-width:0" />
<path
   id="path33327"
   d="m 236.49,708.45 0.03,0 0.02,0 0.03,0 0.02,0 0.01,0 0.01,0 0.02,0 0.01,0.01 0.01,0 0.02,0 0.01,0 0.01,0.01 0.02,0 0.01,0.01 0.01,0 0.01,0.01 0.01,0.01 0.01,0 0.01,0.01 0.01,0.01 0,0.01 0.01,0 0,0.01 0,0 0.01,0.01 0,0 0,0.01 0.01,0.01 0,0 0,0.01 0,0.01 0,0.01 0,0 0.01,0.01 0,0.01 0,0.01 0,0.01 0,0.01 c 0,0.2 -0.19,0.2 -0.34,0.2 h -5.95 c -0.15,0 -0.34,0 -0.34,-0.2 0,-0.2 0.19,-0.2 0.33,-0.2 z"
   inkscape:connector-curvature="0"
   style="fill:#000000;stroke-width:0" />
<path
   id="path33329"
   d="m 241.03,707.71 -0.01,-0.01 0,-0.02 0,-0.01 -0.01,-0.02 0,-0.03 -0.01,-0.03 -0.01,-0.04 0,-0.03 -0.01,-0.03 -0.01,-0.03 0,-0.02 -0.01,-0.01 0,-0.02 0,-0.01 -0.01,-0.01 0,-0.02 0,-0.01 0,-0.01 -0.01,-0.01 0,-0.01 0,-0.01 0,-0.01 0,-0.01 0,-0.01 0,0 0,-0.01 c 0,-0.18 0.14,-0.27 0.29,-0.27 0.12,0 0.29,0.08 0.37,0.28 0,0.02 0.12,0.49 0.18,0.74 l 0.22,0.9 c 0.06,0.22 0.12,0.43 0.17,0.66 0.04,0.17 0.12,0.46 0.13,0.5 0.15,0.31 0.68,1.22 1.63,1.22 0.44,0 0.53,-0.37 0.53,-0.7 0,-0.25 -0.07,-0.53 -0.15,-0.83 l -0.27,-1.15 -0.2,-0.76 c -0.04,-0.2 -0.13,-0.54 -0.13,-0.59 0,-0.18 0.14,-0.27 0.29,-0.27 0.3,0 0.36,0.25 0.44,0.57 0.14,0.56 0.51,2.01 0.6,2.4 0.03,0.13 0.56,1.33 1.64,1.33 0.43,0 0.54,-0.34 0.54,-0.7 0,-0.57 -0.42,-1.7 -0.61,-2.23 -0.09,-0.24 -0.13,-0.35 -0.13,-0.55 0,-0.47 0.34,-0.82 0.81,-0.82 0.94,0 1.31,1.46 1.31,1.54 0,0.1 -0.09,0.1 -0.12,0.1 -0.1,0 -0.1,-0.03 -0.15,-0.18 -0.15,-0.53 -0.47,-1.24 -1.02,-1.24 -0.17,0 -0.24,0.1 -0.24,0.33 0,0.25 0.09,0.49 0.18,0.71 0.19,0.52 0.61,1.62 0.61,2.19 0,0.65 -0.4,1.07 -1.15,1.07 -0.74,0 -1.25,-0.44 -1.62,-0.97 -0.01,0.13 -0.04,0.47 -0.32,0.71 -0.25,0.21 -0.56,0.26 -0.81,0.26 -0.9,0 -1.39,-0.64 -1.56,-0.87 -0.05,0.57 -0.47,0.87 -0.91,0.87 -0.46,0 -0.65,-0.39 -0.74,-0.57 -0.18,-0.35 -0.31,-0.94 -0.31,-0.97 0,-0.1 0.1,-0.1 0.12,-0.1 0.1,0 0.11,0.01 0.17,0.23 0.17,0.71 0.37,1.19 0.73,1.19 0.16,0 0.3,-0.08 0.3,-0.46 0,-0.21 -0.03,-0.32 -0.16,-0.84 z"
   inkscape:connector-curvature="0"
   style="fill:#000000;stroke-width:0" />
<path
   id="path33331"
   d="m 252.19,704.73 0,0.01 0,0 0,0.01 0,0 0,0 0,0 0,0.01 0,0 0,0.01 -0.01,0 0,0 0,0.01 0,0 -0.01,0.01 0,0 -0.01,0.01 0,0.01 -0.01,0 0,0.01 -0.01,0 0,0.01 0,0 -0.01,0.01 0,0 0,0 -0.01,0.01 0,0 -0.01,0.01 0,0 -0.01,0.01 0,0.01 -0.01,0 0,0.01 -0.01,0 -0.01,0.01 0,0.01 -0.01,0 -0.01,0.01 0,0.01 -0.01,0.01 -0.01,0 -0.01,0.01 c -1.24,1.26 -1.56,3.14 -1.56,4.66 0,1.74 0.38,3.47 1.6,4.72 0.13,0.12 0.13,0.14 0.13,0.16 0,0.08 -0.04,0.1 -0.1,0.1 -0.1,0 -0.99,-0.67 -1.58,-1.94 -0.51,-1.09 -0.63,-2.2 -0.63,-3.04 0,-0.77 0.11,-1.98 0.66,-3.1 0.6,-1.23 1.45,-1.88 1.55,-1.88 0.06,0 0.1,0.03 0.1,0.1 z"
   inkscape:connector-curvature="0"
   style="fill:#000000;stroke-width:0" />
<path
   id="path33333"
   d="m 254.82,711.11 h 0.94 c 0.2,0 0.3,0 0.3,0.2 0,0.11 -0.1,0.11 -0.28,0.11 h -0.88 c 0.36,1.41 0.41,1.61 0.41,1.67 0,0.17 -0.12,0.27 -0.29,0.27 -0.03,0 -0.31,-0.01 -0.39,-0.36 l -0.39,-1.58 h -0.94 c -0.2,0 -0.3,0 -0.3,-0.19 0,-0.12 0.08,-0.12 0.28,-0.12 h 0.88 c -0.72,-2.83 -0.76,-3 -0.76,-3.18 0,-0.54 0.38,-0.92 0.92,-0.92 1.01,0 1.58,1.46 1.58,1.54 0,0.1 -0.08,0.1 -0.12,0.1 -0.09,0 -0.1,-0.03 -0.15,-0.14 -0.43,-1.04 -0.95,-1.28 -1.29,-1.28 -0.21,0 -0.31,0.13 -0.31,0.46 0,0.24 0.02,0.31 0.06,0.48 z"
   inkscape:connector-curvature="0"
   style="fill:#000000;stroke-width:0" />
<path
   id="path33335"
   d="m 259.24,709.61 0,0.08 0,0.07 0,0.08 0,0.08 -0.01,0.17 -0.01,0.18 -0.02,0.18 -0.02,0.19 -0.03,0.2 -0.03,0.2 -0.04,0.2 -0.04,0.21 -0.06,0.21 -0.06,0.21 -0.07,0.21 -0.08,0.22 -0.04,0.1 -0.05,0.11 -0.04,0.11 -0.05,0.1 c -0.6,1.23 -1.46,1.87 -1.56,1.87 -0.06,0 -0.1,-0.04 -0.1,-0.1 0,-0.02 0,-0.04 0.19,-0.22 0.98,-0.99 1.55,-2.57 1.55,-4.66 0,-1.7 -0.37,-3.45 -1.61,-4.71 -0.13,-0.12 -0.13,-0.14 -0.13,-0.17 0,-0.06 0.04,-0.1 0.1,-0.1 0.1,0 1,0.68 1.59,1.95 0.51,1.09 0.62,2.2 0.62,3.03 z"
   inkscape:connector-curvature="0"
   style="fill:#000000;stroke-width:0" />
</g>    </g>
    <g
       id="g34216"
       transform="translate(-1.6422745e-5,13.567682)">
      <path
         transform="matrix(0.99583609,0,0,0.99583609,233.41544,170.02847)"
         d="m 353.04832,74.787056 c 0,7.671013 -6.21858,13.889598 -13.8896,13.889598 -7.67101,0 -13.8896,-6.218585 -13.8896,-13.889598 0,-7.671013 6.21859,-13.889598 13.8896,-13.889598 7.67102,0 13.8896,6.218585 13.8896,13.889598 z"
         sodipodi:ry="13.889598"
         sodipodi:rx="13.889598"
         sodipodi:cy="74.787056"
         sodipodi:cx="339.15872"
         id="path7110-2-6-5-3"
         style="fill:#ffffff;fill-opacity:1;stroke:#000000;stroke-width:1;stroke-miterlimit:4;stroke-dasharray:none;stroke-dashoffset:0"
         sodipodi:type="arc" />
      <g
         style="font-style:normal;font-variant:normal;font-weight:normal;font-stretch:normal;letter-spacing:normal;word-spacing:normal;text-anchor:start;fill:none;stroke:#000000;stroke-linecap:butt;stroke-linejoin:miter;stroke-miterlimit:10.43299961;stroke-opacity:1;stroke-dasharray:none;stroke-dashoffset:0"
         id="g33393"
         transform="matrix(1.5,0,0,-1.5,233.37694,1309.7816)"
         xml:space="preserve"
         stroke-miterlimit="10.433"
         font-style="normal"
         font-variant="normal"
         font-weight="normal"
         font-stretch="normal"
         font-size-adjust="none"
         letter-spacing="normal"
         word-spacing="normal"
         ns0:text="$t$"
         ns0:preamble="">
<path
   style="fill:#000000;stroke-width:0"
   inkscape:connector-curvature="0"
   d="m 225.49,711.11 h 0.93 c 0.2,0 0.3,0 0.3,0.2 0,0.11 -0.1,0.11 -0.28,0.11 h -0.88 c 0.36,1.41 0.41,1.61 0.41,1.67 0,0.17 -0.12,0.27 -0.29,0.27 -0.03,0 -0.3,-0.01 -0.39,-0.36 l -0.39,-1.58 h -0.94 c -0.2,0 -0.3,0 -0.3,-0.19 0,-0.12 0.08,-0.12 0.28,-0.12 h 0.88 c -0.72,-2.83 -0.76,-3 -0.76,-3.18 0,-0.54 0.38,-0.92 0.92,-0.92 1.01,0 1.58,1.46 1.58,1.54 0,0.1 -0.08,0.1 -0.12,0.1 -0.09,0 -0.1,-0.03 -0.15,-0.14 -0.43,-1.04 -0.95,-1.28 -1.29,-1.28 -0.21,0 -0.31,0.13 -0.31,0.46 0,0.24 0.02,0.31 0.06,0.48 z"
   id="path33395" />
</g>    </g>
    <line
       id="line33749"
       y2="273.16171"
       x2="610.90686"
       y1="273.16171"
       x1="600.10681"
       style="font-style:normal;font-variant:normal;font-weight:normal;font-stretch:normal;letter-spacing:normal;word-spacing:normal;text-anchor:start;fill:none;stroke:#000000;stroke-width:1.19400001;stroke-linecap:butt;stroke-linejoin:miter;stroke-miterlimit:10.43299961;stroke-opacity:1;stroke-dasharray:none;stroke-dashoffset:0" />
    <path
       id="path33751"
       d="m 606.28684,283.7818 h 2.79 c 0.6,0 0.9,0 0.9,-0.6 0,-0.33 -0.3,-0.33 -0.84,-0.33 h -2.64 c 1.08,-4.23 1.23,-4.83 1.23,-5.01 0,-0.51 -0.36,-0.81 -0.87,-0.81 -0.09,0 -0.9,0.03 -1.17,1.08 l -1.17,4.74 h -2.82 c -0.6,0 -0.9,0 -0.9,0.57 0,0.36 0.24,0.36 0.84,0.36 h 2.64 c -2.16,8.49 -2.28,9 -2.28,9.54 0,1.62 1.14,2.76 2.76,2.76 3.03,0 4.74,-4.38 4.74,-4.62 0,-0.3 -0.24,-0.3 -0.36,-0.3 -0.27,0 -0.3,0.09 -0.45,0.42 -1.29,3.12 -2.85,3.84 -3.87,3.84 -0.63,0 -0.93,-0.39 -0.93,-1.38 0,-0.72 0.06,-0.93 0.18,-1.44 z"
       inkscape:connector-curvature="0"
       style="font-style:normal;font-variant:normal;font-weight:normal;font-stretch:normal;letter-spacing:normal;word-spacing:normal;text-anchor:start;fill:#000000;stroke:#000000;stroke-width:0;stroke-linecap:butt;stroke-linejoin:miter;stroke-miterlimit:10.43299961;stroke-opacity:1;stroke-dasharray:none;stroke-dashoffset:0" />
    <path
       transform="matrix(0.99583609,0,0,0.99583609,-19.984668,73.043134)"
       sodipodi:type="arc"
       style="fill:#ffffff;fill-opacity:1;stroke:#000000;stroke-width:1;stroke-miterlimit:4;stroke-dasharray:none;stroke-dashoffset:0"
       id="path6557-9-1-1-1"
       sodipodi:cx="142.4315"
       sodipodi:cy="212.92542"
       sodipodi:rx="36.36549"
       sodipodi:ry="36.36549"
       d="m 178.79699,212.92542 c 0,20.0841 -16.28138,36.36548 -36.36549,36.36548 -20.0841,0 -36.36549,-16.28138 -36.36549,-36.36548 0,-20.08411 16.28139,-36.36549 36.36549,-36.36549 20.08411,0 36.36549,16.28138 36.36549,36.36549 z" />
    <g
       id="g34225"
       transform="translate(0,13.567682)">
      <path
         transform="matrix(0.99583609,0,0,0.99583609,-171.54783,196.78714)"
         d="m 353.04832,74.787056 c 0,7.671013 -6.21858,13.889598 -13.8896,13.889598 -7.67101,0 -13.8896,-6.218585 -13.8896,-13.889598 0,-7.671013 6.21859,-13.889598 13.8896,-13.889598 7.67102,0 13.8896,6.218585 13.8896,13.889598 z"
         sodipodi:ry="13.889598"
         sodipodi:rx="13.889598"
         sodipodi:cy="74.787056"
         sodipodi:cx="339.15872"
         id="path7110-2-6-5"
         style="fill:#ffffff;fill-opacity:1;stroke:#000000;stroke-width:1;stroke-miterlimit:4;stroke-dasharray:none;stroke-dashoffset:0"
         sodipodi:type="arc" />
      <g
         style="font-style:normal;font-variant:normal;font-weight:normal;font-stretch:normal;letter-spacing:normal;word-spacing:normal;text-anchor:start;fill:none;stroke:#000000;stroke-linecap:butt;stroke-linejoin:miter;stroke-miterlimit:10.43299961;stroke-opacity:1;stroke-dasharray:none;stroke-dashoffset:0"
         id="content"
         transform="matrix(1.5,0,0,-1.5,-175.50133,1335.1678)"
         xml:space="preserve"
         stroke-miterlimit="10.433"
         font-style="normal"
         font-variant="normal"
         font-weight="normal"
         font-stretch="normal"
         font-size-adjust="none"
         letter-spacing="normal"
         word-spacing="normal"
         ns0:text="$m$"
         ns0:preamble="">
<path
   style="fill:#000000;stroke-width:0"
   inkscape:connector-curvature="0"
   d="m 224.31,707.71 0,-0.01 -0.01,-0.02 0,-0.01 0,-0.02 -0.01,-0.03 -0.01,-0.03 0,-0.04 -0.01,-0.03 -0.01,-0.03 -0.01,-0.03 0,-0.02 0,-0.01 -0.01,-0.02 0,-0.01 0,-0.01 -0.01,-0.02 0,-0.01 0,-0.01 0,-0.01 0,-0.01 -0.01,-0.01 0,-0.01 0,-0.01 0,-0.01 0,0 0,-0.01 c 0,-0.18 0.14,-0.27 0.29,-0.27 0.12,0 0.3,0.08 0.37,0.28 0.01,0.02 0.13,0.49 0.19,0.74 l 0.22,0.9 c 0.06,0.22 0.11,0.43 0.17,0.66 0.03,0.17 0.11,0.46 0.12,0.5 0.15,0.31 0.68,1.22 1.63,1.22 0.45,0 0.54,-0.37 0.54,-0.7 0,-0.25 -0.07,-0.53 -0.15,-0.83 l -0.28,-1.15 -0.2,-0.76 c -0.04,-0.2 -0.13,-0.54 -0.13,-0.59 0,-0.18 0.14,-0.27 0.29,-0.27 0.31,0 0.37,0.25 0.45,0.57 0.14,0.56 0.5,2.01 0.59,2.4 0.03,0.13 0.56,1.33 1.65,1.33 0.43,0 0.54,-0.34 0.54,-0.7 0,-0.57 -0.42,-1.7 -0.62,-2.23 -0.09,-0.24 -0.13,-0.35 -0.13,-0.55 0,-0.47 0.35,-0.82 0.82,-0.82 0.93,0 1.3,1.46 1.3,1.54 0,0.1 -0.09,0.1 -0.12,0.1 -0.1,0 -0.1,-0.03 -0.15,-0.18 -0.15,-0.53 -0.47,-1.24 -1.01,-1.24 -0.17,0 -0.24,0.1 -0.24,0.33 0,0.25 0.09,0.49 0.18,0.71 0.19,0.52 0.6,1.62 0.6,2.19 0,0.65 -0.4,1.07 -1.14,1.07 -0.75,0 -1.26,-0.44 -1.63,-0.97 -0.01,0.13 -0.04,0.47 -0.32,0.71 -0.24,0.21 -0.56,0.26 -0.81,0.26 -0.9,0 -1.39,-0.64 -1.56,-0.87 -0.05,0.57 -0.46,0.87 -0.91,0.87 -0.46,0 -0.65,-0.39 -0.74,-0.57 -0.18,-0.35 -0.31,-0.94 -0.31,-0.97 0,-0.1 0.1,-0.1 0.12,-0.1 0.1,0 0.11,0.01 0.17,0.23 0.17,0.71 0.37,1.19 0.73,1.19 0.16,0 0.31,-0.08 0.31,-0.46 0,-0.21 -0.03,-0.32 -0.16,-0.84 z"
   id="path33279" />
</g>    </g>
    <line
       style="font-style:normal;font-variant:normal;font-weight:normal;font-stretch:normal;letter-spacing:normal;word-spacing:normal;text-anchor:start;fill:none;stroke:#000000;stroke-width:1.19400001;stroke-linecap:butt;stroke-linejoin:miter;stroke-miterlimit:10.43299961;stroke-opacity:1;stroke-dasharray:none;stroke-dashoffset:0"
       x1="108.72877"
       y1="276.68051"
       x2="134.97878"
       y2="276.68051"
       id="line33889" />
    <path
       style="font-style:normal;font-variant:normal;font-weight:normal;font-stretch:normal;letter-spacing:normal;word-spacing:normal;text-anchor:start;fill:#000000;stroke:#000000;stroke-width:0;stroke-linecap:butt;stroke-linejoin:miter;stroke-miterlimit:10.43299961;stroke-opacity:1;stroke-dasharray:none;stroke-dashoffset:0"
       inkscape:connector-curvature="0"
       d="m 111.36879,291.9805 0,0.03 -0.03,0.06 0,0.03 0,0.06 -0.03,0.09 -0.03,0.09 0,0.12 -0.03,0.09 -0.03,0.09 -0.03,0.09 0,0.06 0,0.03 -0.03,0.06 0,0.03 0,0.03 -0.03,0.06 0,0.03 0,0.03 0,0.03 0,0.03 -0.03,0.03 0,0.03 0,0.03 0,0.03 0,0 0,0.03 c 0,0.54 0.42,0.81 0.87,0.81 0.36,0 0.9,-0.24 1.11,-0.84 0.03,-0.06 0.39,-1.47 0.57,-2.22 l 0.66,-2.7 c 0.18,-0.66 0.33,-1.29 0.51,-1.98 0.09,-0.51 0.33,-1.38 0.36,-1.5 0.45,-0.93 2.04,-3.66 4.89,-3.66 1.35,0 1.62,1.11 1.62,2.1 0,0.75 -0.21,1.59 -0.45,2.49 l -0.84,3.45 -0.6,2.28 c -0.12,0.6 -0.39,1.62 -0.39,1.77 0,0.54 0.42,0.81 0.87,0.81 0.93,0 1.11,-0.75 1.35,-1.71 0.42,-1.68 1.5,-6.03 1.77,-7.2 0.09,-0.39 1.68,-3.99 4.95,-3.99 1.29,0 1.62,1.02 1.62,2.1 0,1.71 -1.26,5.1 -1.86,6.69 -0.27,0.72 -0.39,1.05 -0.39,1.65 0,1.41 1.05,2.46 2.46,2.46 2.79,0 3.9,-4.38 3.9,-4.62 0,-0.3 -0.27,-0.3 -0.36,-0.3 -0.3,0 -0.3,0.09 -0.45,0.54 -0.45,1.59 -1.41,3.72 -3.03,3.72 -0.51,0 -0.72,-0.3 -0.72,-0.99 0,-0.75 0.27,-1.47 0.54,-2.13 0.57,-1.56 1.8,-4.86 1.8,-6.57 0,-1.95 -1.2,-3.21 -3.42,-3.21 -2.25,0 -3.78,1.32 -4.89,2.91 -0.03,-0.39 -0.12,-1.41 -0.96,-2.13 -0.72,-0.63 -1.68,-0.78 -2.43,-0.78 -2.7,0 -4.17,1.92 -4.68,2.61 -0.15,-1.71 -1.38,-2.61 -2.73,-2.61 -1.38,0 -1.95,1.17 -2.22,1.71 -0.54,1.05 -0.93,2.82 -0.93,2.91 0,0.3 0.3,0.3 0.36,0.3 0.3,0 0.33,-0.03 0.51,-0.69 0.51,-2.13 1.11,-3.57 2.19,-3.57 0.48,0 0.93,0.24 0.93,1.38 0,0.63 -0.09,0.96 -0.48,2.52 z"
       id="path33891" />
    <path
       transform="translate(226.24879,171.50998)"
       sodipodi:type="arc"
       style="fill:#ffffff;fill-opacity:1;stroke:#000000;stroke-width:1;stroke-miterlimit:4;stroke-dasharray:none;stroke-dashoffset:0"
       id="path6557-9-1-1"
       sodipodi:cx="142.4315"
       sodipodi:cy="212.92542"
       sodipodi:rx="36.36549"
       sodipodi:ry="36.36549"
       d="m 178.79699,212.92542 c 0,20.0841 -16.28138,36.36548 -36.36549,36.36548 -20.0841,0 -36.36549,-16.28138 -36.36549,-36.36548 0,-20.08411 16.28139,-36.36549 36.36549,-36.36549 20.08411,0 36.36549,16.28138 36.36549,36.36549 z" />
    <path
       sodipodi:type="arc"
       style="fill:#ffffff;fill-opacity:1;stroke:#000000;stroke-width:1;stroke-miterlimit:4;stroke-dasharray:none;stroke-dashoffset:0"
       id="path7110-2-6"
       sodipodi:cx="339.15872"
       sodipodi:cy="74.787056"
       sodipodi:rx="13.889598"
       sodipodi:ry="13.889598"
       d="m 353.04832,74.787056 c 0,7.671013 -6.21858,13.889598 -13.8896,13.889598 -7.67101,0 -13.8896,-6.218585 -13.8896,-13.889598 0,-7.671013 6.21859,-13.889598 13.8896,-13.889598 7.67102,0 13.8896,6.218585 13.8896,13.889598 z"
       transform="translate(74.051888,309.3958)" />
    <path
       sodipodi:type="arc"
       style="fill:#ffffff;fill-opacity:1;stroke:#000000;stroke-width:1;stroke-miterlimit:4;stroke-dasharray:none;stroke-dashoffset:0"
       id="path7110-4-3-98"
       sodipodi:cx="339.15872"
       sodipodi:cy="74.787056"
       sodipodi:rx="13.889598"
       sodipodi:ry="13.889598"
       d="m 353.04832,74.787056 c 0,7.671013 -6.21858,13.889598 -13.8896,13.889598 -7.67101,0 -13.8896,-6.218585 -13.8896,-13.889598 0,-7.671013 6.21859,-13.889598 13.8896,-13.889598 7.67102,0 13.8896,6.218585 13.8896,13.889598 z"
       transform="translate(-15.008755,309.3958)" />
    <path
       transform="translate(143.8915,-29.217222)"
       sodipodi:type="arc"
       style="fill:#ffffff;fill-opacity:1;stroke:#cccccc;stroke-width:1;stroke-miterlimit:4;stroke-dasharray:none;stroke-dashoffset:0"
       id="path6557-9-1-1-2"
       sodipodi:cx="142.4315"
       sodipodi:cy="212.92542"
       sodipodi:rx="36.36549"
       sodipodi:ry="36.36549"
       d="m 178.79699,212.92542 c 0,20.0841 -16.28138,36.36548 -36.36549,36.36548 -20.0841,0 -36.36549,-16.28138 -36.36549,-36.36548 0,-20.08411 16.28139,-36.36549 36.36549,-36.36549 20.08411,0 36.36549,16.28138 36.36549,36.36549 z" />
    <path
       sodipodi:type="arc"
       style="fill:#ffffff;fill-opacity:1;stroke:#cccccc;stroke-width:1;stroke-miterlimit:4;stroke-dasharray:none;stroke-dashoffset:0"
       id="path7110-2-6-2"
       sodipodi:cx="339.15872"
       sodipodi:cy="74.787056"
       sodipodi:rx="13.889598"
       sodipodi:ry="13.889598"
       d="m 353.04832,74.787056 c 0,7.671013 -6.21858,13.889598 -13.8896,13.889598 -7.67101,0 -13.8896,-6.218585 -13.8896,-13.889598 0,-7.671013 6.21859,-13.889598 13.8896,-13.889598 7.67102,0 13.8896,6.218585 13.8896,13.889598 z"
       transform="translate(-8.3053981,108.66859)" />
    <path
       sodipodi:type="arc"
       style="fill:#ffffff;fill-opacity:1;stroke:#cccccc;stroke-width:1;stroke-miterlimit:4;stroke-dasharray:none;stroke-dashoffset:0"
       id="path7110-4-3-98-1"
       sodipodi:cx="339.15872"
       sodipodi:cy="74.787056"
       sodipodi:rx="13.889598"
       sodipodi:ry="13.889598"
       d="m 353.04832,74.787056 c 0,7.671013 -6.21858,13.889598 -13.8896,13.889598 -7.67101,0 -13.8896,-6.218585 -13.8896,-13.889598 0,-7.671013 6.21859,-13.889598 13.8896,-13.889598 7.67102,0 13.8896,6.218585 13.8896,13.889598 z"
       transform="translate(-97.366043,108.66859)" />
    <path
       transform="translate(308.60606,-29.217222)"
       sodipodi:type="arc"
       style="fill:#ffffff;fill-opacity:1;stroke:#cccccc;stroke-width:1;stroke-miterlimit:4;stroke-dasharray:none;stroke-dashoffset:0"
       id="path6557-9-1-1-4"
       sodipodi:cx="142.4315"
       sodipodi:cy="212.92542"
       sodipodi:rx="36.36549"
       sodipodi:ry="36.36549"
       d="m 178.79699,212.92542 c 0,20.0841 -16.28138,36.36548 -36.36549,36.36548 -20.0841,0 -36.36549,-16.28138 -36.36549,-36.36548 0,-20.08411 16.28139,-36.36549 36.36549,-36.36549 20.08411,0 36.36549,16.28138 36.36549,36.36549 z" />
    <path
       sodipodi:type="arc"
       style="fill:#ffffff;fill-opacity:1;stroke:#cccccc;stroke-width:1;stroke-miterlimit:4;stroke-dasharray:none;stroke-dashoffset:0"
       id="path7110-2-6-8"
       sodipodi:cx="339.15872"
       sodipodi:cy="74.787056"
       sodipodi:rx="13.889598"
       sodipodi:ry="13.889598"
       d="m 353.04832,74.787056 c 0,7.671013 -6.21858,13.889598 -13.8896,13.889598 -7.67101,0 -13.8896,-6.218585 -13.8896,-13.889598 0,-7.671013 6.21859,-13.889598 13.8896,-13.889598 7.67102,0 13.8896,6.218585 13.8896,13.889598 z"
       transform="translate(156.40917,108.6686)" />
    <path
       sodipodi:type="arc"
       style="fill:#ffffff;fill-opacity:1;stroke:#cccccc;stroke-width:1;stroke-miterlimit:4;stroke-dasharray:none;stroke-dashoffset:0"
       id="path7110-4-3-98-7"
       sodipodi:cx="339.15872"
       sodipodi:cy="74.787056"
       sodipodi:rx="13.889598"
       sodipodi:ry="13.889598"
       d="m 353.04832,74.787056 c 0,7.671013 -6.21858,13.889598 -13.8896,13.889598 -7.67101,0 -13.8896,-6.218585 -13.8896,-13.889598 0,-7.671013 6.21859,-13.889598 13.8896,-13.889598 7.67102,0 13.8896,6.218585 13.8896,13.889598 z"
       transform="translate(67.348526,108.6686)" />
    <path
       style="fill:none;stroke:#000000;stroke-width:1px;stroke-linecap:butt;stroke-linejoin:miter;stroke-opacity:1;display:inline"
       d="M 340.64609,168.59518 473.5171,106.25184"
       id="path34508"
       inkscape:connector-type="polyline"
       inkscape:connector-curvature="0"
       inkscape:connection-end="#g34202"
       inkscape:connection-end-point="d4"
       transform="translate(85.141778,209.6864)"
       inkscape:connection-start="#path7110-2-6"
       inkscape:connection-start-point="d4" />
    <path
       style="fill:none;stroke:#cccccc;stroke-width:1px;stroke-linecap:butt;stroke-linejoin:miter;stroke-opacity:1;display:inline"
       d="m 392.61765,183.45565 -47.87473,0"
       id="path34510"
       inkscape:connector-type="polyline"
       inkscape:connector-curvature="0"
       inkscape:connection-start="#path7110-4-3-98-7"
       inkscape:connection-start-point="d4"
       inkscape:connection-end="#path7110-2-6-2"
       inkscape:connection-end-point="d4" />
    <path
       style="fill:none;stroke:#cccccc;stroke-width:1px;stroke-linecap:butt;stroke-linejoin:miter;stroke-opacity:1;display:inline"
       d="m 420.31127,-16.473459 55.83667,55.114364"
       id="path34512"
       inkscape:connector-type="polyline"
       inkscape:connector-curvature="0"
       inkscape:connection-end="#g34216"
       inkscape:connection-end-point="d4"
       transform="translate(85.141778,209.6864)"
       inkscape:connection-start="#path7110-2-6-8"
       inkscape:connection-start-point="d4" />
    <path
       style="fill:none;stroke:#000000;stroke-width:1px;stroke-linecap:butt;stroke-linejoin:miter;stroke-opacity:1"
       d="M 227.24952,167.10018 92.741028,82.493471"
       id="path34514"
       inkscape:connector-type="polyline"
       inkscape:connector-curvature="0"
       inkscape:connection-start="#path7110-4-3-98"
       inkscape:connection-start-point="d4"
       inkscape:connection-end="#g34225"
       inkscape:connection-end-point="d4"
       transform="translate(85.141778,209.6864)" />
    <path
       style="fill:none;stroke:#cccccc;stroke-width:1px;stroke-linecap:butt;stroke-linejoin:miter;stroke-opacity:1;display:inline"
       d="M 89.35285,64.018829 148.3474,-15.095398"
       id="path34516"
       inkscape:connector-type="polyline"
       inkscape:connector-curvature="100"
       inkscape:connection-start="#g34225"
       inkscape:connection-start-point="d4"
       transform="translate(85.141778,209.6864)"
       inkscape:connection-end="#path7110-4-3-98-1"
       inkscape:connection-end-point="d4" />
    <path
       style="fill:none;stroke:#000000;stroke-width:1;stroke-linecap:butt;stroke-linejoin:miter;stroke-miterlimit:4;stroke-opacity:1;stroke-dasharray:3, 1;stroke-dashoffset:0;marker-end:url(#Arrow1Lend)"
       d="M 179.80025,284.20022 C 457.5922,320.06064 557.5973,265.5124 557.5973,265.5124"
       id="path34526"
       inkscape:connector-curvature="0" />
    <path
       style="fill:none;stroke:#000000;stroke-width:1;stroke-linecap:butt;stroke-linejoin:miter;stroke-miterlimit:4;stroke-opacity:1;stroke-dasharray:3, 1;stroke-dashoffset:0;marker-end:url(#Arrow1Lend)"
       d="M 470.73109,152.43277 C 239.91123,196.3744 95.964492,132.22972 95.964492,132.22972"
       id="path34528"
       inkscape:connector-curvature="0"
       transform="translate(85.141778,156.8427)" />
    <g
       style="font-style:normal;font-variant:normal;font-weight:normal;font-stretch:normal;letter-spacing:normal;word-spacing:normal;text-anchor:start;fill:none;stroke:#000000;stroke-linecap:butt;stroke-linejoin:miter;stroke-miterlimit:10.43299961;stroke-opacity:1;stroke-dasharray:none;stroke-dashoffset:0"
       id="g35416"
       transform="matrix(1,0,0,-1,-36.860359,983.85032)"
       xml:space="preserve"
       stroke-miterlimit="10.433"
       font-style="normal"
       font-variant="normal"
       font-weight="normal"
       font-stretch="normal"
       font-size-adjust="none"
       letter-spacing="normal"
       word-spacing="normal"
       ns0:text="{\\sc UDP Ping}$(m, t)$"
       ns0:preamble="">
<path
   style="fill:#000000;stroke-width:0"
   inkscape:connector-curvature="0"
   d="m 225.89,713.15 0,0.03 0,0.03 0,0.03 0.01,0.03 0,0.03 0,0.03 0,0.02 0.01,0.02 0,0.03 0.01,0.02 0.01,0.02 0.01,0.02 0.01,0.01 0.02,0.02 0.01,0.01 0.02,0.02 0.02,0.01 0.02,0.01 0.01,0.01 0.02,0 0.01,0.01 0.01,0 0.02,0.01 0.01,0 0.02,0.01 0.02,0 0.02,0.01 0.01,0 0.02,0 0.02,0.01 0.02,0 0.03,0 0.02,0 0.02,0.01 0.03,0 0.02,0 0.03,0 0.03,0 0.02,0 0.03,0 0.03,0.01 0.03,0 0.04,0 0.03,0 0.03,0 0.04,0 h 0.24 v 0.31 c -1.46,0 -0.35,-0.03 -1.09,-0.03 -0.37,0 -0.75,0 -1.5,0 l -0.35,-0.28 h 0.24 c 0.77,0 0.79,-0.11 0.79,-0.47 v -3.75 c 0,-1.41 1.2,-2.5 2.61,-2.5 1.49,0 2.34,1.38 2.34,2.36 v 3.59 c 0,0.31 0,0.77 1.02,0.77 v 0.31 c -1.17,0 -0.35,-0.01 -0.83,-0.03 -0.34,0 -0.69,0 -1.17,0.02 l -0.36,-0.3 c 1.03,0 1.03,-0.47 1.03,-0.74 v -3.46 c 0,-1.4 -1.01,-2.21 -2.01,-2.21 -0.54,0 -1.75,0.29 -1.75,2.16 z"
   id="path35418" />
<path
   style="fill:#000000;stroke-width:0"
   inkscape:connector-curvature="0"
   d="m 232.35,713.62 0.03,0 0.04,0 0.03,0 0.03,0 0.03,0 0.03,-0.01 0.03,0 0.03,0 0.03,0 0.02,0 0.03,0 0.02,0 0.03,-0.01 0.02,0 0.02,0 0.02,0 0.02,-0.01 0.02,0 0.02,0 0.02,-0.01 0.02,0 0.01,-0.01 0.02,0 0.01,-0.01 0.02,0 0.01,-0.01 0.01,0 0.02,-0.01 0.02,-0.01 0.02,-0.01 0.02,-0.02 0.01,-0.01 0.02,-0.02 0.01,-0.01 0.01,-0.02 0.01,-0.02 0,-0.02 0.01,-0.03 0,-0.02 0.01,-0.02 0,-0.03 0,-0.03 0,-0.03 0,-0.03 0,-0.03 0,-0.03 v -5.25 c 0,-0.36 -0.02,-0.47 -0.78,-0.47 h -0.24 v -0.31 h 3.76 l -0.27,0.31 h -1.12 c -0.47,0 -0.49,0.07 -0.49,0.4 v 5.39 c 0,0.33 0.02,0.4 0.49,0.4 h 1.12 c 0.56,0 1.34,-0.17 1.92,-0.94 0.45,-0.59 0.55,-1.45 0.55,-2.21 0,-1.01 -0.17,-1.72 -0.64,-2.26 -0.41,-0.46 -1.05,-0.78 -1.83,-0.78 l 0.27,-0.31 c 1.76,0 3.2,1.48 3.2,3.35 0,1.9 -1.42,3.46 -3.2,3.46 h -3.76 v -0.31 z"
   id="path35420" />
<path
   style="fill:#000000;stroke-width:0"
   inkscape:connector-curvature="0"
   d="m 244.09,710.27 0.11,0 0.12,0.01 0.11,0.01 0.11,0.02 0.11,0.02 0.11,0.02 0.11,0.03 0.1,0.03 0.11,0.03 0.1,0.04 0.1,0.04 0.1,0.05 0.09,0.05 0.09,0.05 0.09,0.06 0.09,0.06 0.08,0.06 0.07,0.06 0.08,0.07 0.07,0.07 0.06,0.08 0.06,0.07 0.06,0.08 0.05,0.08 0.04,0.08 0.04,0.09 0.04,0.08 0.03,0.09 0.02,0.09 0.02,0.09 0.01,0.1 0,0.09 c 0,0.99 -1.06,1.86 -2.46,1.86 h -3.64 v -0.31 h 0.24 c 0.77,0 0.79,-0.11 0.79,-0.47 v -5.25 c 0,-0.36 -0.02,-0.47 -0.79,-0.47 h -0.24 v -0.31 c 1.47,0 0.35,0.03 1.09,0.03 0.38,0 0.76,0 1.5,0 l 0.35,0.28 h -0.24 c -0.76,0 -0.78,0.11 -0.78,0.47 v 2.37 l -0.03,0.26 v 2.69 c 0,0.33 0.02,0.4 0.48,0.4 h 1.01 c 1.69,0 1.69,-1.1 1.69,-1.55 0,-0.42 0,-1.54 -1.69,-1.54 h -1.49 l 0.03,-0.26 z"
   id="path35422" />
<path
   style="fill:#000000;stroke-width:0"
   inkscape:connector-curvature="0"
   d="m 255.24,710.27 0.11,0 0.12,0.01 0.11,0.01 0.11,0.02 0.11,0.02 0.11,0.02 0.11,0.03 0.11,0.03 0.1,0.03 0.1,0.04 0.1,0.04 0.1,0.05 0.09,0.05 0.09,0.05 0.09,0.06 0.09,0.06 0.08,0.06 0.08,0.06 0.07,0.07 0.07,0.07 0.06,0.08 0.06,0.07 0.06,0.08 0.05,0.08 0.05,0.08 0.04,0.09 0.03,0.08 0.03,0.09 0.02,0.09 0.02,0.09 0.01,0.1 0,0.09 c 0,0.99 -1.05,1.86 -2.46,1.86 h -3.64 v -0.31 h 0.24 c 0.77,0 0.79,-0.11 0.79,-0.47 v -5.25 c 0,-0.36 -0.02,-0.47 -0.79,-0.47 h -0.24 v -0.31 c 1.47,0 0.35,0.03 1.09,0.03 0.38,0 0.76,0 1.51,0 l 0.34,0.28 h -0.23 c -0.77,0 -0.79,0.11 -0.79,0.47 v 2.37 l -0.03,0.26 v 2.69 c 0,0.33 0.02,0.4 0.49,0.4 h 1 c 1.7,0 1.7,-1.1 1.7,-1.55 0,-0.42 0,-1.54 -1.7,-1.54 h -1.49 l 0.03,-0.26 z"
   id="path35424" />
<path
   style="fill:#000000;stroke-width:0"
   inkscape:connector-curvature="0"
   d="m 260.21,711.52 0,0.04 0,0.03 0,0.04 0,0.03 0,0.03 0.01,0.03 0,0.03 0.01,0.02 0,0.02 0.01,0.03 0.01,0.02 0.01,0.02 0.01,0.01 0.02,0.02 0.01,0.01 0.02,0.02 0.02,0.01 0.02,0.01 0.03,0.01 0.01,0 0.01,0.01 0.02,0 0.01,0 0.02,0.01 0.02,0 0.01,0 0.02,0 0.02,0.01 0.02,0 0.02,0 0.02,0 0.02,0.01 0.02,0 0.03,0 0.02,0 0.02,0 0.03,0 0.03,0 0.02,0 0.03,0 0.03,0 0.03,0 0.03,0 0.03,0 0.03,0 v 0.25 c -1.11,0 -0.33,-0.01 -0.85,-0.03 -0.26,0 -0.52,0 -1.04,0.02 l -0.34,-0.24 c 0.71,0 0.76,-0.05 0.76,-0.47 v -3.67 c 0,-0.43 -0.05,-0.48 -0.76,-0.48 v -0.25 c 1.12,0 0.34,0.01 0.86,0.03 0.26,0 0.52,0 1.04,-0.02 l 0.33,0.24 c -0.7,0 -0.75,0.05 -0.75,0.48 z"
   id="path35426" />
<path
   style="fill:#000000;stroke-width:0"
   inkscape:connector-curvature="0"
   d="m 263.28,712.11 -0.01,0.02 0,0.01 -0.01,0.01 -0.01,0.01 0,0.01 -0.01,0 -0.01,0.01 -0.01,0.01 0,0.01 -0.01,0 0,0.01 -0.01,0 -0.01,0.01 0,0 -0.01,0 -0.01,0.01 -0.01,0 0,0 -0.01,0 -0.01,0.01 -0.01,0 -0.01,0 -0.01,0 -0.01,0 -0.01,0 -0.02,0 -0.01,0 -0.01,0 -0.02,0 -0.01,0 -0.02,0 -0.01,0 -0.01,0 h -1.19 v -0.25 c 0.24,0 0.52,0 0.72,-0.07 v -3.79 c 0,-0.23 0,-0.76 -0.72,-0.76 v -0.25 c 0.85,0 0.21,0.01 0.66,0.03 0.19,0 0.35,0 0.8,-0.01 l 0.25,0.23 c -0.71,0 -0.71,0.53 -0.71,0.76 v 3.57 l 0.09,-0.12 3.13,-4.35 c 0.08,-0.11 0.11,-0.11 0.17,-0.11 0.14,0 0.14,0.07 0.14,0.26 v 3.86 c 0,0.23 0,0.75 0.72,0.75 v 0.25 c -0.86,0 -0.21,-0.01 -0.66,-0.03 -0.2,0 -0.35,0 -0.81,0.01 l -0.24,-0.23 c 0.71,0 0.71,-0.52 0.71,-0.75 v -2.96 z"
   id="path35428" />
<path
   style="fill:#000000;stroke-width:0"
   inkscape:connector-curvature="0"
   d="m 272.83,712.14 0,0.02 0,0.01 0,0.02 0,0.01 0,0.01 0,0.02 0,0.01 0,0.01 0,0.01 0,0.01 0,0.01 0,0.01 0,0.01 0,0.01 -0.01,0.01 0,0 0,0.01 0,0.01 -0.01,0 0,0.01 0,0 -0.01,0.01 0,0 -0.01,0.01 0,0 -0.01,0 -0.01,0.01 0,0 -0.01,0 -0.01,0 -0.01,0 -0.01,0 c -0.06,0 -0.06,-0.02 -0.14,-0.12 l -0.39,-0.5 c -0.37,0.4 -0.9,0.62 -1.45,0.62 -1.48,0 -2.78,-1.17 -2.78,-2.7 0,-1.48 1.25,-2.7 2.8,-2.7 0.35,0 1.09,0.05 1.48,0.6 0.09,-0.14 0.39,-0.45 0.49,-0.45 0.09,0 0.09,0.08 0.09,0.23 v 1.13 c 0,0.39 0.05,0.45 0.56,0.45 v 0.24 c -0.98,0 -0.33,-0.02 -0.72,-0.02 -0.26,0 -0.62,0 -1.2,0 l -0.35,-0.22 h 0.2 c 0.76,0 0.8,-0.11 0.8,-0.51 v -0.3 c 0,-0.23 0,-0.47 -0.4,-0.7 -0.22,-0.13 -0.56,-0.2 -0.85,-0.2 -0.61,0 -2.04,0.33 -2.04,2.45 0,2.18 1.5,2.45 1.99,2.45 0.73,0 1.57,-0.51 1.76,-1.78 0.02,-0.07 0.03,-0.13 0.12,-0.13 0.13,0 0.13,0.05 0.13,0.24 z"
   id="path35430" />
<path
   style="fill:#000000;stroke-width:0"
   inkscape:connector-curvature="0"
   d="m 277.14,704.73 0,0.01 0,0 0,0.01 0,0 0,0 0,0 0,0.01 0,0 0,0.01 0,0 -0.01,0 0,0.01 0,0 -0.01,0.01 0,0 -0.01,0.01 0,0.01 -0.01,0 0,0.01 0,0 -0.01,0.01 0,0 0,0.01 -0.01,0 0,0 -0.01,0.01 0,0 -0.01,0.01 0,0 -0.01,0.01 0,0.01 -0.01,0 0,0.01 -0.01,0 0,0.01 -0.01,0.01 -0.01,0 0,0.01 -0.01,0.01 -0.01,0.01 -0.01,0 0,0.01 c -1.25,1.26 -1.57,3.14 -1.57,4.66 0,1.74 0.38,3.47 1.61,4.72 0.12,0.12 0.12,0.14 0.12,0.16 0,0.08 -0.03,0.1 -0.09,0.1 -0.1,0 -1,-0.67 -1.59,-1.94 -0.51,-1.09 -0.63,-2.2 -0.63,-3.04 0,-0.77 0.11,-1.98 0.66,-3.1 0.6,-1.23 1.46,-1.88 1.56,-1.88 0.06,0 0.09,0.03 0.09,0.1 z"
   id="path35432" />
<path
   style="fill:#000000;stroke-width:0"
   inkscape:connector-curvature="0"
   d="m 278.6,707.71 0,-0.01 0,-0.02 -0.01,-0.01 0,-0.02 -0.01,-0.03 0,-0.03 -0.01,-0.04 -0.01,-0.03 -0.01,-0.03 0,-0.03 -0.01,-0.02 0,-0.01 0,-0.02 -0.01,-0.01 0,-0.01 0,-0.02 -0.01,-0.01 0,-0.01 0,-0.01 0,-0.01 0,-0.01 -0.01,-0.01 0,-0.01 0,-0.01 0,0 0,-0.01 c 0,-0.18 0.14,-0.27 0.29,-0.27 0.12,0 0.3,0.08 0.37,0.28 0.01,0.02 0.13,0.49 0.19,0.74 l 0.22,0.9 c 0.06,0.22 0.12,0.43 0.17,0.66 0.04,0.17 0.12,0.46 0.13,0.5 0.15,0.31 0.67,1.22 1.62,1.22 0.45,0 0.54,-0.37 0.54,-0.7 0,-0.25 -0.07,-0.53 -0.15,-0.83 l -0.28,-1.15 -0.2,-0.76 c -0.04,-0.2 -0.13,-0.54 -0.13,-0.59 0,-0.18 0.14,-0.27 0.29,-0.27 0.31,0 0.37,0.25 0.45,0.57 0.14,0.56 0.51,2.01 0.6,2.4 0.03,0.13 0.55,1.33 1.64,1.33 0.43,0 0.54,-0.34 0.54,-0.7 0,-0.57 -0.42,-1.7 -0.62,-2.23 -0.09,-0.24 -0.13,-0.35 -0.13,-0.55 0,-0.47 0.35,-0.82 0.82,-0.82 0.93,0 1.3,1.46 1.3,1.54 0,0.1 -0.09,0.1 -0.12,0.1 -0.1,0 -0.1,-0.03 -0.15,-0.18 -0.14,-0.53 -0.46,-1.24 -1.01,-1.24 -0.17,0 -0.24,0.1 -0.24,0.33 0,0.25 0.09,0.49 0.18,0.71 0.19,0.52 0.61,1.62 0.61,2.19 0,0.65 -0.4,1.07 -1.15,1.07 -0.75,0 -1.25,-0.44 -1.62,-0.97 -0.01,0.13 -0.04,0.47 -0.32,0.71 -0.25,0.21 -0.57,0.26 -0.82,0.26 -0.9,0 -1.38,-0.64 -1.55,-0.87 -0.05,0.57 -0.47,0.87 -0.92,0.87 -0.46,0 -0.65,-0.39 -0.74,-0.57 -0.18,-0.35 -0.31,-0.94 -0.31,-0.97 0,-0.1 0.1,-0.1 0.12,-0.1 0.1,0 0.11,0.01 0.17,0.23 0.17,0.71 0.37,1.19 0.73,1.19 0.16,0 0.31,-0.08 0.31,-0.46 0,-0.21 -0.03,-0.32 -0.16,-0.84 z"
   id="path35434" />
<path
   style="fill:#000000;stroke-width:0"
   inkscape:connector-curvature="0"
   d="m 288.49,707.13 0,0.06 0,0.06 0,0.06 -0.01,0.06 -0.01,0.05 0,0.05 -0.01,0.05 -0.01,0.05 -0.01,0.05 -0.02,0.05 -0.01,0.04 -0.02,0.04 -0.01,0.04 -0.02,0.04 -0.02,0.04 -0.02,0.03 -0.02,0.04 -0.02,0.03 -0.03,0.02 -0.02,0.03 -0.03,0.03 -0.03,0.02 -0.02,0.02 -0.03,0.02 -0.03,0.01 -0.03,0.02 -0.03,0.01 -0.04,0.01 -0.03,0.01 -0.03,0 -0.04,0.01 -0.03,0 c -0.33,0 -0.53,-0.25 -0.53,-0.53 0,-0.27 0.2,-0.53 0.53,-0.53 0.11,0 0.24,0.04 0.34,0.13 0.03,0.02 0.04,0.03 0.05,0.03 0.01,0 0.02,-0.01 0.02,-0.15 0,-0.73 -0.35,-1.33 -0.67,-1.66 -0.11,-0.11 -0.11,-0.13 -0.11,-0.16 0,-0.07 0.05,-0.11 0.1,-0.11 0.11,0 0.9,0.77 0.9,1.93 z"
   id="path35436" />
<path
   style="fill:#000000;stroke-width:0"
   inkscape:connector-curvature="0"
   d="m 292.95,711.11 h 0.94 c 0.2,0 0.3,0 0.3,0.2 0,0.11 -0.1,0.11 -0.28,0.11 h -0.87 c 0.35,1.41 0.4,1.61 0.4,1.67 0,0.17 -0.12,0.27 -0.29,0.27 -0.03,0 -0.3,-0.01 -0.39,-0.36 l -0.39,-1.58 h -0.94 c -0.2,0 -0.3,0 -0.3,-0.19 0,-0.12 0.08,-0.12 0.28,-0.12 h 0.88 c -0.72,-2.83 -0.76,-3 -0.76,-3.18 0,-0.54 0.38,-0.92 0.92,-0.92 1.01,0 1.58,1.46 1.58,1.54 0,0.1 -0.08,0.1 -0.12,0.1 -0.09,0 -0.1,-0.03 -0.15,-0.14 -0.43,-1.04 -0.96,-1.28 -1.29,-1.28 -0.21,0 -0.31,0.13 -0.31,0.46 0,0.24 0.02,0.31 0.06,0.48 z"
   id="path35438" />
<path
   style="fill:#000000;stroke-width:0"
   inkscape:connector-curvature="0"
   d="m 297.37,709.61 0,0.08 0,0.07 0,0.08 0,0.08 -0.01,0.17 -0.01,0.18 -0.02,0.18 -0.02,0.19 -0.03,0.2 -0.03,0.2 -0.04,0.2 -0.04,0.21 -0.06,0.21 -0.06,0.21 -0.07,0.21 -0.08,0.22 -0.04,0.1 -0.05,0.11 -0.04,0.11 -0.05,0.1 c -0.6,1.23 -1.46,1.87 -1.56,1.87 -0.06,0 -0.1,-0.04 -0.1,-0.1 0,-0.02 0,-0.04 0.19,-0.22 0.98,-0.99 1.55,-2.57 1.55,-4.66 0,-1.7 -0.37,-3.45 -1.61,-4.71 -0.13,-0.12 -0.13,-0.14 -0.13,-0.17 0,-0.06 0.04,-0.1 0.1,-0.1 0.1,0 1,0.68 1.59,1.95 0.51,1.09 0.62,2.2 0.62,3.03 z"
   id="path35440" />
</g>    <g
       ns0:preamble=""
       ns0:text="{\\sc ICMP}$(i = m(t), m)$"
       word-spacing="normal"
       letter-spacing="normal"
       font-size-adjust="none"
       font-stretch="normal"
       font-weight="normal"
       font-variant="normal"
       font-style="normal"
       stroke-miterlimit="10.433"
       xml:space="preserve"
       transform="matrix(1,0,0,-1,193.45442,1043.4493)"
       id="g35566"
       style="font-style:normal;font-variant:normal;font-weight:normal;font-stretch:normal;letter-spacing:normal;word-spacing:normal;text-anchor:start;fill:none;stroke:#000000;stroke-linecap:butt;stroke-linejoin:miter;stroke-miterlimit:10.43299961;stroke-opacity:1;stroke-dasharray:none;stroke-dashoffset:0">
<path
   id="path35568"
   d="m 225.89,713.15 0,0.03 0,0.03 0,0.03 0.01,0.03 0,0.03 0,0.03 0,0.02 0.01,0.02 0.01,0.03 0,0.02 0.01,0.02 0.01,0.02 0.02,0.01 0.01,0.02 0.02,0.01 0.02,0.02 0.02,0.01 0.02,0.01 0.01,0.01 0.02,0 0.01,0.01 0.02,0 0.01,0.01 0.02,0 0.01,0.01 0.02,0 0.02,0.01 0.02,0 0.02,0 0.02,0.01 0.02,0 0.02,0 0.03,0 0.02,0.01 0.03,0 0.02,0 0.03,0 0.03,0 0.03,0 0.03,0 0.03,0.01 0.03,0 0.03,0 0.04,0 0.03,0 0.04,0 h 0.26 v 0.31 c -1.51,0 -0.35,-0.03 -1.14,-0.03 -0.37,0 -0.76,0 -1.55,0 l -0.35,-0.28 h 0.26 c 0.79,0 0.82,-0.11 0.82,-0.47 v -5.25 c 0,-0.36 -0.03,-0.47 -0.82,-0.47 h -0.26 v -0.31 c 1.52,0 0.35,0.03 1.14,0.03 0.38,0 0.76,0 1.55,0 l 0.35,0.28 h -0.26 c -0.79,0 -0.82,0.11 -0.82,0.47 z"
   inkscape:connector-curvature="0"
   style="fill:#000000;stroke-width:0" />
<path
   id="path35570"
   d="m 233.79,713.26 -0.03,0.03 -0.03,0.03 -0.04,0.04 -0.04,0.03 -0.03,0.04 -0.04,0.04 -0.05,0.03 -0.04,0.04 -0.05,0.04 -0.04,0.03 -0.05,0.04 -0.05,0.04 -0.06,0.03 -0.05,0.04 -0.06,0.04 -0.06,0.03 -0.06,0.03 -0.06,0.03 -0.07,0.04 -0.07,0.02 -0.07,0.03 -0.07,0.03 -0.07,0.02 -0.08,0.03 -0.08,0.02 -0.08,0.01 -0.08,0.02 -0.09,0.01 -0.08,0.01 -0.09,0.01 -0.1,0 -0.09,0.01 c -1.96,0 -3.64,-1.6 -3.64,-3.62 0,-2.03 1.68,-3.63 3.65,-3.63 1.68,0 2.74,1.36 2.74,2.54 0,0.1 0,0.17 -0.13,0.17 -0.11,0 -0.11,-0.06 -0.12,-0.16 -0.08,-1.44 -1.25,-2.24 -2.36,-2.24 -0.88,0 -2.75,0.52 -2.75,3.31 0,2.94 2.04,3.32 2.73,3.32 1.06,0 2.08,-0.83 2.31,-2.36 0.02,-0.14 0.03,-0.17 0.16,-0.17 0.16,0 0.16,0.03 0.16,0.24 v 2.36 c 0,0.17 0,0.24 -0.11,0.24 -0.04,0 -0.08,0 -0.16,-0.12 z"
   inkscape:connector-curvature="0"
   style="fill:#000000;stroke-width:0" />
<path
   id="path35572"
   d="m 242.72,713.64 0.01,-0.01 v -5.73 c 0,-0.36 -0.02,-0.47 -0.79,-0.47 h -0.24 v -0.31 c 1.44,0 0.37,0.03 1.05,0.03 0.39,0 0.77,0 1.44,0 l 0.37,0.28 h -0.24 c -0.77,0 -0.79,0.11 -0.79,0.47 v 5.25 c 0,0.36 0.02,0.47 0.79,0.47 h 0.24 v 0.31 h -1.68 c -0.23,0 -0.26,0 -0.34,-0.19 l -2.31,-5.67 -2.32,5.68 c -0.06,0.18 -0.12,0.18 -0.33,0.18 h -1.69 v -0.31 h 0.24 c 0.77,0 0.79,-0.11 0.79,-0.47 v -4.98 c 0,-0.27 0,-0.74 -1.03,-0.74 v -0.31 c 1.17,0 0.35,0.01 0.84,0.03 0.33,0 0.66,0 1.15,-0.02 l 0.34,0.3 c -1.02,0 -1.02,0.47 -1.02,0.74 v 5.39 l 0.01,0.01 2.55,-6.27 c 0.04,-0.09 0.09,-0.18 0.19,-0.18 0.1,0 0.15,0.09 0.19,0.18 z"
   inkscape:connector-curvature="0"
   style="fill:#000000;stroke-width:0" />
<path
   id="path35574"
   d="m 249.44,710.27 0.12,0 0.11,0.01 0.11,0.01 0.12,0.02 0.11,0.02 0.1,0.02 0.11,0.03 0.11,0.03 0.1,0.03 0.1,0.04 0.1,0.04 0.1,0.05 0.1,0.05 0.09,0.05 0.09,0.06 0.08,0.06 0.08,0.06 0.08,0.06 0.07,0.07 0.07,0.07 0.07,0.08 0.06,0.07 0.05,0.08 0.05,0.08 0.05,0.08 0.04,0.09 0.03,0.08 0.03,0.09 0.03,0.09 0.01,0.09 0.01,0.1 0,0.09 c 0,0.99 -1.05,1.86 -2.46,1.86 h -3.63 v -0.31 h 0.24 c 0.76,0 0.78,-0.11 0.78,-0.47 v -5.25 c 0,-0.36 -0.02,-0.47 -0.78,-0.47 h -0.24 v -0.31 c 1.46,0 0.35,0.03 1.08,0.03 0.38,0 0.76,0 1.51,0 l 0.35,0.28 h -0.24 c -0.77,0 -0.79,0.11 -0.79,0.47 v 2.37 l -0.03,0.26 v 2.69 c 0,0.33 0.02,0.4 0.49,0.4 h 1 c 1.7,0 1.7,-1.1 1.7,-1.55 0,-0.42 0,-1.54 -1.7,-1.54 h -1.49 l 0.03,-0.26 z"
   inkscape:connector-curvature="0"
   style="fill:#000000;stroke-width:0" />
<path
   id="path35576"
   d="m 255.85,704.73 -0.01,0.01 0,0 0,0.01 0,0 0,0 0,0 0,0.01 0,0 0,0.01 0,0 -0.01,0 0,0.01 0,0 -0.01,0.01 0,0 -0.01,0.01 0,0.01 -0.01,0 0,0.01 0,0 -0.01,0.01 0,0 0,0.01 -0.01,0 0,0 -0.01,0.01 0,0 -0.01,0.01 0,0 -0.01,0.01 0,0.01 -0.01,0 0,0.01 -0.01,0 0,0.01 -0.01,0.01 -0.01,0 0,0.01 -0.01,0.01 -0.01,0.01 -0.01,0 0,0.01 c -1.25,1.26 -1.57,3.14 -1.57,4.66 0,1.74 0.38,3.47 1.61,4.72 0.13,0.12 0.13,0.14 0.13,0.16 0,0.08 -0.05,0.1 -0.11,0.1 -0.09,0 -0.99,-0.67 -1.58,-1.94 -0.51,-1.09 -0.63,-2.2 -0.63,-3.04 0,-0.77 0.11,-1.98 0.66,-3.1 0.6,-1.23 1.46,-1.88 1.55,-1.88 0.06,0 0.11,0.03 0.11,0.1 z"
   inkscape:connector-curvature="0"
   style="fill:#000000;stroke-width:0" />
<path
   id="path35578"
   d="m 259.25,713.35 0,0.02 0,0.02 -0.01,0.01 0,0.02 0,0.02 -0.01,0.02 0,0.01 -0.01,0.02 -0.01,0.01 0,0.02 -0.01,0.02 -0.01,0.01 -0.01,0.01 -0.01,0.02 -0.01,0.01 -0.01,0.01 -0.01,0.01 -0.02,0.02 -0.01,0.01 -0.01,0.01 -0.02,0.01 -0.01,0 -0.02,0.01 -0.02,0.01 -0.02,0.01 -0.01,0 -0.02,0.01 -0.02,0 -0.02,0 -0.02,0.01 -0.02,0 -0.02,0 c -0.27,0 -0.54,-0.26 -0.54,-0.53 0,-0.19 0.14,-0.36 0.38,-0.36 0.23,0 0.53,0.23 0.53,0.53 z"
   inkscape:connector-curvature="0"
   style="fill:#000000;stroke-width:0" />
<path
   id="path35580"
   d="m 258.49,709.6 0.01,0.03 0.01,0.02 0.01,0.03 0.01,0.02 0.01,0.02 0.01,0.02 0,0.02 0.01,0.02 0.01,0.01 0,0.02 0.01,0.02 0.01,0.01 0,0.02 0.01,0.01 0.01,0.03 0.01,0.03 0.01,0.03 0,0.01 0.01,0.02 0,0.01 0.01,0.02 0.01,0.01 0,0.02 0.01,0.02 0.01,0.02 0,0.02 0.01,0.02 0.01,0.03 0.01,0.02 c 0.08,0.2 0.13,0.34 0.13,0.53 0,0.45 -0.32,0.82 -0.82,0.82 -0.94,0 -1.31,-1.45 -1.31,-1.54 0,-0.1 0.1,-0.1 0.12,-0.1 0.1,0 0.11,0.02 0.15,0.18 0.27,0.94 0.67,1.24 1.01,1.24 0.08,0 0.25,0 0.25,-0.32 0,-0.21 -0.07,-0.42 -0.11,-0.52 -0.08,-0.26 -0.53,-1.42 -0.69,-1.84 -0.1,-0.26 -0.23,-0.59 -0.23,-0.8 0,-0.47 0.34,-0.82 0.82,-0.82 0.94,0 1.31,1.45 1.31,1.54 0,0.1 -0.09,0.1 -0.12,0.1 -0.1,0 -0.1,-0.03 -0.15,-0.18 -0.18,-0.63 -0.51,-1.24 -1.02,-1.24 -0.17,0 -0.24,0.1 -0.24,0.33 0,0.25 0.06,0.39 0.29,1 z"
   inkscape:connector-curvature="0"
   style="fill:#000000;stroke-width:0" />
<path
   id="path35582"
   d="m 269.46,710.38 0.03,0 0.03,0 0.03,0 0.02,0 0.01,0 0.01,0 0.02,0.01 0.01,0 0.02,0 0.01,0 0.01,0.01 0.02,0 0.01,0.01 0.01,0 0.01,0.01 0.01,0 0.02,0.01 0.01,0.01 0,0 0.01,0.01 0.01,0.01 0,0.01 0.01,0.01 0,0 0,0.01 0.01,0 0,0.01 0,0.01 0,0 0.01,0.01 0,0.01 0,0.01 0,0 0,0.01 0,0.01 0,0.01 0,0.01 c 0,0.2 -0.19,0.2 -0.33,0.2 h -5.96 c -0.14,0 -0.33,0 -0.33,-0.2 0,-0.2 0.19,-0.2 0.34,-0.2 z"
   inkscape:connector-curvature="0"
   style="fill:#000000;stroke-width:0" />
<path
   id="path35584"
   d="m 269.47,708.45 0.03,0 0.03,0 0.03,0 0.01,0 0.01,0 0.02,0 0.01,0 0.02,0.01 0.01,0 0.01,0 0.02,0 0.01,0.01 0.01,0 0.01,0.01 0.01,0 0.02,0.01 0.01,0.01 0.01,0 0,0.01 0.01,0.01 0.01,0.01 0,0 0,0.01 0.01,0 0,0.01 0,0 0.01,0.01 0,0.01 0,0 0,0.01 0.01,0.01 0,0.01 0,0 0,0.01 0,0.01 0,0.01 0,0.01 0,0.01 c 0,0.2 -0.19,0.2 -0.34,0.2 h -5.94 c -0.15,0 -0.34,0 -0.34,-0.2 0,-0.2 0.19,-0.2 0.33,-0.2 z"
   inkscape:connector-curvature="0"
   style="fill:#000000;stroke-width:0" />
<path
   id="path35586"
   d="m 274.01,707.71 0,-0.01 0,-0.02 -0.01,-0.01 0,-0.02 -0.01,-0.03 0,-0.03 -0.01,-0.04 -0.01,-0.03 -0.01,-0.03 0,-0.03 -0.01,-0.02 0,-0.01 0,-0.02 -0.01,-0.01 0,-0.01 0,-0.02 -0.01,-0.01 0,-0.01 0,-0.01 0,-0.01 0,-0.01 -0.01,-0.01 0,-0.01 0,-0.01 0,0 0,-0.01 c 0,-0.18 0.14,-0.27 0.29,-0.27 0.12,0 0.3,0.08 0.37,0.28 0.01,0.02 0.13,0.49 0.19,0.74 l 0.22,0.9 c 0.06,0.22 0.12,0.43 0.17,0.66 0.04,0.17 0.12,0.46 0.13,0.5 0.15,0.31 0.67,1.22 1.62,1.22 0.45,0 0.54,-0.37 0.54,-0.7 0,-0.25 -0.07,-0.53 -0.15,-0.83 l -0.28,-1.15 -0.2,-0.76 c -0.04,-0.2 -0.13,-0.54 -0.13,-0.59 0,-0.18 0.14,-0.27 0.29,-0.27 0.31,0 0.37,0.25 0.45,0.57 0.14,0.56 0.51,2.01 0.6,2.4 0.03,0.13 0.55,1.33 1.64,1.33 0.43,0 0.54,-0.34 0.54,-0.7 0,-0.57 -0.42,-1.7 -0.62,-2.23 -0.09,-0.24 -0.13,-0.35 -0.13,-0.55 0,-0.47 0.35,-0.82 0.82,-0.82 0.93,0 1.3,1.46 1.3,1.54 0,0.1 -0.09,0.1 -0.12,0.1 -0.1,0 -0.1,-0.03 -0.15,-0.18 -0.14,-0.53 -0.46,-1.24 -1.01,-1.24 -0.17,0 -0.24,0.1 -0.24,0.33 0,0.25 0.09,0.49 0.18,0.71 0.19,0.52 0.61,1.62 0.61,2.19 0,0.65 -0.4,1.07 -1.15,1.07 -0.75,0 -1.25,-0.44 -1.62,-0.97 -0.01,0.13 -0.04,0.47 -0.32,0.71 -0.25,0.21 -0.57,0.26 -0.82,0.26 -0.9,0 -1.38,-0.64 -1.55,-0.87 -0.05,0.57 -0.47,0.87 -0.92,0.87 -0.46,0 -0.65,-0.39 -0.74,-0.57 -0.18,-0.35 -0.31,-0.94 -0.31,-0.97 0,-0.1 0.1,-0.1 0.12,-0.1 0.1,0 0.11,0.01 0.17,0.23 0.17,0.71 0.37,1.19 0.73,1.19 0.16,0 0.31,-0.08 0.31,-0.46 0,-0.21 -0.03,-0.32 -0.16,-0.84 z"
   inkscape:connector-curvature="0"
   style="fill:#000000;stroke-width:0" />
<path
   id="path35588"
   d="m 285.18,704.73 0,0.01 0,0 0,0.01 0,0 0,0 0,0 -0.01,0.01 0,0 0,0.01 0,0 0,0 -0.01,0.01 0,0 0,0.01 -0.01,0 0,0.01 -0.01,0.01 0,0 -0.01,0.01 0,0 0,0.01 -0.01,0 0,0.01 -0.01,0 0,0 0,0.01 -0.01,0 0,0.01 -0.01,0 0,0.01 -0.01,0.01 0,0 -0.01,0.01 -0.01,0 0,0.01 -0.01,0.01 -0.01,0 0,0.01 -0.01,0.01 -0.01,0.01 0,0 -0.01,0.01 c -1.25,1.26 -1.57,3.14 -1.57,4.66 0,1.74 0.38,3.47 1.61,4.72 0.13,0.12 0.13,0.14 0.13,0.16 0,0.08 -0.04,0.1 -0.1,0.1 -0.1,0 -1,-0.67 -1.59,-1.94 -0.5,-1.09 -0.62,-2.2 -0.62,-3.04 0,-0.77 0.11,-1.98 0.65,-3.1 0.6,-1.23 1.46,-1.88 1.56,-1.88 0.06,0 0.1,0.03 0.1,0.1 z"
   inkscape:connector-curvature="0"
   style="fill:#000000;stroke-width:0" />
<path
   id="path35590"
   d="m 287.81,711.11 h 0.94 c 0.2,0 0.3,0 0.3,0.2 0,0.11 -0.1,0.11 -0.28,0.11 h -0.88 c 0.36,1.41 0.41,1.61 0.41,1.67 0,0.17 -0.12,0.27 -0.29,0.27 -0.03,0 -0.31,-0.01 -0.4,-0.36 l -0.39,-1.58 h -0.93 c -0.2,0 -0.3,0 -0.3,-0.19 0,-0.12 0.08,-0.12 0.28,-0.12 h 0.87 c -0.72,-2.83 -0.75,-3 -0.75,-3.18 0,-0.54 0.37,-0.92 0.91,-0.92 1.02,0 1.59,1.46 1.59,1.54 0,0.1 -0.08,0.1 -0.12,0.1 -0.09,0 -0.1,-0.03 -0.15,-0.14 -0.43,-1.04 -0.96,-1.28 -1.3,-1.28 -0.21,0 -0.31,0.13 -0.31,0.46 0,0.24 0.02,0.31 0.06,0.48 z"
   inkscape:connector-curvature="0"
   style="fill:#000000;stroke-width:0" />
<path
   id="path35592"
   d="m 292.24,709.61 0,0.08 0,0.07 -0.01,0.08 0,0.08 -0.01,0.17 -0.01,0.18 -0.02,0.18 -0.02,0.19 -0.02,0.2 -0.04,0.2 -0.04,0.2 -0.04,0.21 -0.06,0.21 -0.06,0.21 -0.07,0.21 -0.08,0.22 -0.04,0.1 -0.04,0.11 -0.05,0.11 -0.05,0.1 c -0.6,1.23 -1.45,1.87 -1.56,1.87 -0.06,0 -0.1,-0.04 -0.1,-0.1 0,-0.02 0,-0.04 0.19,-0.22 0.98,-0.99 1.55,-2.57 1.55,-4.66 0,-1.7 -0.37,-3.45 -1.61,-4.71 -0.13,-0.12 -0.13,-0.14 -0.13,-0.17 0,-0.06 0.04,-0.1 0.1,-0.1 0.11,0 1,0.68 1.59,1.95 0.51,1.09 0.63,2.2 0.63,3.03 z"
   inkscape:connector-curvature="0"
   style="fill:#000000;stroke-width:0" />
<path
   id="path35594"
   d="m 295.25,707.13 0,0.06 0,0.06 -0.01,0.06 0,0.06 -0.01,0.05 -0.01,0.05 0,0.05 -0.01,0.05 -0.02,0.05 -0.01,0.05 -0.01,0.04 -0.02,0.04 -0.02,0.04 -0.01,0.04 -0.02,0.04 -0.02,0.03 -0.02,0.04 -0.03,0.03 -0.02,0.02 -0.03,0.03 -0.02,0.03 -0.03,0.02 -0.03,0.02 -0.02,0.02 -0.03,0.01 -0.03,0.02 -0.04,0.01 -0.03,0.01 -0.03,0.01 -0.04,0 -0.03,0.01 -0.04,0 c -0.33,0 -0.53,-0.25 -0.53,-0.53 0,-0.27 0.2,-0.53 0.53,-0.53 0.12,0 0.25,0.04 0.35,0.13 0.03,0.02 0.04,0.03 0.05,0.03 0.01,0 0.02,-0.01 0.02,-0.15 0,-0.73 -0.35,-1.33 -0.68,-1.66 -0.11,-0.11 -0.11,-0.13 -0.11,-0.16 0,-0.07 0.05,-0.11 0.1,-0.11 0.11,0 0.91,0.77 0.91,1.93 z"
   inkscape:connector-curvature="0"
   style="fill:#000000;stroke-width:0" />
<path
   id="path35596"
   d="m 298.54,707.71 -0.01,-0.01 0,-0.02 0,-0.01 -0.01,-0.02 0,-0.03 -0.01,-0.03 -0.01,-0.04 0,-0.03 -0.01,-0.03 -0.01,-0.03 0,-0.02 -0.01,-0.01 0,-0.02 0,-0.01 -0.01,-0.01 0,-0.02 0,-0.01 0,-0.01 -0.01,-0.01 0,-0.01 0,-0.01 0,-0.01 0,-0.01 0,-0.01 0,0 0,-0.01 c 0,-0.18 0.14,-0.27 0.29,-0.27 0.12,0 0.3,0.08 0.37,0.28 0,0.02 0.12,0.49 0.18,0.74 l 0.22,0.9 c 0.06,0.22 0.12,0.43 0.17,0.66 0.04,0.17 0.12,0.46 0.13,0.5 0.15,0.31 0.68,1.22 1.63,1.22 0.44,0 0.53,-0.37 0.53,-0.7 0,-0.25 -0.07,-0.53 -0.15,-0.83 l -0.27,-1.15 -0.2,-0.76 c -0.04,-0.2 -0.13,-0.54 -0.13,-0.59 0,-0.18 0.14,-0.27 0.29,-0.27 0.3,0 0.36,0.25 0.44,0.57 0.14,0.56 0.51,2.01 0.6,2.4 0.03,0.13 0.56,1.33 1.65,1.33 0.42,0 0.53,-0.34 0.53,-0.7 0,-0.57 -0.41,-1.7 -0.61,-2.23 -0.09,-0.24 -0.13,-0.35 -0.13,-0.55 0,-0.47 0.34,-0.82 0.81,-0.82 0.94,0 1.31,1.46 1.31,1.54 0,0.1 -0.09,0.1 -0.12,0.1 -0.1,0 -0.1,-0.03 -0.15,-0.18 -0.15,-0.53 -0.47,-1.24 -1.02,-1.24 -0.17,0 -0.24,0.1 -0.24,0.33 0,0.25 0.09,0.49 0.18,0.71 0.19,0.52 0.61,1.62 0.61,2.19 0,0.65 -0.4,1.07 -1.14,1.07 -0.75,0 -1.26,-0.44 -1.63,-0.97 -0.01,0.13 -0.04,0.47 -0.32,0.71 -0.25,0.21 -0.57,0.26 -0.81,0.26 -0.9,0 -1.39,-0.64 -1.56,-0.87 -0.05,0.57 -0.47,0.87 -0.92,0.87 -0.45,0 -0.64,-0.39 -0.73,-0.57 -0.18,-0.35 -0.31,-0.94 -0.31,-0.97 0,-0.1 0.1,-0.1 0.12,-0.1 0.1,0 0.11,0.01 0.17,0.23 0.17,0.71 0.37,1.19 0.72,1.19 0.17,0 0.31,-0.08 0.31,-0.46 0,-0.21 -0.03,-0.32 -0.16,-0.84 z"
   inkscape:connector-curvature="0"
   style="fill:#000000;stroke-width:0" />
<path
   id="path35598"
   d="m 309.28,709.61 0,0.08 0,0.07 0,0.08 0,0.08 -0.01,0.17 -0.01,0.18 -0.02,0.18 -0.02,0.19 -0.03,0.2 -0.03,0.2 -0.04,0.2 -0.04,0.21 -0.06,0.21 -0.06,0.21 -0.07,0.21 -0.08,0.22 -0.04,0.1 -0.05,0.11 -0.04,0.11 -0.05,0.1 c -0.6,1.23 -1.46,1.87 -1.56,1.87 -0.06,0 -0.1,-0.04 -0.1,-0.1 0,-0.02 0,-0.04 0.19,-0.22 0.98,-0.99 1.55,-2.57 1.55,-4.66 0,-1.7 -0.37,-3.45 -1.61,-4.71 -0.13,-0.12 -0.13,-0.14 -0.13,-0.17 0,-0.06 0.04,-0.1 0.1,-0.1 0.1,0 1,0.68 1.59,1.95 0.51,1.09 0.62,2.2 0.62,3.03 z"
   inkscape:connector-curvature="0"
   style="fill:#000000;stroke-width:0" />
</g>  </g>
</svg>
